<svg xmlns="http://www.w3.org/2000/svg" width="377" height="50" viewBox="0 0 377 50" preserveAspectRatio="xMinYMin meet"><defs><linearGradient id="a" x1="134.293%" x2="-7.005%" y1="14.196%" y2="157.959%"><stop offset="0%" stop-color="#FFFFFE"/><stop offset="100%" stop-color="#B29566"/></linearGradient><linearGradient id="b" x1="113.009%" x2="-29.12%" y1="-7.604%" y2="135.449%"><stop offset="0%" stop-color="#FFFFFE"/><stop offset="100%" stop-color="#B29566"/></linearGradient><linearGradient id="c" x1="94.811%" x2="-11.119%" y1="6.471%" y2="149.722%"><stop offset="0%" stop-color="#FFFFFE"/><stop offset="100%" stop-color="#B29566"/></linearGradient><linearGradient id="d" x1="113.075%" x2="-29.115%" y1="-7.521%" y2="135.436%"><stop offset="0%" stop-color="#FFFFFE"/><stop offset="100%" stop-color="#B29566"/></linearGradient></defs><g fill="none" fill-rule="evenodd"><path fill="#D8232A" d="M356.545 2.807v13.685h2.51l6.086-13.685h11.101l-7.34 13.685c6.091.574 7.34 1.973 7.34 4.265v26.606h-11.1v-28.96h-8.597v28.96h-11.1V2.807h11.1zm-37.958 0v13.685h8.592V2.807h11.102v44.556H327.18v-28.96h-8.592v28.96h-11.103V2.807h11.103zm-37.962 13.686h8.596V4.715h-8.596v11.778zM269.524 6.307c0-3.053 6.27-3.5 11.1-3.5h8.597c4.834 0 11.1.447 11.1 3.5v41.056h-11.1v-28.96h-8.596v28.96h-11.101V6.307zm-26.857 39.149h8.594V11.08h-8.594v34.375zm17.37-42.649v1.908h-17.37v4.454h8.594c10.03 0 11.107 2.294 11.107 3.509v31.181c0 1.213-1.077 3.504-11.107 3.504h-19.695V2.807h28.47zM218.35 47.364V9.347h-5.418v38.017h-7v-17.74c0-11.529 1.469-18.627 9.709-27.564 8.24 8.937 9.71 16.035 9.71 27.565v17.739h-7.001zm-31.04-1.901h5.419V11.25h-5.418v34.213zm10.95-42.452v1.904h-10.95v4.433h5.419c6.322 0 6.998 2.282 6.998 3.485v31.045c0 1.203-.676 3.485-6.998 3.485H180.31V3.011h17.95zm-37.135 42.452h5.42V4.915h-5.42v40.548zm12.417-1.585c0 1.203-.679 3.485-7 3.485h-5.417c-6.326 0-7.002-2.282-7.002-3.485V6.496c0-3.039 3.95-3.485 7.002-3.485h5.418c3.046 0 6.999.446 6.999 3.485v37.382zm-26.189 0c0 1.204-.678 3.486-7 3.486h-5.42c-6.32 0-6.997-2.282-6.997-3.485V6.495c0-3.037 3.95-3.483 6.997-3.483h5.42c3.048 0 7 .446 7 3.483v7.222h-7V4.916h-5.42v40.548h5.42V21.386h7v22.493zm-38.605 1.585h5.418V4.915h-5.418v40.548zm12.416-1.585c0 1.203-.678 3.485-6.998 3.485h-5.418c-6.322 0-7-2.282-7-3.485V6.496c0-3.039 3.95-3.485 7-3.485h5.418c3.046 0 6.998.446 6.998 3.485v37.382zM87.98 47.364V11.188l-5.533 4.753v31.423H75.45V15.94l-5.533-4.753v36.176h-7V2.06l16.03 13.496L94.977 2.06v45.304h-6.997z"/><path fill="#FFFFFE" d="M50 25.001C50 38.806 38.808 50 25.001 50 11.195 50 0 38.806 0 25.001 0 11.194 11.195 0 25.001 0 38.808 0 50 11.194 50 25.001"/><path fill="#D8232A" d="M1.478 25.003C1.5 37.978 12.005 48.508 24.999 48.508c12.993 0 23.497-10.53 23.521-23.505C48.496 12.024 37.992 1.496 25 1.496c-12.997 0-23.5 10.528-23.522 23.507m-1.478 0C0 11.187 11.197.027 25 0c13.8.027 24.998 11.187 25 25.003C49.998 38.81 38.8 49.977 25 50 11.196 49.977 0 38.811 0 25.003"/><path fill="#D9292A" d="M22.69 16.228v4.904L12.17 31.55V16.228L17.431 11l5.258 5.228zm14.32 0l.037 4.904-5.721 5.678-5.705-5.667v-4.915L20.367 11h11.385l5.258 5.228zM24.155 22.128l.002 1.761 4.169 4.141-7.973 7.924h-8.331L9 37.198h11.876l9.216-9.168zM37.233 25.134v10.819l-10.877-.002-3.024 1.248h15.154V22.127z"/><path fill="url(#a)" d="M26.255 35.954l10.991-.008-.014-10.789z"/><path fill="url(#b)" d="M23.333 37.202l3.04-1.248 10.859-10.797 1.256-3.003z"/><path fill="url(#c)" d="M12.001 35.957l8.365.011 7.951-7.932-4.153-4.125z"/><path fill="url(#d)" d="M9.001 37.207l3.074-1.253 12.089-12.043-.004-1.776z"/></g></svg>