<svg xmlns="http://www.w3.org/2000/svg" width="163" height="50" viewBox="0 0 163 50" preserveAspectRatio="xMinYMin meet"><path fill="#00529B" d="M161.533 48.817c.392.09 1.467.225 1.467.225v.678s-4.03.002-4.044-.014c0-.156-.11-.912-.29-1.368l-1.14-2.959c-.576-1.5-1.319-2.43-2.924-2.442h-.65v5.072c0 .547.326.669.447.691l1.39.322v.692h-5.712v-.69l1.388-.322c.125-.023.446-.144.446-.692V37.22c0-.547-.321-.669-.446-.689l-1.388-.325v-.689h5.711v.689l-1.389.325c-.12.02-.447.142-.447.689v4.628h.839c.346 0 .815-.024 1.222-.326.35-.244.631-.69.916-1.34l1.045-2.415c.24-.546.526-1.314 1.077-1.864.468-.467.978-.667 1.548-.667.941 0 1.592.526 1.592 1.4 0 .614-.443 1.195-1.045 1.195-.605 0-.605-.61-1.038-.61-.344 0-.57.186-.774.428-.059.081-.262.343-.531.993l-.83 1.986c-.311.712-.697 1.384-1.514 1.744v.035a3.315 3.315 0 012.043 1.086c.256.299.617.806 1.193 2.098l1.255 2.795s.216.349.58.43l.003.001zM139.887 35.52v.686l-1.389.328c-.124.02-.447.143-.447.688v4.422h6.525v-4.423c0-.547-.326-.669-.45-.688l-1.385-.326v-.688h5.709v.686l-1.383.328c-.125.02-.449.143-.449.688v10.79c0 .547.324.67.449.692l1.385.32v.692h-5.71v-.692l1.386-.32c.122-.023.45-.145.45-.693v-5.273h-6.526v5.272c0 .547.323.669.448.692l1.387.32v.692h-5.71v-.692l1.384-.32c.124-.023.45-.145.45-.693v-10.79c0-.547-.326-.67-.45-.689l-1.383-.326v-.688h5.71v.005zm-13.38-.284c.062.326.163.648.309.992l4.688 11.602c.124.284.347.626.59.83.206.163.513.326.857.363v.692h-4.953v-.692l1.02-.2c.163-.044.427-.164.427-.507 0-.186-.084-.349-.147-.486l-1.263-3.267h-4.61l-1.12 3.204c-.101.305-.122.447-.122.57 0 .16.1.426.387.485l.873.201v.692h-4.157v-.692l.425-.118c.268-.082.594-.264.821-.469.264-.263.427-.628.51-.83l4.303-11.377c.14-.363.222-.607.305-.992h.854l.003-.001zm1.144 8.23v.003l-1.937-5.152h-.04l-1.814 5.15h3.79zm-9.995-7.949v3.247h-.815l-.264-1.26a1.065 1.065 0 00-.43-.647c-.266-.183-.755-.244-1.06-.244h-3.956V41.6a16.216 16.216 0 012.368-.204c1.117 0 2.507.165 3.69 1.096 1.06.852 1.487 1.907 1.487 3.086 0 1.497-.691 2.45-1.345 2.998-.917.75-2.367 1.136-3.667 1.136h-6.408v-.692l1.389-.32c.123-.023.449-.145.449-.693v-10.79c0-.547-.326-.67-.45-.689l-1.388-.326v-.688h10.403l-.003.002zm-6.523 12.82l.002-.001c.594.27 1.24.408 1.893.404 1.326 0 2.104-.424 2.53-.812.55-.485.96-1.256.96-2.372 0-1.032-.41-1.905-.961-2.41-.426-.39-1.18-.774-2.364-.774-.698.01-1.392.12-2.06.326v5.64zm-18.6-12.82c.081.75.265 1.134.452 1.582l3.973 9.59H97l4.221-9.59c.326-.77.426-1.157.447-1.582h3.59v.686l-1.387.328c-.306.062-.468.326-.448.689l.369 10.79c0 .203.038.588.448.692l1.386.32v.692h-5.71v-.692l1.385-.32c.472-.104.454-.53.454-.693l-.227-8.942h-.04l-4.18 9.67a4.718 4.718 0 00-.37 1.26h-.816a4.73 4.73 0 00-.365-1.26L91.62 39.07h-.046l-.261 8.942c-.021.365.14.628.448.691l1.386.32v.692h-4.65v-.692l1.185-.32c.407-.124.447-.45.447-.693l.41-10.79c.017-.363-.166-.628-.447-.689l-1.386-.325v-.689h3.83-.004zm-7.378 1.524c1.324 1.418 1.874 3.544 1.874 5.574 0 2.028-.55 4.158-1.874 5.577-1.388 1.482-3.1 1.808-4.609 1.808-1.506 0-3.225-.326-4.607-1.807-1.327-1.419-1.878-3.549-1.878-5.577 0-2.03.552-4.156 1.878-5.575 1.383-1.48 3.1-1.805 4.607-1.805 1.51 0 3.222.326 4.611 1.805h-.002zm-1.27 10.035v.002c.7-1.197.982-2.92.982-4.462 0-1.543-.283-3.266-.981-4.459-.71-1.219-1.712-1.951-3.342-1.951-1.631 0-2.631.732-3.345 1.951-.695 1.192-.978 2.916-.978 4.46 0 1.542.283 3.263.978 4.46.714 1.217 1.715 1.946 3.345 1.946 1.63 0 2.631-.73 3.342-1.947zm-12.28 1.741c.392.09 1.469.225 1.469.225v.678s-4.029.002-4.045-.014c0-.156-.11-.912-.29-1.368l-1.142-2.959c-.57-1.5-1.316-2.43-2.922-2.442h-.649v5.072c0 .547.326.669.45.691l1.385.322v.692h-5.71v-.69l1.385-.322c.123-.023.45-.144.45-.692V37.22c0-.547-.326-.669-.45-.689l-1.385-.325v-.689h5.71v.689l-1.385.325c-.124.02-.451.142-.451.689v4.628h.836c.35 0 .817-.024 1.222-.326.35-.244.635-.69.92-1.34l1.041-2.415c.245-.546.53-1.314 1.083-1.864.466-.467.978-.667 1.548-.667.94 0 1.59.526 1.59 1.4 0 .614-.44 1.195-1.042 1.195-.608 0-.608-.61-1.039-.61-.346 0-.568.186-.775.428-.058.081-.262.343-.528.993l-.838 1.986c-.306.712-.692 1.384-1.507 1.744v.035a3.315 3.315 0 012.04 1.086c.256.299.62.806 1.197 2.098l1.254 2.795s.212.349.576.43l.002.001zm-22.057-13.3v.686l-1.385.328c-.123.02-.448.143-.448.689v8.802l6.933-8.558v-.244c0-.547-.326-.669-.449-.689l-1.389-.325v-.689h5.711v.686l-1.385.328c-.121.02-.448.143-.448.689v10.79c0 .547.326.67.448.692l1.385.32v.692h-5.708v-.692l1.388-.32c.12-.023.448-.145.448-.693v-8.924l-6.932 8.558v.365c0 .547.326.669.446.692l1.385.32v.692h-5.707v-.692l1.385-.32c.122-.023.45-.145.45-.693v-10.79c0-.547-.326-.67-.45-.69l-1.385-.325v-.688h5.708v.003zm-15.942.002c.853 0 1.223-.02 1.976-.082.533-.037 1.165-.122 1.956-.122 1.045 0 2.224.144 3.082.933.614.57.98 1.465.98 2.416a3.288 3.288 0 01-.777 2.11c-.448.504-1.165.89-1.712 1.075v.038c.815.125 1.612.485 2.122.912.55.465 1.18 1.318 1.18 2.781 0 1.497-.675 2.45-1.345 2.998-.92.75-2.365 1.136-3.667 1.136h-6.408v-.692l1.385-.32c.121-.023.452-.145.452-.693V37.22c0-.547-.33-.669-.452-.689l-1.385-.325v-.689h2.612l.001.003zm1.264 6.003h1.443c.655 0 1.634-.043 2.408-.75.49-.446.836-1.158.836-1.988 0-.81-.284-1.442-.693-1.826-.671-.651-1.591-.67-2.119-.67-.652 0-1.263.1-1.874.303v4.93l-.001.001zm0 6.854h-.003c.549.245 1.08.364 1.813.364.838 0 1.959-.141 2.757-.952.608-.61.815-1.36.815-2.168 0-.832-.226-1.667-.715-2.213-.732-.79-1.832-.872-2.426-.872H34.87v5.84zm-7.628-11.334c1.328 1.418 1.877 3.544 1.877 5.574 0 2.028-.55 4.158-1.877 5.577-1.385 1.48-3.097 1.807-4.61 1.807-1.508 0-3.22-.326-4.605-1.807-1.327-1.419-1.88-3.549-1.88-5.577 0-2.03.553-4.156 1.879-5.575 1.385-1.48 3.097-1.805 4.606-1.805 1.51 0 3.222.326 4.608 1.805h.002zm-1.264 10.035l-.002.002c.695-1.196.98-2.92.98-4.462 0-1.543-.285-3.266-.98-4.459-.713-1.218-1.714-1.951-3.344-1.951s-2.63.733-3.345 1.951c-.692 1.192-.978 2.916-.978 4.46 0 1.542.286 3.263.978 4.461.715 1.216 1.716 1.945 3.346 1.945 1.63 0 2.632-.73 3.345-1.947zM5.708 35.519v.686l-1.385.328c-.123.02-.448.143-.448.688v4.422H10.4v-4.422c0-.547-.326-.669-.45-.688l-1.385-.326v-.688h5.71v.686l-1.386.328c-.124.02-.45.143-.45.688v10.79c0 .547.326.67.449.692l1.385.32v.692H8.565v-.692l1.385-.32c.124-.023.45-.145.45-.693v-5.273H3.875v5.272c0 .547.326.669.448.692l1.386.32v.692H0v-.692l1.386-.32c.122-.023.449-.145.449-.693v-10.79c0-.547-.326-.67-.448-.689L0 36.207v-.688h5.709zm11.655-8.38c1.773.18 4.157-1.275 7.17-4.625a99.872 99.872 0 006.196-7.644v11.367c-.15 1.26-1.273 2.247-2.637 2.247H6.3c1.683-1.519 3.499-3.719 5.146-6.248 1.658-2.526 1.937-3.286 3.095-5.798.466-.179 1.82-.616 2.823-.883-1.216 2.453-2.486 5.52-2.61 7.314-.214 2.502.843 4.096 2.611 4.272v-.001zm-6.283-9.554s-2.131 4.086-3.628 5.988c-.839 1.017-4.025 6.213-6.239 4.535-2.125-2.113 3.335-6.482 4.41-7.235 1.861-1.467 5.457-3.287 5.457-3.287v-.001zM3.428 3.288C1.408 4.916.68 6.57.68 6.57V2.528C.68 1.14 1.882 0 3.35 0h20.708s-1.207.093-2.375 1.343c-.658.704-2.786 3.64-5.095 3.035-2.311-.6-1.856-2.5-4.149-3.131-2.285-.63-6.576.072-9.011 2.041zm21.464-1.325c1.092-.79.745-1.768-.05-1.963h3.25c1.215 0 2.238.786 2.552 1.849-1.824-.178-4.863.977-7.261 3.925-2.434 2.997-4.486 6.655-4.486 6.655s-1.883.54-2.865.834c.307-.636 1.677-3.263 3.985-6.535 1.95-2.764 3.94-4.093 4.875-4.768v.003zm-12.364 12.31C8.866 15.378 3.15 18.303.68 21.638V10.52c.9 1.345 2.082 2.15 3.626 2.517a8.158 8.158 0 005.623-.849 9.13 9.13 0 002.138-1.6c1.296-1.285.824-2.83-.233-3.141-1.065-.307-2.084.395-2.614 1.232-.532.84-1.239 1.874-3.507 1.874-1.14 0-2.489-.716-2.836-2.344C2.305 5.73 5.484 3.18 8.36 2.74c4.645-.709 3.474 2.355 5.693 3.9.559.41 2.03.902 3.368-.012-.71 1.004-3.73 5.616-4.892 7.647h-.001zm13.506-8.445c1.374-1.551 3.601-2.605 4.538-1.472.932 1.136-1.878 3.384-3.686 4.506-1.799 1.116-3.546 2.083-5.038 2.704.93-1.726 3.202-4.628 4.186-5.737v-.001zm.786 5.558c1.088-.735 2.844-2.084 3.908-3.142v4.36c-.838 1.015-5.658 6.403-7.657 8.241-3.415 3.132-5.708 2.66-4.823-.618a26.422 26.422 0 012.259-5.596c1.149-.44 4.054-1.716 6.313-3.244v-.001z"/></svg>