<svg xmlns="http://www.w3.org/2000/svg" width="253" height="50" viewBox="0 0 253 50" preserveAspectRatio="xMinYMin meet"><g fill="none" fill-rule="evenodd"><path fill="#53AE47" fill-rule="nonzero" d="M236.231 25.25c1.173-1.022 1.853-1.661 3.471-3.23 1.707-1.667 5.88-5.988 6.667-6.82l.54-.292h5.645l.148.441c-.492.44-.738.64-2.702 2.304-.786.645-1.269 1.132-2.198 1.965l-6.393 5.892 7.616 14.485-.294.387-5.453.152-.39-.298c-1.28-3.045-1.62-3.729-3.383-7.316l-3.435-6.967c-1.08 4.826-1.751 7.868-2.961 14.185l-.345.294-5.002.146-.245-.34 2.01-8.444.788-3.681c1.318-5.798 1.564-7.068 2.351-12.417l.344-.345c2.311-.296 2.842-.395 5.208-.881l.243.341-.53 2.434-.769 3.791-.93 4.214zm-8.462-8.006L227 21.035c-1.811 8.245-2.483 10.904-4.056 19.103l-.35.294-5 .147-.238-.342 2.014-8.444.585-2.766c-2.148-.05-4.294-.087-6.443-.087-1.675 0-2.952.022-4.258.06a354.685 354.685 0 00-2.292 11.139l-.347.294-5.006.147-.24-.341 2.01-8.445.791-3.681c1.32-5.796 1.567-7.067 2.354-12.416l.342-.345c2.301-.296 2.846-.395 5.195-.882l.252.342-.53 2.434-.76 3.792-.804 3.584c1.801.047 3.61.075 5.421.075 1.912 0 3.175-.033 5.294-.078.69-3.143.969-4.855 1.572-8.922l.34-.345c2.312-.296 2.845-.395 5.2-.882l.245.342-.522 2.432zm-34.955 16.954l3.557-15.892c-.748 0-1.476-.047-2.22-.047-1.623 0-4.826.1-7.743 2.068-5.172 3.535-5.27 9.888-5.27 10.13 0 2.36 1.277 6.15 5.77 6.15 1.324 0 3.003-.347 4.283-1.14.547-.332 1.086-.835 1.623-1.27zM202.235 15l-2.212 9.554c-1.728 7.577-2.076 9.44-3.06 15.305l-.352.345-4.634.1-.238-.349.344-1.969c-.838.687-3.012 2.512-7.2 2.512-5.028 0-9.12-3.552-9.12-9.7 0-3.882 1.878-8.118 3.944-10.573 4.59-5.378 10.945-5.666 15.48-5.666l6.809.047.24.394zM167.51 28.268c.346-1.425.586-2.855.586-4.234 0-4.987-3.204-5.82-5.023-5.82-7.745 0-8.736 12.029-8.736 13.855 0 3.946 2.368 5.668 5.034 5.668 5.281 0 7.249-5.423 8.139-9.47zm5.127 1.533c-1.082 4.247-4.1 11.594-13.365 11.594-6.557 0-10.153-3.406-10.153-10.11 0-.87.068-1.838.212-2.845.026-.251.064-.498.1-.756 1.782-11.115 6.598-21.655 17.167-21.758 1.41-.019 4.265-.161 6.206-.62l-.708 4.436c-1.952.503-5.054.764-6.859.776-2.249.022-3.802.876-4.878 1.91a8.331 8.331 0 00-1.265 1.58c-.32.506-.554.968-.723 1.316a15.59 15.59 0 014.7-.717c6.453 0 10.304 3.605 10.304 9.963 0 1.726-.295 3.502-.738 5.231z"/><path fill="#04663A" fill-rule="nonzero" d="M132.206 19.54c-1.654 0-3.514.057-4.334.057-.258 1.129-1.263 5.352-2.19 9.465-1.095 4.838-2.062 9.366-2.442 11.267l-.487.314c-2.519 0-5.756 0-8.34.05l-.29-.304c.529-2.115 1.881-7.878 3.174-13.589 1.304-5.756 2.424-11.423 2.79-13.016l.436-.363c2.775 0 5.581.106 12.475.106 5.402 0 10.629-.16 13.423-.211l.237.316c-.365 1.389-1.918 8.024-3.4 14.607-1.198 5.3-2.303 10.596-2.584 12.09l-.38.314c-2.21 0-6.276 0-8.394.05l-.228-.364c.456-1.795 1.454-5.964 2.612-11.111.883-3.91 1.777-8.078 2.129-9.622-.827 0-2.66-.055-4.207-.055zm-28.582 21.104c-2.47 0-6.533 0-8.24.05l-.291-.305c.479-1.648 1.633-6.075 2.855-11.48.982-4.373 1.86-8.229 2.197-9.983-2.067.05-5.256.05-6.81.106l-.279-.36c.407-1.336.985-3.651 1.347-5.04l.47-.263c1.377.052 6.615.105 10.826.105 5.096 0 10.048-.105 11.091-.158l.357.264c-.38 1.23-1.055 3.756-1.4 5.036l-.481.31c-2.038-.046-3.583-.046-6.52-.046-.257 1.123-1.053 4.424-2.373 10.286-.999 4.43-1.816 8.49-2.292 11.064l-.457.414zm-31.307.613c-5.343 0-13.038-1.696-10.248-14.046 1.044-4.634 4.245-14.458 17.412-14.458 12.806 0 10.9 10.497 10.106 14.201-2.354 10.44-8.73 14.303-17.27 14.303zm1.75-5.452c3.756 0 5.511-3.913 6.654-8.953.8-3.549 1.667-8.752-2.855-8.752-3.864 0-5.575 3.707-6.71 8.752-1.06 4.681-1.304 8.953 2.91 8.953z"/><path fill="#04663A" d="M0 24.99C0 11.2 11.166.013 24.942 0v9.031C16.148 9.041 9.02 16.185 9.02 24.99c0 8.814 7.14 15.965 15.954 15.965 8.757 0 15.95-7.083 15.95-16.025l9.03.01c0 13.85-11.18 25.042-24.98 25.042C11.177 49.982 0 38.79 0 24.99"/><path fill="#53AE47" fill-rule="nonzero" d="M13.955 24.99c0-6.123 4.962-11.084 11.077-11.084 6.12 0 11.083 4.96 11.083 11.084 0 6.121-4.963 11.08-11.083 11.08-6.115 0-11.077-4.959-11.077-11.08"/><path fill="#04663A" fill-rule="nonzero" d="M32.72 10.947a6.35 6.35 0 1112.698 0c0 3.507-2.84 6.36-6.349 6.36-3.507 0-6.35-2.853-6.35-6.36"/></g></svg>