<svg xmlns="http://www.w3.org/2000/svg" width="219" height="49" viewBox="0 0 219 49" preserveAspectRatio="xMinYMin meet"><defs><radialGradient id="a" cx="3.342%" cy="95.975%" r="96.837%" fx="3.342%" fy="95.975%" gradientTransform="matrix(1 0 0 .85576 0 .138)"><stop offset="0%" stop-color="#D6005E"/><stop offset="100%" stop-color="#E3448A"/></radialGradient></defs><g fill="none"><path fill="#323E48" d="M106.426 38.462V40h-2.69v6.923h-1.792V40h-2.69v-1.538h7.172zm-16.905 0h1.793v5.512l4.098-5.512h1.537v8.461h-1.665V41.41l-4.354 5.513H89.52v-8.461zm-11.654 6.923h.768c.769-1.154 1.153-2.693 1.153-5.513V38.59h5.89v6.923h1.154v3.333h-1.665V47.18h-5.763v1.667h-1.665v-3.461h.128zm6.147 0V40h-2.433c0 1.795-.128 3.59-.897 5.385h3.33zm-14.856-6.923h6.147V40h-4.482v1.667h3.586v1.538h-3.586v2.18h4.738v1.538h-6.403v-8.461zm-9.221 0h3.714c1.793 0 2.945 1.025 2.945 2.564 0 1.538-1.152 2.564-2.945 2.564H61.73v3.333h-1.793v-8.461zm3.586 3.59c.768 0 1.28-.385 1.28-1.026S64.292 40 63.524 40H61.73v2.051h1.793zm-13.576-3.59h1.793v3.333l3.074-3.333h2.177l-3.586 3.846 4.227 4.615h-2.178l-3.586-3.846v3.846h-1.92v-8.461zM203.632 20.64c0-5.385 4.226-8.974 9.349-8.974 2.049 0 3.586.384 5.123 1.154v3.205c-1.537-.77-2.946-1.154-4.611-1.154-3.33 0-6.147 2.307-6.147 5.769s2.69 5.77 6.147 5.77c1.921 0 3.458-.385 4.867-1.283v3.205c-1.665.898-3.33 1.41-5.507 1.41-4.995 0-9.221-3.717-9.221-9.102zm-19.595-8.59h3.842v6.667h8.709V12.05h3.842v17.18h-3.842v-7.18h-8.71v7.18h-3.841V12.05zm-2.69 13.975v2.82c-.512.385-1.408.513-2.177.513-1.665 0-3.074-.77-3.586-2.436-1.28 1.41-3.33 2.692-6.275 2.692-3.586 0-6.404-2.05-6.404-5.769 0-3.846 2.818-5 6.532-5h5.891v-.256c0-2.949-2.433-3.718-4.995-3.718-2.049 0-4.098.769-5.379 1.538v-3.333c1.281-.641 3.202-1.41 6.276-1.41 4.61 0 7.94 2.18 7.94 6.538v6.41c0 1.026.64 1.667 1.409 1.667 0 0 .384 0 .768-.256zm-6.275-4.231h-4.483c-2.433 0-4.098.513-4.098 2.18 0 1.922 1.665 2.563 3.714 2.563 2.05 0 3.97-1.025 4.867-2.05v-2.693zm-29.456-1.154c0-5.385 4.226-8.974 9.349-8.974 2.049 0 3.586.384 5.123 1.154v3.205c-1.537-.77-2.946-1.154-4.61-1.154-3.33 0-6.148 2.307-6.148 5.769s2.69 5.77 6.147 5.77c1.921 0 3.458-.385 4.867-1.283v3.205c-1.665.898-3.33 1.41-5.507 1.41-4.867 0-9.221-3.717-9.221-9.102zm-16.65 0c0-5.385 4.227-8.974 9.35-8.974 2.049 0 3.586.384 5.123 1.154v3.205c-1.537-.77-2.946-1.154-4.61-1.154-3.33 0-6.148 2.307-6.148 5.769s2.69 5.77 6.147 5.77c1.921 0 3.458-.385 4.867-1.283v3.205c-1.665.898-3.33 1.41-5.507 1.41-4.995 0-9.221-3.717-9.221-9.102zm-19.21 0c0-5 3.458-8.974 8.837-8.974 5.507 0 8.196 4.615 8.196 9.23v.898H113.6c.512 2.949 3.073 4.615 6.53 4.615 2.178 0 3.971-.64 5.508-1.538v3.205c-1.409 1.026-3.714 1.667-6.276 1.667-5.379 0-9.605-3.59-9.605-9.103zm13.191-1.795c0-1.795-1.408-4.102-4.482-4.102-2.946 0-4.61 2.05-4.739 4.102h9.221zm-32.786-6.795h3.843v6.667h8.708V12.05h3.842v17.18h-3.842v-7.18h-8.708v7.18H90.16V12.05zm-20.363 8.59c0-5 3.458-8.974 8.837-8.974 5.507 0 8.197 4.615 8.197 9.23v.898H73.64c.513 2.949 3.074 4.615 6.532 4.615 2.177 0 3.97-.64 5.507-1.538v3.205c-1.409 1.026-3.714 1.667-6.275 1.667-5.38 0-9.606-3.59-9.606-9.103zm13.191-1.795c0-1.795-1.408-4.102-4.482-4.102-2.946 0-4.61 2.05-4.739 4.102h9.221zM49.947 5.641h10.118c5.123 0 8.58 4.23 8.58 8.333 0 4.231-3.457 8.462-8.58 8.462h-6.276v6.795h-3.842V5.64zm9.734 13.205c3.33 0 5.123-2.564 5.123-4.872 0-2.436-1.793-4.871-5.123-4.871h-5.892v9.743h5.892z"/><path fill="url(#a)" d="M5.507 38.462H0V14.744C0 6.667 6.66 0 14.728 0h18.186v14.615c0 8.206-6.66 14.744-14.728 14.744H8.965l2.049-5.513h7.044a9.188 9.188 0 009.22-9.23V5.512H14.6a9.188 9.188 0 00-9.221 9.23v23.719h.128z"/></g></svg>