<svg xmlns="http://www.w3.org/2000/svg" width="276" height="50" viewBox="0 0 276 50" preserveAspectRatio="xMinYMin meet"><g fill="none" fill-rule="evenodd"><path fill="#CB183B" d="M263.348 38.268h-4.01l5.168-7.396c-2.58-.304-4.792-2.346-4.792-5.798 0-2.426 1.024-6.066 6.484-6.066h9.59v19.26h-3.334V31.24h-4.374l-4.732 7.028zm4.292-16.352c-1.29 0-4.474-.518-4.474 3.046 0 1.44.518 3.37 4.586 3.37h4.702v-6.416h-4.814zm-24.482-2.879v13.368l9.046-13.368h3.342v19.23h-3.342V24.811l-9.046 13.456h-3.34v-19.23h3.34zm-10.325 13.486h3.672c-.364 1.166-.944 2.35-1.888 3.42-1.934 2.162-4.364 2.674-6.268 2.674s-4.336-.512-6.266-2.674c-2.1-2.376-2.458-5.348-2.458-7.32 0-1.974.358-4.942 2.458-7.32 1.93-2.158 4.362-2.672 6.266-2.672s4.334.514 6.268 2.672c1.122 1.27 1.738 2.708 2.076 4.076h-3.602a6.55 6.55 0 00-.878-1.752c-1.13-1.54-2.62-1.918-3.864-1.918-1.24 0-2.732.378-3.864 1.918-.636.89-1.354 2.404-1.354 4.996 0 2.594.718 4.106 1.354 4.996 1.132 1.538 2.624 1.918 3.864 1.918 1.244 0 2.734-.38 3.864-1.918.208-.29.422-.656.62-1.096zm-19.548 0h3.672c-.366 1.166-.946 2.35-1.888 3.42-1.934 2.162-4.364 2.674-6.266 2.674-1.906 0-4.336-.512-6.268-2.674-2.1-2.376-2.458-5.348-2.458-7.32 0-1.974.358-4.942 2.458-7.32 1.932-2.158 4.362-2.672 6.268-2.672 1.902 0 4.332.514 6.266 2.672 1.122 1.27 1.738 2.708 2.078 4.076h-3.604a6.613 6.613 0 00-.876-1.752c-1.132-1.54-2.624-1.918-3.864-1.918-1.242 0-2.734.378-3.866 1.918-.634.89-1.354 2.404-1.354 4.996 0 2.594.72 4.106 1.354 4.996 1.132 1.538 2.624 1.918 3.866 1.918 1.24 0 2.732-.38 3.864-1.918.208-.29.42-.656.618-1.096zm-18.467-11.22c2.098 2.378 2.458 5.346 2.458 7.318 0 1.974-.36 4.946-2.458 7.32-1.934 2.164-4.364 2.676-6.266 2.676-1.906 0-4.336-.512-6.268-2.676-2.1-2.374-2.46-5.346-2.46-7.32 0-1.972.36-4.94 2.46-7.318 1.932-2.16 4.362-2.674 6.268-2.674 1.902 0 4.332.514 6.266 2.674zm-10.132 2.324c-.634.89-1.354 2.404-1.354 4.994 0 2.594.72 4.108 1.354 4.998 1.132 1.538 2.624 1.918 3.866 1.918 1.24 0 2.732-.38 3.864-1.918.634-.89 1.354-2.404 1.354-4.998 0-2.59-.72-4.104-1.354-4.994-1.132-1.542-2.624-1.918-3.864-1.918-1.242 0-2.734.376-3.866 1.918zm-21.48-4.701h6.974c2.578 0 4.116.878 4.958 1.646.756.712 1.764 2.136 1.764 4.684 0 2.03-.692 3.35-1.722 4.468-.97 1.052-2.73 1.544-4.776 1.544h-3.81v7.004h-3.388V18.926zm6.806 9.394c1.204 0 1.99-.41 2.438-.848.448-.44.896-1.15.896-2.384 0-1.122-.364-1.804-.84-2.298-.814-.82-1.962-.874-2.438-.874h-3.474v6.404h3.418z"/><path fill="#123B56" d="M148.722 19l4.142.004-8.572 8.994 9.268 10.36h-4.196l-8.392-8.898v8.898h-3.352V19.004h3.352v7.946l7.75-7.95zm-30.247-.008h3.358v7.822h8.59v-7.822h3.358v19.326h-3.358v-8.512h-8.59v8.512h-3.358V18.992zm-6.941 19.305l-.95-3.038h-7.8l-.892 3.038h-3.408l6.174-19.304h4.024l6.372 19.304h-3.52zm-4.556-14.984c-.11-.382-.25-1.148-.334-1.778-.058.494-.168 1.314-.278 1.722l-2.658 9.026h5.952l-2.682-8.97zM80.645 38.344V18.992h13.28v3.152h-9.89v4.686h4.37c1.792 0 3.726-.054 5.24 1.236 1.148.986 2.016 2.578 2.016 4.468 0 1.862-.726 3.372-1.792 4.304-.926.82-2.466 1.506-4.932 1.506h-8.292zm3.39-2.986h4.79c1.008 0 1.904-.36 2.41-.826.534-.49.812-1.144.812-1.884 0-.932-.392-1.652-.896-2.12-.756-.684-1.82-.738-2.662-.738h-4.454v5.568zm-21.099 1.235H39.628v2.772h15.958c-.556.504-1.044.876-1.976 1.55l-.008.008c-5.672 3.69-13.128 5.752-21.004 5.81V29.785h26.744v-2.966h-44.93a18.5 18.5 0 01.346-2.394c.054-.286.114-.582.166-.808.182-.776.408-1.49.67-2.122l.414.14c.532.176 1.08.358 1.654.536 1.496.456 2.916.778 4.342.986l.402.054c1.096.224 2.362.398 3.762.52 1.116.096 2.228.146 3.456.198v-3.202a46.25 46.25 0 01-3.162-.206c-1.228-.116-2.424-.236-3.584-.464-.288 0-.59-.06-.85-.118-1.672-.3-3.084-.656-4.33-1.088a5.123 5.123 0 01-.534-.15c-.062-.02-.122-.04-.18-.056.162-.308.348-.592.54-.892.074-.114.148-.228.222-.346 1.126-1.634 2.618-3.148 4.312-4.378 2.148-1.556 4.604-2.58 7.288-3.04.06 0 .124-.006.188-.012l.09-.004V6.707l-.072.022c-.078.024-.16.038-.238.052-.088.014-.18.028-.27.06-2.358.17-4.728.502-7.046.986-1.64.374-3.058.788-4.336 1.264-.92.274-1.822.606-2.84 1.046a44.02 44.02 0 00-2.72 1.326c-1.604.874-2.966 1.744-4.166 2.662-1.92 1.476-3.558 3.154-4.868 4.984a17.63 17.63 0 00-2.256 4.354C.266 25.087 0 26.661 0 28.273v.058c0 5.182 2.816 10.226 7.938 14.206.298.208.612.432.924.656.296.21.59.42.872.616.564.352 1.17.7 1.756 1.038.204.12.408.236.614.356.748.396 1.558.754 2.34 1.1l.378.17c.826.356 1.7.696 2.838 1.098 1.434.476 2.892.886 4.338 1.218a47.73 47.73 0 0010.406 1.132h.002c8.714 0 16.868-2.252 22.958-6.336 1.246-.766 2.316-1.678 3.306-2.552.854-.792 3.314-3.224 4.17-4.304l.094-.122h-.022l.024-.014zm-51.16-21.27c.124-.076.264-.16.402-.262.806-.486 1.682-.924 2.528-1.35l.178-.09c.73-.362 1.44-.648 2.194-.952.208-.084.42-.17.632-.258.074-.026.146-.048.218-.072l-.296.294a21.01 21.01 0 00-2.842 3.476c-.146.206-.278.428-.408.644-.114.19-.236.388-.362.572a10.21 10.21 0 01-1.828-1.282 6.84 6.84 0 01-.576-.622l.16-.098zM3.84 24.485c.408-1.208 1.026-2.402 1.84-3.554.63-.83 1.4-1.8 2.354-2.704.176-.176.354-.338.528-.496.148-.138.302-.278.452-.426.746.952 1.786 1.81 3.086 2.55l.13.088c.132.088.292.198.454.286-.21.528-.444 1.15-.616 1.79l-.07.238c-.142.492-.29.998-.388 1.502-.176 1.038-.34 2.054-.402 3.06H3.28c.12-.85.304-1.614.56-2.334zm6.098 14.192l-.022.03c-.204.262-.412.528-.62.83a25.16 25.16 0 01-1.264-1.158c-2.748-2.622-4.348-5.512-4.754-8.594h7.93c.112 1.6.394 3.152.858 4.744.17.69.404 1.374.676 1.982-.1.07-.198.13-.302.194-.104.066-.212.13-.324.208h-.058l-.02.014c-.826.544-1.512 1.114-2.1 1.75zm7.772 5.522a24.887 24.887 0 01-2.826-1.214l-.382-.192c-.778-.392-1.582-.796-2.338-1.248-.092-.046-.182-.09-.266-.164.078-.09.154-.2.234-.314l.18-.266a8.59 8.59 0 011.484-1.202c.05-.026.114-.064.178-.1.056-.034.112-.066.162-.092.108.16.216.334.32.504.108.18.222.364.334.528a22.195 22.195 0 002.836 3.414c.132.166.268.318.412.456a2.748 2.748 0 00-.328-.11zm11.91 2.354l-.17-.034a26.484 26.484 0 01-1.652-.358c-1.078-.246-2.192-.674-3.612-1.386-.824-.436-1.48-.84-2.13-1.316a16.527 16.527 0 01-4.31-4.372 12.999 12.999 0 01-.704-1.082c.122-.054.244-.094.382-.144.09-.03.184-.064.284-.1a48.253 48.253 0 014.32-1.152c2.39-.468 4.874-.752 7.592-.87v10.814zm0-14.012c-2.732.112-5.296.4-7.62.856a41.434 41.434 0 00-4.338 1.044c-.664.204-1.364.432-2.008.72a33.988 33.988 0 01-.646-2.01l-.084-.276a27.883 27.883 0 01-.51-3.09H29.62v2.756z"/><path fill="#CB183B" d="M64.095 26.812c0-.324-.048-.644-.096-.952l-.016-.1c-.83-6.158-6.46-12.23-11.414-14.54-2.958-1.744-6.626-2.412-9.86-3.002-2.806-.512-5.458-.996-7.282-2.082-.178-.12-.392-.24-.598-.356-.192-.108-.39-.218-.556-.326-.482-.31-2.028-1.64-3.106-2.886A9.347 9.347 0 0129.853.506L29.597 0v27.116h2.92V7.884c.438.42.962.798 1.678 1.214 1.618.952 4.426 1.478 7.4 2.036 3.124.584 6.356 1.19 8.94 2.352 6.366 2.886 10.304 9.664 10.7 13.438 0 .156.014.312.028.46.012.128.022.25.022.352v4.01H34.893V45.24h.076c.918 0 1.506-.05 2.434-.172l.23-.008V34.346h26.578v-2.742c0-1.468 0-3.296-.116-4.792"/></g></svg>