<svg xmlns="http://www.w3.org/2000/svg" width="267" height="50" viewBox="0 0 267 50" preserveAspectRatio="xMinYMin meet"><g fill="none" fill-rule="evenodd"><path fill="#282423" fill-rule="nonzero" d="M265.648 13.284L253.15 24.91l13.01 12.546h-6.022l-12.146-11.728v11.728h-4.477v-24.17h4.477v11.272l12.146-11.273h5.51zm-33.244 9.864v-9.864h4.487v24.17h-4.487V27.126h-15.816v10.33h-4.465v-24.17h4.465v9.863h15.816zm-40.187-9.864h4.693l11.793 24.17h-4.829l-2.772-5.863H188.07l-2.783 5.864h-4.83l11.76-24.17zm-2.272 14.364H199.262l-4.647-9.796-4.67 9.796zm-20.553-5.398h.011c5.272 0 8.908 2.67 8.908 7.625 0 4.773-3.636 7.636-8.908 7.636h-14.975V13.364h21.758v3.818h-17.293v5.068h10.499zm.272 11.284v.023c3.136 0 4.397-1.25 4.397-3.648 0-2.148-1.59-3.636-4.397-3.636h-10.76v7.261h10.76zm-31.528.352l-.012.012c3.193.06 6.312-.961 8.851-2.898l2.386 3.545a18.358 18.358 0 01-11.43 3.546c-8.078 0-14.168-5.227-14.168-12.784s6.215-12.762 14.168-12.762a17.893 17.893 0 0111.248 3.603l-2.386 3.557a13.792 13.792 0 00-8.726-2.978c-5.896 0-9.578 3.591-9.578 8.58 0 4.988 3.716 8.58 9.647 8.58zm-32.768-21.352c7.738 0 14.01 5.136 14.01 12.796 0 7.659-6.352 12.784-14.01 12.784-7.657 0-14.065-5.205-14.065-12.784 0-7.58 6.374-12.796 14.065-12.796zm0 21.489h.012c5.737 0 9.373-3.83 9.373-8.693 0-4.864-3.783-8.67-9.385-8.67-5.6 0-9.43 3.68-9.43 8.67 0 4.988 3.681 8.693 9.43 8.693zm-40.163-20.75H80.18c5.294 0 8.6 3.443 8.6 8.216 0 4.966-3.317 7.83-8.6 7.83H69.68v8.113h-4.476v-24.16zm19.008 8.284v-.012a3.944 3.944 0 00-4.033-4.272H69.68v8.057h10.76a3.59 3.59 0 003.772-3.773z"/><path fill="#282423" d="M0 25h50v25H0z"/><path fill="#DF0032" d="M0 0h50v25H0z"/><path fill="#FFF" fill-rule="nonzero" d="M9 23.5h32v3H9z"/></g></svg>