<svg xmlns="http://www.w3.org/2000/svg" width="198" height="50" viewBox="0 0 198 50" preserveAspectRatio="xMinYMin meet"><g fill="none" fill-rule="evenodd"><path fill="#19502E" d="M53.84 26.79c.556 0 1.348.02 1.985-.576.435-.395.673-1.07.673-1.643 0-.535-.22-1.17-.654-1.547-.438-.377-1.13-.556-1.906-.556h-2.42v4.322h2.323zm-.1-6.303c1.172 0 2.479.04 3.61.811.754.497 1.645 1.489 1.645 3.252 0 1.943-1.229 4.222-4.62 4.222H51.52v5.313h-2.497V20.487h4.719zm9.244 11.397c.216.259.714.733 1.584.733.874 0 1.37-.474 1.586-.733.161-.177.755-.972.755-2.853 0-1.883-.594-2.675-.755-2.855a2.006 2.006 0 00-1.586-.733 2.01 2.01 0 00-1.584.733c-.157.18-.754.972-.754 2.855 0 1.881.597 2.676.754 2.853zm-1.686-6.878c.693-.653 1.726-1.229 3.27-1.229 1.547 0 2.579.576 3.273 1.229 1.03.972 1.565 2.479 1.565 4.025 0 1.544-.535 3.053-1.565 4.022-.694.655-1.726 1.232-3.273 1.232-1.544 0-2.577-.577-3.27-1.232-1.032-.97-1.567-2.478-1.567-4.022 0-1.546.535-3.053 1.567-4.025zm16.014 2.677c-.04-.515-.24-1.11-.495-1.488-.241-.356-.717-.752-1.507-.752-.774 0-1.29.396-1.607.93-.496.815-.535 2.081-.535 2.658 0 .932.137 2.04.535 2.676.257.395.773.91 1.607.91.593 0 1.088-.237 1.467-.752.296-.417.495-1.01.535-1.527l2.101.258c-.12.932-.535 1.966-1.268 2.636-.617.556-1.57 1.053-2.915 1.053-1.506 0-2.48-.597-3.053-1.132-.773-.733-1.507-2.042-1.507-4.103 0-1.922.654-3.072 1.17-3.686a4.566 4.566 0 013.449-1.587c1.25 0 2.282.438 2.933 1.112.656.652 1.052 1.644 1.191 2.535l-2.101.259zm9.84 0c-.04-.515-.236-1.11-.495-1.488-.237-.356-.717-.752-1.509-.752-.77 0-1.286.396-1.605.93-.493.815-.535 2.081-.535 2.658 0 .932.139 2.04.535 2.676.258.395.774.91 1.605.91.597 0 1.091-.237 1.469-.752.299-.417.496-1.01.535-1.527l2.101.258c-.117.932-.535 1.966-1.269 2.636-.616.556-1.564 1.053-2.914 1.053-1.506 0-2.478-.597-3.054-1.132-.773-.733-1.507-2.042-1.507-4.103 0-1.922.654-3.072 1.172-3.686a4.553 4.553 0 013.448-1.587c1.248 0 2.28.438 2.933 1.112.656.652 1.052 1.644 1.191 2.535l-2.101.259zm10.365.275c0-.572-.138-1.227-.437-1.665a2.175 2.175 0 00-1.783-.93c-.754 0-1.408.377-1.804.85a2.825 2.825 0 00-.595 1.745h4.619zm2.34 3.195a4.21 4.21 0 01-1.664 2.298c-.792.535-1.824.833-2.915.833-1.368 0-2.757-.576-3.59-1.428-.772-.791-1.349-2.162-1.349-3.787 0-2.06.853-3.429 1.784-4.202.539-.454 1.547-1.09 3.074-1.09 1.925 0 3.154.892 3.805 1.803.696.952 1.015 2.28 1.015 3.43v.458h-7.178c0 .117-.02 1.031.336 1.762.534 1.11 1.508 1.387 2.182 1.387.535 0 1.208-.16 1.765-.734.335-.355.476-.693.534-1.01l2.2.28zm9.95-7.177v10.108h-2.302v-8.403h-2.616c-.058 1.366-.099 1.923-.14 2.853-.057 1.052-.136 3.27-1.03 4.48a2.819 2.819 0 01-1.545 1.031c-.258.08-.534.118-.814.118-.197 0-.398-.02-.592-.079V32.34h.194c.3-.02.697-.176.954-.376.792-.634.872-2.06.953-3.192.099-1.486.118-2.379.136-3.726l.023-1.07h6.78zm4.728 8.443h1.806c.438 0 .91-.02 1.308-.354.236-.22.517-.595.517-1.232 0-.555-.16-.992-.616-1.286-.398-.26-.893-.298-1.21-.298h-1.805v3.17zm0-4.836h2.539c.653 0 1.923.082 2.756.914.751.731.831 1.763.831 2.317 0 1.448-.595 2.18-1.05 2.557-.16.12-.91.713-2.34.713h-5.035V23.976h2.3v3.607zm9.468-3.607l1.866 3.151 1.94-3.151h2.102l-2.954 4.578 3.509 5.53h-2.697l-2.297-3.805-2.42 3.805h-2.1l3.447-5.252-3.092-4.856h2.696zm9.926 7.908c.216.259.711.733 1.584.733.873 0 1.37-.474 1.589-.733.156-.177.752-.972.752-2.853 0-1.883-.596-2.675-.752-2.855a2.021 2.021 0 00-1.59-.733c-.872 0-1.367.474-1.583.733-.158.18-.756.972-.756 2.855 0 1.881.598 2.676.756 2.853zm-1.686-6.878c.693-.653 1.725-1.229 3.27-1.229 1.548 0 2.579.576 3.273 1.229 1.03.972 1.567 2.479 1.567 4.025 0 1.544-.537 3.053-1.567 4.022-.694.655-1.725 1.232-3.273 1.232-1.545 0-2.577-.577-3.27-1.232-1.032-.97-1.567-2.478-1.567-4.022 0-1.546.535-3.053 1.567-4.025zm9.335 1.705a3.548 3.548 0 011.627-2.24c.337-.218 1.267-.693 2.853-.693.993 0 2.003.176 2.758.595 1.11.613 1.386 1.504 1.386 2.14 0 .693-.338 2.021-2.062 2.219v.04c.594.08 1.25.34 1.647.754.357.376.633 1.01.633 1.683 0 1.012-.594 1.904-1.348 2.4-.912.595-2.163.676-3.091.676-.935 0-2.362-.1-3.354-.892-.553-.439-1.069-1.193-1.229-2.143l2.083-.357c.078.316.259.793.495 1.07.517.598 1.331.655 1.845.655.517 0 1.071-.057 1.506-.356.397-.278.596-.655.596-1.15 0-.418-.082-.754-.436-1.051-.457-.377-1.071-.435-1.646-.435h-1.05v-1.548h1.05c.395 0 .97-.079 1.289-.238.415-.217.652-.574.652-1.148 0-.32-.118-.617-.414-.853-.46-.376-1.11-.396-1.447-.396-.457 0-1.13.06-1.686.536a1.925 1.925 0 00-.656 1.168l-2.001-.436zm14.047 4.996h2.557c.477 0 .915-.021 1.368-.477.438-.435.497-.931.497-1.309 0-.433-.12-.87-.497-1.249-.453-.454-1.028-.495-1.446-.495h-2.48v3.53zm6.562-8.84h-6.562v3.01h2.916c1.048 0 2.062.081 3.093.794 1.01.693 1.645 1.725 1.645 3.21 0 1.39-.516 2.419-1.17 3.074-.99.99-2.121 1.13-3.311 1.13h-6.346V20.487h9.735v2.38zm8.336 6.441c-.993.08-1.983.18-2.539.871a1.429 1.429 0 00-.317.913c0 .435.218.733.436.891.28.218.693.317 1.09.317.594 0 1.29-.257 1.687-.732.059-.061.534-.655.534-1.805v-.535l-.89.08zm-5.611-2.517a3.666 3.666 0 011.746-2.378c.79-.458 1.841-.636 3.15-.636 1.666 0 3.353.218 4.104 1.785.397.811.358 1.684.358 2.438v3.904c0 .813.117 1.567.296 2.18h-2.874c-.08-.396-.138-.931-.157-1.606-.379.675-1.291 1.806-3.392 1.806-.933 0-1.885-.238-2.537-.774-.637-.516-1.033-1.347-1.033-2.26 0-1.01.438-2.22 2.16-2.935 1.111-.454 2.916-.613 3.73-.65l.951-.043v-.218c0-.277-.02-.872-.298-1.19-.376-.436-1.13-.454-1.43-.454-.412 0-.909.039-1.325.297a1.57 1.57 0 00-.714 1.032l-2.735-.298zm14.607-2.815v3.787h3.192v-3.787h2.952v10.108h-2.952v-4.243h-3.192v4.243h-2.956V23.976h2.956zm11.395 0v3.885h.792c.853 0 1.21-.419 1.426-.874.418-.89.398-1.584.777-2.278.297-.554.692-.694.95-.733h2.438a4.873 4.873 0 00-.774 1.09c-.317.655-.614 1.724-.792 2.18-.238.633-.636 1.269-1.647 1.348v.038c.536.08 1.091.36 1.51.973.255.375.434.872.713 1.644.278.793.397 1.072.652 1.684.2.46.318.735.655 1.151h-2.775c-.437-.139-.733-.437-1.088-1.467-.28-.791-.32-1.07-.498-1.506l-.14-.356c-.297-.753-.693-.914-1.309-.914h-.89v4.243h-2.953V23.976h2.953zM21.817 49.116C9.787 49.115 0 39.331 0 27.305 0 20.392 3.172 14.04 8.7 9.873l.234-.176V0h12.52v5.496c.12-.001.241-.003.363-.003 12.028 0 21.813 9.786 21.813 21.812 0 12.027-9.785 21.81-21.813 21.81"/><path fill="#FFCB05" d="M15.505 27.655l4.541-4.463v-3.029l-4.541 4.439zM15.505 16.353l4.541-4.464V9.03l-4.541 4.441zM15.505 20.092l4.541-4.464v-2.857l-4.541 4.44zM14.203 9.066l-.603-.59V1.408h-.687v6.399l-.598-.59V1.408h-.686V6.55l-.603-.59V1.408h-.684V8.15l4.545 4.463V1.408h-.684zM15.505 23.831l4.541-4.463V16.51l-4.541 4.44zM10.342 23.191l4.545 4.463v-3.053l-4.545-4.438zM19.364 5.962l-.602.588V1.408h-.687V7.22l-.601.587V1.408h-.682v7.066l-.605.591V1.408h-.682v11.205l4.542-4.464V1.408h-.683zM10.342 11.889l4.545 4.464V13.47l-4.545-4.44zM10.342 15.628l4.545 4.464v-2.883l-4.545-4.438zM10.342 19.368l4.545 4.463V20.95l-4.545-4.439zM25.576 24.5a1.228 1.228 0 11-2.254-.676l.342-.576a1.02 1.02 0 010-1.529l-.342-.58a1.228 1.228 0 112.254-.671c0 .5-.577 1.692-.577 1.692v.647s.577 1.192.577 1.693m11.836-2.776H26.363c.232-.365.367-.793.367-1.257a2.381 2.381 0 00-4.763 0c0 .517.166.989.445 1.38a.766.766 0 00-.345.637c0 .266.14.5.345.635-.279.39-.445.863-.445 1.38a2.383 2.383 0 004.763 0c0-.462-.135-.892-.367-1.256h8.221v.499h-.812v.7h.812v.726h-.812v1.338h.812V25.9h1.201v.606h.812v-1.338h-.812v-.726h.812v-.7h-.812v-.5h1.627a.581.581 0 00.573-.583v-.353a.58.58 0 00-.573-.582"/><path fill="#FFF" d="M6.21 20.277v2.966c0 2.836 1.237 4.658 1.946 5.367.418.41 4.642 4.566 4.702 4.623 1.314 1.286 1.544 1.71 1.836 2.44v-3.287c0-2.928-1.484-4.065-2.246-4.808-1.781-1.737-2.974-2.88-3.935-3.836-1.821-1.823-2.303-3.465-2.303-3.465m6.237 14.644c-1.78-1.74-2.974-2.881-3.933-3.839-1.822-1.822-2.305-3.058-2.305-3.058v2.56c0 2.835 1.29 4.646 1.944 5.387.417.406 4.654 4.548 4.706 4.604 1.313 1.284 1.543 1.893 1.836 2.624v-3.473c0-2.926-1.484-4.063-2.248-4.805"/><path fill="#FFF" d="M21.817 6.901c-.33 0-.654.008-.976.022v1.391c.322-.017.646-.025.976-.025 10.503 0 19.018 8.514 19.018 19.016 0 10.5-8.515 19.014-19.018 19.014-10.505 0-19.022-8.514-19.022-19.014 0-5.83 2.623-11.044 6.754-14.531v-1.776c-4.945 3.725-8.14 9.64-8.14 16.307 0 11.267 9.136 20.402 20.408 20.402 11.268 0 20.405-9.135 20.405-20.402 0-11.27-9.137-20.404-20.405-20.404"/><path fill="#FFF" d="M36.252 37.956c.318-.43.617-.876.898-1.333v-2.74h-.898v4.073zm2.617-5.067c.128-.395.245-.793.345-1.194h-2.962v.729h.45c.79-.024 1.67-.035 2.167.465M18.352 39.731h.802v-8.134h-.802z"/><path fill="#FFF" d="M33.234 35.775l-.868-.828.868-4.494v5.322zM16.5 30.026h2.655c.685 0 1.161.142 1.443.408.28.263.407.741.407 1.428v7.602c0 .689-.127 1.164-.407 1.43-.422.42-1.195.42-1.84.42-.141-.011-.28-.011-.406-.011v3.603c.265.05.532.1.803.138v-2.959c1.22 0 2.022-.416 2.397-1.25v4.403c.087.001.174.003.265.003.168 0 .336-.002.505-.007v-13.23c0-.701.142-1.193.405-1.473.265-.28.746-.42 1.42-.42.686 0 1.693-.1 2.214.42.268.28.391.772.391 1.473v3.898h-1.817v-4.166h-.788V45.09c.263-.032.523-.073.788-.117v-8.286h1.817v7.866a17.59 17.59 0 001.11-.356v-7.201c0-.814.196-1.43 1.026-1.71l-.915-5.009h1.84l.306 5.474h.227l.307-5.474h1.937l-1.037 5.01c.87.305 1.037.84 1.037 1.709v4.652c.54-.407 1.056-.84 1.543-1.302v-10.11h5.386a25.7 25.7 0 00.103-.73H27.02l.177.906c-.399-.733-1.156-1.101-2.262-1.101h-.788c-1.337 0-2.149.53-2.456 1.59-.286-1.109-1.132-1.66-2.536-1.66h-3.453v14.932c.263.095.532.184.798.268V30.026z"/><path fill="#FFF" d="M29.812 43.363c.28-.139.556-.286.827-.439V36.77h-.827v6.594z"/></g></svg>