<svg xmlns="http://www.w3.org/2000/svg" width="218" height="49" viewBox="0 0 218 49" preserveAspectRatio="xMinYMin meet"><g fill="none" fill-rule="evenodd"><path fill="#004772" d="M203.788 15.722v8.76h.096l8.113-8.76h5.42l-9.364 9.287 9.94 11.222h-5.771l-8.338-10.196h-.096V36.23h-4.552v-20.51h4.552zm-23.703 0v8.263h9.105v-8.263h4.554v20.51h-4.554v-8.878h-9.105v8.877h-4.555v-20.51h4.555zm-15.002 12.51l-3.303-8.38h-.067l-3.107 8.38h6.477zm-.546-12.51l8.915 20.51h-5.13l-1.892-4.63h-9.268l-1.892 4.63h-4.874l8.945-20.51h5.196zm-26.291 17.287h2.821c2.535 0 4.01-.997 4.01-3.076 0-2.08-1.475-3.076-4.01-3.076h-2.821v6.152zm9.813-17.287v3.633h-9.813v4.278h3.658c6.603 0 7.98 3.985 7.98 6.621 0 2.17-1.567 5.977-7.98 5.977h-8.21v-20.51h14.365zm-27.11 0v20.51h-4.553v-17.14h-8.881v17.14h-4.554v-20.51h17.988zm-30.872 0h7.696v20.51h-4.554v-17.58h-.032l-6.479 17.58H82.38l-6.477-17.58h-.032v17.58H71.32v-20.51h7.695l5.524 14.727 5.539-14.727zm-21.64 19.864c-2.673.587-4.608.88-5.805.88-5.581 0-11.672-2.9-11.672-10.372 0-7.06 5.451-10.606 12.506-10.606 1.763 0 3.27.205 4.97.704l-.193 3.515a13.009 13.009 0 00-4.457-.762c-5.034 0-8.016 2.9-8.016 7.09 0 4.953 3.656 6.974 7.696 6.974 1.325 0 2.886-.303 4.682-.909l.288 3.486zM44.61 2.849c.098-.048.243-.117.343-.164l-.344.164zm4.416-1.602c-.274-.296-3.968 1.387-3.968 1.387l.166-.11c.727-.42 1.881-1.024 1.45-1.516-.217-.242-.705-.134-2.114.664-.661.377-4.12 1.723-7.695 3.137-2.95 1.197-8.307 3.363-8.785 3.86-.015.016-.027.028-.04.046-.05.077-.097.172-.146.269-.184.388-.37.982-.553 1.728l-.018.071-.033.14c-.218.99-.414 2.2-.63 3.541-.63 4.07-1.274 10.124-1.274 10.124s-.163 4.123-.58 6.09a5.446 5.446 0 01-.248.824 3.743 3.743 0 01-.105.301V31.8c-.143.365-.336.71-.605.979-.826.845-2.858.576-3.42.51-1.312-.15-2.598-1.005-2.776-1.231-.171-.23-1.078-1.365-2.242-1.471-.344-.03-1.753.2-2.215.187-.464-.014-1.11-.623-1.84-.695-.744-.086-1.925.61-1.925.61s2.904 1.01 3.259 1.465c.352.46 1.224 1.61 2.282 2.06 1.057.451 4.752 4.348 4.752 4.348s.753.717 2.005 1.654c-1.094.36-2.248.615-3.447.737C10.02 41.8 2.961 36.73 2.04 29.186a12.412 12.412 0 01.352-4.868c.512-1.894 1.296-3.711 2.672-5.284 2.507-2.88 5.94-4.762 9.944-5.167 2.44-.252 4.923.098 7.202.928-.017-.242-.036-.482-.05-.722a16.66 16.66 0 00-7.274-.852c-4.11.422-7.793 2.275-10.37 5.229-1.832 2.087-2.943 4.553-3.275 7.152-.068.36-.076.619-.12 1.09-.073.885-.048 2.564.063 3.477.939 7.655 8.488 13.164 16.87 12.307a16.405 16.405 0 004.995-1.318c1.218.807 2.683 1.661 4.278 2.304 3.943 1.603 8.78 1.775 9.858 1.898 2.256.269 4.278 2.906 4.908 3.432.617.52 4.846-.307 4.846-.307s-.304-.792-.481-1.806c-.177-1.01-1.386-1.466-1.622-1.728-.238-.26-5.678-2.528-6.55-3.03-.862-.499-1.959-1.543-3.097-3.311-1.122-1.775-.646-3.098-.46-3.431.201-.33.638-.4.892-.839.266-.443.055-.478.029-.702-.022-.226.072-.39.304-.777.233-.384.137-.35.137-.35l.05-.48c.048-.48 0 0 .1-.163l.095-.17s-.025-.228.077-.392c.094-.162-.119-.334-.077-.532.042-.195.095-.166.176-.551.07-.392.033-.2.047-.617.023-.42.132-.226.363-.464.216-.248-.231-.549-.231-.549s.03-.187.402-.93c.365-.75 0 0 .102-.302.106-.31-.128-.571-.178-.871-.05-.32.042-.206.111-.592.069-.391 0 0 .135-.36.132-.358.078-.531.078-.531l-.248-.763.13-.217c.134-.224-.003-.65-.003-.65l-.34-.878s.014-.418.056-.614c.037-.2-.3-1.075-.3-1.075l.217-.89-.316-1.292-.208-1.1s-.036-1.657-.037-2.3c-.016-.641-.016-1.422.112-2.293.12-.866 2.853-1.924 3.15-2.428.288-.492-1.659.038-1.659.038s3.435-.93 3.67-1.324c.177-.294-2.245.14-2.245.14-.215.038 0 0 0 0 .935-.193 3.41-.75 4.255-1.415.95-.777-1.666-.18-2.087-.075.429-.107 3.308-.822 3.705-1.616.232-.456-2.153-.125-2.153-.125 1.192-.282 2.613-.667 3.482-1.07 1.715-.786 1.815-1.381 1.47-1.548-.348-.167-3.177.708-3.177.708l-.148.048c.08-.027.148-.048.148-.048.817-.288 1.72-.642 2.24-.962 1.093-.664 2.44-1.492 1.972-2.011z"/><path fill="#00A3DA" d="M6.117 17.904l2.765-3.59-3.372 3.074-1.54-5.179.27 5.264-2.828-1.712 2.58 2.447-3.599.908 3.648-.167-3.016 3.854 3.587-3.265 1.483 4.788-.258-4.777 2.717 1.617-2.619-2.481 3.607-.94-3.425.16zM41.713.216c-.266-.281-2.018.53-2.018.53s-10.679 4.697-15.386 7.03c-1.014.501-2.267 1.291-2.277 2.803-.023 4.856 1.022 12.008 1.55 15.772.528 3.765.887 5.328.87 5.452.019-.131.214-.466.354-1.124.417-1.968.58-6.09.58-6.09s.644-6.056 1.275-10.125c.432-2.708.8-4.895 1.39-5.767.381-.556 9-3.94 10.503-4.58 1.837-.783 2.042-.989 2.078-1.548.039-.56-1.921.061-1.921.061s1.69-.833 2.302-1.23c.622-.392.967-.903.7-1.184z"/></g></svg>