<svg xmlns="http://www.w3.org/2000/svg" width="161" height="50" viewBox="0 0 161 50" preserveAspectRatio="xMinYMin meet"><g fill="none"><path fill="#FED208" d="M7.395 46.811h153.133V50H7.395z"/><path fill="#000" d="M50.627 39.28V10.023h15.385c5.562 0 8.402 3.553 8.402 7.462 0 3.672-2.249 6.16-5.089 6.752 3.077.474 5.562 3.553 5.562 7.225 0 4.383-2.958 7.937-8.52 7.937h-15.74v-.119zm17.515-20.729c0-1.895-1.302-3.198-3.432-3.198H56.9v6.396h7.81c2.13 0 3.432-1.303 3.432-3.198zm.473 11.964c0-1.896-1.302-3.435-3.787-3.435h-8.047v6.751h8.047c2.485 0 3.787-1.184 3.787-3.316zm33.467-20.374v5.449H86.934v5.212h7.574c6.272 0 9.704 4.264 9.704 9.239 0 5.093-3.432 9.24-9.704 9.24H80.662V10.022h21.42v.118zm-15.03 16.11v7.58h6.746c2.367 0 4.142-1.54 4.142-3.79 0-2.37-1.775-3.79-4.142-3.79h-6.745zm21.939 13.03V10.022H122.6c6.39 0 9.822 4.264 9.822 9.476 0 5.093-3.55 9.476-9.822 9.476h-7.456v10.424h-6.153v-.119zm17.16-19.782c0-2.488-1.894-3.91-4.261-3.91h-6.627v7.937h6.627c2.367-.118 4.26-1.658 4.26-4.027zm10.94 19.781V10.023h13.61c6.39 0 9.822 4.264 9.822 9.476 0 5.093-3.55 9.476-9.822 9.476h-7.456v10.424h-6.154v-.119zm17.16-19.781c0-2.488-1.894-3.91-4.26-3.91h-6.628v7.937h6.628c2.366-.118 4.26-1.658 4.26-4.027zM7.247 23.989l9.875-.52.827 15.804-9.875.52-.827-15.804zM18.48 35.7l2.559-9.572 15.255 4.096-2.56 9.571-15.254-4.095zm14.606-7.076l-8.293-5.396 8.6-13.273 8.294 5.396-8.6 13.273zM30.863 12.5l-7.686 6.235-9.938-12.3L20.924.2l9.939 12.3zM14.896 9.644l3.544 9.252-14.745 5.671-3.544-9.25 14.745-5.673z"/></g></svg>