<svg xmlns="http://www.w3.org/2000/svg" width="394" height="50" viewBox="0 0 394 50" preserveAspectRatio="xMinYMin meet"><g fill="none"><path fill="#E2001A" d="M393.489 37.873c-2.919 0-4.677-.07-5.277-.211-.738-.174-1.546-.754-2.425-1.738l-6.86-7.748c-.563-.633-.844-1.16-.844-1.582 0-.421.28-.948.844-1.58l7.65-8.803h6.07l-10.398 10.28 11.24 11.382zm-15.775 0c-2.25 0-3.57-.155-3.96-.473-.35-.317-.527-1.423-.527-3.322V8.04c2.254 0 3.555.16 3.906.477.387.28.581 1.35.581 3.213v26.143zm-8.547 0c-2.254 0-3.57-.155-3.959-.473-.35-.317-.525-1.423-.525-3.322v-8.223c0-2.142-.298-3.636-.898-4.48-.775-1.088-2.233-1.633-4.381-1.633-2.779 0-4.412.264-4.906.791-.455.492-.686 2.266-.686 5.322v12.018c-2.251 0-3.568-.155-3.955-.473-.353-.317-.53-1.423-.53-3.322V16.315c1.724 0 2.726.125 3.009.37.279.246.422 1.124.422 2.637 1.126-2.215 3.763-3.322 7.915-3.322 3.306 0 5.608.93 6.91 2.793 1.056 1.548 1.584 4.024 1.584 7.433v11.647zm-23.69 0c-1.69 0-2.672-.138-2.955-.42-.282-.28-.422-1.23-.422-2.85-.563.951-1.532 1.741-2.903 2.376-1.584.739-3.412 1.104-5.487 1.104-2.462 0-4.45-.527-5.963-1.579-1.652-1.16-2.48-2.812-2.48-4.956 0-2.141.703-3.846 2.111-5.112 1.548-1.37 3.835-2.055 6.86-2.055h6.805c0-1.582-.475-2.707-1.421-3.373-.914-.667-2.411-1.002-4.489-1.002h-4.43c-1.653 0-2.62-.14-2.903-.421-.282-.318-.422-1.388-.422-3.215h7.598c4.046 0 6.86.824 8.442 2.477 1.371 1.369 2.06 3.617 2.06 6.746v12.28zm-4.434-9.276v-.685h-6.12c-2.496 0-3.958.157-4.378.474-.422.282-.634 1.316-.634 3.109 0 2.074 1.618 3.109 4.853 3.109 3.132 0 4.962-.244 5.488-.737.528-.524.791-2.282.791-5.27zm-18.464 1.424c0 5.269-3.588 7.905-10.766 7.905h-6.33c-2.18 0-3.467-.159-3.852-.473-.353-.319-.529-1.424-.529-3.322V14.735c0-1.934.176-3.056.53-3.375.384-.314 1.671-.474 3.851-.474h6.172c6.72 0 10.077 2.356 10.077 7.064 0 3.162-1.196 5.024-3.587 5.587 1.37.386 2.48 1.229 3.326 2.53.736 1.16 1.108 2.478 1.108 3.954zm-5.385-11.438c0-2.567-1.793-3.848-5.38-3.848h-6.068v7.641h6.332c2.569 0 4.064-.157 4.486-.472.42-.318.63-1.423.63-3.32zm.634 11.385c0-2.67-1.916-4.007-5.75-4.007h-6.332v8.17h6.226c2.92 0 4.625-.174 5.118-.527.494-.35.738-1.564.738-3.636z"/><path fill="#1C297B" d="M296.229 25.276c0 1.793-.193 2.846-.58 3.162-.388.282-1.742.423-4.063.423h-11.289c0 1.65.509 2.968 1.529 3.952 1.055.984 2.549 1.478 4.484 1.478h4.748c1.76 0 2.78.157 3.061.474.316.28.475 1.335.475 3.16h-8.126c-7.138 0-10.71-3.634-10.71-10.908 0-7.345 3.605-11.017 10.815-11.017 3.131 0 5.558.895 7.283 2.688 1.582 1.652 2.373 3.848 2.373 6.588zm-4.643 0c.035-.07.035-.106 0-.106.072-3.795-1.742-5.69-5.435-5.69-2.883 0-4.588.243-5.116.737-.493.492-.738 2.178-.738 5.06h11.289zm-18.625 1.844c0 7.417-3.042 11.123-9.126 11.123-3.66 0-6.103-.984-7.335-2.952v10.91c-2.217 0-3.52-.156-3.906-.475-.35-.28-.525-1.351-.525-3.213V16.264c1.688 0 2.674.141 2.952.422.282.245.423 1.142.423 2.687 1.301-2.248 4.064-3.373 8.285-3.373 6.153 0 9.232 3.706 9.232 11.12zm-4.54 0c0-2.423-.367-4.216-1.105-5.375-.95-1.37-2.55-2.055-4.8-2.055-3.026 0-4.803.316-5.33.946-.494.635-.737 2.795-.737 6.484 0 2.426.35 4.183 1.054 5.272.916 1.406 2.549 2.11 4.904 2.11 3.027 0 4.788-.3 5.276-.897.497-.633.738-2.794.738-6.485zm-19.939-.051c0 7.378-3.59 11.067-10.764 11.067-7.107 0-10.66-3.689-10.66-11.067 0-7.346 3.572-11.014 10.711-11.014 7.14 0 10.713 3.668 10.713 11.014zm-4.593 0c0-2.32-.386-4.04-1.158-5.165-.951-1.442-2.605-2.162-4.962-2.162-3.06 0-4.854.316-5.382.949-.49.6-.738 2.723-.738 6.378 0 4.92 2.021 7.378 6.069 7.378 3.094 0 4.89-.296 5.38-.894.53-.635.791-2.795.791-6.484zm-17.358-10.91c0 1.967-.124 3.108-.368 3.425-.212.282-1.036.422-2.482.422-1.791 0-2.898.368-3.323 1.107-.317.596-.475 2.196-.475 4.797v11.963c-2.251 0-3.568-.156-3.956-.473-.353-.317-.527-1.405-.527-3.268V16.265c1.72 0 2.723.12 3.007.366.279.248.418 1.125.418 2.636 1.093-2.248 3.661-3.285 7.706-3.107zm-15.513 21.714c-1.723 0-2.726-.122-3.008-.367-.278-.282-.42-1.197-.42-2.74-1.16 2.248-3.798 3.37-7.913 3.37-3.344 0-5.666-.912-6.967-2.74-1.055-1.51-1.582-3.952-1.582-7.327V16.264c2.214 0 3.5.157 3.85.473.387.317.581 1.46.581 3.426v8.276c0 2.107.316 3.566.95 4.375.773 1.02 2.252 1.527 4.433 1.527 2.778 0 4.395-.245 4.852-.737.46-.526.689-2.319.689-5.377V16.264c2.25 0 3.55.157 3.904.473.384.317.581 1.46.581 3.426l.05 17.71zm-23.266 0h-14.196c-2.283 0-3.623-.155-4.01-.473-.387-.317-.578-1.44-.578-3.373v-19.29c0-1.936.19-3.058.577-3.377.388-.314 1.728-.474 4.01-.474h10.398c1.9 0 3.006.16 3.322.474.318.32.477 1.441.477 3.377h-14.196v7.482h9.13c1.864 0 2.955.157 3.272.475.315.315.473 1.407.473 3.267h-12.875v8.066h10.08c2.077 0 3.272.155 3.588.474.351.314.528 1.443.528 3.372z"/><path fill="#FFF" d="M161.841 24.867c0 13.736-11.143 24.867-24.894 24.867-13.752 0-24.898-11.131-24.898-24.867C112.049 11.133 123.195 0 136.947 0c13.751 0 24.894 11.133 24.894 24.867"/><path fill="#E2001A" d="M125.522 24.867l11.425 11.41 11.424-11.41-11.425-11.41-11.424 11.41zm-11.71 0c0-12.764 10.358-23.11 23.135-23.11 12.776 0 23.135 10.346 23.135 23.11s-10.359 23.11-23.135 23.11c-12.777 0-23.136-10.346-23.136-23.11z"/><path fill="#1C297B" d="M104.578 16.265c0 1.827-.159 2.897-.475 3.214-.28.318-1.336.473-3.166.473h-2.112v11.702c0 1.721.705 2.583 2.112 2.583 1.724 0 2.728.157 3.008.475.282.317.423 1.423.423 3.319-.703.035-1.355.052-1.952.052-2.886 0-4.978-.49-6.28-1.474-1.267-1.02-1.899-2.67-1.899-4.955V20.007h-2.903l.053-2.69c1.548 0 2.41-.105 2.586-.317.178-.21.264-.984.264-2.319v-3.846h4.484v5.43h5.857zm-15.67 21.608c-2.252 0-3.571-.155-3.96-.473-.35-.317-.525-1.44-.525-3.373V16.264c2.252 0 3.551.157 3.904.473.385.282.581 1.354.581 3.215v17.921zm0-22.98c-2.252 0-3.571-.156-3.96-.475-.35-.316-.525-1.44-.525-3.372V9.57c2.427 0 3.728.051 3.904.157.385.21.581 1.196.581 2.952v2.215zm-8.917 22.98c-1.725 0-2.728-.122-3.008-.367-.283-.282-.422-1.197-.422-2.74-1.197 2.248-3.958 3.37-8.284 3.37-6.156 0-9.236-3.705-9.236-11.12 0-7.414 3.062-11.122 9.183-11.122 3.659 0 6.104.985 7.334 2.953V8.04c2.217 0 3.499.16 3.85.477.387.316.583 1.42.583 3.318v26.038zm-4.38-10.857c0-2.39-.369-4.128-1.108-5.218-.913-1.407-2.55-2.108-4.908-2.108-2.99 0-4.73.316-5.223.946-.491.6-.738 2.726-.738 6.38 0 2.424.369 4.198 1.107 5.323.914 1.37 2.515 2.055 4.801 2.055 3.026 0 4.786-.298 5.278-.896.528-.631.791-2.792.791-6.482zm-18.943-1.74c0 1.793-.192 2.846-.579 3.162-.388.282-1.742.423-4.064.423H40.733c0 1.65.51 2.968 1.53 3.952 1.056.984 2.55 1.478 4.485 1.478h4.748c1.76 0 2.78.157 3.063.474.316.28.474 1.335.474 3.16h-8.125c-7.142 0-10.712-3.634-10.712-10.908C36.196 19.672 39.801 16 47.012 16c3.132 0 5.559.895 7.283 2.688 1.582 1.652 2.373 3.848 2.373 6.588zm-4.643 0c.036-.07.036-.106 0-.106.071-3.795-1.742-5.69-5.435-5.69-2.886 0-4.59.243-5.117.737-.493.492-.74 2.178-.74 5.06h11.292zm-16.41-9.116c0 1.966-.124 3.107-.37 3.424-.21.282-1.036.422-2.478.422-1.796 0-2.9.368-3.326 1.107-.316.596-.475 2.196-.475 4.797v11.963c-2.25 0-3.57-.156-3.957-.473-.352-.317-.527-1.405-.527-3.268V16.265c1.723 0 2.724.12 3.007.366.28.248.423 1.125.423 2.636 1.09-2.248 3.658-3.285 7.704-3.107zM20.684 37.978h-8.23c-4.644 0-7.987-1.352-10.026-4.056C.81 31.741 0 28.562 0 24.382c0-9.032 4.15-13.546 12.454-13.546h8.23c0 1.93-.16 3.056-.475 3.371-.281.318-1.32.475-3.113.475h-4.642c-2.92 0-4.733.105-5.435.317-1.056.28-1.725 1.087-2.006 2.425-.176.984-.264 3.301-.264 6.958 0 3.127.492 5.425 1.477 6.902 1.197 1.864 3.271 2.794 6.228 2.794h4.378c1.934 0 3.059.158 3.377.476.316.317.474 1.456.474 3.424z"/></g></svg>