<svg xmlns="http://www.w3.org/2000/svg" width="306" height="50" viewBox="0 0 306 50" preserveAspectRatio="xMinYMin meet"><path fill="#00447C" d="M305.042 10.144l-5.03 13.948 5.815 15.577h-7.76l-3.87-11.81h-1.453v11.81h-6.62V10.144h6.62v10.653h1.454l3.713-10.653h7.13zm-23.279 0V39.67h-6.64V27.86h-4.675v11.81h-6.64V10.144h6.64v10.653h4.675V10.144h6.64zm-40.9 29.525l5.52-29.525h8.566l5.814 29.525h-6.796l-.806-5.08h-4.695l-.805 5.08h-6.797zm10.04-20.5l-1.278 9.024h2.574l-1.297-9.025zm-28.465 20.5V10.144h15.519v7.043h-8.88v3.924h1.14c3.713 0 9.37 1.334 9.37 8.867 0 9.044-7.268 9.691-9.056 9.691h-8.093zm6.62-5.924h.962c.806 0 2.908-.49 2.908-3.61s-2.102-3.12-2.908-3.12h-.962v6.73zM217.9 39.669h-6.777V21.621l-4.047 5.257-4.047-5.257v18.048h-6.62V10.144h5.658l5.009 7.063 5.166-7.063h5.658V39.67zm-35.399.314c-8.074 0-10.667-7.533-10.667-15.086s2.75-15.086 10.667-15.086 10.667 7.553 10.667 15.086c0 7.553-2.75 15.086-10.667 15.086zm0-7.043c2.26 0 3.556-2.766 3.556-8.024 0-5.218-1.14-8.023-3.556-8.023-2.26 0-3.556 2.766-3.556 8.023 0 5.219 1.14 8.024 3.556 8.024zm-30.213 6.73V10.123h9.056c6.306 0 8.722 6.082 8.722 9.849 0 3.943-2.102 10.005-8.722 10.005h-2.259v9.691h-6.797zm6.62-22.973v6.866h1.611c.806 0 2.416-.314 2.416-3.433 0-2.453-.962-3.433-2.416-3.433h-1.61zm-22.139.51v22.462h-6.797V10.144H148.4V39.67h-6.797V17.207h-4.833zm-20.528 4.414c1.14 0 3.065-.648 3.065-2.963 0-2.628-2.26-2.805-2.908-2.805-.805 0-2.259.157-3.712.824V10.28c2.259-.647 3.89-.824 5.814-.824 5.48 0 7.917 3.944 7.917 7.71 0 3.767-2.102 6.062-4.204 6.886v.334c1.945.647 4.695 2.629 4.695 7.043 0 5.571-3.89 8.69-8.722 8.69-2.593 0-4.361-.333-6.306-1.471l.157-6.062c1.945.824 3.242.824 4.518.824 2.102 0 3.065-1.648 3.065-2.805 0-1.648-.963-2.806-3.399-2.806h-2.75v-6.238h2.77v.059zm-26.52 18.048l5.5-29.525h8.585l5.815 29.525h-6.797l-.805-5.08h-4.695l-.806 5.08h-6.797zM99.76 18.992l-1.297 9.024h2.593l-1.296-9.024zM76.619 39.669V10.144h13.928v7.376h-6.974v22.15h-6.954zM1.967 15.72c8.398-5.575 17.788-8.866 33.784-6.07.815-.496 1.295-.99 1.615-2.125-4.03-1.486-8.238-1.965-13.9-1.805-5.007.16-14.06 1.965-18.747 4.92l1.455-1.965C9.565 6.71 18.3 4.09 24.921 3.914c4.687-.16 7.119.16 12.605 1.645-.48-.99-1.615-1.486-3.231-2.125-5.662-2.46-15.516-2.62-23.77.99a31.864 31.864 0 0 1 3.391-1.964C16.668 1.134 21.035 0 26.521.16c4.367 0 9.534 1.645 12.765 4.92.48.655.816 1.326.975 1.805 2.592 1.326 4.031 2.46 4.847 3.93.336.655.48 1.485.336 2.46 1.136.655 1.616 1.15 2.096 1.805.335.655.64 1.31.64 1.805.16.83.16 1.645-.64 2.795.815.496 1.615 1.646 1.615 2.125.336 1.965-.816 3.77-2.415 5.256-1.936 1.645-5.983 3.61-9.374 4.425-6.622 1.645-12.445 2.46-17.131 3.29 2.095.496 5.006 1.15 9.533 1.15 9.87 0 18.747-4.76 18.747-4.76s-.16.655-.336 1.15c-6.302 3.93-16.331 5.575-20.538 5.256-4.367-.16-7.918-.83-11.645-1.965-1.136.335-2.096.655-3.231 1.15 5.486 2.46 9.533 3.115 14.22 3.435 4.687.335 12.605-.831 19.243-3.291-.336.335-.48.83-.816 1.15-3.391 1.805-10.51 3.61-14.22 3.77-3.551.16-7.918 0-11.805-.655-3.231-.655-5.983-1.645-8.734-2.955-.48.335-.816.83-.816 1.485 11.006 5.751 21.179 5.911 32.808 2.3l-.976 1.15c-12.765 5.257-22.794 3.292-30.552-.494-.336-.16-.48-.16-.816-.336.64 1.31 6.623 5.575 13.26 6.246 4.528.336 10.19-.495 13.421-1.805l-1.935.99c-1.616.831-5.823 2.62-11.805 2.125-7.918-.495-12.285-4.105-14.396-5.91-.976-.831-1.296-1.805-1.616-3.115-1.775-.99-2.911-1.965-3.887-3.435-.48-.83-.336-1.805-.16-2.62 0-.335.16-.495.16-.655-.816-.655-1.775-1.31-2.095-1.964-.816-1.486-.336-2.62.16-3.61-.48-.496-.976-1.15-1.136-1.646-.16-.655-.336-1.31-.16-1.965.16-1.15.816-2.3 1.616-3.29 1.775-1.966 4.366-3.61 9.053-5.08 4.527-1.486 6.303-1.806 9.87-2.62 4.03-.99 8.733-1.326 12.764-2.62-11.149-2.125-22.634-.336-32.167 6.246l.64-1.805.08-.064zm37.959-6.997c-.16.495-.816 1.15-1.136 1.645 1.296.336 2.415.831 3.55 1.326 0-1.166-1.295-2.156-2.414-2.971zM5.503 31.342a11.141 11.141 0 0 1-1.776-1.15c-.336.655.336 1.485.976 1.965.304-.32.624-.48.8-.815zm37.814-14.76c.815.335 1.455.654 2.271 1.15.48-.99.16-1.646-.816-2.46-.48.495-.96.99-1.455 1.31zM40.9 18.066c-1.615.83-4.03 1.645-7.278 2.46-2.751.655-9.373 1.646-16.651 3.29-2.272.496-8.398 1.966-11.47 4.586.816.654 1.296.83 2.272 1.31 1.296-.831 2.911-1.646 5.487-2.3 4.366-1.151 7.758-1.646 11.644-2.301 3.887-.655 11.31-2.125 15.516-3.77 1.296-.495 2.592-1.15 3.552-1.805-.336-.336-3.072-1.646-3.072-1.47zM9.71 35.607c.64-.335 1.296-.655 2.096-1.15-1.136-.495-2.271-.99-3.551-1.646-.48.336-.976.655-1.456 1.15 1.136.512 2.096.991 2.911 1.646zm-3.727.335c0 .831.48 1.486 1.456 2.3.16-.335.336-.654.64-1.15-.816-.319-1.456-.814-2.096-1.15zm5.487-13.945c8.078-2.46 16.652-3.115 25.225-5.416-3.39-.99-5.166-1.325-8.733-.83-5.167.655-10.83 1.805-15.676 3.29-1.936.655-11.965 3.435-9.054 7.54 0-.143 1.792-2.603 8.238-4.584zm30.392-8.37c-1.296-.656-2.911-1.151-4.687-1.646-.816.655-1.615 1.15-3.07 1.645 2.27.336 3.886.99 5.662 1.486.32.335 1.935-1.15 2.095-1.486zm4.031 7.89c-.336.16-.48.496-.816.656-1.775 1.485-4.687 2.62-8.734 3.61-8.397 2.3-14.396 2.62-21.178 4.28-1.296.336-2.751.832-4.03 1.327a46.71 46.71 0 0 0 4.03 1.805c2.751-.83 4.207-1.15 8.238-1.805 1.615-.336 6.302-1.15 9.693-1.805 6.175-1.358 15.212-4.138 12.797-8.067h.016-.016z"/></svg>