<svg xmlns="http://www.w3.org/2000/svg" width="691" height="49" viewBox="0 0 691 49" preserveAspectRatio="xMinYMin meet"><path fill="#C8102E" d="M664.448 31.022l-6.62 7.684v9.183H646.72V3.056h11.108V23.55l17.94-20.494h13.242l-17.086 19.638 18.58 25.195h-13.88l-12.176-16.867zm-27.124-28.18v44.833h-8.543l-21.572-24.553v24.55h-11.105V2.842h8.543l21.571 25.191V2.842h11.106zM577.52 39.989h-19.01l-2.987 7.683h-11.961l19.009-44.83h10.677l19.01 44.833h-11.962l-2.776-7.686zm-3.63-9.18l-5.98-15.159-5.981 15.158h11.961zm-30.756 4.483c0 7.472-5.98 12.38-16.019 12.38h-22.639V2.842h21.358c9.824 0 15.38 4.697 15.38 11.955 0 4.056-2.352 8.54-6.198 9.82 5.342 1.28 8.118 5.977 8.118 10.675zm-27.552-23.27v9.392h8.331c4.272 0 6.62-2.133 6.62-4.908 0-2.778-2.348-4.27-6.62-4.27h-8.331v-.214zm16.66 21.775c0-2.778-2.35-4.27-6.408-4.27h-10.252v8.967h10.038c4.485 0 6.622-1.922 6.622-4.697zM478.42 12.875h-12.814v34.797h-11.106V12.875h-12.814V2.842h36.734v10.033zM435.704 2.842v44.833h-11.108V2.839l11.108.003zm-17.086 22.416c0 13.236-10.038 22.628-24.136 22.628h-17.94V3.056h17.94c13.884-.214 24.136 8.966 24.136 22.202zm-11.322 0c0-6.833-5.552-12.166-12.812-12.166h-6.836v24.76h6.836c7.26-.213 12.812-5.55 12.812-12.594zm-61.082-12.594v8.111h19.862v9.392h-19.862v7.686h22.639v9.605h-33.961V2.628h33.96v9.608h-22.638v.428zm-29.69 35.008l-8.542-13.022h-8.33v13.022h-11.319V2.842h19.649c11.108 0 18.58 5.977 18.58 15.797 0 5.764-2.775 10.675-7.475 13.45l10.466 15.583h-13.028zM299.44 24.833h8.331c4.272 0 7.688-2.347 7.688-5.977 0-3.628-3.419-5.978-7.688-5.978h-8.331v11.955zm-29.259 6.828h11.745c-2.349 10.247-10.678 17.078-21.997 17.078-13.456 0-23.706-9.82-23.706-23.267 0-13.45 10.25-23.27 23.706-23.27 11.32 0 19.648 6.831 21.997 17.079H270.18c-1.709-4.27-5.341-6.617-10.252-6.617-7.262 0-12.39 5.336-12.39 12.808 0 7.47 5.128 12.809 12.387 12.809 4.914 0 8.546-2.564 10.255-6.62zM189.02 12.664v8.111h19.862v9.392H189.02v7.686h22.639v9.605h-33.961V2.628h33.96v9.608H189.02v.428zm-20.29 35.008h-11.106V25.256l-10.038 15.372h-6.197l-10.036-15.584v22.628h-11.105V2.842h8.329l15.805 23.91 15.804-23.91h8.33v44.833l.213-.003zm-98.676-11.1h20.932c-1.495 4.484-5.552 7.686-10.466 7.686-4.91 0-8.97-3.202-10.466-7.686zM80.52.922V.92c17.723 0 32.035 13.664 32.038 30.531 0 5.975-1.923 11.528-4.913 16.222H92.267c4.7-3.628 7.69-9.178 7.69-15.583 0-10.675-8.758-19.425-19.438-19.425s-19.434 8.75-19.434 19.425c0 6.405 2.99 11.955 7.687 15.583H53.395c-3.204-4.694-4.913-10.247-4.913-16.222 0-16.867 14.31-30.528 32.037-30.528zm-39.938 1.92v44.833H29.475V31.022H11.32v16.864H.214V3.056h11.105v17.933h18.156V3.056h11.106v-.214z"/></svg>