<svg xmlns="http://www.w3.org/2000/svg" width="202" height="50" viewBox="0 0 202 50" preserveAspectRatio="xMinYMin meet"><path fill="#A83122" fill-rule="evenodd" d="M88.518 38.603h2.089v4.894l3.508-4.894h2.501l-4.255 5.55 4.255 5.734h-2.501l-3.508-4.94v4.94h-2.089V38.603zm-10.37 0h2.09v4.528h4.117v-4.528h2.09v11.284h-2.09V45.16h-4.118v4.727H78.15V38.603zm-7.517 0h1.677l4.697 11.284h-2.303l-1.159-2.913h-4.147l-1.16 2.913h-2.302l4.697-11.284zm2.12 6.344l-1.282-3.295-1.28 3.295h2.561zm-8.449-6.344v2.027h-4.498v2.318h1.8c3.598 0 3.735 2.898 3.735 3.478 0 2.059-1.525 3.461-3.736 3.461h-3.889V38.603h6.588zm-4.498 9.256h1.814c1.144 0 1.632-.717 1.632-1.433 0-.534-.32-1.45-1.632-1.45h-1.814v2.883zm134.415-26.845v7.93l5.032-7.93h2.088V32.3h-2.088v-7.93l-5.032 7.93h-2.09V21.014h2.09zm1.525-2.745c.077.533.533.762.99.762.459 0 .916-.229.993-.762h1.752c-.197 1.22-1.22 2.134-2.745 2.134-1.524 0-2.546-.915-2.745-2.134h1.755zm-7.778 2.745h2.089V32.3h-2.09V21.014zm-6.557 0v4.347h1.677c2.79 0 3.737 1.784 3.737 3.476 0 2.06-1.541 3.463-3.737 3.463h-3.768V21.014h2.09zm0 9.257h1.692c.961 0 1.632-.534 1.632-1.434 0-.915-.671-1.45-1.632-1.45h-1.692v2.884zm-12.46-9.257h2.09v4.53h4.117v-4.53h2.09V32.3h-2.09V27.57h-4.117V32.3h-2.09V21.014zm-6.755 0v4.347h1.679c2.79 0 3.735 1.784 3.735 3.476 0 2.06-1.54 3.463-3.735 3.463h-3.768V21.014h2.09zm0 9.257h1.693c.962 0 1.632-.534 1.632-1.434 0-.915-.67-1.45-1.632-1.45h-1.693v2.884zm-3.232 2.029h-2.303l-3.081-8.388-3.08 8.388h-2.302l4.468-11.286h1.83l4.468 11.286zm-17.355-11.286h1.677l4.697 11.286h-2.3l-1.16-2.913h-4.148l-1.16 2.913h-2.303l4.697-11.286zm2.12 6.343l-1.28-3.293-1.282 3.293h2.562zm-15.081-6.343v7.93l5.032-7.93h2.09V32.3h-2.09v-7.93l-5.032 7.93h-2.09V21.014h2.09zm-10.63 0h3.157c3.614 0 4.041 2.455 4.041 3.523 0 1.418-.762 3.491-4.041 3.491h-1.067V32.3h-2.09V21.014zm2.09 4.987h1.236c.547 0 1.783-.091 1.783-1.48 0-1.387-1.236-1.479-1.783-1.479h-1.236v2.959zm-7.366-2.959h-2.09v-2.028h6.269v2.028h-2.09V32.3h-2.09v-9.258zm-4.848 1.205c-.565-.717-1.495-1.404-2.837-1.404-2.257 0-3.828 1.83-3.828 3.814 0 2.12 1.678 3.889 3.842 3.889 1.007 0 2.013-.397 2.716-1.311h2.425c-.93 1.982-2.747 3.339-5.201 3.339-3.95 0-5.87-3.325-5.87-5.917 0-2.517 1.905-5.842 5.9-5.842 2.334 0 4.285 1.267 5.231 3.432h-2.378zM94.41 32.3h-2.287l1.327-2.868-4.331-8.418h2.531l2.974 6.008 2.608-6.008h2.286L94.41 32.3zm-4.717-2.03h1.052v3.42h-2.09V32.3h-8.143v1.39h-2.088v-3.42h1.082l4.178-9.256h1.83l4.179 9.257zm-2.303 0l-2.791-6.358-2.79 6.359h5.58zM69 21.015h2.088v4.53h4.118v-4.53h2.089V32.3h-2.09V27.57h-4.117V32.3H69V21.014zm-9.196 0v7.93l5.033-7.93h2.089V32.3h-2.09v-7.93l-5.032 7.93h-2.09V21.014h2.09zM161 2.885v7.93l5.032-7.93h2.089v11.286h-2.09v-7.93l-5.031 7.93h-2.09V2.885h2.09zm1.524-2.744c.077.533.533.761.991.761.457 0 .916-.228.992-.76h1.754c-.2 1.218-1.221 2.133-2.746 2.133S160.97 1.36 160.772.14h1.753zm-12.81 2.744v7.93l5.033-7.93h2.088v11.286h-2.088v-7.93l-5.033 7.93h-2.089V2.885h2.09zm-11.543 0h2.089v4.896l3.507-4.896h2.501l-4.254 5.552 4.254 5.734h-2.5L140.26 9.23v4.941h-2.09V2.885zm-3.72 3.233c-.566-.716-1.496-1.402-2.838-1.402-2.256 0-3.827 1.83-3.827 3.813 0 2.12 1.677 3.888 3.843 3.888 1.006 0 2.013-.395 2.715-1.311h2.424c-.93 1.982-2.746 3.34-5.201 3.34-3.95 0-5.87-3.325-5.87-5.917 0-2.517 1.906-5.842 5.9-5.842 2.335 0 4.286 1.266 5.231 3.431h-2.378zm-17.02-3.233h2.715c.701 0 3.919.016 3.919 2.975 0 1.403-.931 1.982-1.235 2.15 1.22.412 1.92 1.464 1.92 2.73 0 1.631-.883 3.431-4.498 3.431h-2.82V2.885zm3.446 9.258c.244 0 1.784-.015 1.784-1.418 0-.427-.152-1.464-1.784-1.464h-1.357v2.882h1.357zm-.38-4.912c1.371 0 1.479-.868 1.479-1.159 0-1.097-1.022-1.158-1.48-1.158h-.976v2.317h.977zm-4.56 1.36c0 3.262-2.593 5.856-5.949 5.856-3.353 0-5.946-2.594-5.946-5.857 0-3.265 2.577-5.903 5.946-5.903 3.371 0 5.949 2.638 5.949 5.903zm-2.09-.048c0-2.103-1.646-3.827-3.859-3.827-2.21 0-3.856 1.724-3.856 3.827 0 2.137 1.661 3.874 3.843 3.874 2.24 0 3.873-1.769 3.873-3.874zM96.145 2.885h2.089v4.896l3.506-4.896h2.501l-4.253 5.552 4.253 5.734h-2.5L98.232 9.23v4.941h-2.09V2.885zm-3.721 3.233c-.565-.716-1.495-1.402-2.836-1.402-2.258 0-3.829 1.83-3.829 3.813 0 2.12 1.677 3.888 3.843 3.888 1.006 0 2.013-.395 2.714-1.311h2.425c-.93 1.982-2.744 3.34-5.199 3.34-3.95 0-5.872-3.325-5.872-5.917 0-2.517 1.906-5.842 5.902-5.842 2.333 0 4.285 1.266 5.23 3.431h-2.378zM82.754 8.59c0 3.263-2.593 5.857-5.947 5.857-3.355 0-5.947-2.594-5.947-5.857 0-3.265 2.578-5.903 5.947-5.903 3.371 0 5.947 2.638 5.947 5.903zm-2.09-.047c0-2.103-1.646-3.827-3.857-3.827-2.211 0-3.858 1.724-3.858 3.827 0 2.137 1.662 3.874 3.843 3.874 2.242 0 3.873-1.769 3.873-3.874zm-22.95-5.658h2.836l2.99 8.632 2.99-8.632h2.836v11.286h-2.09V5.723l-2.852 8.448h-1.769l-2.851-8.448v8.448h-2.09V2.885zM0 50V2.885h5v41.53l11.496.053 9.898-32.901h12.83V42.06l-14.087-.053 1.467-5.188 7.645.052V15.59h-4.084l-10.16 34.303L0 50zM8.064 2.897V41.61h6.076l9.95-33.007H42v35.89H24.51l-1.623 5.454h24.247V2.885H20.424l-7.332 25.093V2.885l-5.028.012z"/></svg>