<svg xmlns="http://www.w3.org/2000/svg" width="135" height="50" viewBox="0 0 135 50" preserveAspectRatio="xMinYMin meet"><path fill="#ED1C24" d="M134.74 14.213v5.273c-1.722-1-2.809-.91-5.436-.91-3.172 0-5.437.819-5.437 3.182v6.546c0 3 2.537 3.636 5.437 3.636 2.718 0 4.258 0 5.436-.636v5.09c-.997.728-3.534.819-5.436.728-7.34 0-12.05 0-12.05-5.91V19.305c0-5.091 4.71-5.91 12.05-5.91 1.993 0 3.986 0 5.436.819zM100.31 37.03V18.85h-7.248v-5.454h21.745v5.454h-7.158v18.182h-7.339zm-38.96 0l1.813-23.636h6.251l6.433 13.272 6.342-13.272h6.252l1.812 23.636h-7.248l-.906-11.818-4.44 10h-3.624l-5.255-10-.906 11.818h-6.523zM3.546.941A2.634 2.634 0 0 0 .918 3.576v43a2.634 2.634 0 0 0 2.627 2.636h42.856a2.634 2.634 0 0 0 2.627-2.636v-43A2.634 2.634 0 0 0 46.401.94H3.545zm21.02 4.726c6.07-.09 13.682 11 13.59 22.728.092 7.182-3.26 15.182-13.59 15.363-9.966-.181-13.68-8.09-13.59-15.363-.09-11.364 7.339-22.728 13.59-22.728z"/></svg>