<svg xmlns="http://www.w3.org/2000/svg" width="298" height="50" viewBox="0 0 298 50" preserveAspectRatio="xMinYMin meet"><g fill="none" fill-rule="evenodd"><path fill="#1B3F92" d="M297.093 19.17l-5.84 8.005 6.43 9.908h-5.704l-5.666-8.906v8.906H281.2V19.17h5.113v8.246l5.736-8.246h5.044zm-18.866 17.913h-5.113v-7.987h-5.63v7.987h-5.185V19.17h5.184v6.653h5.631v-6.653h5.113v17.912zm-23.392-2.832v-6.365c-2.177.291-5.39.67-5.39 3.786 0 3.821 4.11 3.111 5.39 2.579zm-10.124-2.285c0-2.454 1.278-4.275 3.732-5.221 1.107-.381 2.108-.677 2.971-.816.863-.152 2.006-.292 3.385-.485v-.567c.105-2.595-1.38-3.078-3.212-3.078-1.659 0-3.386.533-4.907 1.35l-.344-3.218a18.85 18.85 0 0 1 6.462-1.141c1.382 0 2.59.137 3.525.483 1.967.572 3.005 2.111 3.246 3.922.069.383.069 1.002.069 1.82v11.148c-4.49 1.732-14.927 2.891-14.927-4.197zm-7.705 1.676c1.004-1.398 1.281-3.355 1.28-5.225 0-1.43-.138-3.02-.76-4.564-.521-1.432-1.554-2.143-2.73-2.143-.9 0-1.624.296-2.143.954-1.035 1.19-1.417 3.112-1.417 4.946 0 2.19.69 7.068 3.664 7.068.9 0 1.59-.325 2.106-1.036zm6.219-9.545c.346 1.438.518 2.682.518 3.838 0 5.847-2.797 9.583-8.877 9.583-4.424 0-6.843-2.457-8.053-5.708-1.034-2.817-1.105-8.853-.518-12.345.863-5.36 4.39-8.041 8.053-8.905 3.386-.778 7.495-1.349 7.495-1.349l.379 3.839s-2.241.43-6.215 1.053c-4.008.675-6.016 3.01-6.016 7.746 3.009-4.496 9.229-3.11 10.989-1.433 1.104 1.052 1.9 2.296 2.245 3.68zM210.23 37.083V19.17h5.078v5.651c1.069-.048 1.762-.048 2.037-.048 2.35 0 4.113.381 5.183 1.19 1.28.968 2.143 2.682 2.073 4.552-.138 5.841-6.047 6.949-9.26 6.949-3.352-.001-5.11-.382-5.11-.382zm5.078-2.889s4.63.97 4.63-3.437c0-.816-.139-1.438-.45-1.852-.519-.914-1.694-1.073-2.938-1.073h-.726c-.069 0-.241 0-.516.055v6.307zm-15.652 3.27c-1.624 0-3.351-.14-4.872-.71l.414-3.112c1.21.711 2.35 1.036 3.733 1.036 2.592 0 4.006-1.19 3.94-2.87 0-.81-.243-1.433-.796-1.868-.517-.427-1.072-.67-1.796-.706-.692-.053-1.245-.104-1.728-.104h-1.244v-2.684h.345c1.9 0 4.872-.082 4.872-2.537.036-1.902-1.968-2.338-2.971-2.338-1.624 0-2.902.381-4.355 1.142l-.275-2.952c1.796-.729 3.765-1.022 5.737-1.022 4.146-.088 6.736 1.78 6.632 4.596.07 2.303-1.9 3.652-3.282 4.082.9.194 1.658.415 2.282.85 1.243.83 1.727 2.214 1.727 3.46 0 2.294-1.244 3.868-3.043 4.735-1.796.812-3.731 1.002-5.32 1.002zm-12.544-10.532V21.66s-.623-.09-1.865-.09c-1.279 0-2.87.47-2.87 2.527 0 2.025 1.004 2.834 3.457 2.834h1.278zm-1.14-8.194c3.731 0 6.185.433 6.185.433v17.912h-5.045V29.94h-1.52l-3.836 7.143h-5.319l4.8-8.092c-2.485-.677-3.73-2.247-3.73-4.794 0-4.837 4.697-5.459 8.465-5.459zm-20.42 7.903v-.001h1.177c2.487 0 3.56-.863 3.56-2.627 0-.92-.486-2.353-2.939-2.353-1.278 0-1.797.05-1.797.05v4.93zm1.28 2.782h-1.28v5.083s.657.034 1.28.034c2.245 0 3.972-.704 3.972-2.674 0-.818-.239-1.44-.725-1.767-.484-.401-1.002-.586-1.624-.62-.621-.056-1.14-.056-1.624-.056zm5.079-1.87c2.867.38 4.113 2.303 4.01 4.257v.194c-.138 4.56-5.6 5.46-9.193 5.46-3.627 0-6.15-.38-6.15-.38V19.17s2.383-.432 6.15-.432c1.97 0 4.215.188 5.84.917.863.329 1.555.912 1.969 1.569.38.623.588 1.35.588 2.267 0 2.043-1.072 3.391-3.214 4.061zm-18.313 9.91c-5.906 0-9.189-3.592-9.189-9.425 0-5.81 3.49-9.3 9.258-9.3 1.59 0 2.731.188 4.215.725l-.552 3.249c-.967-.483-1.797-.76-2.834-.76-3.456 0-4.938 2.822-4.938 5.934 0 3.162 1.448 6.308 4.972 6.308 1.072 0 1.934-.22 2.87-.706l.378 3.3c-1.416.486-2.66.676-4.18.676zm-33.17-.38l1.864-17.912h5.944l3.697 12.208 3.664-12.208h5.875l1.726 17.912h-4.733l-1.003-12.885-3.87 12.885h-4.112l-3.939-12.986-1.002 12.986h-4.111zm-9.501-2.439c1.486 0 2.489-1.21 2.902-2.78.382-1.628.45-2.77.45-3.979 0-1.729-.207-3.01-.69-4.308-.52-1.35-1.625-2.008-2.662-2.008-1.486 0-2.557 1.06-3.007 2.527-.484 1.401-.587 2.834-.587 3.79.001 2.212.519 6.758 3.594 6.758zm-.38 2.82c-5.91 0-8.466-3.732-8.466-9.336 0-5.796 3.041-9.39 8.984-9.39 2.108 0 3.835.485 5.114 1.453 1.276.95 2.138 2.14 2.519 3.578a13.98 13.98 0 0 1 .657 4.221c0 6.03-2.557 9.474-8.808 9.474zm-15.376-9.959c0-6.709-4.667-6.12-6.394-5.706v11.69c.692.153 6.394 2.348 6.394-5.984zM83.598 44.311V19.656c4.488-.917 16.652-3.443 16.652 7.47 0 2.87-.76 5.36-2.247 7.068-2.901 3.511-7.671 3.131-9.226 2.509v7.61h-5.179v-.002zm-8.466-28.443h-7.844v21.215h-5.494V12.376H80.59v24.707h-5.46V15.868z"/><g fill-rule="nonzero"><path fill="#1B3F92" d="M34.415 19.04v-.053c.953-.302 2.225-1.095 2.225-3.182 0-2.35-1.907-3.428-4.591-3.428h-4.557v5.62h-2.68c-3.601 0-4.345 2.526-4.345 3.905 0 1.96 1.13 2.827 3.216 3.866 1.27.637 2.786 1.025 2.786 2.477 0 .76-.703 1.68-2.221 1.68h-2.826c.424-.727.6-1.519.6-2.211 0-.898-.317-4.505-5.332-4.505h-4.096v13.905h2.789v-6.059l1.13 1.13h7.629c3.562 0 5.258-1.836 5.258-4.027 0-.778-.142-1.4-.39-1.908h2.862c4.413 0 5.438-2.193 5.438-3.911 0-1.742-1.129-3.036-2.895-3.3zM16.69 29.924h-1.307v-4.544h1.307c1.625 0 2.366.99 2.366 2.192 0 1.116-.67 2.352-2.366 2.352zm10.803-8.623v3.373c-.67-.403-1.444-.723-2.256-1.076-.883-.388-1.836-.882-1.836-2 0-.566.353-1.41 2.047-1.41h3.14l-1.095 1.113zm2.79-6.75h1.271c2.156 0 2.26 1.326 2.26 1.73 0 .602-.317 1.717-2.154 1.717h-1.378v-3.447zm1.59 9.507h-1.59v-3.872h1.59c1.942 0 2.471.938 2.471 1.928 0 .991-.705 1.944-2.47 1.944z"/><path fill="#1B3F92" d="M49.435 12.066c0-6.65-5.385-12.039-12.028-12.039H20.415c-5.483 0-10.159 3.698-11.578 8.811h20.54c7.9 0 11.255 3.679 11.255 12.311V40.66c5.095-1.42 8.803-6.117 8.803-11.585v-17.01z"/><path fill="#EA5B0C" d="M0 37.431c0 6.65 5.386 12.039 12.028 12.039H29.02c5.483 0 10.158-3.698 11.578-8.811h-20.54c-7.9 0-11.255-3.679-11.255-12.311V8.837C3.708 10.257 0 14.954 0 20.422v17.01z"/></g></g></svg>