<svg xmlns="http://www.w3.org/2000/svg" width="103" height="50" viewBox="0 0 103 50" preserveAspectRatio="xMinYMin meet"><g fill="none"><path fill="#001C85" d="M.029.205h49.774v49.737H.029z"/><g fill="#FFF"><path d="M15.158 16.258c.38.818.965 1.637 2.604 2.777.351.264.76.76.468 1.52-.322.732-.878 1.784-.556 2.194.351.41 1.58.614 2.605.204 0 0 .204.644.585 1.053 0 0-.176.351-.761.176 0 0 .205.526-.088 1.081 0 0-.673-.117-.965-.73 0 0-.264.497-.82.643 0 0-.439-.234-.35-1.111 0 0-.323.79-1.347.935 0 0-.585-.73.176-1.725 0 0-.556.497-1.522.263 0 0-.146-.497.732-1.199 0 0-.995-.029-1.405-.877 0 0 .439-.526 1.463-.41 0 0-.966-.204-1.17-1.373 0 0 .702-.439 1.814.263 0 0-.205-.38-.644-.731-.468-.41-1.024-1.433-.82-2.953m4.039 11.666a3.097 3.097 0 0 1-.351-.585c.175 1.404.234 2.369.995 3.275 0 0 .468-.614.175-2.076a1.07 1.07 0 0 1-.41-.204s.176.614.059 1.198c0 0-.263-.175-.468-1.608m-1.317-.146a4.104 4.104 0 0 1-.351-.526c-.059.818-.293 2.953.439 3.625 0 0 .497-.35.673-3.508-.117.175-.293.35-.38.468 0 0 .117.994-.235 1.695 0 .03-.38-.233-.146-1.754m-1.726 1.637c.614-.73.79-2.894.79-2.894l.263-.176.088-.087v.233c-.088 1.316-.205 2.661-.585 3.334-.41.643-1.142.994-1.142.994-.702-1.228.147-2.866.849-4.006.088-.03.176-.088.263-.117-.234.877-.702 1.93-.526 2.72m-1.697-3.743c0 .146.029.263.029.321 0 .03.029.059.029.088-.585.556-.995 1.111-1.873 2.31-.848 1.199-2.224 1.228-2.224 1.228.147-.965.38-1.725 1.112-2.544.732-.818 1.668-1.579 2.341-2.076.176.088.41.117.703.088h.058a.988.988 0 0 0-.175.35c-.527.293-2.02 1.053-2.634 2.282.03-.03.995-.322 2.634-2.047m-1.083-1.2l.058-.087c.03-.029.03-.058.059-.087-.556.204-2.546.964-3.19 1.286-.643.322-1.58 1.082-2.077 2.632 0 0 1.346.117 2.458-.79 1.112-.906 2.4-2.193 2.955-2.602-.058-.059-.088-.088-.117-.146 0 0-1.492 1.315-3.072 1.9 0 0 .35-.614.965-1.052.732-.585 1.288-.76 1.96-1.053m-1.14-.936c.029-.058.058-.117.058-.146-.644.146-2.282.322-3.014.556-.731.234-2.048.76-2.838 2.251 0 0 1.141.351 3.336-.672 2.165-1.024 2.867-1.228 3.277-1.345a1.826 1.826 0 0 1-.673-.205c-.878.38-2.02.848-3.19.877 0 0 .556-.41 1.17-.643a16.394 16.394 0 0 1 1.874-.673m.058-1.052c.205.087.38.146.644.175a1.67 1.67 0 0 0-.41.38c-.76.234-2.077.468-4.243.614-2.136.176-3.306-.234-3.306-.234.76-.468 1.96-.935 2.75-1.082.82-.146 2.927-.146 3.863-.263 0 0 .117.088.322.205-.79.058-2.458.146-3.307.585 0 0 1.58.204 3.687-.38m-.146-1.258c.117-.058.234-.117.41-.175-1.083-.322-2.605-.848-4.858-.994-1.668-.117-2.838 0-3.453.146 0 0 1.522 1.053 3.22 1.433 1.725.38 3.13.146 4.154.146.059-.088.146-.205.264-.322-1.2 0-3.19-.292-3.892-.526-.03-.03 1.697-.38 4.155.292m-.03-1.286c0 .029.147.643.85.994-1.522-.673-4.566-1.053-6.175-1.725-2.195-.907-2.604-2.047-2.604-2.047 1.902-.058 3.423.41 4.623.79 1.375.409 3.482 1.198 4.243 1.55-.263 0-.585.087-.849.262-1.024-.409-1.521-.555-2.458-.818-.731-.205-1.287-.234-1.755-.293 0 0 .644.439 1.726.76 1.083.322 1.551.38 2.4.527m-.117-1.667c.058.117.234.38.321.468-2.428-.41-5.091-2.252-5.91-3.363-.82-1.14-.586-2.836-.586-2.836.79.146 2.546 1.667 2.985 2.105.439.439 1.814 1.784 2.75 2.515l.293.848c-.82-.643-1.755-1.374-2.37-1.813-.468-.35-1.141-.848-1.843-1.082 0 0 .643.819 1.14 1.228.586.468 1.171.877 1.669 1.14.468.235.673.38 1.55.79"/><path d="M18.845 25.059c.088-.059.146-.117.205-.176.117.147.497.614.673 1.082.146.41.292.936.35 1.257.088.322.293.965.44 1.17 0 0-.586.088-1.025-.439-.438-.497-.585-.994-.643-1.52a5.4 5.4 0 0 1 0-1.374m-.937.087c.117.147.205.205.234.205l.088.03.088-.03c.088-.03.146-.058.205-.088.088.234.117.351.146.556.03.263.088.702-.03 1.053-.116.409-.38.672-.526.848 0 0-.38-.439-.497-.76a1.956 1.956 0 0 1 0-1.229c.058-.263.175-.468.292-.585m-1.316.03c.41-.059.702-.205.907-.351a.908.908 0 0 1 .058.585 1.387 1.387 0 0 1-.497.76c-.41.321-.937.614-1.522.526 0 0-.117-.438 1.054-1.52"/><path d="M16.153 24.445c.058.38.234.643.263.672-.146.176-.644 1.024-1.668.877 0 0-.292-.584.41-1.052.439-.322.673-.38.995-.497m.087-.731a2.661 2.661 0 0 1-1.082 0l-.117-.03-.03-.116c-.526.438-1.17.497-1.375.906 0 0 .264.497.966.41.702-.088 1.2-.41 1.58-.878-.03-.058.03-.205.058-.292m-1.2-.614c.089-.147.176-.38.381-.614a3.269 3.269 0 0 0-1.404.029c-.644.117-1.288.263-1.61 1.228 0 0 .41.35 1.141.205.615-.117 1.17-.38 1.493-.848m-.264-1.053c-.146-.146-.321-.322-.41-.556l-.058-.116c-.556-.234-1.141-.322-1.697-.117-.556.204-.702.438-.849.672 0 0 .615.526 1.346.526.703.03 1.376-.175 1.668-.409m.147-1.14c.087-.03.205-.059.322-.088a1.83 1.83 0 0 1-.586-1.023c-.263.058-.848.058-1.112-.03-.263-.087-.79-.117-1.2.147 0 0 .147.701 1.054.964.849.234 1.17.176 1.522.03m-.322-1.375l.117-.087c.03 0 .234-.146.585-.176-.293-.234-.995-.818-1.492-1.082-.556-.292-1.463-.701-1.902-.76 0 0 .439 1.14.936 1.58.498.467.849.642 1.756.525m.936-.526c-.234-.292-.41-.672-.527-1.14-.117-.38-.35-1.316-.497-1.55-.146-.234-.644-1.111-1.639-1.374 0 0-.263 1.11.234 1.988.44.76 1.317 1.55 2.43 2.076m5.5 5.176c.117.117.205.204.44.292 0 0 .321.614-.06 1.345a22.71 22.71 0 0 0-.877 1.9s-.205-.029-.439-1.169c-.146-.79-.351-.965-.556-1.228.234.117.41.146.41.146l.146.03.058-.147c.147-.263.176-.526.176-.73v-.206c.351 0 .556-.175.615-.263 0 0 0-.029.029-.029l.058.059"/><path d="M12.612 15.41v.35l.03.264c-.586-.76-1.288-1.638-1.961-2.486-.468-.585-.849-.906-1.288-1.199a5.928 5.928 0 0 0 1.463 2.31c.469.41 1.142 1.14 1.785 1.55l.059.205c.058.204.117.41.234.585.146.263.351.526.585.789-.175-.088-.41-.205-.614-.292l-.205-.088c-1.785-.936-3.57-2.924-4.272-4.27-.732-1.373-.41-2.952-.234-3.8.819.702 1.99 2.047 2.487 2.778.614.906 1.434 2.193 1.931 3.216v.088m25.106 5.818a2.854 2.854 0 0 0-.41-.175c1.083-.322 2.605-.848 4.858-.994 1.668-.117 2.838 0 3.453.146 0 0-1.492 1.053-3.219 1.433-1.726.38-3.13.146-4.155.146a2.133 2.133 0 0 0-.263-.322c1.2 0 3.19-.292 3.891-.526 0-.03-1.726-.38-4.155.292m0-1.286c0 .029-.146.643-.848.994 1.521-.673 4.565-1.053 6.174-1.725 2.194-.907 2.604-2.047 2.604-2.047-1.902-.058-3.423.41-4.623.79-1.375.409-3.482 1.198-4.243 1.55.293 0 .585.087.849.262 1.024-.409 1.521-.555 2.457-.818.732-.205 1.288-.234 1.756-.293 0 0-.644.439-1.726.76-1.083.322-1.551.38-2.4.527m.117-1.667a2.65 2.65 0 0 1-.322.468c2.43-.41 5.092-2.252 5.911-3.363.82-1.14.586-2.836.586-2.836-.79.146-2.546 1.667-2.985 2.105-.44.439-1.814 1.784-2.75 2.515l-.293.848c.819-.643 1.755-1.374 2.37-1.813.468-.35 1.141-.848 1.814-1.082 0 0-.614.819-1.141 1.228-.585.468-1.17.877-1.668 1.14-.41.235-.644.38-1.522.79m-.585-2.865v.35l-.03.264c.586-.76 1.288-1.638 1.961-2.486.469-.585.849-.906 1.288-1.199a5.928 5.928 0 0 1-1.463 2.31c-.468.41-1.112 1.14-1.785 1.55l-.059.205c-.058.204-.117.41-.234.585a4.57 4.57 0 0 1-.585.789c.176-.088.41-.205.615-.292l.204-.088c1.785-.936 3.57-2.924 4.273-4.27.702-1.373.41-2.952.234-3.8-.82.702-1.99 2.047-2.488 2.778-.614.906-1.433 2.193-1.93 3.216v.088M14.893 26.2c-.731.73-2.282 2.397-2.136 4.18 0 0 1.434-.438 2.049-1.52.585-1.053.965-1.725 1.2-1.96a1.26 1.26 0 0 1-.469 0h-.146c-.38.673-1.083 1.755-1.756 2.135 0 0-.175-.877 1.756-2.69.03-.087.058-.146.117-.263-.176.088-.38.117-.615.117m19.81-9.941c-.38.818-.965 1.637-2.604 2.777-.38.264-.76.76-.468 1.52.322.732.878 1.784.527 2.194-.351.41-1.58.614-2.605.204 0 0-.204.644-.585 1.053 0 0 .176.351.761.176 0 0-.205.526.088 1.081 0 0 .673-.117.965-.73 0 0 .264.497.82.643 0 0 .439-.234.35-1.111 0 0 .323.79 1.347.935 0 0 .585-.73-.176-1.725 0 0 .556.497 1.522.263 0 0 .146-.497-.732-1.199 0 0 1.024-.029 1.405-.877 0 0-.439-.526-1.463-.41 0 0 .965-.204 1.17-1.373 0 0-.702-.439-1.785.263 0 0 .205-.38.644-.731.439-.41.995-1.433.82-2.953m-4.068 11.666c.146-.204.263-.38.351-.585-.175 1.404-.234 2.369-.995 3.275 0 0-.468-.614-.175-2.076a1.07 1.07 0 0 0 .41-.204s-.176.614-.06 1.198c0 0 .264-.175.47-1.608m1.316-.146c.088-.117.263-.35.351-.526.058.818.293 2.953-.439 3.625 0 0-.497-.35-.673-3.508.117.175.293.35.38.468 0 0-.117.994.235 1.695.029.03.38-.233.146-1.754m1.726 1.637c-.614-.73-.79-2.894-.79-2.894l-.263-.176-.088-.087v.233c.088 1.316.205 2.661.585 3.334.41.643 1.141.994 1.141.994.703-1.228-.146-2.866-.848-4.006-.088-.03-.176-.088-.263-.117.263.877.731 1.93.526 2.72m1.697-3.743c0 .146-.029.263-.029.321 0 .03-.03.059-.03.088.586.556.996 1.111 1.874 2.31.848 1.199 2.223 1.228 2.223 1.228-.117-.965-.38-1.725-1.111-2.544-.732-.818-1.668-1.579-2.341-2.076-.176.088-.41.117-.703.088h-.058a.988.988 0 0 1 .175.35c.527.293 2.02 1.053 2.634 2.282-.03-.03-.995-.322-2.634-2.047m1.083-1.2l-.058-.087c-.03-.029-.03-.058-.059-.087.556.204 2.546.964 3.19 1.286.643.322 1.58 1.082 2.077 2.632 0 0-1.346.117-2.458-.79-1.112-.906-2.4-2.193-2.955-2.602.058-.059.088-.088.117-.146 0 0 1.492 1.315 3.072 1.9 0 0-.35-.614-.965-1.052-.732-.585-1.288-.76-1.96-1.053m1.14-.936c-.029-.058-.029-.117-.058-.146.643.146 2.282.322 3.043.556.731.234 2.048.76 2.838 2.251 0 0-1.14.351-3.336-.672-2.165-1.024-2.867-1.228-3.277-1.345.322-.03.556-.147.673-.205.878.38 2.02.848 3.19.877 0 0-.556-.41-1.17-.643-.644-.263-1.347-.527-1.903-.673m-.058-1.052c-.205.087-.38.146-.644.175.146.088.293.234.439.38.76.234 2.077.468 4.243.614 2.165.146 3.306-.234 3.306-.234-.76-.468-1.96-.935-2.75-1.082-.82-.146-2.926-.146-3.863-.263 0 0-.117.088-.292.205.79.058 2.458.146 3.306.585-.058 0-1.638.204-3.745-.38"/><path d="M30.988 25.059c-.088-.059-.146-.117-.205-.176-.117.147-.497.614-.673 1.082-.146.41-.292.936-.35 1.257-.089.322-.293.965-.44 1.17 0 0 .586.088 1.024-.439.44-.497.586-.994.644-1.52.088-.41.059-.994 0-1.374m.937.087c-.117.147-.205.205-.235.205l-.087.03-.088-.03c-.059-.03-.146-.058-.205-.088a2.24 2.24 0 0 0-.146.556c-.03.263-.088.702.029 1.053.117.409.38.672.527.848 0 0 .38-.439.497-.76.117-.38.146-.79.03-1.229-.088-.263-.205-.468-.322-.585m1.316.03a2.025 2.025 0 0 1-.907-.351c-.058.146-.117.321-.058.585.058.263.234.555.497.76.41.321.936.614 1.522.526 0 0 .146-.438-1.054-1.52m.468-.731c-.058.38-.234.643-.263.672.146.176.644 1.024 1.668.877 0 0 .263-.584-.41-1.052-.468-.322-.673-.38-.995-.497m-.087-.731c.263.058.643.087 1.082 0l.117-.03.03-.116c.526.438 1.17.497 1.375.906 0 0-.263.497-.966.41a2.317 2.317 0 0 1-1.58-.878c0-.058-.029-.205-.058-.292m1.17-.614c-.088-.147-.175-.38-.38-.614a3.269 3.269 0 0 1 1.404.029c.644.117 1.288.263 1.61 1.228 0 0-.41.35-1.142.205-.614-.117-1.17-.38-1.492-.848m.293-1.053c.146-.146.322-.322.41-.556l.058-.116c.556-.234 1.141-.351 1.697-.117.556.204.702.438.849.672 0 0-.615.526-1.346.526-.732.03-1.376-.175-1.668-.409m-.176-1.14c-.088-.03-.205-.059-.322-.088.234-.205.498-.556.615-1.023.263.058.848.058 1.112-.03.263-.087.79-.117 1.2.147 0 0-.147.701-1.054.964-.878.234-1.2.176-1.55.03m.321-1.375l-.117-.087c-.03 0-.234-.146-.585-.176.292-.234.995-.818 1.492-1.082.556-.292 1.463-.701 1.902-.76 0 0-.439 1.14-.936 1.58-.498.467-.849.642-1.756.525m-.936-.526c.234-.292.41-.672.526-1.14.117-.38.352-1.316.498-1.55.146-.234.644-1.111 1.639-1.374 0 0 .263 1.11-.235 1.988-.439.76-1.316 1.55-2.428 2.076m-5.501 5.176a1.276 1.276 0 0 1-.44.292s-.321.614.06 1.345c.38.731.701 1.462.877 1.9 0 0 .205-.029.439-1.169.146-.79.351-.965.556-1.228a1.61 1.61 0 0 1-.41.146l-.146.03-.059-.147a1.477 1.477 0 0 1-.175-.73v-.206c-.351 0-.556-.175-.615-.263 0 0 0-.029-.029-.029l-.058.059"/><path d="M34.968 26.2c.731.73 2.282 2.397 2.136 4.18 0 0-1.434-.438-2.048-1.52-.586-1.053-.966-1.725-1.2-1.96.146.03.322.03.468 0l.146-.028c.351.672 1.083 1.754 1.756 2.134 0 0 .176-.877-1.756-2.69-.029-.088-.058-.146-.117-.263.147.117.351.146.615.146M23.79 11.901c0-.146.497-.234 1.141-.234.615 0 1.141.117 1.141.234s-.497.234-1.14.234c-.645 0-1.142-.117-1.142-.234m-3.833 1.286c0-.087.322-.117.731-.117.41 0 .732.059.732.117 0 .059-.322.117-.732.117-.41.03-.731-.029-.731-.117m5.179-.76a.23.23 0 0 1-.234.234.23.23 0 0 1-.234-.234.23.23 0 0 1 .234-.234.23.23 0 0 1 .234.234m-1.434-.76c-.38-.907-.614-1.55-.614-1.784 0-.146.175-.234.321-.292.147-.059.293-.059.38.03.206.145.381 1.344.44 1.87a1.58 1.58 0 0 0-.527.176m.702-.205c.088 0 .205-.029.293-.029a13.516 13.516 0 0 0-.322-1.579c-.088-.322-.234-.555-.439-.614 0 0 .147.439.264.906.058.44.146.878.204 1.316m-.585 1.55c-.585.322-1.229.292-1.229.292.117-.234.234-.438.615-.701.35-.264.936-.322 1.17-.293-.03.176-.263.556-.556.702zm-.614.058c.41-.087.848-.526.848-.526-.673.088-.848.526-.848.526zm-3.424.293s.732.263 1.434.234c.702-.03 2.048-.059 2.458-.263 0 0-.059.263-.41.438 0 0 .176 0 .351.146 0 0-.117.234-.41.351 0 0 .557.556 1.142.527 0 0-.263.321-.878.204-.585-.117-.79-.468-.907-.585 0 0 .088.322.03.44 0 0-.264-.03-.469-.264 0 0 .146.263.176.468 0 0-.176.029-.469-.146 0 0 .059.146.088.35 0 0-.702-.233-1.024-.526v.351c.059-.058-1.024-.146-1.112-1.725zm1.902.614v-.059c-.556.059-1.229.03-1.229.03.03.204.117.38.263.467.03-.438.966-.438.966-.438zm-2.048-.497c.029.35.117.672.234.906 0 0-.41-.321-.527-.585-.117-.263-.146-.467.293-.321m.175 1.082c.293.117.527.438.527.438-.439.088-.614.234-.614.234-.82-.585-1.493 0-1.493 0-.439-.263-.526-.877-.322-1.199.234-.321.732-.263.966-.204.146.468.673.614.936.73zm-1.024.204a.189.189 0 0 0 .176-.175.189.189 0 0 0-.176-.176.189.189 0 0 0-.175.176c0 .088.058.175.175.175zm1.639.322s.292.41.527.585c0 0-1.112 0-1.376.935 0 0-.38-.584-.117-.964.322-.41.585-.468.966-.556"/><path d="M21.654 15.322s.351.117.468.146v-.292c.117.029.234.058.351.058 0 0 .351.79.644 1.111 0 0 .03.176-.146.439 0 0-.205-.468-.556-.848-.205-.205-.352-.292-.761-.614m-.937-.146c.118.029.673.204.966.41.351.233.585.525.556 1.022 0 0-.293-.38-.585-.555-.264-.146-.702-.556-.937-.877m0-3.597c.118 0 .322.059.322.205 0 .175-.263.585-.322.76-.058-.175-.321-.585-.321-.76 0-.176.204-.205.321-.205m-.234 1.316c-.058-.234-.146-.848-.292-.994a.772.772 0 0 0-.44-.146c-.116 0-.204.117-.175.263.03.146.498.819.556.906.117-.029.088 0 .351-.029m.41 0c.059-.234.146-.848.293-.994a.772.772 0 0 1 .439-.146c.117 0 .204.117.175.263-.058.146-.497.819-.556.906-.117-.029-.088 0-.351-.029M21.186 10.731h-.351v-.38h-.293v.38h-.351v.263h.351v.468h.293v-.468h.351v-.263M16.855 13.275c0-.088 0-.146.03-.234.028-.204.028-.35 0-.497-.264.088-.44.146-.79.731 0 .03.584-.322.76 0"/><path d="M17.352 14.182c0-.147.088-.585.205-.907.147-.38.059-.965-.117-1.286-.175-.322-.263-.644-.234-.965 0 0-.322.117-.527.234-.029.409.205.789.322 1.023.117.263.117.614.088.819-.058.35.03.73.263 1.082m.03-3.012v-.234s.526-.497.965-.585c.293-.058.44.059.527.146 0 0-.146-.029-.38.176-.235.204-.527.41-.761.468-.176.058-.234.029-.351.029m1.58-.643c.205.204.35.409.35.584 0 .176-.233.673-.321.848-.117.176-.293.41-.263.702 0 .146.117.292.234.41 0 0-.644-.147-.732-.556-.058-.351.088-.614.176-.79.088-.175.38-.614.468-.79.059-.175.117-.32.088-.408M22.707 15c.117.468.351.877.556 1.228.205.322.322.79.293.965 0 0 .292-.643.146-1.082-.088-.38-.41-.906-.995-1.11m.732.145s.439 0 .644.147c.263.175.526.555.614 1.023 0 0-.439-.088-.673-.292-.205-.234-.468-.556-.585-.878m-2.283.79c-.087 0-.321.058-.41.088 0 0 .381.117.557.263.146.117.292.321.35.672.089.468.381.994.469 1.14h.03c-.06-.321.146-1.023.204-1.11 0 0-.293-.176-.439-.38-.088-.118-.263-.351-.76-.673m1.96 1.053c.117.263.41.701.263 1.17-.146.467-.439.672-.644 1.052 0 0-.146-.702-.117-1.258.03-.555.235-.789.498-.964m.848 0s.44.848.527 1.17c.088.32 0 .555-.146.76-.146.204-.41.409-.644.847 0 0-.263-.35-.293-.555-.029-.176.03-.643.088-.819.03-.175.264-.79.468-1.403m.205 2.719c-.087.117-.614.73-.673.906-.058.176-.175.527-.029.76.146.234.527.615.849.76 0 0-.352-.555-.322-.993.029-.293.234-.527.292-.702.059-.176.03-.468-.117-.731m-.995-.351c.088.117.205.38.235.643.029.263-.03.468-.176.819a8.2 8.2 0 0 1-.585 1.228s-.234-.35-.38-.643c0 0 .38-.527.526-.877.234-.439.322-.82.38-1.17M23 19.182s-.176 1.198-.878 2.105c-.497.614-.878.819-1.141.819-.38 0-.79-.322-.907-.702-.147-.38-.088-.965.175-1.17 0 0 .234.731.732.76.556.03 1.287-.614 2.019-1.812"/><path d="M22.415 18.655c.058.205.087.556 0 .848-.059.234-.205.556-.498.731-.234.146-.82.176-1.024-.35.03 0 1.053.087 1.522-1.229m1.697 4.883c.146.351.644.819.644 1.111 0 .76-.352 1.2-.41 1.462 0 0-.615-.467-.702-1.023-.059-.292 0-1.111.468-1.55m-.673.527c.058-.205.292-.731.556-.907 0 0 .322-.965-.732-1.55 0 0-.439.585-.556 1.112-.117.555.468.877.732 1.345m-1.317-2.427c-.176.204-.41.497-.585.584 0 0-.059.44-.03.731.059.44.322.848.44 1.17 0 0 .468-.614.526-.965.059-.35.059-.643.059-.819 0 0-.264-.409-.41-.701m-1.229 2.076c-.117-.205-.556-.936-.556-1.462 0 0 .527.263.966.058 0 0 .058.702-.03.936-.058.205-.146.292-.38.468m.117.146c.088-.088.293-.263.38-.351 0 0 .352.643.41.819 0 0-.175.058-.351-.088-.205-.175-.234-.205-.439-.38m1.61-.38c-.03.146-.615.935-.703 1.023 0 0 .03.293.264.673.204.41.497.672.643.818 0 0 .351-.614.44-.877.116-.292.087-.614.058-.702-.117-.233-.527-.614-.703-.935m.849 2.047c.117.263.497.672.556.994.059.263 0 .468-.059.643-.058.175-.292.526-.438.76 0 0-.498-.468-.615-.818a1.205 1.205 0 0 1 .059-.848c.117-.264.38-.498.497-.731m-1.463-.088c.117.292.439.585.527.819.087.292.117.497-.03.848-.117.292-.292.467-.321.672 0 0-.41-.526-.498-.76-.058-.234-.088-.585 0-.819.088-.234.234-.526.322-.76m2.048 2.047s-.702.848-.702 1.315c.03.556.41.936.439 1.287 0 0 .38-.41.527-.702.146-.321.292-.585.234-.965-.03-.35-.117-.584-.498-.935m-1.317-.088c.118.175.44.73.352 1.053-.088.35-.44.818-.556 1.023 0 0-.293-.585-.351-.848-.059-.263 0-.702.555-1.228m7.14-14.21c0-.088-.322-.118-.731-.118-.41 0-.732.059-.732.117 0 .059.322.117.732.117.41.03.731-.029.731-.117m-4.945-2.222c.059-.321.41-1.023.41-1.316a.45.45 0 0 0-.44-.438.45.45 0 0 0-.438.438c.03.293.41.995.468 1.316m1.2.702c.38-.907.614-1.55.614-1.784 0-.146-.175-.234-.322-.292-.146-.059-.292-.059-.38.03-.205.145-.38 1.344-.439 1.87.205.03.293.059.527.176m-.673-.205c-.088 0-.205-.029-.293-.029.059-.468.234-1.287.322-1.579.088-.322.234-.555.439-.614 0 0-.176.439-.263.906-.088.44-.176.878-.205 1.316m0 .848c.234-.029.82.03 1.17.293.351.263.468.467.615.701 0 0-.644.059-1.23-.292-.263-.146-.497-.526-.555-.702zm.35.205s.41.438.85.526c-.03.03-.205-.41-.85-.526z"/><path d="M28.881 15.03c.03-.117 0-.351 0-.351-.322.321-1.024.526-1.024.526 0-.175.059-.35.059-.35-.293.175-.468.145-.468.145.029-.204.175-.468.175-.468-.205.264-.468.264-.468.264-.03-.117.03-.439.03-.439-.089.117-.293.468-.908.585-.614.117-.878-.205-.878-.205.585.03 1.141-.526 1.141-.526-.292-.117-.41-.351-.41-.351.176-.146.352-.146.352-.146-.351-.146-.41-.439-.41-.439.44.205 1.756.234 2.458.263.732.03 1.434-.234 1.434-.234 0 1.638-1.083 1.726-1.083 1.726zm.264-.585c.146-.088.234-.263.263-.468 0 0-.673.03-1.229-.03v.06c0-.03.907-.03.966.438zm1.082-.965c-.029.35-.117.672-.234.906 0 0 .41-.321.527-.585.088-.263.117-.467-.293-.321m.732.321c.234-.058.731-.117.966.205.234.322.146.936-.322 1.199 0 0-.673-.585-1.493 0 0 0-.204-.117-.614-.234 0 0 .263-.292.527-.439.263-.087.79-.233.936-.73zm.293.79a.189.189 0 0 0-.176-.176.189.189 0 0 0-.176.176c0 .088.088.175.176.175a.189.189 0 0 0 .176-.175zm-1.844.497s-.293.41-.527.585c0 0 1.112 0 1.376.935 0 0 .38-.584.117-.964-.293-.41-.586-.468-.966-.556"/><path d="M28.18 15.322s-.352.117-.47.146v-.292c-.116.029-.233.058-.35.058 0 0-.351.79-.644 1.111 0 0-.03.176.146.439 0 0 .205-.468.556-.848.205-.205.351-.292.761-.614m.936-.146c-.117.029-.673.204-.965.41-.351.233-.585.525-.556 1.022 0 0 .292-.38.585-.555.263-.146.702-.556.936-.877m0-3.597c-.117 0-.321.059-.321.205 0 .175.263.585.321.76.059-.175.322-.585.322-.76 0-.176-.204-.205-.322-.205m.235 1.316c.058-.234.146-.848.292-.994a.772.772 0 0 1 .44-.146c.116 0 .204.117.175.263-.03.146-.498.819-.556.906-.117-.029-.088 0-.351-.029m-.41 0c-.059-.234-.146-.848-.293-.994a.772.772 0 0 0-.439-.146c-.087 0-.204.117-.175.263.03.146.497.819.556.906.117-.029.088 0 .35-.029M28.647 10.731h.351v-.38h.293v.38h.351v.263h-.351v.468h-.293v-.468h-.351v-.263M24.404 8.392h.381v-.38h.292v.38h.352v.263h-.352v.468h-.292v-.468h-.381v-.263M32.978 13.275c0-.088 0-.146-.03-.234-.029-.204-.029-.35 0-.497.264.088.44.146.79.731 0 .03-.555-.322-.76 0"/><path d="M32.48 14.182c0-.147-.087-.585-.204-.907-.147-.38-.059-.965.117-1.286.175-.322.263-.644.234-.965 0 0 .322.117.527.234.029.409-.205.789-.293 1.023-.146.263-.117.614-.088.819.03.35-.058.73-.292 1.082m-.03-3.012v-.234s-.526-.497-.965-.585c-.293-.058-.44.059-.527.146 0 0 .146-.029.38.176.234.204.527.41.761.468.205.058.234.029.351.029m-1.55-.643c-.205.204-.352.409-.352.584 0 .176.234.673.322.848.117.176.293.41.264.702 0 .146-.118.292-.235.41 0 0 .644-.147.732-.556.058-.351-.088-.614-.176-.79-.087-.175-.38-.614-.468-.79-.088-.175-.117-.32-.088-.408M27.126 15c-.117.468-.351.877-.556 1.228-.205.322-.322.79-.293.965 0 0-.292-.643-.146-1.082.117-.38.41-.906.995-1.11m-.732.145s-.439 0-.644.147c-.263.175-.526.555-.614 1.023 0 0 .439-.088.673-.292.205-.234.497-.556.585-.878m2.283.79c.087 0 .321.058.41.088 0 0-.381.117-.557.263-.146.117-.292.321-.35.672-.089.497-.381 1.024-.47 1.17h-.028c.058-.322-.147-1.023-.205-1.111 0 0 .292-.176.439-.38.088-.147.292-.38.76-.702m-1.96 1.053c-.117.263-.41.701-.263 1.17.146.467.439.672.643 1.052 0 0 .147-.702.117-1.258-.029-.555-.234-.789-.497-.964m-1.785 1.286c.03-.263.644-.936.615-1.286-.03-.351-.498-.614-.615-.673-.117.059-.585.292-.614.673-.059.35.585 1.023.614 1.286m.966-1.286s-.44.848-.527 1.17c-.088.32 0 .555.146.76.147.204.41.409.644.847 0 0 .263-.35.293-.555.029-.176-.03-.643-.088-.819-.059-.175-.293-.79-.468-1.403m-.966 3.304c.205-.176.38-.439.439-.585a.636.636 0 0 0-.059-.556c-.146-.204-.35-.438-.38-.614-.03.176-.205.41-.38.614-.147.176-.117.38-.059.556.03.146.234.41.44.585m.73-.585c.088.117.615.73.674.906.058.176.175.527.029.76-.146.234-.527.615-.849.76 0 0 .351-.555.322-.993-.03-.293-.234-.527-.292-.702-.03-.176 0-.468.117-.731m.995-.351c-.088.117-.205.38-.235.643-.029.263.03.468.176.819a8.2 8.2 0 0 0 .585 1.228s.234-.35.38-.643c0 0-.38-.527-.526-.877-.234-.439-.293-.82-.38-1.17m.175-.175s.176 1.198.878 2.105c.468.614.878.819 1.141.819.38 0 .79-.322.907-.702.117-.38.088-.965-.175-1.17 0 0-.234.731-.732.76-.556.03-1.287-.614-2.019-1.812"/><path d="M27.418 18.655a1.656 1.656 0 0 0 0 .848c.059.234.205.556.498.731.234.146.82.176 1.024-.35 0 0-1.054.087-1.522-1.229m-2.487 3.597c.146-.059.263-.117.439-.38.117-.205.263-.585.176-.848-.088-.322-.264-.468-.38-.673-.089.088-.147.146-.235.205-.117-.059-.175-.117-.263-.205-.117.205-.293.351-.38.673-.06.263.058.643.175.848.175.263.322.321.468.38m0 2.047c.059-.322.732-.936.673-1.287-.088-.497-.41-.41-.673-.614-.263.205-.585.117-.673.614-.088.35.585.965.673 1.287m.79-.76c-.146.35-.644.818-.644 1.11 0 .76.352 1.2.41 1.462 0 0 .615-.467.702-1.023.059-.292 0-1.111-.468-1.55m.673.527c-.058-.205-.292-.731-.556-.907 0 0-.322-.965.732-1.55 0 0 .439.585.556 1.112.117.555-.468.877-.732 1.345m1.317-2.427c.175.204.41.497.585.584 0 0 .059.44.03.731-.06.44-.322.848-.44 1.17 0 0-.468-.614-.526-.965-.059-.35-.03-.643-.059-.819.03 0 .264-.409.41-.701m1.229 2.076c.146-.205.556-.936.556-1.462 0 0-.527.263-.966.058 0 0-.058.702.03.936.087.205.175.292.38.468m-.117.146c-.088-.088-.293-.263-.38-.351 0 0-.352.643-.41.819 0 0 .175.058.35-.088.206-.175.235-.205.44-.38m-1.61-.38c.03.146.615.935.703 1.023 0 0-.059.293-.264.673-.204.41-.497.672-.643.818 0 0-.351-.614-.44-.877-.116-.292-.116-.614-.058-.702.117-.233.527-.614.702-.935m-2.282 4.59c.059-.204.38-.467.498-.848.087-.204.087-.467 0-.643-.088-.204-.469-.702-.498-.848-.058.146-.41.644-.497.848-.088.176-.088.439 0 .643.117.38.439.644.497.848m1.434-2.543c-.117.263-.498.672-.556.994-.059.263 0 .468.058.643.059.175.293.526.44.76 0 0 .497-.468.614-.818a1.205 1.205 0 0 0-.059-.848c-.117-.264-.38-.498-.497-.731m1.463-.088c-.146.292-.439.585-.527.819-.088.292-.117.497.03.848.117.292.292.467.321.672 0 0 .41-.526.469-.76.058-.234.087-.585 0-.819-.059-.234-.205-.526-.293-.76m-2.897 6.754c.03-.263.556-1.082.585-1.93 0-.438-.38-1.11-.585-1.374-.205.263-.614.936-.585 1.374 0 .848.556 1.667.585 1.93m.849-4.707s.702.848.702 1.315c-.03.556-.41.936-.439 1.287 0 0-.38-.41-.527-.702-.146-.321-.292-.585-.234-.965.03-.35.117-.584.498-.935m1.316-.088c-.117.175-.438.73-.35 1.053.087.35.438.818.555 1.023 0 0 .293-.585.351-.848.059-.263 0-.702-.556-1.228"/><path d="M25.4 33.568c.058-.673.438-1.082.497-1.404.088-.38.058-.76-.234-1.199a10.713 10.713 0 0 1-.703 1.842s0 .03-.029.03c0 0 0-.03-.03-.03a10.713 10.713 0 0 1-.701-1.842 1.573 1.573 0 0 0-.264 1.199c.059.35.44.76.498 1.404.029.672-.703.935-.703.935.264.088.556.146.995-.292.088-.088.147-.176.205-.263.059.087.117.175.205.263.468.438.76.41.995.292 0 0-.761-.263-.732-.935m-2.37-4.445c.088.263.322.702.351.848.059.263-.029.585-.497.936 0 0-.322-.234-.44-.497-.116-.264-.058-.468.06-.614.116-.147.41-.468.526-.673m1.024.994c0 .146-.088.907-.322 1.258-.292.526-.76.906-1.14.906-.352 0-.44-.205-.615-.292 0 0 .087-.468.497-.585.498-.146 1.258-.731 1.58-1.287"/><path d="M22.736 31.082c-.087-.058-.146-.117-.263-.234 0 0-.38.146-.702.351-.322.205-.615.585-.79.76 0 0 .468.117.76-.029 0 0 .118-.439.44-.643.117-.03.35-.088.555-.205m-.38-.38a.882.882 0 0 1-.205-.643s-.673.438-.848.585c-.205.175-.615.584-.703.73 0 0 .498-.116.878-.233.44-.176.732-.351.878-.439m-1.112.702c-.351.117-1.17.263-1.492.35-.351.088-.585.264-.907.615 0 0 .497.146.76.234 0 0 .41-.293.878-.468.293-.088.44-.41.761-.731m-.76 2.397c.087-.087.175-.175.087-.38-.058-.146-.351-.321-.527-.38-.292-.146-1.082-.35-1.346-.438 0 0-.117.146-.204.321-.03.059 0 .117.117.146.234.03.76-.058.907.03.146.087.088.204.088.35 0 0 .234-.146.41-.116.204 0 .35.087.467.467m-.731-1.14c.058.03.38.117.673.322 0 0 .146-.059.205-.176.058-.117.35-.526.585-.585 0 0-.205-.029-.351-.058 0 0-.264.058-.44.146-.145.059-.38.176-.672.351m2.077-.497c-.058.03-.117.058-.321.058 0 0-.703.498-.79.965-.06.41.146.614.263.673.117.058.614.263.907-.41 0 0-.556.176-.702-.087-.147-.263.087-.643.234-.76.205-.147.556-.234.76-.205.03.03-.146-.146-.35-.234"/><path d="M17.206 37.749c.088-.351.176-.731.351-1.082.322-.673 1.112-2.485 2.722-2.778.146-.03-.176-.41-.322-.38-.147.03-.44.205-.556.292v-.467c0-.059-.059-.088-.117-.088-.059 0-.469 0-.586.146-.38.439-.994 1.579-1.346 2.456-.35.848-.585 1.14-.965.994-.38-.146-.615-.555-1.258-.438a1.5 1.5 0 0 0-.673.41c.058.116.117.233.438.233.293 0 .878.117 1.2.35.322.235.644.323 1.112.352m6.525-5.556c.03.293.176.527.322.819 0 0-.497 2.28-2.282 2.456 0 0 .03-.468.556-.848.527-.35 1.317-.936 1.258-1.783 0 0-.146.029-.41.35-.263.322-.819 1.228-1.667 1.258 0 0 .117-.439.526-.673.38-.234.878-.555 1.083-.965.234-.38.439-.555.614-.614m-.848 8.334l1.082 1.52.82-1.462-.293-.526c-.205.38-.439.79-.585 1.023-.117-.146-.38-.526-.732-1.023l-.292.468"/><path d="M22.59 39.24c-1.053-1.491-2.37-3.333-2.516-3.509l.41-.292-1.288-.497.03 1.433.438-.322 2.634 3.684.292-.497m-8.983-8.392c.322-.35.878-.058 1.404.468.556.497.908 1.023.586 1.374-.293.322-.878.059-1.434-.468-.527-.497-.878-1.023-.556-1.374"/><path d="M14.514 37.076l-.058-.058a1.432 1.432 0 0 1-.469-1.082c0-.819.673-1.491 1.493-1.491.819 0 1.492.672 1.492 1.49 0 .118-.03.293-.03.293.06-.117.323-.701.352-.818a1.914 1.914 0 0 0-3.57-.322c.117-.76.497-1.433.76-1.696.323-.292.85-.41.85-.41-.352.06-.82-.175-1.347-.643-.497-.467-.76-.848-.76-1.198.029.467.029.73-.118 1.11-.175.527-.673 1.492-.497 2.574.088.585.527 1.491 1.258 2.222.147.175.205.41.234.526 0 0 1.083 0 1.317.03 0 0 .264-.03.264-.176s-.147-.205-.264-.205c-.117.059-.644.088-.907-.146m5.91.38c-.701.234-1.374.38-2.018.468a5.955 5.955 0 0 1-1.23.059c0 .058 0 .146-.028.204 0 0 .087.088.087.205.41.03.82 0 1.259-.088.702-.117 1.463-.263 2.223-.526l-.292-.322m1.112-.058c.907-.497 1.814-1.257 2.604-2.485l.146-.234c-.234.087-.497.029-.497.029a.222.222 0 0 0-.059.117c-.76 1.11-1.58 1.813-2.428 2.251l.234.322m-5.999.38c-.117-.03-.527 0-.76.03-.264.029-.557.087-.586.233-.03.146.059.293.205.497.088.117.293.059.38 0 .117-.029.732-.38.82-.468.087-.087.117-.263-.059-.292m.615.41c-.059-.03-.234-.118-.38-.03-.176.059-.79.41-.82.585-.03.175.03.263.146.292.088.03.205.088.293.088a.58.58 0 0 0 .38-.175c.088-.088.351-.439.41-.527.03-.058.03-.175-.03-.234m.088.38c-.087.088-.321.41-.35.44-.03.058.029.116.087.116.088 0 .498-.058.732-.205.234-.175.41-.497.234-.584-.176-.117-.44-.059-.703.234m.118-.907c-.088-.03-.41-.088-.469 0-.087.117-.029.263.234.38.235.117.703.205.79.088.088-.117-.029-.322-.555-.468m10.446-8.538c-.088.263-.322.702-.351.848-.059.263.029.585.497.936 0 0 .322-.234.439-.497.117-.264.059-.468-.058-.614-.118-.147-.41-.468-.527-.673m-1.024.994c0 .146.087.907.322 1.258.292.526.76.906 1.14.906.352 0 .44-.205.615-.292 0 0-.088-.468-.497-.585-.498-.146-1.258-.731-1.58-1.287"/><path d="M27.096 31.082c.088-.058.147-.117.264-.234 0 0 .38.146.702.351.322.205.615.585.79.76 0 0-.468.117-.76-.029 0 0-.118-.439-.44-.643-.117-.03-.35-.088-.556-.205m.38-.38a.882.882 0 0 0 .206-.643s.673.438.878.585c.204.175.614.584.702.73 0 0-.498-.116-.907-.233-.41-.176-.703-.351-.878-.439m1.141.702c.351.117 1.17.263 1.492.35.351.088.586.264.907.615 0 0-.497.146-.76.234 0 0-.41-.293-.878-.468-.293-.088-.44-.41-.761-.731m.732 2.397c-.088-.087-.176-.175-.088-.38.058-.146.35-.321.526-.38.293-.146 1.083-.35 1.347-.438 0 0 .117.146.204.321.03.059 0 .117-.117.146-.234.03-.76-.058-.907.03-.146.087-.088.204-.088.35 0 0-.234-.146-.41-.116-.204 0-.35.087-.467.467m.731-1.14c-.058.03-.38.117-.673.322 0 0-.146-.059-.205-.176-.058-.117-.35-.526-.585-.585 0 0 .205-.029.351-.058 0 0 .264.058.44.146.175.059.409.176.672.351m-2.077-.497c.058.03.117.058.321.058 0 0 .703.498.79.965.088.41-.146.614-.263.673-.117.058-.585.263-.907-.41 0 0 .556.176.702-.087.147-.263-.087-.643-.234-.76-.205-.147-.556-.234-.76-.205-.03.03.146-.146.35-.234"/><path d="M32.627 37.749c-.088-.351-.176-.731-.351-1.082-.322-.673-1.112-2.485-2.722-2.778-.146-.03.176-.41.322-.38.147.03.44.205.556.292v-.467c0-.059.059-.088.117-.088.059 0 .468 0 .585.146.38.439.995 1.579 1.347 2.456.35.848.585 1.14.965.994.38-.146.615-.555 1.258-.438a1.5 1.5 0 0 1 .673.41c-.058.116-.117.233-.439.233-.321 0-.877.117-1.229.35-.263.235-.614.323-1.082.352m-6.525-5.556c-.03.293-.176.527-.322.819 0 0 .497 2.28 2.282 2.456 0 0-.03-.468-.556-.848-.527-.35-1.317-.936-1.258-1.783 0 0 .146.029.41.35.263.322.819 1.228 1.697 1.258 0 0-.117-.439-.498-.673-.38-.234-.878-.555-1.082-.965-.264-.38-.498-.555-.673-.614m-1.17 2.222c.116.293.79 1.258 1.082 1.55.292.263 1.024.994 1.404 1.345 0 0-1.112-.263-1.726-.848 0 0-.439.263-.76.263h-.03c-.322 0-.761-.263-.761-.263-.614.556-1.726.848-1.726.848.38-.35 1.112-1.082 1.404-1.345.322-.292.995-1.257 1.112-1.55"/><path d="M24.931 36.96c.234 0 .468-.088.615-.147-.117.263-.38.702-.615.877-.234-.175-.468-.614-.614-.877.117.03.35.146.614.146"/><path d="M25.867 42.047l4.302-6.023.439.321.03-1.432-1.318.497.41.292c-.205.292-3.424 4.825-3.833 5.38l-1.96-3.538-.235.38-1.726 2.632-.44-.293v1.404l1.318-.526-.44-.293c.235-.35 1.171-1.783 1.493-2.251l1.96 3.45"/><path d="M26.658 39.679a59.92 59.92 0 0 1-.732-1.111c-.117.204-.322.614-.585 1.052l-.322-.555.848-1.52.235.38.848 1.315-.292.439m.877.409l.322.468.44-.293v1.404l-1.318-.526.44-.293c-.06-.058-.118-.175-.206-.292l.322-.468m8.691-9.24c-.322-.35-.878-.058-1.405.468-.556.497-.907 1.023-.585 1.374.293.322.878.059 1.434-.468.527-.497.878-1.023.556-1.374"/><path d="M35.348 37.076l.059-.058c.292-.263.468-.643.468-1.082 0-.819-.673-1.491-1.492-1.491-.82 0-1.493.672-1.493 1.49 0 .118.03.293.03.293-.06-.117-.322-.701-.352-.818a1.914 1.914 0 0 1 3.57-.322c-.117-.76-.497-1.433-.76-1.696-.322-.292-.85-.41-.85-.41.352.06.82-.175 1.347-.643.497-.467.76-.848.76-1.198-.029.467-.029.73.118 1.11.175.527.673 1.492.497 2.574-.088.585-.527 1.491-1.258 2.222-.146.175-.205.41-.234.526 0 0-1.083 0-1.317.03 0 0-.263-.03-.234-.176 0-.146.146-.205.263-.205.059.059.586.088.878-.146m-7.052.322c-.907-.497-1.814-1.257-2.604-2.485l-.146-.234c.234.087.497.029.497.029.03.03.059.088.059.117.76 1.11 1.58 1.813 2.428 2.251l-.234.322m1.112.058c.702.234 1.375.38 2.02.468.438.059.848.088 1.228.059 0 .058 0 .146.03.204 0 0-.088.088-.088.205-.41.03-.82 0-1.259-.088-.702-.117-1.463-.263-2.224-.526l.293-.322m4.916.322c.117-.03.527 0 .76.03.264.029.557.087.586.233.03.146-.059.293-.205.497-.088.117-.292.059-.38 0-.117-.029-.732-.38-.82-.468-.087-.087-.146-.263.059-.292m-.644.41c.059-.03.234-.118.41-.03.175.059.76.41.82.585.028.175-.06.263-.147.292-.088.03-.205.088-.293.088a.58.58 0 0 1-.38-.175 6.423 6.423 0 0 1-.41-.527c-.029-.058-.058-.175 0-.234m-.058.38c.088.088.322.41.35.44.03.058-.028.116-.087.116-.088 0-.497-.058-.731-.205-.235-.175-.41-.497-.235-.584.147-.117.41-.059.703.234m-.147-.907c.088-.03.41-.088.469 0 .087.117.029.263-.234.38-.235.117-.703.205-.79.088-.088-.117.029-.322.555-.468"/></g><path fill="#AD003E" d="M52.992.205h49.774v49.737H52.992z"/><path fill="#FFF" d="M97.235 15.117c-.234-1.93-1.14-2.924-3.248-2.924h-2.72l-.381 10.848h1.96s.176-5.03.205-5.263h2.487c.03.204.41 5.263.41 5.263h2.048s-.702-7.456-.76-7.924zm-4.155.848c0-.234.059-1.754.059-1.96h.38c1.463 0 1.697.264 1.844 1.96H93.08zM73.27 30c-.234-1.93-1.14-2.924-3.248-2.924h-2.72l-.381 10.848h1.96s.176-5.03.205-5.263h2.487c.03.234.41 5.263.41 5.263h2.048c0 .03-.702-7.427-.76-7.924zm-4.125.877c0-.234.058-1.754.058-1.959l.351-.03c1.463 0 1.727.293 1.844 1.99h-2.253zM58.464 12.193v10.848h1.99v-9.035h2.458v9.035h2.019V12.193zM79.562 15.965h-1.083c-.439 0-.79-.088-.995-.292a.768.768 0 0 1-.234-.585v-2.895h-1.99v3.1c0 .701.293 1.315.849 1.783.556.468 1.229.702 1.99.702h1.463v5.234h1.99V12.193h-1.99v3.772M83.775 12.193v1.813h1.668v9.035h2.019v-9.035h1.639v-1.813zM80.849 27.105v3.451h-2.75v-3.451h-1.99v10.848h1.99v-5.585h2.75v5.585h1.99V27.105zM61.361 30.643c-.351 0-.644 0-.936.03v-1.755h3.57v-1.813h-5.59v10.848H61.45c3.014 0 3.482-2.69 3.482-3.684.03-1.17-.439-3.626-3.57-3.626zm-.234 5.614c-.205 0-.673-.058-.673-.058v-3.831s.146-.029.322-.029c1.024 0 2.194-.058 2.194 1.96.03 1.841-1.287 1.958-1.843 1.958zm12.67-19.006c-.03-1.55-.293-2.66-.702-3.45-.644-1.345-1.697-1.842-2.75-1.871h-.03-.03c-1.082 0-2.106.526-2.75 1.871-.41.79-.673 1.9-.702 3.45v.351c0 .965.117 1.9.322 2.661.556 2.222 1.814 3.012 3.13 3.041h.118c1.317-.03 2.575-.819 3.13-3.04.206-.761.323-1.697.323-2.662-.059-.029-.059-.35-.059-.35zm-5.004.38c.03-2.923.732-3.888 1.522-3.918.76 0 1.492.995 1.522 3.919-.03 2.865-.732 3.86-1.522 3.86s-1.522-.995-1.522-3.86zm23.995 20.322l-2.4-6.345c.498-.38.878-1.082 1.054-1.783.175-.702.38-2.69.38-2.69h-1.96c0 .204-.059.906-.117 1.578-.088 1.024-.41 1.989-1.464 1.989h-.819v-3.597h-1.99v10.848h1.99v-5.497h1.2l1.96 5.497h2.166z"/></g></svg>