<svg xmlns="http://www.w3.org/2000/svg" width="266" height="50" viewBox="0 0 266 50" preserveAspectRatio="xMinYMin meet"><defs><linearGradient id="a" x1="0%" x2="0%" y1="0%" y2="100%"><stop offset="0%" stop-color="#5B1C6E"/><stop offset="100%" stop-color="#924993"/></linearGradient></defs><g fill="none" fill-rule="evenodd"><path fill="#5B1C6E" d="M265.7 40.802l-5.073.08c-1.703-1.898-4.036-4.864-6.073-7.349-.48-.593-.814-.816-1.148-.816-.185 0-.333.038-.592.112v4.116c0 2.448.333 2.67 2.703 2.892v.965h-8.295v-.965c2.481-.222 2.704-.519 2.704-2.892v-17.54c0-2.448-.186-2.633-2.445-2.819v-.89c1.778-.185 3.889-.816 5.333-1.298v17.467c1.11-.223 1.778-.705 2.333-1.298.814-.816 1.925-2.262 2.629-3.264.74-1.149.63-1.446-1.11-1.631v-.964l7.553-.334v.927c-2.555.445-3.332.816-4.776 2.188-.926.927-1.593 1.668-3.185 3.523.74 1.112 4.48 5.488 5.74 6.786 1.333 1.41 2.295 1.965 3.703 2.04v.964zm-20.329 0h-7.48v-.965c1.962-.185 2.185-.482 2.185-2.818v-4.153h-7.184v4.153c0 2.41.185 2.633 2.11 2.819v.964h-7.48v-.965c2.296-.185 2.444-.444 2.444-2.818v-8.974c0-2.114-.11-2.336-2.518-2.559v-.89h7.517v.89c-1.888.223-2.073.482-2.073 2.559v3.412h7.184v-3.449c0-2.04-.148-2.299-2.26-2.522v-.89h7.444v.89c-2.11.223-2.296.445-2.296 2.559v8.974c0 2.374.222 2.633 2.407 2.819v.964zm-19.367-1.447l-3.147 1.898c-.556 0-1.333-.334-1.741-.71-.481-.52-.704-1.04-.889-1.67-1.48 1.001-3.258 2.38-4.37 2.38-2.628 0-4.443-2.194-4.443-4.53 0-1.818.963-2.967 3-3.672 2.221-.741 4.925-1.743 5.74-2.41v-.668c0-2.67-1.26-4.19-3.111-4.19-.74 0-1.296.296-1.666.741-.482.483-.815 1.299-1.112 2.411-.147.63-.555.89-1.073.89-.667 0-1.63-.742-1.63-1.595 0-.556.482-.964 1.185-1.483 1.037-.742 3.444-2.188 5.555-2.596 1.11 0 2.222.334 3.036 1.002 1.296 1.075 1.667 2.595 1.667 4.524v6.897c0 1.669.666 2.225 1.296 2.225.444 0 .963-.185 1.333-.408l.37.964zm-5.85-1.668v-5.785c-.778.408-2.556 1.186-3.334 1.557-1.443.668-2.258 1.372-2.258 2.707 0 1.928 1.48 2.856 2.629 2.856.963-.038 2.259-.668 2.962-1.335zm-23.885-18.394l.037 7.528c1.185-.037 2.333-.111 3.555-.111 5.961 0 8.665 2.633 8.665 6.564 0 2.966-1.296 4.784-3.37 6.007-1.852 1.076-4.48 1.52-7.37 1.52h-7.813v-1c2.889-.223 3.185-.408 3.185-3.635v-15.13c0-2.93-.296-3.115-2.962-3.337v-1.002h15.7c.038.705.223 3.486.408 5.23l-1.111.222c-.37-1.632-.704-2.596-1.222-3.227-.63-.741-1.666-.926-3.666-.926h-2.703c-1.185 0-1.333.037-1.333 1.297zm3.073 20.174h.037c2.777 0 5.555-1.447 5.555-5.785 0-4.005-2.407-5.6-6.406-5.6-.815 0-1.556 0-2.26.037v7.676c0 3.041.482 3.672 3.074 3.672zM179.087 24.15h.037c4.554 0 7.998 3.672 7.998 8.27 0 5.97-4.37 8.832-8.035 8.832-5.074 0-8.11-4.085-8.11-8.202 0-6.118 4.74-8.9 8.11-8.9zm-.37 1.224h-.038c-2.259 0-4.258 2.3-4.258 6.49 0 4.672 2.036 8.158 5.073 8.158 2.296 0 4.184-1.706 4.184-6.786 0-4.34-1.74-7.862-4.962-7.862zM156.46 26.71l3.407-2.002c.666-.371 1.37-.557 1.814-.557 4.11 0 6.555 3.338 6.555 7.01 0 5.598-4.407 9.196-9.221 10.092-1.074-.037-2.074-.408-2.555-.674v4.846c0 2.8.26 2.985 3.148 3.244v1.002h-8.777v-1.002c2.37-.222 2.704-.445 2.704-2.88V29.046c0-2.41-.149-2.484-2.444-2.781v-.89c1.555-.26 3.628-.89 5.369-1.595v2.93zm0 1.224v10.05c.815.852 2.222 1.445 3.48 1.445 3.111 0 5.185-2.67 5.185-6.86 0-3.968-2.259-6.193-4.962-6.193-1.185 0-2.703.816-3.703 1.558zm-12.368 3.968v.074c2.703.334 4.703 1.52 4.703 4.005 0 3.82-4.296 4.82-8.221 4.82h-7.295v-.964c2.444-.185 2.63-.444 2.63-2.78v-8.864c0-2.262-.186-2.559-2.445-2.744v-.853h8.74c3.258 0 5.48 1.038 5.48 3.597 0 2.41-2.074 3.3-3.592 3.709zm-5.296-.408h1.889c2.296 0 3.888-.816 3.888-2.893 0-2.04-1.555-2.855-3.703-2.855-1.925 0-2.074.185-2.074 1.112v4.636zm0 1.187v4.375c0 2.225.741 2.559 2.407 2.559 2.26 0 4.259-1.15 4.259-3.523 0-2.447-1.926-3.411-4.629-3.411h-2.037zm-8.517 2.113c-.48 1.484-1.184 2.745-1.814 3.486-.815.964-1.852 1.26-4.666 1.26-1.851 0-3.147-.036-3.851-.481-.667-.482-.889-1.261-.889-3.004v-7.009h3.518c3.222 0 3.481.223 3.962 2.893h1.074v-7.12h-1.074c-.48 2.484-.666 2.78-3.999 2.78h-3.48v-8.417c0-1.112.073-1.186 1.221-1.186h2.815c2.666 0 3.666.26 4.184 1.038.481.816.852 1.632 1.185 3.189l1.074-.185c-.111-1.892-.296-4.413-.296-5.34h-16.516v1.038c2.888.26 3.185.37 3.185 3.708v14.76c0 3.003-.297 3.3-3.666 3.56v1.038h17.848c.334-1.15 1.074-4.636 1.296-5.86l-1.11-.148zm-20.292 1.891l.63.78c-1.63 2.15-4.111 3.788-6.296 3.788-4.666 0-7.406-3.789-7.406-7.757 0-2.855 1.222-5.34 3.703-7.268 1.925-1.484 4.147-2.077 5.555-2.077h.037c1.481 0 2.703.483 3.296.964.48.409.592.742.592 1.15 0 .779-.815 1.595-1.222 1.595-.185 0-.37-.112-.704-.408-1.11-1.039-2.407-1.52-3.703-1.52-2.444 0-4.592 2.039-4.592 5.933 0 5.154 3.518 6.86 5.592 6.86 1.592 0 2.814-.445 4.518-2.04zM86.103 24.151h.037c4.555 0 7.999 3.672 7.999 8.27 0 5.97-4.37 8.832-8.036 8.832-5.073 0-8.11-4.085-8.11-8.202 0-6.118 4.74-8.9 8.11-8.9zm-.37 1.224h-.037c-2.259 0-4.259 2.3-4.259 6.49 0 4.672 2.037 8.158 5.073 8.158 2.296 0 4.185-1.706 4.185-6.786 0-4.34-1.74-7.862-4.962-7.862zm-28.254-8.677h9.146c2.63 0 4.74.444 6.221 1.557 1.444 1.076 2.407 2.781 2.407 5.229 0 4.783-3.629 7.12-7.22 7.602a12.5 12.5 0 0 1-1.667 0l-2.74-.705v5.822c0 3.152.333 3.338 3.666 3.56v1.039H57.256v-1.039c2.963-.222 3.26-.519 3.26-3.597V21.333c0-3.263-.297-3.412-3.037-3.597v-1.038zm6.147 3.374v9.085c.481.186 1.481.445 2.703.445 2.407 0 5.37-1.297 5.37-6.007 0-4.005-2.556-5.71-5.592-5.71-1.037 0-1.815.185-2.074.444-.296.26-.407.705-.407 1.743z"/><path fill="url(#a)" fill-rule="nonzero" d="M0 0h41.311v41.37h-.441C40.87 18.773 22.565.442 0 .441V0zm36.127 41.37H0V1.566c20.165 1.23 36.151 18.005 36.151 38.507 0 .435-.01.866-.024 1.297z"/></g></svg>