<svg xmlns="http://www.w3.org/2000/svg" width="263" height="50" viewBox="0 0 263 50" preserveAspectRatio="xMinYMin meet"><g fill="#1A9F29"><path d="M65.728 41.304h196.968v2.609H65.728zM246.943 23.587l-1.63-2.283c.327-.543.761-1.087 1.304-1.847.543-.653 1.087-1.522 1.739-2.392.651-.87 1.195-1.739 1.846-2.717.544-.978 1.196-1.957 1.739-2.826.652-.87 1.086-1.74 1.52-2.5.435-.761.761-1.413.979-1.957h6.3c-.76.544-1.52 1.196-2.498 2.065-.978.87-1.847 1.848-2.825 2.935-.977.978-1.847 2.065-2.716 3.152-.869 1.087-1.63 1.957-2.281 2.826l-.435.544c.543.87 1.195 1.848 1.738 2.609a35.4 35.4 0 0 0 1.847 2.391c.652.76 1.304 1.522 2.065 2.391.651.761 1.412 1.63 2.281 2.609.543.543 1.304 1.413 2.173 2.391.978.979 1.847 1.957 2.825 2.935l-9.126-.109c-.326-.652-.652-1.413-1.087-2.065a24.6 24.6 0 0 0-1.412-2.174c-.543-.652-.978-1.304-1.412-1.956-.435-.652-.978-1.305-1.413-1.957-.543-.652-.978-1.304-1.52-2.065zm-.76 9.24v.76h-8.8v-.87c.108 0 .217 0 .543-.108.326 0 .543-.218.652-.326.217-.11.326-.326.326-.653.108-.217.108-.652.108-1.087V9.891c0-.434-.108-.76-.108-1.087-.109-.326-.218-.543-.326-.652-.109-.109-.326-.217-.652-.326-.326 0-.435-.109-.543-.109v-.87h8.8v.98c-.109 0-.218 0-.543.108-.326.108-.544.217-.652.326-.218.109-.326.326-.326.652-.109.217-.109.652-.109 1.087v20.652c0 .435.109.761.109 1.087.108.326.217.544.326.652.108.109.326.218.652.326.325 0 .434.11.543.11zm-27.921 0v.869h-8.8v-.87c.108 0 .217 0 .543-.109.326 0 .543-.217.652-.326.217-.108.326-.326.326-.652.108-.326.108-.652.108-1.087V9.891c0-.434-.108-.76-.108-1.087-.109-.326-.218-.543-.326-.652-.109-.109-.326-.217-.652-.326-.326 0-.435-.109-.543-.109v-.87h8.8v.87c-.109 0-.218 0-.543.11-.326.108-.544.216-.652.325-.218.109-.326.326-.326.652-.109.218-.109.653-.109 1.087v8.587h10.43V9.891c0-.434-.109-.76-.109-1.087-.109-.326-.217-.543-.326-.652-.108-.109-.326-.217-.652-.326-.326 0-.434-.109-.543-.109v-.87h8.583v.762c-.109 0-.217 0-.543.108-.326.11-.544.218-.652.326-.218.11-.326.327-.326.653-.109.217-.109.652-.109 1.087V30.543c0 .435.109.761.109 1.087.108.327.217.544.326.653.108.108.326.217.652.326.326 0 .434.108.543.108v.87h-8.8v-.87c.108 0 .217 0 .543-.108.326 0 .543-.218.652-.326.217-.11.326-.326.326-.653.108-.217.108-.652.108-1.087V20.326h-10.43v10.326c0 .435.11.761.11 1.087.108.326.217.544.325.652.109.109.326.218.652.326.326 0 .435.11.543.11h.218zm-30.529-2.392c-.326 1.522-.543 2.608-.652 3.37h-4.888c.217-.435.434-.87.76-1.414.326-.543.652-1.304 1.087-2.174.325-.87.869-2.065 1.412-3.37.543-1.304 1.304-3.043 2.064-5l4.346-10.651c.217-.435.326-1.087.326-1.74v-.543c-.109-.326-.218-.543-.326-.652-.109-.109-.326-.218-.652-.326-.326 0-.435-.109-.543-.109v-.87h7.713c.109.327.109.761.218 1.305.108.543.217 1.196.543 1.956l6.192 17.61c.544 1.63 1.087 2.934 1.521 3.803.435.87.76 1.63 1.087 2.174h-6.845c0-.543-.217-1.304-.543-2.391-.217-1.087-.652-2.391-1.195-3.913l-1.195-3.478h-8.583c-.869 2.717-1.52 4.891-1.847 6.413zm6.193-19.13l-3.803 10.869h7.388l-3.585-10.87zm-18.904 22.173c-1.412.218-2.824.218-4.454.218h-10.104v-.87c.109 0 .217 0 .543-.109.326 0 .544-.217.652-.326.218-.108.326-.326.326-.652.109-.217.109-.652.109-1.087V9.891c0-.434-.109-.76-.109-1.087-.108-.326-.217-.543-.326-.652-.108-.109-.326-.217-.652-.326-.326 0-.434-.109-.543-.109v-.87h19.991v5.98h-1.413c-.217-.98-.543-1.74-.76-2.284a2.967 2.967 0 0 0-.978-1.304c-.326-.326-.87-.435-1.521-.543-.652-.109-1.521-.109-2.499-.109h-3.26c-.868 0-1.412 0-1.738.217-.326.218-.434.653-.434 1.305v6.413h2.281c2.173 0 4.02.108 5.541.435 1.521.326 2.716.76 3.694 1.413.978.76 1.63 1.521 2.064 2.608.435 1.087.652 2.283.652 3.805 0 2.065-.326 3.695-.978 4.89-.543 1.197-1.412 2.066-2.499 2.718a9.245 9.245 0 0 1-3.585 1.087zm-6.627-1.956c.217.217.543.326.87.435.325.108.868.108 1.52.217.652 0 1.304-.109 1.956-.217a6.483 6.483 0 0 0 1.63-.979c.543-.543.869-1.195 1.194-2.174.326-.978.435-2.174.435-3.804 0-2.391-.435-4.13-1.304-5.217-.869-1.087-2.39-1.63-4.454-1.63h-2.282v11.304c0 .543.11.978.11 1.304 0 .326.108.543.325.76zm-21.946 1.304v.761h-8.8v-.87c.109 0 .218 0 .544-.108.326 0 .543-.218.651-.326.218-.11.326-.326.326-.653.109-.217.109-.652.109-1.087V9.891c0-.434-.109-.76-.109-1.087-.108-.326-.217-.543-.326-.652-.108-.109-.325-.217-.651-.326-.326 0-.435-.109-.544-.109v-.87H148.296c1.304 0 2.5.11 3.694.218 1.195.109 2.282.435 3.15.978.87.544 1.63 1.414 2.174 2.392.434.978.76 2.391.76 4.13 0 1.848-.326 3.37-.87 4.457-.542 1.195-1.303 1.956-2.28 2.608-.978.544-2.065.979-3.368 1.196a24.082 24.082 0 0 1-4.02.326h-2.716v7.5c0 .435.108.761.108 1.087.109.326.218.544.326.652.109.109.326.218.652.326.326 0 .435.11.543.11zm-1.52-22.935v11.522h2.715c1.63 0 2.825-.652 3.477-1.848.652-1.195.978-2.935.978-5.217 0-1.087-.109-2.065-.326-2.826-.326-.761-.652-1.413-1.087-1.848-.543-.435-.977-.761-1.63-.978-.651-.109-1.303-.218-1.955-.218-.543 0-.869.109-1.195.109-.326 0-.543.109-.652.217-.108.109-.217.218-.217.435-.109.218-.109.435-.109.652zM134.063 27.5v6.087h-19.338v-.87c.109 0 .217 0 .543-.108.326 0 .543-.218.652-.326.217-.11.326-.326.326-.653.109-.217.109-.652.109-1.087V9.891c0-.434-.11-.76-.11-1.087-.108-.326-.216-.543-.325-.652-.109-.109-.326-.217-.652-.326-.326 0-.434-.109-.543-.109v-.87h18.686v5.762H132c-.217-.979-.543-1.74-.76-2.283a2.967 2.967 0 0 0-.978-1.304c-.326-.326-.87-.435-1.521-.544-.652-.108-1.521-.108-2.499-.108h-2.933c-.544 0-.87 0-1.087.217-.108.217-.217.652-.217 1.196v8.913h4.672c.434 0 .869 0 1.303-.109.435 0 .87-.109 1.304-.217.435-.11.76-.218 1.086-.435v3.478c-.326-.217-.651-.326-1.086-.435-.435-.108-.87-.217-1.304-.217-.434 0-.869-.109-1.303-.109h-4.672v8.478c0 .653 0 1.087.109 1.522 0 .326.217.652.543.87.326.217.76.326 1.412.435.543.108 1.412.108 2.499.108 1.195 0 2.064 0 2.716-.108.652 0 1.195-.218 1.52-.544.436-.326.653-.76.87-1.413.217-.652.435-1.413.652-2.5h1.738zm-29.55 5.978c-1.413.218-2.716.218-4.346.218H90.064v-.979c.109 0 .217 0 .543-.108.326 0 .544-.218.652-.326.218-.11.326-.326.326-.653.109-.326.109-.652.109-1.087V29.13 9.891c0-.434-.109-.76-.109-1.087-.108-.326-.217-.543-.326-.652-.108-.109-.326-.217-.652-.326-.326 0-.434-.109-.543-.109v-.87h19.991v5.98h-1.413c-.217-.98-.543-1.74-.76-2.284a2.967 2.967 0 0 0-.978-1.304c-.326-.326-.87-.435-1.521-.543-.652-.109-1.521-.109-2.499-.109h-3.26c-.868 0-1.412 0-1.738.217-.326.218-.434.653-.434 1.305v6.413h2.281c2.173 0 4.02.108 5.541.435 1.521.326 2.716.76 3.694 1.413.978.76 1.63 1.521 2.064 2.608.435 1.087.652 2.283.652 3.805 0 2.065-.326 3.695-.978 4.89a6.98 6.98 0 0 1-2.607 2.718 9.245 9.245 0 0 1-3.585 1.087zm-6.628-1.956c.218.217.544.326.87.435.434.108.869.108 1.52.217.652 0 1.304-.109 1.956-.217a6.483 6.483 0 0 0 1.63-.979c.543-.543.869-1.195 1.195-2.174.326-.978.434-2.174.434-3.804 0-2.391-.434-4.13-1.303-5.217-.87-1.087-2.39-1.63-4.455-1.63h-2.281v11.304c0 .543.108.978.108 1.304 0 .326.11.543.326.76zm-29.116-.87c-.977-1.087-1.738-2.5-2.064-4.348-.543-1.63-.76-3.587-.76-5.652 0-2.174.217-4.239.76-5.978.543-1.74 1.304-3.261 2.39-4.457 1.087-1.195 2.5-2.174 4.129-2.826 1.738-.652 3.694-.978 6.084-.978.543 0 1.195.109 1.847.109.76.108 1.412.108 2.172.217.76.109 1.413.218 2.065.435.651.217 1.195.435 1.738.652v5.326h-1.738c-.326-1.63-.978-2.935-2.065-3.695-1.086-.761-2.39-1.196-3.91-1.196-1.63 0-2.934.435-3.912 1.087-.978.76-1.63 1.63-2.173 2.717-.543 1.087-.869 2.283-.977 3.696-.11 1.413-.218 2.826-.218 4.13 0 1.74.109 3.261.326 4.783a13.026 13.026 0 0 0 1.195 3.804c.652.979 1.413 1.848 2.499 2.5.978.652 2.39.979 4.02.979.869 0 1.63 0 2.281-.11.652 0 1.195-.217 1.739-.325.543-.218.977-.326 1.412-.544l1.304-.652.76 1.63c-.434.218-.978.435-1.52.761-.653.218-1.305.544-2.065.761a8.415 8.415 0 0 1-2.499.652c-.869.11-1.955.218-3.042.218-2.281 0-4.128-.326-5.758-.978-1.63-.653-2.933-1.522-4.02-2.718zm-52.691.544l33.136-19.022c1.847 3.478 2.825 7.5 2.825 11.739 0 14.348-11.625 25.87-25.857 25.87-14.341 0-25.857-11.63-25.857-25.87 0-.543 0-1.196.109-1.74l15.644 9.023zM47.802 9.674l-31.614 18.26L.869 19.13c.109-.978.326-1.847.652-2.826l14.558 8.37L46.173 7.39l1.63 2.283zM44.11 5.217L15.97 21.413 2.39 13.587c.435-.87.87-1.74 1.304-2.5l12.385 7.065L41.827 3.261c.76.652 1.521 1.196 2.282 1.956zm-4.89-3.695L15.97 14.892 5.215 8.695c.652-.761 1.195-1.522 1.847-2.174l9.017 5.108L36.178 0c1.086.435 2.064.978 3.042 1.522z"/></g></svg>