<svg xmlns="http://www.w3.org/2000/svg" width="216" height="50" viewBox="0 0 216 50" preserveAspectRatio="xMinYMin meet"><g fill="none"><path fill="#000" d="M215.753 22.901l-5.122 5.247 5.307 6.111h-1.975l-4.937-5.802v5.802h-1.666V22.901h1.666v5.062l4.876-5.062h1.851zM203.102 34.26v-5.247h-5.987v5.247h-1.666V22.84h1.666v4.692h5.987V22.84h1.666v11.42h-1.666zm-14.256-11.605c1.296 0 2.345.309 3.024.926.679.618 1.049 1.543 1.049 2.778v7.901h-1.605v-1.11h-.061c-.618.555-1.235.925-1.79 1.049a5.842 5.842 0 0 1-1.728.246 5.14 5.14 0 0 1-1.358-.185c-.432-.123-.864-.37-1.234-.617-.37-.309-.679-.679-.864-1.111-.247-.432-.309-.988-.309-1.667 0-.555.124-1.05.309-1.481.185-.432.494-.803.864-1.173.37-.309.802-.556 1.358-.74.493-.186 1.11-.248 1.728-.248.493 0 .987.062 1.48.124.494.123 1.05.308 1.605.617v-1.42c0-.864-.247-1.543-.679-1.913-.432-.37-1.11-.618-1.974-.618-.556 0-1.05.062-1.543.186a5.66 5.66 0 0 0-1.42.555l-.555-1.296c.555-.247 1.11-.494 1.728-.617.555-.062 1.234-.186 1.975-.186zm2.468 6.729c-.493-.247-.925-.494-1.42-.618-.493-.185-1.048-.246-1.665-.246-.741 0-1.358.185-1.852.617-.494.37-.74.987-.74 1.728 0 .74.246 1.296.678 1.729.432.37 1.05.555 1.852.555.617-.062 1.172-.185 1.728-.494a9.04 9.04 0 0 0 1.481-1.05l-.062-2.221zm-14.07-3.95c1.542 0 2.715.37 3.64 1.11.865.741 1.297 1.852 1.297 3.334 0 1.42-.432 2.53-1.296 3.271-.864.74-2.037 1.111-3.58 1.111h-6.233V19.074h9.69v1.605H172.8v4.753h4.443zm3.209 4.382c0-.926-.247-1.605-.803-2.099-.555-.494-1.296-.74-2.283-.74H172.8v5.678h4.567c.987 0 1.79-.247 2.283-.74.556-.433.803-1.173.803-2.1zm-14.565 1.11a5.721 5.721 0 0 1-1.234 1.853c-.556.555-1.173.926-1.913 1.234-.741.247-1.482.432-2.346.494v3.766l-2.9 1.11v-4.814c-.926-.062-1.728-.185-2.469-.494-.74-.309-1.357-.74-1.913-1.234-.555-.494-.926-1.112-1.234-1.852-.309-.741-.432-1.544-.432-2.47 0-.802.185-1.604.494-2.283a5.334 5.334 0 0 1 1.296-1.79c.555-.556 1.172-.926 1.913-1.235a9.79 9.79 0 0 1 2.407-.494v-3.21l2.838-1.11v4.258c.864.062 1.667.186 2.407.494.74.247 1.358.68 1.913 1.173a6.166 6.166 0 0 1 1.235 1.79c.308.74.432 1.482.432 2.346 0 .926-.185 1.728-.494 2.469zm-8.393 1.359v-7.346c-.988.062-1.79.432-2.345 1.111-.556.68-.803 1.544-.803 2.531 0 .618.062 1.111.247 1.543.185.433.37.803.68 1.112.246.308.616.555.987.74.37.185.802.247 1.234.309zm5.678-2.16c.185-.433.308-.988.246-1.544 0-1.05-.246-1.852-.802-2.53-.494-.68-1.296-1.05-2.283-1.112v7.346c.432-.062.802-.124 1.172-.309.37-.185.68-.432.988-.74.247-.31.493-.68.679-1.112zm-15.059 2.654a7.459 7.459 0 0 1-1.851 1.234c-.74.247-1.481.432-2.345.494v3.766l-2.9 1.11v-4.814c-.927-.062-1.729-.185-2.47-.494-.74-.309-1.357-.74-1.913-1.234-.555-.494-.925-1.112-1.234-1.852-.308-.741-.432-1.544-.432-2.47 0-.802.185-1.604.494-2.283a5.334 5.334 0 0 1 1.296-1.79c.555-.556 1.172-.926 1.913-1.235a9.79 9.79 0 0 1 2.407-.494v-3.21l2.839-1.11v4.258c.864.062 1.666.186 2.407.494.74.247 1.357.68 1.913 1.173a6.166 6.166 0 0 1 1.234 1.79c.309.74.432 1.482.432 2.346 0 .926-.185 1.728-.494 2.469-.37.74-.74 1.358-1.296 1.852zm-7.159-.494v-7.346c-.987.062-1.79.432-2.345 1.111-.555.68-.802 1.544-.802 2.531 0 .618.062 1.111.247 1.543.185.433.37.803.679 1.112.247.308.617.555.987.74.37.185.802.247 1.234.309zm4.012-.309c.37-.185.74-.432.987-.74.247-.31.494-.68.68-1.112.184-.432.246-.925.246-1.543 0-1.05-.247-1.852-.802-2.53-.494-.68-1.296-1.05-2.284-1.112v7.346c.432-.062.803-.124 1.173-.309zM131.76 24.26c.494.494.864 1.111 1.11 1.852.31.74.433 1.543.433 2.47 0 .987-.124 1.79-.432 2.53-.309.74-.679 1.358-1.173 1.852-.493.494-1.11.926-1.79 1.173-.678.308-1.419.432-2.221.432-.864 0-1.605-.124-2.284-.432-.678-.247-1.234-.68-1.728-1.173-.493-.494-.864-1.111-1.11-1.852-.247-.74-.37-1.543-.37-2.469 0-.988.184-1.79.431-2.53.309-.742.68-1.359 1.173-1.853.494-.494 1.11-.926 1.79-1.173.678-.308 1.419-.432 2.221-.432.803 0 1.543.186 2.222.432.679.247 1.234.68 1.728 1.173zm-1.666 5.68c.061-.371.123-.865.185-1.359 0-1.05-.247-1.913-.679-2.53-.432-.68-1.05-.988-1.913-.988-.802 0-1.42.308-1.852.987-.432.68-.617 1.482-.617 2.47 0 1.11.247 1.975.68 2.592.431.617 1.048.926 1.85.926.37 0 .741-.062 1.05-.247.308-.185.617-.432.802-.74.247-.31.37-.68.494-1.112zm-8.517-6.976l-4.443 5.185 4.443 6.111h-3.58l-3.949-5.555v5.555h-3.024V22.901h3.024v4.877l4.073-4.815h3.456zm-12.651 7.654c0 1.235-.432 2.16-1.235 2.778-.802.556-1.851.864-3.147.864h-5.37V22.84h3.025v4.075h2.222c1.357 0 2.468.37 3.27.987.803.618 1.235 1.543 1.235 2.716zm-3.518 1.05c.309-.247.432-.618.432-1.05 0-.494-.123-.802-.432-1.05-.309-.246-.74-.37-1.234-.37h-1.913v2.778h1.974c.494 0 .864-.061 1.173-.308zm-16.663-2.16h4.567v4.752h3.024V22.901h-3.024v4.321h-4.567v-4.32h-3.024v11.357h3.024v-4.753zm-9.689-1.05c.185-.309.37-.617.617-.926h.124v6.728h3.024V22.901h-3.024l-3.395 5.185c-.185.31-.37.556-.555.865-.185.308-.37.555-.556.864h-.123V22.9h-3.024V34.26h3.024l1.666-2.407c.556-.803 1.111-1.667 1.667-2.47l.555-.925m-19.317-7.778h4.444v13.58h3.147V20.68h4.32v-2.654H59.74v2.654z"/><path fill="#FFF" d="M54.987 18.334c-.123-.185-.246-.309-.37-.494-.062-.124-.123-.185-.185-.309.185-.247.37-.555.555-.864l.556-1.235-1.358-.185c-.247-.061-.617-.123-1.049-.247a18.132 18.132 0 0 0-3.086-.617c.37-.185.74-.494.988-.926l.247-.432s-.062-.556-.309-.74l.185-.556.185-.926-.864-.309c-.123-.062-.247-.062-.432-.123-.061-.185-.123-.37-.247-.494l-.493-.926-.926.556c-.247.123-.432.308-.617.493-.124 0-.309-.061-.432-.061 0 0-.556-.062-1.111.123l-.74-.802-.926-.926c-.803-.865-1.975-1.173-3.086-.741-.432-.432-1.11-.803-2.16-.803-.37 0-.679.062-.864.062 0 0-1.481.247-2.283 1.05l-.988-.494c-.679 1.05-1.79 1.358-1.79 1.358-.061-.309-.185-.617-.432-.864l.062-.37s.247-1.297.926-2.346l1.172-1.852-1.666.185v-.617l-.247-1.358-1.296.617-.37.185-.247-.556-.617.31c-.062-.124-.123-.31-.247-.495L29.685.31l-.988 1.05c-.123.123-.185.185-.247.308l-.617-.617-.617.617c-.062-.123-.185-.185-.247-.309L25.982.31l-.68 1.296c-.123.185-.184.37-.246.494l-.617-.309-.247.556c-.123-.062-.247-.123-.432-.185l-1.358-.617-.123 1.42v.617l-1.666-.186 1.172 1.852c.679 1.05.926 2.346.926 2.346l.062.37c-.186.247-.309.556-.432.865 0 0-1.05-.433-1.79-1.359l-1.05.494c-1.172-.802-1.912-1.11-3.147-1.11-1.049 0-1.728.37-2.16.802-1.172-.432-2.283-.186-3.085.74 0 0-.556.618-.864.926-.37.37-.864.68-.864.68s-.741-.186-1.482 0c-.185-.186-.37-.31-.617-.494l-.925-.556-.494.926c-.124.185-.185.37-.247.494-.123 0-.247.061-.432.123l-.802.309.185.926c.062.185.123.432.185.555-.062.124-.123.185-.123.309l-.124.432.247.432c.247.432.555.74.987.926-1.172.124-2.221.432-3.085.617-.432.124-.803.186-1.05.247l-1.357.185.308.68.247.555c.124.309.309.617.556.864-.062.124-.432.68-.556.803l-.802.74.679.741c.062.062.802.864 2.036.864.309 0 .68-.061.988-.185.308.494.679.988 1.049 1.235-.617.74-1.358 1.42-2.407 1.913l-.864.432.37.988c.247.617.741 1.235 1.605 1.482a8.506 8.506 0 0 0-.37 1.605c-.185 1.172-.309 1.666-1.296 2.037l-.926.37.247.926c.185.74.555 1.296.864 1.605l-.617.679s1.48 1.11 2.9 1.234c0 0 1.235.062 1.79-.617.247.803.555 1.543.864 2.16.617 1.359.987 2.161.555 2.902L6.48 41.11l1.913-.061c.864-.062 1.605-.062 2.284-.247v.123l-.186 1.42 1.667-.37c.185-.062.37-.124.493-.186 1.05 1.235 2.84 2.161 5.184 2.161h.124l-2.777 1.111 1.975 1.05c1.296.678 2.777 1.234 4.443 1.728v.802l.987.309c.556.185 2.654.74 5.246.74 2.592 0 4.629-.555 5.246-.74l.987-.309-.247-.802c1.667-.494 3.148-1.05 4.444-1.729l1.975-1.049-2.777-1.111h.123c2.407 0 4.197-.926 5.184-2.16.123.061.309.123.494.185l1.666.37-.185-1.42v-.123c.679.185 1.481.247 2.283.247l1.913.061-.802-1.666c-.432-.74-.062-1.543.556-2.901.308-.68.678-1.42.864-2.16.37.308.74.431 1.172.555l.617.123c.864 0 1.296-.185 1.852-.555l1.049-.68-.617-.678c.37-.31.679-.865.864-1.605l.247-.926-.926-.309c-1.05-.37-1.111-.864-1.296-2.037a8.506 8.506 0 0 0-.37-1.605c.925-.247 1.357-.926 1.604-1.481l.37-.988-.864-.432c-1.049-.494-1.79-1.173-2.406-1.914.37-.247.74-.74 1.049-1.234.308.123.617.185.987.185 1.234 0 1.975-.803 2.037-.864l.679-.741-.618-.864z"/><path fill="#FFE600" d="M19.317 31.235v-7.963c0-.74-.186-1.482-.494-2.16h6.171c.556.802 1.605 1.296 2.777 1.296 1.173 0 2.222-.494 2.778-1.297h6.171c-.247.68-.494 1.42-.494 2.161v7.963h-16.91zm8.516 10.864c-.864-.864-1.481-.926-3.826-.926-2.777 0-4.69-1.605-4.69-4.26v-5.246h16.971v5.247c0 2.593-1.913 4.26-4.69 4.26-2.284 0-2.9.06-3.765.925z"/><path fill="#FFF" d="M20.304 43.087v1.605l-1.358.555c1.173.556 2.592 1.05 4.32 1.42l.803-2.53c-1.667-.371-2.84-.68-3.765-1.05m7.53 2.16c-1.605 0-3.025-.185-3.58-.308l-.803 2.716c1.296.308 2.84.555 4.382.555 1.543 0 3.086-.247 4.382-.555L31.413 45c-.556.062-1.975.247-3.58.247m7.468-2.16c-.864.37-2.037.679-3.703 1.05l.802 2.53c1.728-.37 3.147-.926 4.32-1.42l-1.358-.555-.061-1.605zm-17.836-25.68c2.16-1.172 7.468-3.765 3.888-6.48-.494-.371-1.049-.741-1.481-1.112-.555.432.185 1.482.432 1.914 0 0-1.173.123-1.481.123-1.852 0-3.765-1.11-2.777-3.21-.74.124-.803.865-1.05 1.482-.493-.309-1.295-.988-1.913-.926.494 1.667 2.654 3.086 4.32 3.457-1.666.926-4.813 1.605-6.48-.37-1.172 2.222.432 3.147 2.037 4.32-5.986 2.716-5.122 5.803-9.072 8.272.494.247 2.777-.247 3.024-.247-.864 1.111-1.234 1.605-1.481 2.099-.247.494-.37 1.05-.556 2.284-.185.987-.555 1.975-1.728 2.592.309.803 1.358.124 1.79.062-.062.062-.185 1.111-.617 1.605 2.037-.123 1.11-4.383 3.086-3.395.555.309.74.988.493 1.481-1.357 2.778 1.667 5.186 1.543 7.593.74 0 1.543 0 1.975-1.05.247.494.617 1.235.864 1.914l.617-1.05c.37 1.73 1.975 3.272 4.135 3.458-1.049-1.605.185-3.828-2.283-6.173.308-.247 1.049-.741 1.296-1.05-3.086.37-6.233-2.037-4.814-3.21.926-.74 1.358.803 2.839.556l-.556-.556.68-.679c-.618-.061-1.297-.493-1.297-.493l.37-.618c-3.579 0-3.702-2.777-2.221-2.84.679-.06 1.543 1.235 3.764.927-.308-.37-.37-.864-.555-1.235.555 0 1.173 0 1.666-.247-1.049-.123-1.357-.494-2.221-1.173l1.049-.37c-1.481-.74-1.42-2.099-1.481-3.457.802.432 1.728 1.173 2.715.803.247-.062.37-.185.37-.432-1.42-.556-2.283-2.716 1.111-4.568zm-2.592.248c-1.913 2.037-1.049 3.21-.679 3.58-.679-.124-1.728-1.05-1.543-1.914-.246.247-.432.556-.678.865-.494.617-.864 1.234-1.235 1.851-.555 1.729.494 3.457 2.284 4.26-1.975-.309-2.9-2.037-2.9-3.21-.927 1.79-1.42 3.457-1.359 4.815 0 .493.062.987.124 1.42.432.864 1.172 1.172 2.468 1.357-1.172.062-1.79 0-2.345-.493.803 3.456 4.567 6.481 6.11 9.074-1.543-2.037-4.752-5-5.863-7.16-.062.802.124 2.777 1.111 4.011-1.42-1.42-1.543-3.518-1.42-4.814-.37-.926-.617-1.914-.617-3.025 0-1.05.062-1.975.186-2.778-.926 1.296-2.222 1.79-2.84 3.766.124-2.531 2.037-2.593 3.395-5.618.555-1.358 1.358-2.469 2.222-3.827-1.111.37-1.975.617-3.271 2.037.926-2.16 6.233-4.63 8.64-6.975-.74.123-3.703.247-4.937-.617 2.221.617 7.22-.062 9.072-1.358-1.296 1.851-4.135 1.975-7.591 5.679.555-.309 1.11-.68 1.666-.926zm36.041 11.358c-.247-1.235-.37-1.79-.555-2.284-.247-.556-.679-.988-1.481-2.099.185 0 2.468.494 3.024.247-3.95-2.408-3.086-5.494-9.072-8.272 1.604-1.173 3.209-2.098 2.036-4.32-1.666 1.975-4.752 1.296-6.48.37 1.667-.309 3.827-1.79 4.32-3.457-.617-.124-1.42.617-1.913.926-.247-.617-.308-1.296-1.049-1.482.987 2.1-.926 3.21-2.777 3.21-.309 0-1.481-.123-1.481-.123.185-.37.987-1.482.37-1.914-.432.432-.987.74-1.481 1.111-3.58 2.778 1.728 5.37 3.888 6.482 3.394 1.852 2.468 4.012 1.049 4.568 0 .247.185.37.37.432.988.308 1.913-.37 2.716-.803-.062 1.358.061 2.655-1.481 3.457l1.049.37c-.926.68-1.173 1.05-2.222 1.173.494.247 1.11.247 1.666.309-.123.37-.247.864-.555 1.235 2.222.246 3.086-.988 3.764-.926 1.482.123 1.358 2.84-2.221 2.84l.37.616s-.679.37-1.296.494c.247.185.494.432.679.68l-.556.493c1.482.247 1.852-1.296 2.84-.556 1.419 1.173-1.729 3.58-4.814 3.21.246.309.987.803 1.296 1.05-2.469 2.345-1.296 4.568-2.284 6.173 2.16-.124 3.765-1.729 4.135-3.457l.617 1.05c.247-.68.617-1.359.864-1.914.494.987 1.234 1.049 2.037 1.049-.185-2.407 2.839-4.815 1.543-7.593-.247-.555-.124-1.234.493-1.481 2.037-1.05 1.111 3.272 3.148 3.395-.37-.494-.556-1.482-.617-1.605.432.123 1.48.74 1.913-.062-1.296-.679-1.667-1.666-1.852-2.592zm-3.764-3.519c.185.803.247 1.729.185 2.778-.062 1.111-.247 2.16-.617 3.025.061 1.234 0 3.395-1.42 4.814.988-1.234 1.173-3.21 1.111-4.012-1.11 2.16-4.32 5.124-5.863 7.16 1.543-2.592 5.308-5.617 6.172-9.073-.494.555-1.173.617-2.345.493 1.296-.185 2.036-.493 2.468-1.358.062-.432.124-.926.124-1.42.061-1.357-.432-3.024-1.358-4.814 0 1.11-.864 2.901-2.9 3.21 1.789-.803 2.838-2.531 2.283-4.26-.37-.617-.803-1.234-1.235-1.851a38.576 38.576 0 0 1-.678-.865c.246.865-.803 1.79-1.543 1.914.37-.37 1.172-1.605-.68-3.58.556.247 1.112.617 1.544.926-3.456-3.704-6.233-3.828-7.591-5.68 1.913 1.297 6.85 1.976 9.072 1.359-1.234.802-4.197.74-4.937.617 2.407 2.346 7.714 4.815 8.64 6.975-1.296-1.42-2.099-1.666-3.21-2.037.865 1.296 1.667 2.47 2.222 3.827 1.42 3.087 3.271 3.087 3.395 5.618-.618-1.976-1.914-2.47-2.84-3.766z"/><path fill="#FFF" d="M30.61 21.111c-.555.803-1.604 1.297-2.777 1.297-.247 0-.555 0-.802-.062.062.309.247.679.555.926-.123.926.247 1.79 1.235 2.037.123.494.37.864.925.988l-.679.802c-.246.309-.617.432-.925.37l-3.086-.37c.123-.37-.247-.74-1.234-.555l1.234-3.395-.74-1.605-1.42 1.234-.062 3.519-.617-.309c-.802-.37-.987 1.111-.247 1.111h.309c0 .124 0 .309.123.37-.123.062-.185.31 0 .433-.185.061-.185.37-.061.493-.124.247-.186.865.37.988.432.124.74-.37.802-.617l4.814 1.481c.679.185 1.172.062 1.728-.432l1.234-1.11c-.185.74.124 1.357.679 1.604 0 0-.062.679-.062.926h4.32v-7.963c0-.74.185-1.482.494-2.16h-6.11zm-7.282 13.396l.123.123c.124.185.186.123.37.062l.248-.124c.123-.123 1.049.247 1.11-.494.124.556-.555 1.729-.185 2.408l.556.864h-1.79a.417.417 0 0 0-.37.247l-.432.988c-.124.247-.124.493.061.679l.309.37s.247-.247.309-.494l-.186-.247c-.123-.123-.123-.185-.061-.37l.308-.617c.124-.247.247-.309.494-.247l1.42.308c.123 0 .246.062.37-.123.185-.309.493-.309.802-.309.802.124 2.592.309 3.21-.432.74.988 2.22.988 2.16 1.543l-.31 1.729h.494l.309-1.79c.062-.186.185-.494-.062-.618-.062-.061-.123-.123-.308-.432-.247-.494-.247-1.173-.494-1.79.247-.309.494-.37.74-.309.494.124.68 1.05 1.42 1.79-.062-.308-.124-.678-.309-.987 0 0 .494.37.617.864.062.309.186.494.432.617.186.062.37 0 .618-.247 0 0-.494-.679-.864-1.172-.494-.618-1.173-1.235-2.037-1.173-.309 0-.555.123-.802.308-1.111-.555-1.913.062-2.222.062l-1.913-.123c-.37 0-.679-.432-.679-.432-.062-1.605-1.358-2.223-1.79-2.223 0 0 .062-.308-.061-.37l-.37.494-1.112-.432.864.679-.925 1.11c-.124.063-.062.248-.062.31z"/><path fill="#FFF" d="M22.094 36.729c-.247.185-.247.494-.124.802l.185.309.432-.309-.123-.185c-.062-.123-.062-.309.062-.37l.617-.432c.185-.124.247-.124.37-.124l1.234.247s-.185-.247-.246-.556l-1.173-.185c-.185 0-.247.062-.432.185l-.802.618zm8.023 3.765h.493l.74-1.852c0-.061.063-.123.063-.123-.37-.124-.556-.247-.803-.37.185.246.37.37.247.617l-.74 1.728zm.432-25.432L31.413 10l-3.333 1.111v5.247l2.469-1.296zm-1.914-3.395l2.222-.802s-.432.37-.926.679c-.432.308-1.296.679-1.296.679v-.556zm0 1.235l2.037-.741s-.247.247-.74.617c-.433.309-1.297.68-1.297.68v-.556zm0 1.296l1.79-.68s0 .248-.494.556c-.432.31-1.296.68-1.296.68v-.556zm-4.011 5.37l.062.124h.679v.123c0 .124.061.247.061.37.124.31.309.68.68.926.37.31.987.556 1.727.556 1.666 0 2.407-1.05 2.469-1.852v-.123h.679l.061-.124c.617-.987 1.42-2.16 2.345-2.284l-2.53-1.481-3.086 1.666-3.085-1.666-2.53 1.481c.987.124 1.79 1.235 2.468 2.284z"/><path fill="#FFF" d="M27.586 16.358v-5.247l-3.332-1.11.864 5.061 2.468 1.296zm-.555-1.605s-.802-.308-1.296-.679c-.494-.37-.494-.555-.494-.555l1.79.679v.555zm0-3.086v.556s-.802-.31-1.296-.68c-.494-.37-.926-.678-.926-.678l2.222.802zm0 1.235v.555s-.802-.308-1.296-.679c-.494-.37-.74-.617-.74-.617l2.036.74zm.802-5.124c-1.913 0-3.332.617-3.641 1.358l3.641 1.42 3.641-1.42c-.308-.74-1.728-1.358-3.64-1.358zm0-2.099c1.42 0 2.777.432 3.765.988.123-.494.308-.864.555-1.296l-.864.123-.74-1.481-1.296.679-1.42-1.42-1.42 1.42-1.295-.68-.68 1.482-.863-.123c.247.432.37.802.555 1.296.864-.556 2.284-.988 3.703-.988zm23.76 11.482c.494-.062.864-.185 1.296-.556-.987-.247-3.086-.987-4.875-.679-.617.062-.926.309-.68.432.927.618 2.16 2.1 3.025 3.828.74-.926.432-2.161.308-2.531 1.482.926 1.914 1.358 2.592 1.173-.432-.556-.925-1.05-1.666-1.667zM5.307 20.186c.864-1.729 2.037-3.21 3.024-3.828.186-.123-.123-.37-.678-.432-1.79-.308-3.888.432-4.876.68.494.37.864.493 1.296.555-.74.617-1.234 1.111-1.604 1.667.678.185 1.11-.247 2.592-1.173-.186.37-.494 1.605.246 2.53z"/><path fill="#000" d="M15.737 36.111c.679-.555 1.296-.802 1.234-2.16-1.049.556-4.011.494-5.245-1.173-.37-.494 0-.74.37-.37.864.926 2.407.494 2.962.247-.061-.309-.37-.741-.555-.926.185-.185.802-.494.926-1.05-.309-.185-1.543-.308-1.543-.308.185-.185.432-.494.308-1.173-1.296.37-2.839-.124-3.209-.617-.37-.494 0-.926.309-.618.617.68 3.764 1.42 4.937.247-.432-.123-.926-.494-.988-.74 1.05-.124 1.914-.741 2.037-1.544-.617 0-1.728-.061-2.098-.308.493-.186.864-.37.987-.988-1.975-.123-2.16-1.605-2.16-1.852 1.296.74 3.58.432 2.962-1.42-1.049-.061-2.16-1.79.803-3.395 2.653-1.42 5.74-3.024 5.43-5.555-.185-1.667-2.9-2.778-3.209-3.58-1.11.555-1.357 1.172-.864 2.222 0 0-2.53.247-2.715-1.297-.062-.679.37-1.358.864-1.851-.309 0-2.16-.494-2.777 1.049-1.05-.74-1.975-.679-2.716.062 1.173.679 1.852 3.024 3.765 3.703-1.358.741-3.518.433-4.814-1.79-1.172 1.79-1.913 3.58.68 5.494-4.63 2.16-4.568 6.235-8.64 8.148.431 1.111 1.295 1.111 2.406.926-1.79 2.346-.247 4.692-3.086 5.68.247.925.803 1.666 1.79 1.419-.309.432-.494.432-.926.926 1.543.988 3.333.247 3.765-2.84.062-.555.802-.185.555.309C5.554 34.63 9.936 37.346 8.393 40c1.358-.061 2.407-.185 2.962-.617.309.556.432 1.111.37 1.667.741-.124 1.05-.618 1.112-1.111.493 1.42 2.283 3.024 5.122 3.024-1.481-2.222-.062-4.382-2.222-6.852zm-2.777 2.655l-.617 1.05c-.247-.68-.617-1.359-.864-1.914-.494.987-1.234 1.049-1.975 1.049.185-2.407-2.839-4.815-1.543-7.593.247-.555.062-1.234-.494-1.481-2.036-1.05-1.11 3.272-3.085 3.395.37-.494.555-1.482.617-1.605-.432.123-1.481.74-1.913-.062 1.172-.617 1.543-1.605 1.728-2.592.247-1.235.37-1.79.555-2.284.247-.556.679-.988 1.481-2.099-.185 0-2.468.494-3.024.247 3.95-2.408 3.086-5.494 9.072-8.272-1.604-1.173-3.209-2.098-2.036-4.32 1.666 1.975 4.752 1.296 6.48.37-1.667-.309-3.827-1.79-4.32-3.457.617-.124 1.42.617 1.913.926.247-.617.308-1.296 1.049-1.482-.987 2.1.926 3.21 2.777 3.21.309 0 1.481-.123 1.481-.123-.185-.37-.987-1.482-.432-1.914.432.432.988.74 1.481 1.111 3.58 2.778-1.728 5.37-3.888 6.482-3.394 1.852-2.468 4.012-1.049 4.568 0 .247-.185.37-.37.432-.987.308-1.913-.37-2.715-.803.061 1.358-.062 2.655 1.48 3.457l-1.048.37c.925.68 1.172 1.05 2.221 1.173-.493.247-1.11.247-1.666.309.123.37.247.864.555 1.235-2.221.246-3.085-.988-3.764-.926-1.481.123-1.358 2.84 2.222 2.84l-.37.616s.678.37 1.295.494a3.537 3.537 0 0 0-.679.68l.556.493c-1.481.247-1.852-1.296-2.839-.556-1.42 1.173 1.728 3.58 4.814 3.21-.247.309-.988.803-1.296 1.05 2.468 2.345 1.234 4.568 2.283 6.173-2.098-.186-3.703-1.729-4.073-3.457zm-3.95-8.58c.494.555 1.173.617 2.345.493-1.296-.185-2.036-.493-2.468-1.358a10.134 10.134 0 0 1-.124-1.42c-.061-1.357.432-3.024 1.358-4.814 0 1.11.864 2.901 2.9 3.21-1.789-.803-2.838-2.531-2.283-4.26.37-.617.803-1.234 1.235-1.851.246-.31.493-.618.678-.865-.246.865.803 1.79 1.543 1.914-.37-.37-1.172-1.605.68-3.58-.556.247-1.112.617-1.544.926 3.456-3.704 6.295-3.828 7.591-5.68-1.851 1.297-6.85 1.976-9.072 1.359 1.234.802 4.197.74 4.937.617-2.407 2.346-7.714 4.815-8.64 6.975 1.296-1.42 2.099-1.666 3.271-2.037-.864 1.296-1.666 2.47-2.222 3.827-1.419 3.087-3.27 3.087-3.394 5.618.617-1.976 1.975-2.47 2.839-3.766-.185.803-.247 1.729-.185 2.778.062 1.111.247 2.16.617 3.025-.062 1.234 0 3.395 1.42 4.814-.988-1.234-1.173-3.21-1.111-4.012 1.11 2.16 4.32 5.124 5.862 7.16-1.666-2.592-5.43-5.617-6.233-9.073zm35.363-10.37c1.11.37 1.974.616 3.209 2.036-.926-2.16-6.233-4.63-8.64-6.975.74.123 3.703.247 4.937-.617-2.222.617-7.22-.062-9.072-1.358 1.296 1.851 4.135 1.975 7.59 5.679-.431-.37-1.048-.68-1.542-.926 1.913 2.037 1.049 3.21.679 3.58.679-.124 1.728-1.05 1.543-1.914.246.247.432.556.678.865.494.617.864 1.234 1.235 1.851.555 1.729-.494 3.457-2.284 4.26 1.975-.309 2.9-2.037 2.9-3.21.927 1.79 1.42 3.457 1.359 4.815 0 .493-.062.987-.124 1.42-.432.864-1.172 1.172-2.468 1.357 1.172.062 1.79 0 2.345-.493-.803 3.456-4.567 6.481-6.172 9.074 1.543-2.037 4.752-5 5.863-7.16.062.802-.123 2.777-1.11 4.011 1.419-1.42 1.542-3.518 1.419-4.814.37-.926.617-1.914.617-3.025.062-1.05-.062-1.975-.185-2.778.925 1.296 2.221 1.79 2.839 3.766-.124-2.531-2.037-2.593-3.395-5.618-.555-1.358-1.357-2.53-2.221-3.827zm6.11 5.678c1.11.185 1.974.185 2.406-.926-4.073-1.913-4.073-6.05-8.702-8.148 2.592-1.913 1.852-3.704.68-5.494-1.297 2.223-3.457 2.531-4.814 1.79 1.913-.679 2.592-3.024 3.764-3.703-.74-.741-1.604-.803-2.715-.062-.556-1.543-2.469-1.05-2.777-1.05.493.494.987 1.173.864 1.852-.186 1.544-2.716 1.297-2.716 1.297.494-1.05.309-1.667-.864-2.222-.37.802-3.024 1.975-3.209 3.58-.247 2.592 2.777 4.136 5.43 5.555 2.963 1.605 1.852 3.334.803 3.395-.617 1.852 1.666 2.16 2.962 1.42 0 .247-.185 1.729-2.16 1.852.186.556.494.74.988.988-.37.308-1.543.308-2.098.308.061.803.925 1.42 2.036 1.543-.062.247-.555.618-.987.741 1.172 1.173 4.32.37 4.937-.247.308-.308.679.124.308.618-.37.493-1.913.987-3.209.617-.123.74.124.988.309 1.173 0 0-1.234.123-1.605.308.124.556.74.865.926 1.05-.185.185-.494.617-.555.926.555.247 2.16.679 2.962-.247.37-.37.74-.124.37.37-1.234 1.667-4.196 1.729-5.246 1.173 0 1.358.556 1.605 1.235 2.16-2.16 2.47-.74 4.63-2.222 6.79 2.839 0 4.629-1.543 5.122-3.024.062.494.309.988 1.111 1.111-.062-.556.124-1.111.37-1.667.556.432 1.605.556 2.963.618-1.543-2.655 2.839-5.37 1.11-8.951-.246-.556.494-.864.556-.309.432 3.087 2.222 3.766 3.765 2.84-.432-.494-.68-.494-.926-.926 1.049.247 1.543-.494 1.79-1.42-2.716-.987-1.173-3.333-2.963-5.679zm.246 6.173c.062.062.185 1.111.617 1.605-2.036-.123-1.11-4.383-3.147-3.395-.556.309-.74.988-.494 1.481 1.296 2.778-1.666 5.186-1.543 7.593-.74 0-1.543 0-2.036-1.05-.247.494-.617 1.235-.864 1.914l-.617-1.05c-.37 1.73-1.975 3.272-4.135 3.458 1.049-1.605-.185-3.828 2.283-6.173-.308-.247-1.049-.741-1.296-1.05 3.086.37 6.233-2.037 4.814-3.21-.926-.74-1.358.803-2.839.556l.555-.494-.678-.679c.617-.062 1.296-.494 1.296-.494l-.37-.617c3.579 0 3.702-2.778 2.221-2.84-.679-.061-1.543 1.235-3.765.927.309-.37.37-.865.556-1.235-.556-.062-1.173-.062-1.666-.309 1.049-.123 1.357-.494 2.221-1.173l-1.049-.37c1.481-.74 1.42-2.099 1.481-3.457-.802.432-1.728 1.173-2.715.803-.247-.062-.37-.185-.37-.432 1.419-.556 2.345-2.716-1.05-4.568-2.16-1.173-7.467-3.766-3.888-6.482.494-.37 1.05-.74 1.482-1.11.555.431-.186 1.48-.37 1.913 0 0 1.172.123 1.48.123 1.852 0 3.765-1.11 2.778-3.21.74.124.802.865 1.049 1.482.493-.309 1.296-.988 1.913-.926-.494 1.667-2.654 3.086-4.32 3.457 1.666.926 4.814 1.605 6.48-.37 1.172 2.222-.432 3.147-2.037 4.32 5.987 2.716 5.123 5.803 9.072 8.272-.493.247-2.777-.247-3.024-.247.864 1.111 1.235 1.605 1.481 2.099.247.494.37 1.05.556 2.284.185.987.555 1.975 1.728 2.592-.309.803-1.358.124-1.79.062zm-28.635 6.728l.864-.74-.124-.247c-.123-.185-.061-.185.062-.247l.432-.309c.123-.062.185-.062.37-.062l1.358.31h-1.42c-.308 0-.431.123-.555.37l-.123.185-.37.74a.865.865 0 0 0 .123.988l.247.309-.556 1.05h.432l.37-.742s.556-.493.68-1.049c-.186-.123-.247-.247-.186-.37l.185-.37c.062-.124.062-.186.247-.124l1.42.308c.185.062.432.124.617-.185.185-.308.247-.247.679-.247l.74.062c.988.124 1.975-.185 2.407-.432.124.309.432.556.556.802.061.062-.062.186-.062.37l-.864 2.038h1.234l.74-1.79a.95.95 0 0 1 .248-.37l-.432 2.16h1.234l.308-2.16c.062-.494 0-.618-.185-.803-.493-.432-.493-1.358-.679-1.914.062-.061.186-.061.309-.061.247 0 .494.679.802 1.172.617.865 1.481 1.852 2.469.494-.124-.185-.185-.308-.309-.432l-.247-.309c-.185-.185-.925-1.049-1.234-1.358-.74-.74-1.79-.617-2.283-.246-.988-.494-2.037 0-2.284 0l-1.728-.124c-.061 0-.185-.062-.308-.185l.308-.124c-.308-1.234-1.049-2.284-2.345-2.469 0 0-.062-.37-.247-.494l-.37.433c-.123 0-.247.061-.309.061l-1.666-.617 1.234 1.296s-.678.926-.864 1.111c-.123.186-.123.31 0 .494l.247.309c.124.185.247.185.494.062l.247-.124c.123-.123.494.124.679-.062-.124.37-.185.68-.185.988l-1.111-.123c-.247-.062-.37 0-.494.123l-.987.74a.857.857 0 0 0-.247 1.05l.432.864zm9.257.186l-.74 1.851h-.494l.74-1.79c.062-.247-.062-.37-.247-.617.309.185.494.247.803.37 0 .124 0 .124-.062.186zm-7.344-4.074l-.247.123c-.123.062-.247.123-.37-.062l-.124-.123c-.061-.062-.061-.185.062-.309l.926-1.111-.803-.617 1.111.432.432-.494c.124.123.062.37.062.37.432 0 1.728.618 1.79 2.223 0 0 .308.432.679.432l1.913.123c.308 0 1.11-.617 2.098-.062.247-.123.555-.246.802-.308.864-.062 1.543.555 2.037 1.173.37.432.864 1.172.864 1.172-.185.247-.432.31-.617.247-.247-.123-.37-.37-.432-.617-.124-.494-.617-.864-.617-.864.185.309.185.679.308.988-.74-.741-.864-1.667-1.42-1.79-.246-.062-.493.061-.74.308.247.617.247 1.296.494 1.79.185.37.247.37.308.432.247.186.124.432.062.618l-.308 1.79h-.494l.308-1.729c.124-.555-1.357-.555-2.16-1.543-.617.74-2.468.556-3.209.432-.308-.062-.617 0-.802.309-.123.185-.247.123-.37.123l-1.42-.308c-.247-.062-.37 0-.493.247l-.309.617c-.062.123-.062.247.062.37l.123.124c-.062.308-.308.494-.308.494l-.247-.31c-.124-.184-.185-.431-.062-.678l.432-.988c.062-.123.123-.247.37-.247h1.79l-.555-.864c-.432-.679.246-1.852.185-2.407-.062.74-.988.432-1.111.494zm-1.913 2.222l.864-.618a.56.56 0 0 1 .432-.185l1.172.185c.062.31.247.556.247.556l-1.234-.247c-.185 0-.247 0-.37.124l-.618.432c-.123.061-.123.247-.061.37l.123.185-.432.309-.185-.309c-.185-.308-.185-.555.062-.802zm3.64-22.655c.433.31 1.297.68 1.297.68v-.556l-1.79-.68s0 .186.494.556zm1.297-.679v-.555l-2.037-.74s.247.246.74.616c.495.37 1.297.68 1.297.68zm0-1.172v-.556l-2.222-.802s.432.37.926.679c.494.308 1.296.679 1.296.679zm6.233 7.345h2.283c-.123-.308-.432-.679-1.11-.679-.68 0-1.05.37-1.173.68zm-2.407-8.703l-2.222.802v.556s.803-.31 1.296-.68c.494-.37.926-.678.926-.678zm-.432 2.654l-1.79.679v.555s.803-.308 1.296-.679c.494-.37.494-.555.494-.555zm.247-1.358l-2.037.74v.556s.803-.308 1.296-.679c.494-.37.741-.617.741-.617zm-9.442 6.728c-.68 0-.988.309-1.111.68h2.283c-.123-.31-.493-.68-1.172-.68z"/><path fill="#000" d="M32.338 9.383c0-1.296-2.16-2.407-4.505-2.407-2.345 0-4.505 1.11-4.505 2.407l.062.309.925 5.432-4.443 2.592c-.494.309-1.05 1.05-1.173 1.852h.803c.123-.802.74-1.605 1.913-1.605 1.049.062 1.666.68 2.222 1.605l.185.247.247.37h-6.604c.494.988.926 1.976.926 3.087v13.642c0 3.518 2.715 5.185 5.616 5.185 2.283 0 2.53-.123 3.826 1.173 1.234-1.235 1.543-1.173 3.826-1.173 2.901 0 5.616-1.667 5.616-5.185V23.272c0-1.111.432-2.16.926-3.086h-6.603l.247-.37.185-.248c.617-.926 1.234-1.543 2.221-1.605 1.111-.061 1.728.803 1.914 1.605h.802c-.062-.802-.679-1.543-1.173-1.852l-4.443-2.592.926-5.432.061-.309zM24.254 10l3.332 1.111v5.247l-2.468-1.296L24.254 10zm.802 11.111c.432.618 1.173 1.05 1.975 1.235.062.309.247.679.555.926-.123.926.247 1.79 1.235 2.037.123.494.37.864.864.988l-.68.802c-.246.309-.616.432-.925.37l-3.086-.37c.124-.37-.247-.74-1.234-.555l1.234-3.395-.74-1.605-1.42 1.234v3.519l-.617-.309c-.802-.37-1.049 1.111-.247 1.111h.309c0 .124 0 .309.123.37-.123.062-.185.31 0 .433-.185.061-.185.37-.061.493-.186.247-.186.865.37.988.432.124.74-.37.802-.617l4.814 1.481c.679.185 1.172.062 1.728-.432l1.234-1.11c-.185.74.124 1.357.679 1.604 0 0-.062.679-.062.926h-12.59v-7.963c0-.74-.185-1.482-.493-2.16h6.233zm5.184 2.963a1.653 1.653 0 0 0 .062 1.605l-.185.186c-.926-.124-1.296-1.482-1.296-1.482v.37c-.556-.185-.864-.679-.864-1.296.185.124.432.185.678.247l.062-.37c-.617-.124-.987-.494-1.172-.988h-.062.37c.37 0 .74-.062 1.05-.185.246.37.74.617 1.172.679 0 .37 0 .802.185 1.234zm1.358 3.642c-.062.124-.185.247-.185.433l-.494.493c.123-.74-.37-1.605-.864-1.975l.555-.556.124.124c-.247.432.123 1.358.864 1.481zm-2.407-.247l.432-.432c.432.37.987 1.173.802 1.976l-.432.432c-.123.062-.185.185-.308.247.246-.741-.124-1.79-.494-2.223zm-.926.31c.185 0 .309 0 .494-.063.308.433.555 1.482.185 2.16-.185 0-.432-.06-.617-.06l-.185-.063c.308-.493.247-1.42.123-1.975zm-1.049-.124l.617.061c.124.494.062 1.358-.308 1.79l-.68-.185c.31-.37.433-1.234.371-1.666zm-1.234-.124l.74.062c.062.37-.061 1.235-.308 1.605l-.74-.185c.246-.37.37-1.05.308-1.482zm-2.9-.185c-.31.123-.495-.123-.495-.309.68-.247.926-.061 1.111.062.185.124.309.432.556.617-.062.247-.124.68-.247.926-.679-.185-.679-.74-.432-1.11-.062-.248-.185-.31-.494-.186zm-.433 1.296s.185.062.432.124c0 .123-.123.247-.308.247a.297.297 0 0 1-.124-.37zm-.679-1.913c-.185-.124-.061-.37.062-.37.185 0 .494.246.74.37.062 0-.678.061-.802 0zm.68 1.358c.123.123.555.062.555.062v.061c-.124.309-.68.185-.556-.123zm.616-.247c-.308.123-.617-.062-.555-.247.123.123.555.062.555.062v.185zm.432-3.58l-.617 2.16.185-3.457.926-.802.494.988-1.173 3.395.309-2.284c0-.186-.124-.186-.124 0zm.062 2.592s.679-.062.864.062c.123.062.062.309-.123.247-.247-.062-.741-.309-.741-.309zm.987.494l.741.062c.062.37-.062 1.05-.309 1.42l-.678-.124c.185-.432.185-.864.246-1.358zm11.541 9.568c0 1.667-.74 2.901-2.037 3.642l.432-.926h-.432l-.617 1.173a5.435 5.435 0 0 1-2.036.37c-2.345 0-2.963.124-3.827.926-.864-.864-1.48-.926-3.826-.926-.74 0-1.42-.123-2.036-.37l.617-1.173h-.432l-.494.988-.37-.186.432-.864h-.432l-.309.618c-.987-.741-1.604-1.852-1.604-3.334v-5.247h16.971v5.309zm.494-15.803c-.247.68-.494 1.42-.494 2.161v7.963h-.926c-.432-.432-.802-1.79-.802-1.79-.247.494.062 1.481.309 1.79h-1.173c-.309-.37-.555-1.79-.555-1.79-.37.432-.124 1.481.061 1.79H32.4c-.062-.556.123-1.173.123-1.173-.432-.062-.864-.309-.864-.74.186.185.309.185.556.185l.308-.247c-1.11.061-1.172-1.173-.308-1.79-.864 0-1.543-.494-1.234-1.42-.618-.309-.864-1.42-.37-1.852-.31-.37-.371-1.111-.186-1.543-.432 0-.926-.186-1.234-.494h-.062c.556-.247 1.05-.556 1.358-1.05h6.295zm-3.395-3.888c-.925.185-1.728 1.296-2.345 2.284l-.061.123h-.68v.123c-.061.803-.802 1.852-2.468 1.852-.74 0-1.358-.247-1.728-.555-.37-.247-.555-.618-.679-.926-.061-.124-.061-.247-.061-.37v-.124h-.68l-.061-.123c-.679-.988-1.42-2.161-2.345-2.284l2.53-1.482 3.086 1.667 3.086-1.667 2.406 1.482zm-2.838-2.16l-2.469 1.295v-5.247l3.333-1.11-.864 5.061zm-2.716-4.507l-3.641-1.42c.309-.74 1.728-1.358 3.641-1.358s3.333.617 3.641 1.358l-3.64 1.42zm8.085 15.679v-.37c-1.235 0-1.481-1.482-1.481-1.482-.37 1.05.555 1.852 1.48 1.852zm-1.543 2.47l-.124-.371c-1.049.247-1.604-1.358-1.604-1.358-.309 1.11.864 1.975 1.728 1.728zm.74-1.544c-1.234.185-1.79-1.235-1.79-1.235-.123.803.371 1.605 1.173 1.667-.185 1.05.803 1.543 1.605 1.173l-.124-.37c-.678.246-1.357-.494-.864-1.235zm-.74-4.136v-.37c-1.666-.37-1.481-1.482-1.481-1.482-.37 1.05.555 1.79 1.48 1.852z"/><path fill="#000" d="M23.945 39.63l-.617 1.173h.432l.617-1.173h-.432zm.864 0l-.617 1.173h.494l.555-1.173h-.432zm3.58 0l-.618 1.173h.432l.618-1.173h-.432zm.864 0l-.556 1.173h.432l.556-1.173h-.432zm-1.79 0l-.556 1.173h.432l.618-1.173h-.494zm5.246 1.173h.432l.617-1.173h-.494l-.555 1.173zm-7.036-1.173l-.555 1.173h.432l.617-1.173h-.494zm.926 0l-.617 1.173h.493l.556-1.173h-.432zm-2.037-6.481c-.061 0-.123.061-.123.185 0 .123.062.185.123.185.062 0 .185-.062.185-.185 0-.062-.061-.185-.185-.185zm3.271-26.976c1.852 0 3.271.617 4.073 1.235 0 0 .247-1.482 1.05-2.716l-1.482.185-.74-1.667-1.481.803-1.42-1.42-1.42 1.42-1.48-.741-.741 1.667-1.481-.186C23.513 6.05 23.76 7.47 23.76 7.47c.802-.679 2.222-1.296 4.073-1.296zm-3.456-.679l.74-1.481 1.297.679 1.42-1.42 1.419 1.42 1.296-.68.678 1.482.864-.123c-.246.432-.37.802-.555 1.296-.926-.556-2.345-.988-3.765-.988-1.419 0-2.838.432-3.764.988-.185-.494-.309-.864-.556-1.296l.926.123zm4.937-2.284c.185 0 .432-.123.432-.37 0-.185-.308-.803-.308-.803s-.432.556-.432.803c-.062.185.123.37.308.37zm2.407.926c.185.124.432 0 .494-.185.123-.185.062-.864.062-.864s-.618.308-.741.494a.498.498 0 0 0 .185.555zm-5.369-.926c.247 0 .37-.185.37-.432 0-.185-.493-.74-.493-.74s-.37.617-.309.864c0 .185.185.37.432.308zm-2.469.926c.247-.123.309-.37.186-.555-.124-.186-.741-.494-.741-.494s-.062.617.062.864c.123.185.308.247.493.185zM52.89 17.408c.494-.185.926-.68 1.111-1.111-1.296-.186-4.814-1.667-7.653-.432 1.05-.988 2.037-1.173 2.099-2.593.432.309 1.172.494 1.604-.247-.308-.864-1.049-.185-1.172-.432-.124-.309.925.123 1.172-1.05-.864-.308-1.11.37-1.234.247-.123-.123.555-.432.062-1.358-.864.494-.432 1.112-.617 1.173-.247.062-.062-.617-.988-.555-.123 1.05.926 1.05.74 1.234-.184.185-.493-.617-1.172-.185 0 .864.679 1.296 1.42 1.111-.124 1.605-1.605 1.297-2.654 3.087 2.283 1.172 3.332 3.271 4.814 4.691.493-.309 1.296-1.79 1.296-1.79 1.542 1.173 2.653 0 2.653 0-.679-.68-.679-1.05-1.48-1.79zm-2.283.247c.185.37.493 1.605-.309 2.53-.864-1.728-2.036-3.21-3.024-3.827-.185-.123.124-.37.679-.432 1.79-.308 3.888.432 4.875.68-.432.37-.864.493-1.296.555.741.617 1.235 1.111 1.605 1.667-.617.185-.987-.247-2.53-1.173zM27.4 45.74l-.987-.062-.124.37h.124c.061 0 .061-.061.061-.123 0 0 .186-.061.37 0l.433.062c-.247.494-.864.988-.864 1.358 0 .185.185.247.308.185.185 0 .247-.123.309-.37.123-.494.37-.864.555-1.482l-.185.062zm.679.617v-.308h.864l-.062-.37c-.247 0-.617.061-.925.061l-.062.68c.432 0 .679.184.679.555 0 .185-.124.432-.309.493h-.123c-.062-.061 0-.123 0-.246 0-.124-.124-.186-.247-.186-.124 0-.185.124-.185.247 0 .247.37.309.555.309.37 0 .74-.185.74-.617.062-.494-.493-.618-.925-.618zm1.913-.679a.553.553 0 0 0-.555.556c0 .494.555.679.925.494.062.37 0 .679-.185.679-.123 0-.123-.124-.123-.185-.062-.124-.124-.186-.247-.124-.185 0-.185.124-.185.185.062.185.308.185.432.185.494-.061.74-.432.74-.864 0-.494-.308-.926-.802-.926zm.185.926c-.308 0-.37-.494-.37-.74 0-.062.062-.186.123-.186.309 0 .37.68.37.865 0 .061-.061.061-.123.061z"/><path fill="#000" d="M25.673 45.556c-.062.062-.247.309-.74.679l.061.062c.062 0 .124-.062.247-.124l-.247.926c0 .062-.061.062-.123.062h-.185v.123l.864.185v-.123l-.124-.062c-.061 0-.061-.061-.061-.123l.432-1.605h-.124zm10.06-1.235v-1.975c-1.482.679-3.456 1.235-5.925 1.482l-.123.679c.185 0 .493.061.802.061-.926.124-2.098.185-2.716.185-.678 0-1.851-.061-2.777-.185.37 0 .617-.061.803-.061l-.124-.68c-2.468-.246-4.382-.802-5.924-1.481v1.975l-2.037.865c1.543.802 3.27 1.42 5.307 1.975l-.246.802c1.172.309 3.024.68 4.937.68 1.913 0 3.764-.371 4.937-.68l-.247-.802a23.201 23.201 0 0 0 5.307-1.975l-1.974-.865zm-16.787.926l1.358-.555v-1.605c.864.37 2.037.679 3.703 1.05l-.802 2.53c-1.667-.37-3.086-.926-4.259-1.42zm8.887 2.902c-1.543 0-3.086-.247-4.382-.556l.803-2.654c.555.123 1.913.308 3.58.308 1.604 0 3.023-.185 3.579-.308l.802 2.654c-1.296.37-2.839.556-4.382.556zm4.567-1.482l-.802-2.53c1.666-.371 2.839-.68 3.703-1.05v1.605l1.357.555c-1.11.494-2.53 1.05-4.258 1.42zM4.073 19.074s.802 1.482 1.296 1.79c1.42-1.42 2.469-3.518 4.814-4.69-1.111-1.79-2.592-1.482-2.654-3.087.679.185 1.358-.247 1.42-1.111-.741-.432-.988.37-1.173.185-.185-.185.864-.185.74-1.235-.987 0-.802.68-1.049.556-.185-.062.247-.617-.617-1.173-.493.926.185 1.173.062 1.358-.123.185-.432-.556-1.234-.247.247 1.111 1.296.68 1.172 1.05-.123.246-.864-.494-1.11.432.431.74 1.172.555 1.604.247.123 1.481 1.05 1.604 2.098 2.592-2.839-1.173-6.356.247-7.652.432.185.432.617.926 1.11 1.111-.802.741-.802 1.173-1.357 1.729-.124.061.987 1.234 2.53.061zm-1.604-.246c.37-.556.925-1.112 1.604-1.667-.494-.062-.864-.185-1.296-.556.988-.247 3.086-.987 4.876-.679.555.062.925.309.678.432-.925.618-2.16 2.1-3.024 3.828-.74-.926-.432-2.161-.308-2.531-1.481.926-1.852 1.358-2.53 1.173zm24.13-.865v.865c.308-.37.864-.31.864-.31v1.235s0 .618-.247.865h1.234c-.185-.247-.247-.865-.247-.865V18.52s.556-.062.864.309v-.865H26.6z"/></g></svg>