<svg xmlns="http://www.w3.org/2000/svg" width="119" height="50" viewBox="0 0 119 50" preserveAspectRatio="xMinYMin meet"><g fill="none"><path fill="#00539B" d="M104.924 17.193a9.393 9.393 0 0 1 5.685-2.07c5.537 0 8.178 3.922 8.178 9.545 0 7.102-3.987 10.73-9.745 10.73-5.684 0-8.788-3.628-8.788-11.988 0-6.967 1.57-11.746 3.988-13.984 2.756-2.553 3.619-2.516 6.866-3.332 1.995-.516 3.913-.82 4.65-1.11l1.77 3.996c-.961.594-2.732.963-6.273 1.7-4.06.82-5.91 2.218-6.351 6.513h.02zm4.433 14.278c3.174 0 4.355-2.59 4.355-6.287 0-3.327-.96-6.065-4.207-6.065-1.771 0-3.104.442-4.061 1.258-.221 1.258-.151 3.254-.151 4.508 0 3.996 1.255 6.586 4.06 6.586h.004zm-15.494 3.406l-6.498-9.102v9.102H82.49V15.418h4.87v8.508l5.759-8.508h5.316l-6.253 8.803 7.381 10.656h-5.7zM74.782 19.115v15.762h-4.768V19.119h-5.096V15.43h14.996v3.689h-5.1l-.032-.004z"/><path fill="#00AFAA" d="M0 15.484h11.708a59.836 59.836 0 0 0 21.996 22.04v11.73C17.856 43.838 5.408 31.364.004 15.479"/><path fill="#00539B" d="M33.704 15.484v22.045a59.836 59.836 0 0 1-21.992-22.045h21.992z"/><path fill="#00AFAA" d="M33.704 15.484H11.708A59.223 59.223 0 0 1 5.525.004h12.73a15.428 15.428 0 0 1 10.924 4.532 15.497 15.497 0 0 1 4.525 10.948"/><path fill="#F39A00" d="M49.15 30.963v12.75a58.832 58.832 0 0 1-15.446-6.189v-22.04c8.531.002 15.446 6.933 15.446 15.483"/><path fill="#00AFAA" d="M33.578.004a20.502 20.502 0 0 0 15.568 15.602V.004H33.578z"/></g></svg>