<svg xmlns="http://www.w3.org/2000/svg" width="163" height="50" viewBox="0 0 163 50" preserveAspectRatio="xMinYMin meet"><path fill="#00377B" d="M157.04 31.463c5.595 0 5.595 3.171 5.595 5 0 1.952 0 5.366-5.595 5.366h-10.948V25.122h15.813v4.146h-10.461v2.195h5.596zm-.974 6.464c1.217 0 1.217-.976 1.217-1.342 0-.365 0-1.22-1.217-1.22h-4.622v2.562h4.622zm-29.315 3.902V25.122h5.474v11.463l6.203-11.463h6.569v16.707h-5.352V30l-6.447 11.83h-6.447zm-14.962-12.073c1.095-3.049 3.65-4.634 6.69-4.39h7.299v4.146h-4.744c-2.92 0-4.501.854-4.501 4.268 0 3.415 1.581 4.025 4.5 4.025h4.745v4.146h-7.42c-2.92 0-5.474-1.829-6.57-4.512-.486-1.098-.729-2.317-.729-3.659 0-1.585.365-2.926.73-4.024zm-6.326-4.634L111.79 40l.73 1.707H106.8l-4.135-12.073-4.258 12.073h-9.123l-1.338-3.414h-6.082l-1.338 3.414H74.81l1.338-3.17 5.717-13.415h6.082l5.717 13.902 5.96-13.902h5.84zm-20.557 9.39l1.703-.122-1.703-4.634-1.703 4.756h1.703zm-8.637.732c-.851.976-2.19 1.707-4.379 1.707h-5.716v4.878H60.82V25.122H71.89c2.19 0 3.528.732 4.38 1.585 1.337 1.464 1.337 3.415 1.337 4.147 0 .61 0 2.805-1.338 4.39zm-6.325-2.44c.73 0 2.311 0 2.19-1.95 0-1.708-1.582-1.708-2.19-1.708h-3.893v3.659h3.893zm-21.774 4.27l-6.69-11.952h6.082l3.406 7.073 3.528-7.073h5.838l-9.001 16.707h-5.839l2.676-4.756zM16.665 22.926h.973c.487 14.146 1.825 22.195 4.258 26.341-1.582.488-3.285.732-5.11.732-1.824 0-3.649-.244-5.23-.732 2.433-4.268 3.77-12.317 4.257-26.341h.852zm3.528-5.732c7.42 1.585 13.015 8.293 13.015 16.342 0 5.853-3.04 10.853-7.542 13.902-5.96-6.098-6.933-23.17-6.933-24.268.851 0 2.068.366 2.19.366 1.337 7.926 4.743 14.634 8.636 18.292 1.46-2.195 2.19-4.512 2.19-6.829 0-7.317-6.934-13.049-15.206-13.049-8.15 0-15.205 5.732-15.205 13.049 0 2.317.852 4.634 2.311 6.83 3.893-3.66 7.299-10.367 8.637-18.415.121 0 1.338-.366 2.19-.366 0 1.097-.852 18.17-6.934 24.268A16.579 16.579 0 0 1 0 33.415c0-7.927 5.596-14.635 13.016-16.22.365-5.366.365-7.56.365-10.244h1.216s-.122 7.44-.122 9.878c.487-.122.974-.122 1.46-.122V0h1.216v16.707c.487.122.974.122 1.46.122-.121-2.439-.121-9.878-.121-9.878h1.338c0 2.683 0 4.878.365 10.244z"/></svg>