<svg xmlns="http://www.w3.org/2000/svg" width="248" height="50" viewBox="0 0 248 50" preserveAspectRatio="xMinYMin meet"><defs><linearGradient id="a" x1="100%" x2="0%" y1="87.86%" y2="87.86%"><stop offset="0%" stop-color="#B8F6F7"/><stop offset="100%" stop-color="#00CCD5"/></linearGradient></defs><g fill="none"><path fill="#0A1244" d="M247.032 30.567h-1.286c-.117-1.137-.367-1.978-.752-2.519-.383-.542-.795-.876-1.238-1.002a5.579 5.579 0 0 0-1.528-.19h-2.329v13.451c0 .532.056.945.163 1.24.107.294.361.522.759.684.396.162.977.243 1.745.243v1.246h-9.204v-1.246c1.13 0 1.855-.163 2.179-.487.326-.326.488-.885.488-1.68V26.856h-1.948c-.769 0-1.405.06-1.91.183-.506.122-.95.455-1.333 1.002-.383.546-.601 1.389-.657 2.526h-1.284v-5.215h18.135v5.215zM226.2 43.72h-9.026v-1.246c.568-.01 1.022-.055 1.36-.143.29-.06.557-.195.778-.392.183-.182.306-.416.351-.67.056-.27.082-.593.082-.963v-9.658l-8.514 9.902c.019.333.063.624.135.869.074.242.204.44.393.594.19.154.451.268.786.346.333.076.776.115 1.325.115v1.246h-9.094v-1.246c.559-.01 1.008-.055 1.347-.143.29-.06.56-.193.785-.385.188-.178.316-.41.364-.665.06-.27.09-.594.09-.974v-11.54a5.88 5.88 0 0 0-.09-.956 1.234 1.234 0 0 0-.338-.665 1.638 1.638 0 0 0-.77-.392 6.744 6.744 0 0 0-1.388-.156v-1.246h9.094v1.246c-1.117 0-1.84.167-2.165.5-.315.345-.474.9-.474 1.667v9.496l8.5-9.902a3.174 3.174 0 0 0-.129-.765 1.104 1.104 0 0 0-.37-.537 1.85 1.85 0 0 0-.766-.324 7.42 7.42 0 0 0-1.292-.135v-1.246h9.026v1.246c-.587.019-1.047.07-1.388.156-.287.06-.553.195-.77.392-.179.18-.296.414-.333.665a6.808 6.808 0 0 0-.08.956v11.54c0 .334.019.634.061.9.041.267.147.495.319.686.17.188.427.333.77.433.344.098.818.148 1.421.148v1.246zm-24.065 0h-9.028v-1.246c.74 0 1.3-.081 1.678-.244.38-.161.622-.397.732-.704.107-.307.162-.713.162-1.219v-5.513h-8.513v5.513c0 .76.157 1.31.474 1.652.314.343 1.036.515 2.165.515v1.246h-9.094v-1.246c.73 0 1.288-.081 1.67-.244.384-.161.632-.395.745-.697.11-.303.168-.71.168-1.226v-11.54c0-.515-.053-.92-.16-1.213-.11-.295-.349-.526-.719-.698-.37-.173-.938-.258-1.704-.258v-1.246h9.094v1.246c-1.12 0-1.838.167-2.16.5-.32.335-.48.89-.48 1.667v4.526h8.513v-4.524c0-.515-.049-.92-.149-1.213-.098-.295-.333-.526-.703-.698-.37-.173-.944-.258-1.72-.258v-1.246h9.029v1.246c-.768 0-1.336.085-1.707.26-.37.17-.605.401-.708.696-.106.292-.158.698-.158 1.213v11.54c0 .497.048.891.143 1.186.094.292.333.53.71.71.38.18.952.271 1.72.271v1.246zm-24.378-6.04l-.148 6.04h-16.35v-1.246c1.13 0 1.855-.163 2.179-.487.325-.326.488-.885.488-1.68v-11.54c0-.524-.054-.934-.157-1.226-.104-.295-.346-.524-.73-.693-.384-.167-.977-.25-1.78-.25v-1.246h15.226l.243 4.768h-1.244c-.28-1.055-.603-1.813-.968-2.268-.366-.458-.777-.737-1.232-.84-.456-.105-1.139-.156-2.051-.156h-3.437v6.488h1.87c.638 0 1.117-.055 1.432-.17.307-.103.55-.34.664-.643.126-.314.211-.812.257-1.49h1.3v6.11h-1.246c-.037-.677-.126-1.177-.27-1.497a1.142 1.142 0 0 0-.685-.643c-.31-.11-.786-.163-1.427-.163h-1.895v4.32c0 .723.019 1.252.056 1.586.035.333.131.61.288.833.16.222.417.382.772.482.357.098.864.148 1.523.148h1.475c.624 0 1.216-.08 1.78-.237.563-.158 1.117-.565 1.659-1.219.54-.655.92-1.681 1.136-3.081h1.272zm-19.627-.273c0 1.049-.269 1.982-.805 2.806-.537.82-1.265 1.517-2.184 2.085a11.164 11.164 0 0 1-3.23 1.308 16.438 16.438 0 0 1-3.93.453c-.948 0-1.824-.07-2.627-.209a9.592 9.592 0 0 1-2.084-.583c-.587-.248-1.044-.55-1.373-.908a1.71 1.71 0 0 1-.494-1.185c0-.444.148-.8.446-1.07.298-.27.75-.408 1.352-.408.524 0 .96.132 1.307.395.348.26.707.672 1.075 1.231.163.245.337.441.522.591.185.148.385.263.602.344.216.082.451.134.703.156.254.022.53.033.827.033.848 0 1.612-.083 2.295-.25.68-.166 1.259-.426 1.738-.777a3.433 3.433 0 0 0 1.096-1.349c.253-.546.38-1.194.38-1.944 0-.66-.075-1.237-.223-1.733a3.516 3.516 0 0 0-.624-1.234 2.53 2.53 0 0 0-.962-.731 3.076 3.076 0 0 0-2.17-.087c-.357.114-.697.27-1.015.466a8 8 0 0 1-.935.515c-.19.095-.397.15-.609.163a1.184 1.184 0 0 1-.642-.185c-.194-.12-.292-.285-.292-.493 0-.207.092-.394.277-.563.185-.166.463-.34.833-.52.777-.38 1.444-.715 2.003-1.004.56-.289 1.01-.537 1.354-.744.424-.252.806-.493 1.144-.719.337-.224.626-.459.866-.703.24-.245.424-.5.556-.773.13-.27.194-.577.194-.92 0-.407-.065-.757-.196-1.05a1.716 1.716 0 0 0-.63-.731 3.064 3.064 0 0 0-1.128-.426 9.069 9.069 0 0 0-1.7-.137c-.568 0-1.104.048-1.61.142-.455.08-.9.212-1.327.393-.379.167-.679.363-.9.589a1.045 1.045 0 0 0-.332.746c0 .198.05.36.15.482.096.119.203.23.318.331.111.098.218.204.318.317a.671.671 0 0 1 .148.455.984.984 0 0 1-.196.635 1.28 1.28 0 0 1-.487.373 2.324 2.324 0 0 1-.636.177 4.74 4.74 0 0 1-.642.047c-.433 0-.792-.065-1.078-.197a1.805 1.805 0 0 1-.67-.5 1.858 1.858 0 0 1-.344-.672 2.587 2.587 0 0 1-.102-.69c0-.243.056-.515.163-.814.108-.296.287-.598.535-.9.248-.301.568-.598.96-.888.393-.287.87-.543 1.428-.763.56-.223 1.212-.4 1.956-.537a14.56 14.56 0 0 1 2.552-.204c2.436 0 4.275.278 5.515.833 1.24.556 1.86 1.432 1.86 2.622 0 .49-.118.936-.359 1.341a4.099 4.099 0 0 1-1.007 1.126 8.685 8.685 0 0 1-1.556.961 22.38 22.38 0 0 1-1.99.852c.867-.035 1.644.026 2.334.185.69.158 1.28.426 1.766.806.488.378.862.868 1.123 1.468.263.602.393 1.326.393 2.174zm-26.857 6.313h-4.911a24.505 24.505 0 0 1-1.246-1.713c-.38-.574-.74-1.148-1.09-1.727-.346-.578-.69-1.152-1.027-1.72a42.222 42.222 0 0 0-1.063-1.693 4.764 4.764 0 0 0-.603-.76 1.752 1.752 0 0 0-.69-.407 3.968 3.968 0 0 0-1.05-.161 40.604 40.604 0 0 0-1.691-.028v4.796c0 .397.039.734.115 1.01.077.274.214.5.414.67.198.17.47.296.818.37.348.078.787.117 1.32.117v1.246h-9.176v-1.246c.596-.01 1.066-.055 1.414-.143.29-.057.561-.19.784-.385.182-.18.302-.413.346-.665.054-.27.086-.594.093-.974v-11.54c0-.38-.024-.704-.074-.976a1.148 1.148 0 0 0-.344-.658c-.228-.19-.5-.321-.792-.38a7.12 7.12 0 0 0-1.427-.155v-1.246h9.176v1.246c-1.13 0-1.855.163-2.179.487-.325.326-.488.885-.488 1.682v4.848c.153 0 .333-.037.542-.115.207-.076.474-.233.798-.467.325-.235.718-.576 1.179-1.024a43.918 43.918 0 0 0 1.691-1.766c.415-.47.759-.87 1.027-1.206.272-.333.519-.639.739-.915.222-.276.451-.542.69-.8.24-.255.535-.542.887-.859a8.96 8.96 0 0 1 .851-.67c.272-.186.542-.334.814-.447.27-.113.552-.194.844-.244.295-.05.611-.074.955-.074.18 0 .354.018.522.06.167.04.313.106.439.197.123.087.225.2.298.332.074.13.109.29.109.481 0 .255-.063.506-.185.73-.12.226-.367.407-.737.542a7.44 7.44 0 0 1-1.19.319 5.076 5.076 0 0 0-1.016.278c-.177.069-.353.141-.527.216a5.373 5.373 0 0 0-.596.306c-.496.297-.95.659-1.351 1.076-.21.216-.457.492-.746.826-.7.806-1.44 1.575-2.221 2.303-.444.418-.914.807-1.407 1.165a6.77 6.77 0 0 1 .569-.028 9.4 9.4 0 0 1 1.388.095c.418.065.814.18 1.19.346.375.167.729.402 1.062.704a7.22 7.22 0 0 1 1.016 1.185c.587.85 1.164 1.708 1.732 2.574a47.452 47.452 0 0 0 1.814 2.574c.28.367.637.666 1.048.874.194.095.388.167.583.217.194.05.38.074.56.074v1.246zm-22.468 0h-9.028v-1.246c.74 0 1.3-.081 1.68-.244.378-.161.62-.397.73-.704.107-.307.163-.713.163-1.219v-5.513h-8.513v5.513c0 .76.157 1.31.473 1.652.315.343 1.037.515 2.166.515v1.246H87.38v-1.246c.731 0 1.288-.081 1.671-.244.383-.161.631-.395.744-.697.111-.303.169-.71.169-1.226v-11.54c0-.515-.054-.92-.161-1.213-.11-.295-.348-.526-.718-.698-.37-.173-.939-.258-1.705-.258v-1.246h9.095v1.246c-1.12 0-1.838.167-2.16.5-.32.335-.481.89-.481 1.667v4.526h8.513v-4.524c0-.515-.048-.92-.148-1.213-.098-.295-.333-.526-.703-.698-.37-.173-.944-.258-1.72-.258v-1.246h9.028v1.246c-.766 0-1.336.085-1.706.26-.37.17-.605.401-.709.696-.105.292-.157.698-.157 1.213v11.54c0 .497.048.891.142 1.186.095.292.333.53.711.71.38.18.953.271 1.72.271v1.246zm-23.606 0h-8.648v-1.246c.73 0 1.264-.052 1.597-.155.333-.104.5-.35.5-.74 0-.27-.054-.546-.162-.825l-.866-2.167h-5.955l-.446 1.19c-.254.67-.38 1.153-.38 1.45 0 .543.211.886.63 1.03.42.145.908.217 1.469.217v1.246h-6.32v-1.246c.505 0 .932-.094 1.284-.285.352-.189.689-.548 1.009-1.076.32-.528.666-1.276 1.036-2.24L75.238 25h1.287l5.589 14.304c.407 1.013.703 1.696.892 2.053.19.356.452.632.787.826.333.195.8.291 1.406.291v1.246zm-8.065-6.463l-2.532-6.405-2.41 6.407h4.942v-.002zM63.19 30.12h-1.271c-.226-1.001-.528-1.748-.907-2.235a3.042 3.042 0 0 0-.574-.563 2.04 2.04 0 0 0-.666-.31 4.116 4.116 0 0 0-.844-.13 21.244 21.244 0 0 0-1.11-.026H54.46v6.705h1.22c.64 0 1.299.022 1.974.069.678.044 1.337.135 1.977.27a10 10 0 0 1 1.814.561c.568.24 1.066.556 1.495.943.43.389.766.865 1.014 1.427.248.565.374 1.232.374 2a4.47 4.47 0 0 1-1.375 3.291 5.288 5.288 0 0 1-1.447.997 6.506 6.506 0 0 1-1.712.533c-1.208.2-2.43.31-3.653.326-2.736.036-5.472-.023-8.203-.176v-1.274c.603-.019 1.079-.069 1.427-.156.292-.058.564-.189.792-.38.184-.174.305-.404.344-.655.05-.272.074-.596.074-.976V28.767c0-.38-.024-.704-.074-.976a1.182 1.182 0 0 0-.344-.665 1.693 1.693 0 0 0-.798-.378 7.61 7.61 0 0 0-1.421-.148v-1.248h15.117l.135 4.768zm-3.031 8.684c0-.785-.104-1.423-.311-1.911a2.58 2.58 0 0 0-.894-1.137c-.421-.284-.9-.471-1.401-.549-.61-.1-1.229-.147-1.847-.142H54.46v7.07c.21.1.426.182.657.245.23.063.544.094.94.094.57 0 1.101-.065 1.597-.196.496-.13.93-.341 1.3-.63a3.04 3.04 0 0 0 .88-1.13c.217-.466.325-1.037.325-1.714z"/><path fill="url(#a)" d="M3.655 42.19c12.395-4.957 20.52-11.296 24.369-19.018v23.169H3.655c.096-.77.096-2.154 0-4.15z"/><path fill="url(#a)" d="M13.403 13.415c2.793 2.66 6.448 4.178 10.966 4.56v6.106c-2.897 4.936-6.552 8.488-10.966 10.656.037-5.052 0-15.843 0-21.322z"/><path fill="#10C8D2" d="M30.461 19.513h-3.255v-1.22h4.473V50H0V18.293h10.608v1.22h-9.39v29.265h29.245z"/><path fill="url(#a)" d="M14.62 0c1.63 2.33 3.66 4.026 6.094 5.087 0 3.796.014 7.222 0 9.744-2.236 0-4.268-1.32-6.093-3.957V0z"/></g></svg>