<svg xmlns="http://www.w3.org/2000/svg" width="137" height="50" viewBox="0 0 137 50" preserveAspectRatio="xMinYMin meet"><g fill="none"><path fill="#2A2C29" d="M126.4 21.7c6.1 0 10.1 3.7 10.1 9.9 0 6-3.9 9.8-10 9.8H114c-1.3 0-1.8-.4-1.8-1.7V12c0-1.4.5-1.8 1.8-1.8h18.5c1.3 0 1.8.4 1.8 1.8v2.8c0 1.3-.5 1.8-1.8 1.8h-13.2v5.1h7.1zm-1 13.4c2.4 0 3.7-1.5 3.6-3.5 0-2.1-1.3-3.5-3.6-3.5h-6.1v7h6.1zm-17.7-24.9H86.8c-1.4 0-1.8.4-1.8 1.8v3c0 1.3.4 1.8 1.8 1.8h6.9v22.9c0 1.4.4 1.8 1.8 1.8H99c1.4 0 1.8-.4 1.8-1.8v-23h6.8c1.4 0 1.8-.4 1.8-1.8V12c.1-1.3-.4-1.8-1.7-1.8zm-30 1.4l10.5 28.1c.4 1.2.1 1.8-1.2 1.8h-3.2c-2.2 0-2.9-.3-3.3-1.6l-1.4-4.1H68.3l-1.4 4.1c-.4 1.2-1 1.6-3.2 1.6h-3c-1.3 0-1.6-.6-1.2-1.8l10.4-28c.4-1.2 1-1.5 2.2-1.5h3.4c1.2 0 1.8.3 2.2 1.4zm-7.5 18.3s7.1 0 7.1-.1L75 23c-1-3.2-1.1-5.4-1.1-5.4h-.4s.1 2.3-1 5.4l-2.3 6.9z"/><path fill="#FE5000" d="M41.6.1H8.3C3.7.1 0 3.8 0 8.4v33.3C0 46.3 3.7 50 8.3 50h33.3c4.6 0 8.3-3.7 8.3-8.3V8.4c0-4.6-3.7-8.3-8.3-8.3m5.7 40.7c-.1.1-.2.1-.3.1-6.4-3.9-14-6.1-22-6.1S9.4 37 2.9 40.9c-.1.1-.3 0-.3-.1-.1-.1-.1-.3.1-.3 5.8-4.5 10.9-10.2 14.7-17 3.9-6.7 6.3-13.9 7.3-21.2 0-.1.1-.2.3-.2.1 0 .2.1.3.2 1 7.3 3.4 14.5 7.3 21.2 3.9 6.7 8.9 12.4 14.8 16.9 0 .1 0 .3-.1.4"/></g></svg>