<svg width="164" height="50" viewBox="0 0 164 50" xmlns="http://www.w3.org/2000/svg" preserveAspectRatio="xMinYMin meet"><!--Generator: Sketch 55.2 (78181) - https://sketchapp.com--><g fill-rule="nonzero" fill="none"><path fill="#008A5B" d="M162.963 49.747H0V.147h162.963z"/><path d="M77.48 27.477c1.31 0 2.293.276 2.948.826.654.55.982 1.388.982 2.512 0 1.05-.328 1.806-.982 2.268-.655.463-1.673.694-3.056.694h-4.403v-6.3h4.511zm8.098-9.78v-5.119h-18.18v26.319h11.167c2.744 0 4.91-.665 6.492-1.992 1.583-1.329 2.376-3.31 2.376-5.94 0-2.63-.72-4.722-2.16-6.277-1.438-1.552-3.658-2.33-6.66-2.33H72.97v-4.66h12.61zM99.5 34.547c-.76.815-1.624 1.22-2.596 1.22-.722 0-1.34-.18-1.85-.544-.508-.362-.764-.92-.764-1.674-.026-.752.205-1.348.69-1.786.485-.44 1.251-.76 2.298-.96 1.27-.227 2.01-.383 2.222-.47.21-.087.59-.271 1.14-.547v1.204c0 1.557-.381 2.74-1.14 3.557m-3.97-10.895c.55-.514 1.34-.774 2.367-.774.901 0 1.577.227 2.027.68.45.451.69 1.066.715 1.844v.529c-.026.476-.133.828-.32 1.055-.189.225-1.836.603-4.943 1.13-2.382.401-4.044 1.093-4.982 2.072-.94.98-1.398 2.274-1.373 3.88 0 1.735.507 3.09 1.522 4.072 1.016.977 2.502 1.467 4.458 1.467 1.254-.026 2.38-.264 3.384-.716 1.004-.451 1.794-1.08 2.37-1.884h.113l.414 1.89h5.417v-.34c-.377-.075-.64-.339-.79-.79-.152-.453-.226-1.395-.226-2.827l.112-8.742c.025-2.36-.595-4.143-1.863-5.35-1.265-1.205-3.276-1.808-6.035-1.808-2.407 0-4.338.56-5.792 1.676-1.454 1.119-2.219 2.857-2.294 5.217h4.93c-.026-1.007.237-1.766.788-2.281M113.483 30.82v8.077h-5.157V19.75h5.157v7.232h6.223V19.75h5.157v19.146h-5.157V30.82zM132.667 27.43l5.507-7.68h5.76l-7.107 8.97 7.402 10.177h-6.05l-5.512-8.347-.113-.028v8.375h-5.158V19.75h5.158v7.7z" fill="#FFF"/><path d="M55.138 29.59h5.532c-.327 3.371-1.444 5.894-3.352 7.567s-4.38 2.51-7.417 2.51c-3.841 0-6.741-1.147-8.698-3.445-1.958-2.296-2.937-5.629-2.937-9.996 0-4.893 1.06-8.52 3.18-10.88 2.12-2.359 4.875-3.539 8.266-3.539 3.39 0 5.987.91 7.795 2.73 1.807 1.82 2.773 4.148 2.9 6.984h-5.495c-.202-1.556-.72-2.711-1.561-3.464-.839-.753-1.96-1.13-3.364-1.13-1.73 0-3.107.741-4.134 2.222-1.029 1.48-1.542 3.765-1.542 6.851 0 2.587.507 4.657 1.523 6.215 1.015 1.556 2.45 2.334 4.304 2.334 1.478 0 2.63-.462 3.458-1.383.826-.92 1.342-2.112 1.542-3.576M22.19 27.596v11.301h-5.57V12.58h5.57v9.9h8.358v-9.9h5.572v26.318h-5.572v-11.3z" fill="#FCD205"/></g></svg>