<svg xmlns="http://www.w3.org/2000/svg" width="390" height="50" viewBox="0 0 630 50" preserveAspectRatio="xMinYMin meet"><g fill="none"><path fill="#B31B2C" d="M615.665 29.012c-1.072-1.586-2.051-2.792-2.94-3.609a8.18 8.18 0 00-3.155-1.788c3.009-1.09 5.236-3.564 6.915-7.038l2.875-6.119c.005-.008.005-.016.009-.022L624.26 0h-6.324l-4.36 9.21-2.206 4.66c-1.216 2.62-2.984 4.642-4.711 5.752-1.699 1.092-3.55 1.628-5.798 1.628H597.5L597.513 0h-6.45l.187 50h6.263l-.013-22.5h4.275c1.072 0 4.944.117 6.813 2.388.602.731 1.283 1.65 2.03 2.768L622.299 50H630l-14.335-20.988zM576.25 21.25H550V0h-6.25v50H550V27.5h26.25V50h6.25V0h-6.25v21.25zM512.5 0h6.25l20 50h-6.875l-5.625-13.75H505L499.546 50H492.5l20-50zm-5 30h16.25l-8.305-22.5L507.5 30zm-31.25-8.75s-4.791 0 0 0 14.587 2.709 14.587 14.808c0 1.07-.216 4.655-3.01 8.07-1.408 1.72-3.247 3.114-5.483 4.07C479.58 49.378 475.83 50 472.5 50H455v-6.25h12.5c.005 0 .725.005 5 0 4.351-.005 7.054-.423 9.087-2.163 1.624-1.395 2.452-3.283 2.452-5.843 0-4.576-2.998-8.244-7.789-8.244v-6.25zm10-21.25v6.25H455V0h31.25zm-48.655 0h-11.426L420 18.75h-2.544L411.25 0H400l8.75 25L400 50h11.25l6.25-20h2.5l6.25 20h11.25l-8.75-25 8.845-25zM363.75 0H390l5 50h-11.092L382.5 37.5h-11.25L369.979 50H358.75l5-50zm8.75 26.25h8.75l-1.25-15h-6.25l-1.25 15zM320 50V0h33.75v35h-22.5v15H320zm11.25-38.75v12.5h11.25v-12.5h-11.25zm-50 0h11.25V50h11.25V11.25H315L314.886 0H281.25v11.25zM242.5 50h33.75V33.75H265v5h-11.25V10H265v5h11.25V0H242.5v50zm-41.25 0H235V33.75h-11.25v5H212.5V10h11.25v5H235V0h-33.75v50zM160 50V0h33.75v50H160zm11.25-38.75v27.5h11.25v-27.5h-11.25zM123.75 50V0h28.75v11.25H135V50h-11.25zM82.5 50V0h33.75v15H105v-5H93.75v28.75H105v-5h11.25V50H82.5zm-41.25 0V0H75v50H41.25zM52.5 11.25v27.5h11.25v-27.5H52.5zM0 50V0h33.75v35h-22.5v15H0zm11.25-38.75v12.5H22.5v-12.5H11.25z"/><path fill="#CCA266" d="M472.5 21.25h-11.25V10H455v11.25h-11.25v6.25H455v11.25h6.25V27.5h11.25z"/></g></svg>