<svg xmlns="http://www.w3.org/2000/svg" width="229" height="50" viewBox="0 0 229 50" preserveAspectRatio="xMinYMin meet"><g fill="none"><path fill="#000" d="M215.07 20.005h4.77v-5.431h4.39v5.43H229V6.417h-4.77v4.783h-4.39V6.416h-4.77v13.589zm-28.905-9.707c1.005-.676 2.37-1.155 3.544-1.155.6 0 1.908.087 1.908 1.242 0 1.124-1.148 1.151-1.613 1.151h-2.342v2.953h2.073c.683 0 1.963.057 1.963 1.155 0 .449-.27 1.324-1.937 1.324-1.664 0-2.726-.453-4.119-1.297l-1.223 3.209a12.203 12.203 0 006.08 1.636c5.453 0 6.136-3.155 6.136-4.194 0-1.437-.846-2.9-2.754-3.352v-.055c1.198-.535 1.962-1.716 1.962-3.18 0-3.18-3.352-3.826-5.4-3.826-1.908 0-4.118.562-5.56 1.35l1.282 3.04zm-10.328-5.656c2.156 0 4.391-.843 5.372-3.153L178.1.311c-.38 1.577-1.717 1.658-2.264 1.658-.546 0-1.88-.081-2.26-1.658L170.47 1.49c.978 2.31 3.216 3.153 5.367 3.153zm-7.44 1.774v13.589h4.632l4.718-7.482v7.482h4.772V6.415h-4.581l-4.773 7.286V6.416h-4.767zM136.766 17.08V9.539c-1.608-.03-3.25 1.182-3.25 3.77 0 2.59 1.642 3.798 3.25 3.77zm4.171-7.541v7.54c1.61.028 3.245-1.18 3.245-3.77 0-2.588-1.635-3.8-3.245-3.77zm-4.472 16.38v-5.71c-2.837.026-7.53-1.131-7.53-7.013 0-5.85 4.668-7.006 7.53-6.979V.311h4.77v5.906c2.867-.027 7.527 1.128 7.527 6.979 0 5.882-4.689 7.039-7.526 7.012v5.71h-4.771zm-21.159-8.84V9.54c-1.608-.03-3.245 1.182-3.245 3.77 0 2.59 1.637 3.798 3.245 3.77zm4.175-7.54v7.54c1.605.028 3.242-1.18 3.242-3.77 0-2.588-1.637-3.8-3.242-3.77zm-4.475 16.38v-5.71c-2.838.026-7.527-1.131-7.527-7.013 0-5.85 4.664-7.006 7.527-6.979V.311h4.771v5.906c2.864-.027 7.525 1.128 7.525 6.979 0 5.882-4.687 7.039-7.525 7.012v5.71h-4.771zM98.533 4.641c2.157 0 4.393-.843 5.372-3.153L100.798.311c-.383 1.577-1.72 1.658-2.265 1.658-.545 0-1.881-.081-2.265-1.658L93.161 1.49c.983 2.31 3.22 3.153 5.372 3.153zm-7.44 1.774v13.589h4.63l4.72-7.482v7.482h4.773V6.415h-4.582l-4.77 7.286V6.416h-4.772zM61.956 4.33v4.53h1.747c2.373 0 2.618-1.436 2.618-2.277 0-.986-.327-2.253-2.618-2.253H61.957zm-5.124 15.674V0h8.043c5.428 0 6.954 3.88 6.954 6.584 0 2.728-1.552 6.612-6.954 6.612h-2.92v6.809h-5.123zm108.59-13.612v13.612h-4.758v-1.513h-.05c-.837 1.355-2.484 1.965-4.053 1.965-3.971 0-6.769-3.37-6.769-7.27 0-3.9 2.743-7.244 6.72-7.244 1.54 0 3.16.583 4.152 1.777V6.393h4.759zm-7.658 3.742c-1.933 0-3.058 1.407-3.058 3.077 0 1.724 1.125 3.051 3.058 3.051 1.936 0 3.06-1.327 3.06-3.051 0-1.67-1.124-3.077-3.06-3.077zM88.118 6.393v13.612h-4.757v-1.513h-.053c-.836 1.355-2.482 1.965-4.053 1.965-3.971 0-6.768-3.37-6.768-7.27 0-3.9 2.746-7.244 6.718-7.244 1.542 0 3.163.583 4.156 1.777V6.393h4.757zm-7.658 3.742c-1.935 0-3.06 1.407-3.06 3.077 0 1.724 1.125 3.051 3.06 3.051 1.933 0 3.057-1.327 3.057-3.051 0-1.67-1.124-3.077-3.057-3.077zm132.262 3.652v.506h-10.013c0 1.964 1.023 3.024 2.978 3.024 1.025 0 1.754-.343 2.276-1.247h4.577c-.761 3.211-3.766 4.672-6.824 4.672-4.441 0-7.764-2.548-7.764-7.248 0-4.536 3.06-7.266 7.425-7.266 4.65 0 7.345 2.916 7.345 7.559zm-9.934-2.28h5.513c-.23-1.3-1.409-2.147-2.69-2.147-1.384 0-2.536.74-2.823 2.147zM64.451 41.696h-1.47l-.727 4.244h1.4c3.13 0 3.74-.886 3.92-2.023.2-1.252-.045-2.221-3.123-2.221zm8.613 2.279c-.218 1.343-.656 2.702-1.628 3.686-2.142 2.158-5.372 2.331-7.422 2.339H56l3.404-20.004h13.64l-.638 3.939h-8.248l-.637 3.992h2.389c1.763 0 4.025.236 5.636 1.614 1.186 1.015 1.818 2.545 1.518 4.434zm14.345 2.549h-7.526L77.854 50h-5.799L83.47 29.996h5.964L94.023 50h-5.826l-.788-3.476zm-.814-3.978l-1.17-6.367h-.057l-3.318 6.367h4.545zm37.92-12.55h-5.508l-3.326 20.002h5.46l1.447-8.673h.055L128.257 50l7.08-.001-7.37-10.533 9.944-9.47h-6.776l-7.979 8.25h-.06l1.42-8.25zm-21.136 0l-1.215 7.457h7.284l1.213-7.457h5.307L112.74 50h-5.289l1.37-8.6h-7.28l-1.376 8.6h-5.33l3.255-20.004h5.289zM1.656 48.017h46.36V1.657H1.656v46.36zM0 49.673h49.673V0H0v49.673z"/><path fill="#FFED00" d="M1.656 48.017h46.36V1.658H1.656z"/><path fill="#000" d="M24.836 30.5L10.57 44.763l-5.66-5.654 14.268-14.27-2.977-2.978v-5.88l-2.067-2.07v5.129l-1.799 1.8L5.1 13.604l-1.789 1.788c.013-1.349.282-5.254 3.594-8.51 3.575-3.438 7.435-1.889 8.755-.567l7.23 7.232-1.845 1.842 3.791 3.792 3.79-3.792-1.843-1.842 7.228-7.232c1.32-1.322 5.18-2.871 8.754.567 3.313 3.256 3.583 7.161 3.596 8.51l-1.79-1.788-7.233 7.235-1.799-1.8v-5.128l-2.069 2.07v5.88l-2.976 2.979 14.27 14.27-5.66 5.653L24.835 30.5z"/></g></svg>