<svg xmlns="http://www.w3.org/2000/svg" width="216" height="50" viewBox="0 0 216 50" preserveAspectRatio="xMinYMin meet"><g fill="none"><path fill="#005B52" d="M196.082 16.337v12.57h4.336V17.826l.226-.207c.132-.123.274-.189.32-.16.104.066 1.349 1.497 5.524 6.365 3.046 3.55 3.413 3.945 4.101 4.398.98.649 1.198.696 3.422.668L216 28.86l-2.819-3.25c-2.992-3.445-5.98-6.894-8.964-10.347l-.208-.255 4.902-4.755c1.937-1.873 3.875-3.744 5.817-5.612l.914-.866-2.225-.01c-2.498 0-2.856.057-3.761.632-.311.197-2.206 2.014-4.807 4.604-2.366 2.354-4.327 4.275-4.365 4.275-.038 0-.066-2.138-.066-4.755V3.766h-4.336v12.571zm-24.038 0v12.57h4.336V17.42h11.5v11.488h4.337V3.766h-4.336V14.03h-11.5V3.766h-4.337v12.571zm-17.948-11.13l.65-1.44h3.488l.867 1.911c.472 1.045 3.036 6.648 5.685 12.448 2.658 5.8 4.845 10.603 4.873 10.66.038.093-.31.122-1.546.122-1.875 0-2.243-.094-2.94-.716-.529-.47-.746-.876-2.094-3.833l-.97-2.137h-11.237l-.98 2.138a152.394 152.394 0 01-1.226 2.665 3.639 3.639 0 01-1.65 1.61c-.556.263-.593.273-2.158.273-1.235 0-1.575-.029-1.537-.113.057-.15 1.952-4.284 6.59-14.435l4.185-9.153zm4.487 9.134c-1.131-2.552-2.065-4.642-2.093-4.642-.028 0-.97 2.09-2.092 4.642l-2.046 4.633 2.074.028c1.376.01 2.752.01 4.129 0l2.064-.028-2.036-4.633zm-31.032 1.977V3.72l7.174.029 7.182.018-.056.415c-.15 1.083-.905 2.109-1.885 2.56l-.585.274-3.742.029-3.752.028v6.187l2.62.047c2.235.038 2.715.066 3.319.235 2.64.715 4.477 2.119 5.524 4.209 1.611 3.24.613 7.166-2.376 9.285-1.122.8-1.96 1.186-3.479 1.6-.716.198-.97.217-5.344.245l-4.6.038v-12.6zm8.229.584c-.519-.076-1.583-.141-2.404-.141h-1.489v8.785l1.913-.057c2.508-.065 3.696-.348 4.95-1.167 1.988-1.31 2.375-4.03.82-5.753-.764-.838-2.056-1.403-3.79-1.667zm-21.653.264l-.065.358 3.091-.029c3.366-.037 3.488-.056 4.28-.602.716-.49 1.339-1.601 1.536-2.75l.057-.301-2.856.01c-1.82 0-3.036.046-3.366.122-1.395.291-2.365 1.45-2.677 3.192zm-20.135-.819V3.766h14.357l-.056.414c-.152 1.083-.906 2.109-1.886 2.56l-.585.274-3.742.029-3.752.028v6.186l2.621.047c2.46.038 2.658.057 3.488.292 3.318.932 5.44 3.098 6.004 6.13.51 2.684-.64 5.537-2.894 7.213-1.14.848-2.045 1.271-3.61 1.695-.716.197-.97.216-5.344.244l-4.6.039v-12.57zm8.861.65c-.471-.104-1.348-.17-2.611-.208l-1.913-.057v8.814l1.913-.057c1.084-.028 2.15-.113 2.489-.188 2.083-.48 3.44-1.46 4.006-2.89.254-.67.273-1.903.028-2.59-.5-1.413-1.8-2.354-3.912-2.825zm-30.448-.66v12.57h4.337V17.826l.235-.217c.236-.226.245-.226.415-.037.104.094 1.904 2.194 4.016 4.651 4.251 4.972 4.883 5.65 5.646 6.112.896.536 1.056.564 3.243.574h2.007l-.216-.273c-.123-.15-2.819-3.268-6.005-6.94l-5.778-6.667 1.254-1.233c1.936-1.88 3.874-3.757 5.816-5.63l4.543-4.408-2.422.028-2.432.029-.66.329c-.698.34-.49.141-7.777 7.316l-1.838 1.809-.028-4.746-.02-4.756h-4.336v12.571zM61.235 3.352c-4.902.48-8.861 3.117-10.992 7.317-.49.96-.98 2.438-1.16 3.502-.188 1.083-.188 3.127-.009 4.285.651 3.955 3.375 7.59 7.07 9.416a18.55 18.55 0 001.839.79c2.658.867 5.74.867 8.493 0 .396-.121 1.253-.488 1.885-.818 1.348-.669 1.282-.575 1.301-2.09.01-1.13-.104-1.903-.433-2.892l-.246-.734-.575.537a9.245 9.245 0 01-3.846 2.119c-.669.188-1.008.216-2.338.216-1.328 0-1.659-.038-2.29-.216-3.214-.923-5.515-3.174-6.4-6.281-.311-1.092-.311-3.24 0-4.322.716-2.505 2.356-4.492 4.59-5.593 1.48-.735 2.517-.97 4.195-.97 2.253 0 4.45.857 6.07 2.373l.595.555.15-.405c.434-1.149.66-3.257.472-4.303l-.076-.423-1.272-.631c-1.876-.933-3.432-1.338-5.562-1.422-.594-.028-1.254-.028-1.46-.01z"/><path fill="#F65E64" d="M31.74 1.243c-.595.688-3.15 3.644-5.676 6.572a5654.108 5654.108 0 01-5.92 6.856c-.735.847-1.328 1.59-1.328 1.666 0 .066.659.885 1.46 1.808.802.932 3.96 4.577 7.004 8.107l5.553 6.422h8.681l8.692-.01-.283-.206c-2.055-1.526-4.204-3.767-5.59-5.839-1.763-2.627-2.856-5.451-3.233-8.304-.16-1.234-.066-3.786.198-5.085.97-4.896 4.147-9.699 8.625-13.014l.283-.207L41.514 0h-8.69L31.74 1.243zm1.922 10.263c2.074.753 3.403 2.628 3.413 4.793.01 1.432-.49 2.627-1.527 3.663-1.716 1.724-4.393 1.978-6.44.622-2.336-1.553-2.987-4.727-1.432-7.062.679-1.027 1.81-1.827 3.064-2.176.754-.207 2.13-.131 2.922.16z"/><path fill="#005B52" d="M.019 17.364c-.019-.02 3.865-.038 8.645-.038h8.68l3.564 4.115c3.78 4.388 4.714 5.46 8.22 9.52 1.226 1.421 2.225 2.636 2.225 2.702 0 .122-2.536 3.08-11.558 13.503l-2.403 2.787-8.7.028L0 50l.971-.772c1.14-.913 2.705-2.458 3.563-3.503 2.168-2.674 3.742-5.885 4.346-8.88.424-2.1.34-5.066-.198-7.193-1.094-4.285-3.912-8.522-7.654-11.488-.538-.424-.99-.782-1.01-.8zm19.824 11.44c-.726-.254-2.064-.32-2.78-.132-1.679.424-3.065 1.639-3.667 3.22-.302.763-.368 2.317-.142 3.099.64 2.221 2.686 3.804 4.92 3.804 2.197 0 4.158-1.394 4.902-3.494.35-.98.359-2.288.01-3.248-.547-1.554-1.707-2.712-3.243-3.249z"/></g></svg>