<svg xmlns="http://www.w3.org/2000/svg" width="182" height="50" viewBox="0 0 182 50" preserveAspectRatio="xMinYMin meet"><path fill="#FFF" d="M162.74 16.416c.084-.154.128-.301.224-.4 2.454-2.555 5.471-3.736 8.988-3.431 5.275.457 9.02 4.438 9.818 8.886.141.794.214 1.598.218 2.405.019 4.705.01 9.412.008 14.118 0 1.479-.885 2.529-2.339 2.795-1.343.245-2.792-.782-3.005-2.138a5.998 5.998 0 0 1-.07-.918c-.006-4.809.004-9.618-.011-14.426-.009-2.63-2.235-4.995-4.855-5.342-2.779-.369-5.634 1.47-6.242 4.429a6.571 6.571 0 0 0-.119 1.295c-.009 4.77-.01 9.541-.006 14.312 0 1.489-.862 2.517-2.334 2.79-1.381.257-2.88-.864-3.016-2.26a8.55 8.55 0 0 1-.028-.806V23.914c0-1.258-.251-2.437-.967-3.496-1.27-1.88-3.597-2.86-5.726-2.4-2.333.505-4.076 2.26-4.475 4.533a7.006 7.006 0 0 0-.091 1.184c-.006 4.759-.008 9.516-.005 14.273 0 1.503-.848 2.511-2.335 2.785-1.406.26-2.928-.923-3.02-2.345a5.814 5.814 0 0 1-.014-.385c0-4.911-.06-9.823.023-14.733.068-4.151 2.018-7.31 5.601-9.376 4.372-2.523 9.888-1.64 13.367 2.033l.41.429zm-44.799 12.74c.292 1.429.848 2.625 1.716 3.663 1.598 1.905 3.677 2.887 6.13 3.142 2.663.277 5.055-.539 7.368-1.744a4.384 4.384 0 0 1 1.554-.487c1.015-.098 1.798.377 2.264 1.28.466.901.355 1.8-.255 2.597-.262.331-.584.61-.95.82a17.644 17.644 0 0 1-6.959 2.275c-3.304.376-6.457-.097-9.357-1.76-3.897-2.23-6.19-5.616-6.842-10.047-.706-4.789.65-8.955 4.106-12.37 2.301-2.271 5.107-3.523 8.331-3.91 6.192-.746 12.572 3.36 14.386 9.314a12.1 12.1 0 0 1 .506 3.788c-.032 1.63-1.511 3.47-3.531 3.455-5.946-.043-11.89-.015-17.836-.015h-.63zm16.909-4.913c-.386-1.876-1.316-3.396-2.666-4.656-1.866-1.742-4.064-2.604-6.643-2.292-2.399.291-4.384 1.373-5.917 3.244a7.599 7.599 0 0 0-1.67 3.704h16.896zM106.347 0c.094.038.19.07.287.095a2.7 2.7 0 0 1 2.153 2.526V37.97c0 1.512-.865 2.55-2.347 2.823-1.347.248-2.822-.826-3-2.193a6.55 6.55 0 0 1-.062-.842c-.003-11.552-.003-23.104 0-34.656 0-.62.066-1.23.408-1.77a2.67 2.67 0 0 1 1.739-1.23c.096-.03.19-.063.283-.102h.54zM78.12 29.284c.289.73.51 1.496.879 2.184 1.358 2.523 3.545 3.912 6.328 4.404 2.852.503 5.457-.286 7.945-1.61.559-.296 1.12-.56 1.772-.555 1.874.015 3.011 1.923 2.123 3.577a2.85 2.85 0 0 1-1.124 1.13 18.024 18.024 0 0 1-6.993 2.289c-3.193.366-6.254-.062-9.09-1.607-4.05-2.21-6.396-5.648-7.128-10.19-1.1-6.788 2.856-13.382 9.37-15.619 7.25-2.49 14.6 1.53 17.058 7.514a12.1 12.1 0 0 1 .912 4.906c-.033 1.639-1.511 3.477-3.523 3.462-5.944-.04-11.89-.014-17.834-.014h-.57l-.125.129zM95.08 24.24c-.368-1.788-1.237-3.252-2.493-4.49-1.69-1.67-3.718-2.61-6.119-2.512-2.568.106-4.735 1.143-6.436 3.089a7.75 7.75 0 0 0-1.85 3.913h16.898zM63.782 13.044c.2.013.364.033.527.033 1.721 0 3.442-.007 5.163.006 1.233.01 2.23.836 2.41 1.964.257 1.608-.848 2.918-2.5 2.93-1.695.01-3.39 0-5.086 0h-.488c-.009.153-.023.276-.023.4 0 3.91-.01 7.821.005 11.732a5.36 5.36 0 0 0 4.098 5.176c.532.125 1.093.122 1.638.197a2.648 2.648 0 0 1 2.277 2.56c.018 1.362-.884 2.513-2.186 2.714-1.269.196-2.518-.023-3.708-.43-4.244-1.456-6.662-4.47-7.392-8.855-.123-.74-.145-1.505-.146-2.258-.01-7.348-.012-14.696-.005-22.043 0-1.326.654-2.339 1.768-2.753 1.785-.663 3.629.639 3.647 2.599.016 1.846 0 3.693 0 5.54l.001.488zM33.008 29.157c.037.201.052.338.088.47.954 3.408 3.255 5.395 6.644 6.164 2.774.63 5.36-.038 7.844-1.269.344-.17.675-.37 1.027-.525 1.001-.442 1.98-.451 2.851.295 1.292 1.112 1.056 3.11-.477 4.043a16.778 16.778 0 0 1-5.01 2.006c-3.423.785-6.812.719-10.061-.706-4.626-2.029-7.378-5.584-8.235-10.55-1.032-5.977 1.764-11.806 7.032-14.763 2.45-1.376 5.093-1.971 7.881-1.74 5.458.451 10.534 4.292 11.979 9.682.29 1.075.435 2.185.43 3.3-.012 1.882-1.619 3.63-3.582 3.616-5.945-.052-11.89-.018-17.836-.018l-.575-.005zm16.893-4.92c-.45-2.049-1.495-3.67-3.031-4.973-1.816-1.54-3.903-2.194-6.306-1.989-3.568.308-7.683 4.055-7.509 6.962h16.846zm-36.326 25.76c-3.16 0-6.319.01-9.474-.005-1.338-.006-2.396-1.125-2.381-2.462.015-1.308 1.094-2.413 2.404-2.414 6.319-.007 12.635-.007 18.95 0 1.32 0 2.42 1.143 2.407 2.455-.014 1.324-1.07 2.417-2.389 2.422-3.174.012-6.345.004-9.517.004zM0 26.007c.08-.568.154-1.136.244-1.702.855-5.463 5.145-10.128 10.55-11.35 5.094-1.155 9.582.07 13.356 3.706 1.501 1.445.867 3.918-1.115 4.502-1.043.308-1.947.026-2.717-.718-1.329-1.285-2.892-2.1-4.724-2.395a8.736 8.736 0 0 0-9.572 5.453C4 28.684 7.312 34.501 12.784 35.317c2.866.428 5.382-.37 7.497-2.366 1.062-1 2.493-1.15 3.576-.356 1.36 1 1.497 2.928.272 4.136-2.003 1.98-4.392 3.256-7.162 3.807-6.702 1.333-13.345-2.233-15.896-8.53a13.48 13.48 0 0 1-.986-4.284 2.72 2.72 0 0 0-.085-.41v-1.307z"/></svg>