<svg xmlns="http://www.w3.org/2000/svg" width="176" height="50" viewBox="0 0 176 50" preserveAspectRatio="xMinYMin meet"><g fill="#FFF" fill-rule="evenodd"><path fill-rule="nonzero" d="M101.715 30.094h3v6.17l.094.052c.404-.455.85-.88 1.204-1.371 1.096-1.522 2.16-3.069 3.227-4.612.123-.176.242-.264.47-.26 1.091.015 2.184.007 3.35.007-1.39 2.13-2.78 4.187-4.444 6.07 1.952 2.117 3.36 4.602 4.8 7.146h-.866c-.86 0-1.72-.005-2.58.004-.187 0-.285-.058-.386-.222-.992-1.616-1.964-3.248-3.02-4.823-.454-.675-1.094-1.224-1.651-1.83a.956.956 0 0 0-.178-.108v6.956h-3.022l.002-13.18zM98.868 43.28H95.81v-5.523h-4.937v5.521h-3.062V30.103h3.037v4.786h4.95v-4.786h3.069v13.178zm-12.64.017c-1.095 0-2.152.005-3.21-.01-.09 0-.22-.118-.257-.21a70.921 70.921 0 0 1-.915-2.397c-.08-.224-.184-.301-.424-.3-1.61.011-3.22.011-4.831 0-.231 0-.331.073-.393.288-.244.866-.5 1.728-.757 2.609h-3.302c.237-.74.445-1.466.7-2.174 1.293-3.588 2.6-7.171 3.895-10.758.07-.195.157-.273.373-.271 1.4.01 2.8.01 4.201 0 .225 0 .297.089.361.277 1.148 3.361 2.3 6.721 3.456 10.08.33.949.722 1.878 1.104 2.866zM80.83 37.74l-.106-.341-1.344-4.35c-.043-.141-.049-.294-.276-.296-.228-.002-.331.066-.406.282-.476 1.406-.965 2.808-1.449 4.213-.052.153-.096.309-.154.492h3.735zm-20.664-7.643h10.049v2.65h-6.98v2.42c.117.005.232.015.348.015 1.412 0 2.824-.017 4.236.006.962.017 1.845.277 2.509 1.04.486.56.708 1.237.813 1.948.153 1.032.122 2.062-.179 3.07-.414 1.389-1.384 2.008-2.68 2.035-2.657.053-5.316.016-7.973.015a.97.97 0 0 1-.142-.023V30.097zm3.072 10.62h3.436c.11 0 .22-.005.331-.012.431-.034.715-.28.779-.685a4.62 4.62 0 0 0 .048-1.309c-.108-.805-.428-1.037-1.248-1.037h-3.346v3.042zM175.934 24.58c-1.27.174-2.537.392-3.812.506-.894.08-1.802.057-2.7.005-1.473-.084-2.89-.397-4.125-1.272-1.137-.806-1.787-1.944-2.188-3.243-.365-1.183-.489-2.401-.546-3.636-.078-1.688-.017-3.362.347-5.014.28-1.275.782-2.442 1.753-3.363.825-.781 1.822-1.235 2.916-1.428.893-.157 1.805-.226 2.714-.277 1.909-.104 3.787.144 5.643.581v.199c-.092.359-.193.715-.275 1.077-.173.759-.335 1.522-.503 2.287a.897.897 0 0 1-.157-.012c-1.736-.478-3.498-.53-5.275-.32-1.384.162-2.218.832-2.527 2.183-.19.87-.297 1.757-.32 2.647-.046 1.31-.012 2.624.432 3.885.323.921.953 1.522 1.902 1.762 1.267.322 2.555.298 3.838.158.696-.076 1.385-.22 2.108-.339.098.46.195.932.302 1.4.153.672.315 1.341.472 2.012v.202zm-26.24-17.302v8.147l.09.05c.359-.377.74-.735 1.074-1.13 1.82-2.152 3.398-4.478 4.88-6.87.063-.102.209-.214.317-.215 1.51-.013 3.021-.008 4.532-.006.018 0 .035.015.097.045-1.817 2.768-3.655 5.508-5.868 8.002 1.334 1.357 2.421 2.916 3.436 4.52 1.016 1.605 1.96 3.243 2.975 4.93-.199.01-.305.018-.41.018-1.356 0-2.713-.017-4.068.013-.37.008-.53-.14-.702-.429-.919-1.559-1.828-3.125-2.8-4.65-.838-1.317-1.745-2.592-2.885-3.676-.18-.17-.383-.315-.65-.533v9.254h-4.055V7.278h4.038zm-12.083 6.666c-.154-2.003-1.059-3.03-2.835-3.27a14.451 14.451 0 0 0-5.46.311c-.061.01-.124.016-.186.018l-.568-2.499c-.066-.278-.124-.556-.191-.833-.04-.16.008-.253.178-.277 1.086-.157 2.169-.331 3.256-.468.577-.08 1.16-.116 1.742-.11 1.669.036 3.34.1 4.9.805 1.646.744 2.613 2.055 3.13 3.743.324 1.04.496 2.12.511 3.209.013 1.319-.005 2.647-.132 3.956-.157 1.602-.628 3.117-1.705 4.38-.83.973-1.905 1.542-3.12 1.853-1.516.386-3.088.5-4.644.336-1.298-.132-2.591-.307-3.887-.46-.168-.02-.275-.072-.231-.269l.76-3.408c.55.098 1.085.209 1.624.287 1.41.204 2.82.24 4.23-.025 1.398-.265 2.188-1.13 2.505-2.473.1-.421.152-.854.233-1.323h-6.936v-3.483h6.826zm-26.505-6.678h13.368v3.507h-9.278v3.243h.382c1.864 0 3.727-.01 5.591.004.84.007 1.662.143 2.412.56 1.059.59 1.666 1.523 1.93 2.67.402 1.749.41 3.495-.22 5.196-.487 1.314-1.495 2.034-2.855 2.241-.598.084-1.202.124-1.806.12-3.045.01-6.089 0-9.133.011-.324 0-.401-.098-.4-.41.008-5.59.01-11.18.006-16.772l.003-.37zm4.082 14.056c.042.01.084.017.127.021 1.608 0 3.216.006 4.824 0 .524 0 .9-.277 1.059-.786.216-.71.228-1.467.037-2.184-.186-.74-.587-1.033-1.355-1.034h-4.328c-.117 0-.234.01-.365.016v3.967zm-15.49 3.862c-2.101-.058-3.673-.158-5.156-.81-1.385-.61-2.36-1.622-2.963-2.994-.61-1.39-.839-2.857-.873-4.36a43.219 43.219 0 0 1 0-2.57c.053-1.334.272-2.642.798-3.88.832-1.953 2.37-3.043 4.403-3.432.944-.18 1.92-.223 2.88-.28 1.36-.09 2.727.03 4.05.358 2.398.609 3.858 2.162 4.426 4.525.245 1.017.354 2.078.41 3.124.05 1.065.03 2.131-.062 3.193-.11 1.408-.441 2.77-1.164 4.01-.9 1.545-2.297 2.404-4 2.75-1.067.219-2.167.29-2.748.366zm-4.764-9.265c.082 1.007.132 2.03.257 3.044.178 1.434.865 2.217 2.209 2.356a17.58 17.58 0 0 0 3.327.028c1.563-.138 2.205-.75 2.454-2.288.33-2.071.332-4.181.007-6.254-.212-1.381-.85-1.999-2.215-2.128a19.548 19.548 0 0 0-3.328-.04c-1.597.124-2.23.753-2.46 2.334-.143.966-.171 1.947-.252 2.947l.001.001zM87.29 7.27v.36c0 5.603.002 11.205.007 16.808 0 .306-.086.393-.39.388-1.102-.017-2.205-.007-3.308-.007h-.37V10.81h-3.894c-.101.948-.182 1.876-.301 2.8-.368 2.823-.867 5.616-2.19 8.183-.646 1.253-1.493 2.333-2.807 2.958a4.357 4.357 0 0 1-1.896.405l-.72-3.842c1.455-.23 2.002-1.344 2.466-2.504.57-1.424.877-2.923 1.06-4.439.204-1.678.366-3.36.523-5.044.066-.676.061-1.358.09-2.056h11.73zm-14.758-.003v.76c0 .805-.01 1.61.006 2.415.006.28-.09.352-.359.35-2.492-.008-4.985-.005-7.478-.005h-.442v.446c0 4.39.002 8.779.008 13.169 0 .334-.084.43-.422.424-1.092-.022-2.184-.009-3.276-.009h-.36V7.267h12.323z"/><path fill-opacity=".5" d="M.001 25.001L24.961.041l11.266 11.267 13.69 13.69-24.959 24.96z"/><path fill-opacity=".2" d="M16.724 25L33.322 8.404l16.596 16.596L33.32 41.597z"/><path d="M16.748 24.975l16.596 16.597-8.383 8.383L.001 25.001c7.272-4.848 15.721-7.342 24.204-7.482l-7.457 7.456z"/><path fill-opacity=".85" d="M24.205 17.519c8.986-.149 18.01 2.345 25.713 7.48L33.319 41.596 16.723 25l7.482-7.481z"/></g></svg>