<svg xmlns="http://www.w3.org/2000/svg" width="78" height="50" viewBox="0 0 78 50" preserveAspectRatio="xMinYMin meet"><path fill="#FFF" d="M52.602 44.579l-2.13 2.453v2.932h-3.574V35.65h3.574v6.544l5.773-6.544h4.26l-5.497 6.27 5.978 8.045H56.52l-3.918-5.385zm-8.727-8.998v14.315h-2.749l-6.94-7.84v7.839h-3.574V35.581h2.749l6.94 8.043v-8.043h3.574zM24.633 47.44h-6.117l-.96 2.454h-3.85l6.117-14.314h3.435l6.117 14.315h-3.849l-.893-2.454zm-1.168-2.93l-1.924-4.84-1.925 4.84h3.849zm-9.896 1.43c0 2.387-1.925 3.954-5.154 3.954H1.13V35.581h6.872c3.161 0 4.949 1.5 4.949 3.817 0 1.295-.757 2.726-1.994 3.135 1.718.41 2.612 1.909 2.612 3.409zm-8.865-7.43v3h2.68c1.375 0 2.13-.682 2.13-1.568 0-.887-.755-1.363-2.13-1.363h-2.68v-.068zm5.36 6.954c0-.887-.756-1.364-2.062-1.364H4.704v2.863h3.23c1.443 0 2.13-.613 2.13-1.5zM77.93 21.292h-4.123v11.11h-3.574v-11.11H66.11v-3.204h11.82v3.204zm-13.744-3.204v14.315H60.61V18.087h3.574zm-5.498 7.158c0 4.226-3.23 7.225-7.766 7.225H45.15V18.156h5.772c4.468-.068 7.766 2.863 7.766 7.09zm-3.643 0c0-2.182-1.786-3.885-4.122-3.885h-2.2v7.906h2.2c2.336-.068 4.122-1.772 4.122-4.021zm-19.653-4.022v2.59h6.39v2.999h-6.39v2.454h7.284v3.067H31.748V18.02h10.927v3.068H35.39v.136zm-9.553 11.178l-2.749-4.158h-2.68v4.158h-3.642V18.088h6.322c3.574 0 5.979 1.909 5.979 5.044 0 1.84-.894 3.408-2.406 4.295l3.368 4.975h-4.192zM20.34 25.11h2.681c1.375 0 2.474-.75 2.474-1.909 0-1.158-1.1-1.909-2.474-1.909h-2.68v3.818zm-9.414 2.18h3.78c-.756 3.272-3.436 5.453-7.078 5.453-4.33 0-7.628-3.135-7.628-7.43 0-4.294 3.298-7.43 7.628-7.43 3.642 0 6.322 2.182 7.077 5.454h-3.779c-.55-1.363-1.718-2.113-3.298-2.113-2.337 0-3.987 1.704-3.987 4.09 0 2.385 1.65 4.09 3.986 4.09 1.58 0 2.75-.82 3.3-2.114zM61.88 3.75v2.59h6.39v2.999h-6.39v2.454h7.284v3.067H58.237V.545h10.927v3.068H61.88v.137zM55.35 14.928h-3.573V7.771l-3.23 4.908h-1.994l-3.229-4.976v7.225h-3.573V.614h2.68l5.085 7.635L52.602.614h2.68v14.315h.07zm-31.75-3.544h6.736c-.481 1.431-1.787 2.454-3.368 2.454-1.58 0-2.886-1.023-3.367-2.454zM26.97.001V0c5.703 0 10.308 4.363 10.309 9.748 0 1.908-.62 3.681-1.581 5.18h-4.948c1.512-1.158 2.474-2.93 2.474-4.976 0-3.408-2.817-6.202-6.254-6.202-3.436 0-6.253 2.794-6.253 6.202 0 2.046.962 3.818 2.473 4.976h-4.947c-1.031-1.499-1.581-3.272-1.581-5.18 0-5.385 4.604-9.747 10.308-9.747zM14.12.614v14.315h-3.574V9.612H4.704v5.385H1.13V.682h3.574v5.726h5.841V.682h3.574V.614z"/></svg>