<!--Created with Inkscape (http://www.inkscape.org/)--><svg xmlns="http://www.w3.org/2000/svg" width="147.6871" height="53.1155" preserveAspectRatio="xMinYMin meet"><defs><linearGradient id="e"><stop offset="0" stop-color="#e73431"/><stop offset="1" stop-color="#d71c19"/></linearGradient><linearGradient id="c"><stop offset="0" stop-color="#920003"/><stop offset="1" stop-color="#ff6053"/></linearGradient><linearGradient id="d"><stop offset="0" stop-color="#fff"/><stop offset=".1454" stop-color="#fff"/><stop offset=".4281" stop-color="#cfcfcf"/><stop offset=".6766" stop-color="#9f9f9f"/><stop offset="1" stop-color="#a0a0a0"/><stop offset="1" stop-color="#fff"/></linearGradient><linearGradient id="b"><stop offset="0" stop-color="#f4aaa1"/><stop offset=".5" stop-color="#e11b1c"/><stop offset="1" stop-color="#a10c11"/></linearGradient><linearGradient id="a"><stop offset="0" stop-color="#ff6053"/><stop offset="1" stop-color="#920003"/></linearGradient></defs><path d="M2.926 0A2.92 2.92 0 0 0 0 2.926V50.19a2.918 2.918 0 0 0 2.926 2.924H50.19a2.917 2.917 0 0 0 2.924-2.924V2.926A2.918 2.918 0 0 0 50.191 0H2.926zm23.236 5.258c6.673-.092 15.068 12.091 15.043 24.974.077 7.923-3.618 16.664-15.043 16.89-10.968-.161-15.064-8.945-15.037-16.89-.107-12.466 8.06-24.971 15.037-24.974z" fill="#fff"/><g fill="#fff"><path d="M66.709 39.737l2.043-26.047h6.923l7.093 14.584 6.98-14.584h6.923l2.043 26.047h-8.001L89.69 26.742l-4.88 11.009-4.143-.057-5.845-10.952-1.021 12.995zM109.723 39.737V19.705h-8.058V13.69h24.004v6.015h-7.888v20.032zM147.687 14.59c-1.634-.88-3.777-.9-6.015-.9-8.13 0-13.336.9-13.336 6.512v13.076c0 6.546 5.215 6.457 13.336 6.459 2.078.053 4.903.022 6.015-.847v-5.612c-1.262.68-2.968.741-6.015.741-3.248 0-6.015-.74-6.015-3.997v-7.226c0-2.594 2.516-3.547 6.015-3.547 2.856 0 4.072-.094 6.015.953z"/></g></svg>