<svg xmlns="http://www.w3.org/2000/svg" width="187" height="50" viewBox="0 0 187 50" preserveAspectRatio="xMinYMin meet"><path fill="#FFF" d="M84.48 49.605l-4.742-5.329v5.198H78.29v-10.33h1.448v4.672l4.28-4.671h1.778l-4.543 4.868 4.807 5.263-1.58.33zm-10.602-.131v-4.737h-5.267v4.737h-1.383v-10.33h1.383v4.277h5.267v-4.276h1.383v10.329h-1.383zm-14.354-10.33h1.383l3.95 10.198-1.382.33-1.186-3.225h-4.214L56.89 49.54h-1.448l4.082-10.394zm-.988 5.988h3.293l-1.647-4.343-1.646 4.343zm-8.362 4.342h-2.502v-10.33h5.333l.198 1.317h-4.148v2.894h1.316c2.173 0 3.49 1.053 3.49 2.96.066 2.106-1.382 3.159-3.687 3.159m.197-4.869h-1.25v3.619h1.185c1.382 0 2.238-.592 2.238-1.842 0-1.185-.79-1.777-2.173-1.777m135.312-21.71c-1.58 2.105-3.819 3.618-6.914 3.618-4.082 0-8.033-3.224-8.033-7.368v-.921c0-4.474 3.622-7.698 8.033-7.698 4.412 0 7.836 3.619 7.836 7.96h-11.852v2.567c0 2.236 1.778 4.013 4.411 4.013 2.305 0 3.82-.987 5.07-2.303l1.45.132zm-10.93-5.921h8.033v-.79a3.989 3.989 0 0 0-4.017-4.013 3.989 3.989 0 0 0-4.016 4.013v.79zm-9.482-6.185h2.436V26.25h-3.292V15.46l-8.099 10.79h-2.436V13.684c0-1.776-1.58-2.04-1.58-2.04v-.789h4.806v10.856l8.165-10.922zm-28.445 0h13.63v3.027h-.988s-.131-1.58-1.712-1.58h-2.37V26.25h-3.358V12.303h-2.436c-1.317 0-1.647 1.052-1.712 1.579h-.988v-3.093h-.066zm-2.305 0V26.25h-3.292v-12.5c0-1.776-1.646-2.04-1.646-2.04v-.92h4.938zm-14.42 13.948h2.766c1.514 0 2.897-1.316 2.897-2.763v-.658c0-1.777-1.185-3.027-2.765-3.027H120.1v6.448zm0-8.026v.065h3.951c3.227 0 5.268 1.71 5.268 4.474v.724c0 2.565-2.107 4.342-5.07 4.342h-7.638V13.684c0-1.842-1.449-1.973-1.449-1.973v-.922h4.938v5.922zm-11.26 4.276v-4.934c-.13-3.75-3.226-3.948-3.226-3.948h-.658c-2.041 0-3.621 1.71-3.753 3.29v6.644c.197 1.514 1.844 2.895 3.753 2.895h.33c2.172-.131 3.555-1.973 3.555-3.947zm-3.094-10.395c4.214 0 7.046 2.83 7.111 7.369v.986c0 4.21-2.963 7.566-7.308 7.632-.659 0-2.7-.132-4.28-1.908v8.75h-3.358V13.75c0-1.71-1.58-1.974-1.58-1.974v-.92h4.938v1.71c.79-1.184 2.568-1.974 4.477-1.974zM94.158 26.25h-4.28l-3.028-5.724s-.922-1.71-1.91-1.71h-1.25v7.434H80.33V13.684c0-1.776-1.646-1.973-1.646-1.973v-.922h5.004v6.448h1.449s.987-.066 1.777-1.382c2.634-4.276 2.305-5.066 3.424-5.066h3.293v1.053c-2.305 0-2.963 4.671-5.136 6.119 1.053.394 1.448 1.381 3.819 5.723 0 0 .592 1.448 1.712 1.448v1.118h.131zM63.54 10.79h13.63v3.026h-.987s-.132-1.58-1.712-1.58H72.1V26.25h-3.359V12.303h-2.436c-1.317 0-1.646 1.052-1.712 1.579h-.988v-3.093h-.066zm-4.609 10.065v-4.868c0-2.237-1.712-4.013-4.28-4.013-2.238 0-4.148 1.71-4.148 3.947v4.934c0 2.171 1.58 4.145 4.148 4.145 2.568 0 4.28-1.908 4.28-4.145zm-4.28-10.263c5.136 0 8.297 3.684 8.297 7.632v1.052c0 3.948-3.82 7.303-8.297 7.303-4.806 0-8.164-3.816-8.164-7.237v-1.316c0-2.96 2.37-7.434 8.164-7.434zM30.29 19.474c0 4.408-2.305 8.355-5.992 10.263l-.856.395a2.029 2.029 0 0 1-.856.197c-.593 0-1.054-.263-1.317-.658a2.024 2.024 0 0 1-.198-1.25c.132-.658.593-.921.79-1.053 2.173-.986 3.556-3.223 3.556-5.657v-6.382c0-2.434-1.383-4.671-3.555-5.658 0 0-.659-.329-.79-1.053-.066-.46 0-.855.197-1.184.263-.46.724-.658 1.317-.658.263 0 .592.066.856.198 0 0 .79.394.856.394 3.687 1.974 5.992 5.921 5.992 10.264v1.842zm-16 7.96c.131.066.658.395.79 1.053.065.46 0 .855-.198 1.25-.263.46-.724.658-1.317.658-.263 0-.593-.066-.856-.198l-.856-.394C8.165 27.829 5.86 23.882 5.86 19.539v-1.842c0-4.408 2.305-8.355 5.992-10.263.066 0 .856-.395.856-.395.263-.131.593-.197.856-.197.593 0 1.054.263 1.317.658.198.395.263.79.198 1.184-.132.724-.79 1.053-.79 1.053-2.174.987-3.556 3.158-3.556 5.658v6.381c-.066 2.435 1.382 4.671 3.555 5.658zM18.041.526C8.099.526 0 8.553 0 18.553c0 10 8.099 18.026 18.042 18.026 10.008 0 18.041-8.092 18.041-18.026C36.15 8.553 28.05.526 18.042.526z"/></svg>