<svg xmlns="http://www.w3.org/2000/svg" width="271" height="50" viewBox="0 0 271 50" preserveAspectRatio="xMinYMin meet"><path fill="#FFF" d="M110.953 42.353c.982 1.176 1.375 1.569 2.356 2.157h-5.204c0-.588-.098-.98-.589-1.569l-4.124-5v4.706c0 .98.099 1.373.491 1.863h-4.222c.393-.588.491-.883.491-1.863V33.04c0-.98-.098-1.372-.49-1.863h4.221c-.392.589-.49.883-.49 1.863v4.608l4.614-4.804c.786-.784.884-1.176.884-1.765h4.124a16.611 16.611 0 0 0-2.357 1.961l-4.025 4.02 4.32 5.294zM96.912 31.078c-.393.589-.491.883-.491 1.863v9.608c0 .98.098 1.373.491 1.863H92.69c.393-.588.49-.883.49-1.863v-4.118h-5.694v4.118c0 .98.098 1.373.49 1.863h-4.221c.392-.588.49-.883.49-1.863v-9.608c0-.98-.098-1.372-.49-1.863h4.222c-.393.589-.491.883-.491 1.863v3.726h5.695V32.94c0-.98-.098-1.372-.491-1.863h4.222zM81.005 42.451c.393.882.688 1.47 1.375 2.059h-4.713c.393-.785.196-1.177-.098-2.157l-.393-.784h-5.793l-.295.784c-.392.98-.49 1.372-.098 2.157h-3.24a8.218 8.218 0 0 0 1.276-2.059l4.32-10c-.294-.588-.49-.784-.981-1.275h3.83l4.81 11.275zm-8.935-2.549h4.517l-2.258-5.588-2.259 5.588zm-10.604-3.53c3.142 0 5.498.98 5.498 4.02 0 3.04-2.356 4.02-5.498 4.02h-4.91c.393-.588.491-.883.491-1.863v-9.608c0-.98-.098-1.372-.49-1.863h9.72l-.982 2.255c-.392-.392-.883-.588-1.865-.588h-3.24v3.628h1.276zm-.393 6.471c1.67 0 2.75-.686 2.75-2.45 0-1.766-1.08-2.452-2.75-2.452h-.982v4.902h.982zm197.85-31.765l-1.08 2.353c.982-.588 1.57-.686 2.945-.686h1.866v9.706c0 .98-.098 1.274-.491 1.863h4.222c-.393-.49-.49-.883-.49-1.863v-9.706h2.16c.981 0 1.374.294 1.865.686l1.08-2.353h-12.077zm-7.462 0c4.025 0 5.989 1.471 5.989 4.51 0 2.941-2.258 4.804-5.99 4.804h-1.669v2.255c0 .98.098 1.373.491 1.863h-4.222c.393-.588.491-.883.491-1.863V13.04c0-.98-.098-1.372-.49-1.863h5.4v-.098zm-.491 7.746c2.16 0 3.24-1.079 3.24-3.138s-1.08-2.94-3.24-2.94h-1.179v6.078h1.179zm-7.07 3.529c.393.882.687 1.47 1.375 2.059h-4.713c.392-.785.196-1.177-.099-2.157l-.392-.784h-5.793l-.295.784c-.393.98-.491 1.372-.098 2.157h-3.24a8.218 8.218 0 0 0 1.276-2.06l4.32-10c-.294-.587-.49-.783-.982-1.274h3.83l4.811 11.275zm-8.935-2.55h4.517l-2.16-5.587-2.357 5.588zm-6.873 1.472c0 1.078.392 1.862 1.669 2.156v2.353c-1.375-.98-2.16-1.372-3.535-1.372h-6.873c-1.277 0-2.258.392-3.535 1.372v-2.353c2.455-.882 2.848-2.745 2.848-5.196v-5.294c0-.98-.099-1.372-.491-1.863h10.506c-.393.589-.491.883-.491 1.863l-.098 8.334zm-3.142.784v-9.314h-3.535c-.491 0-.687.294-.687.686v5c0 1.961-.197 3.236-.982 4.314h4.516c.491 0 .688-.392.688-.686zM214.738 10.98c-.393.589-.49.883-.49 1.863v9.608c0 .98.097 1.373.49 1.863h-4.222c.393-.589.49-.883.49-1.863v-4.118h-5.694v4.118c0 .98.098 1.373.49 1.863h-4.221c.393-.589.49-.883.49-1.863v-9.608c0-.98-.097-1.372-.49-1.863h4.222c-.393.589-.491.883-.491 1.863v3.726h5.695v-3.726c0-.98-.098-1.372-.491-1.863h4.222zm-15.612 11.373c.393.882.687 1.47 1.375 2.059h-4.713c.392-.785.196-1.177-.099-2.157l-.294-.784h-5.891l-.295.784c-.393.98-.49 1.372-.098 2.157h-3.24a8.218 8.218 0 0 0 1.276-2.06l4.32-10c-.294-.587-.49-.783-.981-1.274h3.829l4.811 11.275zm-8.935-2.55h4.517l-2.16-5.587-2.357 5.588zm-5.499-7.058c.982 0 1.473.294 1.866.686l1.08-2.353h-12.077l-1.08 2.353c.982-.588 1.57-.686 2.945-.686h1.866v9.706c0 .98-.098 1.274-.49 1.863h4.221c-.393-.49-.49-.883-.49-1.863v-9.706h2.16zm-15.415 10.098c-3.633 0-5.008-2.45-5.008-6.176 0-3.824 1.768-6.275 4.91-6.275 1.57 0 2.945.588 4.025 1.765l1.768-3.53c-.59.393-1.08.49-1.67.49-1.374 0-2.258-.392-4.418-.392-5.008 0-8.248 3.53-8.248 8.04 0 5 3.044 7.843 7.757 7.843 3.142 0 4.615-.98 6.284-2.451l-.884-1.47c-1.178 1.274-2.749 2.156-4.516 2.156zM152.78 11.078c-.393.589-.49.883-.49 1.863v9.608c0 .98.097 1.373.49 1.863h-4.222c.393-.588.491-.883.491-1.863v-6.47l-5.695 6.078v.392c0 .98.098 1.373.491 1.863h-4.222c.393-.588.49-.883.49-1.863v-9.608c0-.98-.097-1.372-.49-1.863h4.222c-.393.589-.49.883-.49 1.863v6.47l5.694-6.078v-.392c0-.98-.098-1.372-.49-1.863h4.221zM146.301 10c-1.571 0-2.553-.588-2.553-1.667 0-.49.294-.98.589-1.274h1.178c-.294.392-.393.784-.393 1.078 0 .392.295.785 1.179.785.883 0 1.178-.49 1.178-.785 0-.294-.098-.588-.393-1.078h1.277c.196.294.49.784.49 1.274 0 1.079-.981 1.667-2.552 1.667zm-9.034 1.078h-4.222c.393.49.491.883.491 1.863v.392l-5.695 6.079v-6.47c0-.981.098-1.275.491-1.864h-4.222c.393.49.491.883.491 1.863v9.608c0 .98-.098 1.275-.49 1.863h4.221c-.393-.49-.49-.883-.49-1.863v-.392l5.694-6.079v6.471c0 .98-.098 1.275-.49 1.863h4.221c-.392-.49-.49-.883-.49-1.863v-9.608c0-.98.098-1.274.49-1.863zm-16.495 11.177l-4.32-5.294 4.025-4.02a16.611 16.611 0 0 1 2.357-1.96h-4.124c0 .588-.098.98-.884 1.764l-4.615 4.804v-4.608c0-.98.098-1.274.491-1.863h-4.222c.393.49.491.883.491 1.863v9.608c0 .98-.098 1.275-.49 1.863h4.221c-.393-.49-.49-.883-.49-1.863v-4.706l4.123 5c.491.588.59.98.59 1.569h5.203c-.982-.588-1.374-.98-2.356-2.157zm-12.863 0l-.59-1.47c-.883 1.176-2.356 2.058-4.221 2.058-2.651 0-3.83-2.059-3.83-5.098 0-3.235 1.473-5.392 4.026-5.392 1.67 0 2.651.784 3.339 1.47l1.276-2.94a2.618 2.618 0 0 1-1.178.293c-.884 0-1.866-.392-3.633-.392-4.32 0-7.168 2.941-7.168 6.961 0 4.608 2.848 6.863 6.382 6.863 2.651 0 4.124-.784 5.597-2.353zm-18.263 2.353c2.651 0 4.124-.784 5.597-2.353l-.59-1.47c-.883 1.176-2.356 2.058-4.221 2.058-2.652 0-3.83-2.059-3.83-5.098 0-3.235 1.473-5.392 4.026-5.392 1.67 0 2.651.784 3.338 1.47l1.277-2.94a2.618 2.618 0 0 1-1.179.293c-.883 0-1.865-.392-3.632-.392-4.32 0-7.168 2.941-7.168 6.961 0 4.608 2.847 6.863 6.382 6.863zm-16.692 1.568c-1.375 0-2.16-.686-2.75-1.568l-.883 1.863c1.08.98 2.16 1.372 3.633 1.372 3.142 0 4.418-2.353 5.4-5l3.732-9.804c.392-.98.589-1.372 1.178-1.96h-3.339c.295.686.099 1.372-.098 2.058l-2.65 7.157-3.045-7.059c-.196-.686-.393-1.47 0-2.157H69.42c.491.49.884 1.177 1.375 2.255l4.811 10.785c-.59 1.372-1.473 2.157-2.651 2.058zM62.251 8.922c4.124 0 6.48 1.862 6.48 5.196 0 3.431-2.454 5.49-6.48 5.49h-1.963v2.941c0 .98.098 1.373.49 1.863h-4.32c.393-.588.491-.883.491-1.863V10.784c0-.98-.098-1.372-.49-1.862h5.792zm-.49 8.725c2.356 0 3.632-1.274 3.632-3.53 0-2.156-1.276-3.43-3.632-3.43h-1.473v6.96h1.473zM24.84 0C11.096 0 0 11.078 0 24.804c0 13.725 11.095 24.804 24.842 24.804 13.746 0 24.841-11.079 24.841-24.804C49.782 11.078 38.588 0 24.842 0zm0 47.059c-12.273 0-22.288-9.902-22.288-22.157S12.568 2.647 24.842 2.647c12.371 0 22.288 9.902 22.288 22.255 0 12.255-9.917 22.157-22.288 22.157zm8.445-15.588c.687.196 1.67.294 2.258 0-3.044-.785-4.713-5.098-11.684-5.687-.295 0-.982.098-.59-.588.393-.686 3.143-2.549 3.143-2.549-.491 0-2.848.196-3.535.294-.687.098-.884-.098-.884-.588 0 0-1.374 1.274-.687 1.96.098.099.393.099.785 0 .295-.097.884-.293 1.277-.391 0 0 .098 0 .098.098-.196.294-.59.882-.687 1.176-.098.392-.197.588.49.784.59.196 3.83 1.177 5.794 2.55 1.964 1.274 6.578 4.901 6.284 11.568 1.08-.784 2.062-1.569 2.65-2.157.1-.098.1-.392.1-.392-.885-1.96-2.75-4.804-4.812-6.078zm-5.4 11.666c.687-.196 2.061-.49 3.24-.882.196-.098.294-.294.294-.392.688-1.863.982-5.98-1.08-8.236 1.178 2.451.688 6.57-2.454 9.51zm4.909-16.764c3.24 1.372 6.382 4.705 7.953 7.94.295-.49.982-1.666 1.473-2.94 0-.197-.098-.295-.196-.393-2.75-2.353-6.088-4.02-9.23-4.607zm8.346-4.02c-1.178.588-2.651.784-3.535.784 1.768.687 4.124 1.961 5.793 3.334-.098-.589 0-1.177 0-1.569 0-.196-.098-.294-.098-.294-1.964-.784-3.142-1.079-3.142-1.079.491-.196.884-.784.982-1.176zm-4.32-9.804c-.099 1.176.883 1.863 1.374 2.157.491.294 2.455 1.47 2.848 1.765.196.196-.197.784-.59 1.078-.294.98-.981 1.569-1.374 1.667-.687.196-1.178 0-1.178 0-.197.196-.295.392-.491.49-.295.196-.393.098-.295-.098 0-.196 0-.294-.098-.49-.196-.294-.393 0-.687.098-.295.098-.393-.294-.393-.294-1.473-.295-2.16.49-2.16.49 1.08.196 1.57.882 1.669 1.176.098.294.687.294.982.098.098-.098.294-.196.294.098 0 .098 0 .294-.098.49.491.295.688.295.491.589-.589.98-1.08.882-1.276.784a21.38 21.38 0 0 0-5.499-1.176l.688-.687c-8.74 0-10.212 1.079-10.703 1.667-.295.392 0 .98 0 .98-1.08.196-3.633.687-4.811 1.667-1.08.98-1.178 3.04-1.178 3.824a6.45 6.45 0 0 1 1.669-1.177c1.178-.588 2.553-.49 4.32-.392.786 0 1.08.294 1.375.784.196.392-.295.392-.59.196-1.472-.98-2.061.785-3.632.392.49.589 1.178.589 1.57.49 1.572-.588 1.964 0 2.063.197-1.08-.098-2.652.588-3.437.784-.982.196-1.964.294-1.964.294.687.785 1.571.785 2.258.785.688 0 2.946-.197 4.32 0 3.437.392 3.634 3.529 1.67 5.49 1.67-.49 2.258-1.961 2.258-1.961 1.179 5.294-3.73 8.137-7.757 7.353-1.963-.392-3.534-1.275-4.614-2.059-.884-.588-1.571-1.274-1.768-1.47 2.651.686 6.677.686 9.328-.49-5.302.097-8.837-1.275-11.292-2.648-.981-.49-1.276-.784-1.57-1.372-.786-1.373-1.277-2.647-1.768-4.51 2.062 1.765 6.382 4.117 8.444 4.314-5.498-3.138-8.15-7.746-8.444-8.334-.196-.392-.59-.882-.59-1.863.1-1.372.492-3.333.983-4.705.687 1.862 2.258 5.196 4.222 6.764-1.964-4.117-2.258-9.313-2.16-10.294 0-.392.098-.784.49-1.274.492-.687 1.572-2.06 2.75-3.04-.196 1.471-.59 4.412-.098 7.255.785-4.411 2.454-7.843 3.633-9.411.196-.295.392-.49.883-.785.491-.294 1.964-.882 3.732-1.274-1.473 1.078-2.75 3.039-3.142 4.215C22.583 6.275 27.493 6.275 30.438 5c.688-.392.982.098.982.49-.098.49-.294 1.275-.294 1.275 1.767.392 2.553 1.274 2.553 1.274-.099-.196 0-.588 0-.588 2.454 2.157 3.24 3.824 3.142 5.098zm-12.47 3.53s.196-3.334 3.142-5.883c-2.651 1.079-4.713 5-4.615 7.353.294-.098.884-.392 1.375-.588 0 0-.393 1.274-.295 3.431.785-.098 1.473-.196 2.356-.196-1.276-.49-1.276-2.941-.392-4.216.294-.392 0-.392-.393-.294-.491.098-.687.196-1.178.392zm5.596-9.608c.197-.098.099-.393-.392-.098-.688.49-1.473 1.078-1.964 2.156-.098.295 0 .49.295.295a8.58 8.58 0 0 1 1.276-.49c-.196-.589.49-1.471.785-1.863zm5.597 6.764c.197-.294.197-.882 0-1.666-.196 1.274-.49 1.274-.785 1.176-.59-.196-1.571-.294-1.964-.196 1.08.882 1.767 2.353 1.767 2.353.099-.49-.196-1.177-.294-1.373-.098-.196 0-.196.196-.098.098 0 .491.098.59.196.392.098.392 0 .49-.392z"/></svg>