<svg xmlns="http://www.w3.org/2000/svg" width="211" height="50" viewBox="0 0 211 50" preserveAspectRatio="xMinYMin meet"><path fill="#FFF" fill-rule="evenodd" d="M56.276 27.231c.595 0 1.445.022 2.128-.618.467-.425.725-1.146.725-1.763 0-.575-.236-1.255-.703-1.66-.469-.403-1.213-.596-2.046-.596h-2.596v4.637h2.492zm-.108-6.76c1.259 0 2.66.04 3.873.868.812.534 1.767 1.598 1.767 3.49 0 2.084-1.319 4.53-4.958 4.53h-3.066v5.698h-2.68V20.47h5.064zm9.921 12.225a2.16 2.16 0 0 0 1.7.787c.939 0 1.47-.51 1.703-.787.171-.19.81-1.042.81-3.063 0-2.02-.639-2.867-.81-3.059a2.154 2.154 0 0 0-1.703-.789c-.933 0-1.468.511-1.7.79-.168.19-.81 1.038-.81 3.058 0 2.02.642 2.873.81 3.063zm-1.81-7.378c.745-.702 1.854-1.32 3.51-1.32 1.661 0 2.768.618 3.513 1.32 1.105 1.042 1.68 2.657 1.68 4.315 0 1.66-.575 3.276-1.68 4.318-.745.703-1.852 1.319-3.513 1.319-1.656 0-2.765-.616-3.51-1.319-1.108-1.042-1.682-2.658-1.682-4.318 0-1.658.574-3.273 1.683-4.315zm17.189 2.871c-.044-.553-.257-1.191-.532-1.597-.258-.38-.768-.806-1.616-.806-.832 0-1.385.426-1.725.999-.533.872-.575 2.231-.575 2.848 0 1 .147 2.19.575 2.873.275.425.828.977 1.725.977.637 0 1.168-.254 1.573-.807.318-.448.531-1.084.575-1.638l2.255.276c-.129 1-.574 2.108-1.361 2.828-.661.596-1.684 1.127-3.13 1.127-1.616 0-2.66-.636-3.276-1.213-.83-.784-1.618-2.19-1.618-4.4 0-2.063.702-3.295 1.255-3.957a4.913 4.913 0 0 1 3.703-1.701c1.342 0 2.45.47 3.148 1.193.705.701 1.13 1.763 1.28 2.72l-2.256.278zm10.56 0c-.04-.553-.253-1.191-.531-1.597-.255-.38-.768-.806-1.619-.806-.827 0-1.38.426-1.722.999-.53.872-.575 2.231-.575 2.848 0 1 .15 2.19.575 2.873.275.425.83.977 1.722.977.641 0 1.172-.254 1.576-.807.321-.448.533-1.084.575-1.638l2.255.276c-.127 1-.574 2.108-1.361 2.828-.662.596-1.68 1.127-3.128 1.127-1.618 0-2.66-.636-3.278-1.213-.83-.784-1.617-2.19-1.617-4.4 0-2.063.7-3.295 1.256-3.957a4.904 4.904 0 0 1 3.702-1.701c1.34 0 2.447.47 3.147 1.193.705.701 1.13 1.763 1.28 2.72l-2.256.278zm11.126.295c0-.614-.148-1.317-.468-1.785a2.336 2.336 0 0 0-1.915-1c-.809 0-1.51.406-1.937.913a3.044 3.044 0 0 0-.637 1.872h4.957zm2.51 3.427a4.53 4.53 0 0 1-1.784 2.467c-.85.572-1.958.892-3.13.892-1.468 0-2.958-.617-3.854-1.53-.827-.852-1.445-2.32-1.445-4.063 0-2.212.914-3.68 1.914-4.51.577-.487 1.66-1.17 3.3-1.17 2.065 0 3.384.958 4.084 1.936.746 1.02 1.087 2.447 1.087 3.68v.492h-7.704c0 .125-.021 1.104.363 1.889.572 1.192 1.617 1.488 2.34 1.488.575 0 1.297-.169 1.895-.786.36-.383.511-.744.573-1.084l2.362.3zm10.682-7.699v10.845h-2.471v-9.016h-2.808c-.062 1.466-.105 2.062-.15 3.06-.061 1.129-.146 3.51-1.107 4.808-.53.701-1.19.979-1.658 1.106a2.942 2.942 0 0 1-.874.127c-.212 0-.426-.02-.634-.085v-1.87h.208c.32-.023.747-.192 1.025-.406.849-.678.934-2.21 1.02-3.423.106-1.596.127-2.552.149-3.997l.023-1.149h7.277zm5.074 9.06h1.939c.468 0 .976-.024 1.403-.383.253-.236.555-.637.555-1.32 0-.594-.171-1.063-.662-1.381-.426-.276-.957-.32-1.296-.32h-1.94v3.403zm0-5.19h2.724c.7 0 2.066.086 2.96.98.806.786.89 1.89.89 2.486 0 1.553-.638 2.339-1.125 2.744-.172.128-.98.765-2.513.765h-5.404V24.213h2.468v3.868zm10.161-3.87l2.003 3.38 2.083-3.38h2.255l-3.17 4.912 3.766 5.933h-2.895l-2.466-4.083-2.596 4.083h-2.255l3.702-5.635-3.32-5.21h2.893zm10.654 8.484c.233.277.764.787 1.7.787.938 0 1.47-.51 1.705-.787.168-.19.808-1.042.808-3.063 0-2.02-.64-2.867-.808-3.059a2.165 2.165 0 0 0-1.704-.789c-.937 0-1.468.511-1.701.79-.17.19-.81 1.038-.81 3.058 0 2.02.64 2.873.81 3.063zm-1.81-7.378c.745-.702 1.851-1.32 3.51-1.32 1.662 0 2.769.618 3.513 1.32 1.105 1.042 1.682 2.657 1.682 4.315 0 1.66-.577 3.276-1.682 4.318-.744.703-1.851 1.319-3.512 1.319-1.66 0-2.766-.616-3.51-1.319-1.108-1.042-1.682-2.658-1.682-4.318 0-1.658.574-3.273 1.681-4.315zm10.02 1.828a3.814 3.814 0 0 1 1.746-2.404c.36-.232 1.36-.744 3.062-.744 1.065 0 2.15.191 2.961.64 1.19.657 1.487 1.614 1.487 2.296 0 .744-.362 2.168-2.212 2.38v.045c.637.087 1.34.362 1.766.807.384.404.68 1.084.68 1.807 0 1.086-.637 2.04-1.447 2.574-.979.638-2.322.723-3.317.723-1.003 0-2.534-.106-3.6-.956-.593-.47-1.147-1.278-1.318-2.298l2.234-.383c.083.34.28.85.534 1.147.553.64 1.425.703 1.977.703.556 0 1.15-.062 1.618-.383.426-.297.638-.701.638-1.234 0-.445-.086-.806-.467-1.125-.49-.404-1.15-.467-1.766-.467h-1.127v-1.661h1.127c.424 0 1.042-.084 1.383-.255.446-.234.7-.616.7-1.233 0-.341-.128-.66-.445-.914-.493-.404-1.192-.426-1.553-.426-.49 0-1.212.064-1.81.575a2.079 2.079 0 0 0-.703 1.254l-2.148-.468zm15.076 5.36h2.746c.511 0 .98-.022 1.467-.512.469-.467.533-.997.533-1.403 0-.466-.128-.936-.533-1.34-.487-.487-1.103-.533-1.553-.533h-2.66v3.788zm7.044-9.484h-7.044v3.23h3.13c1.124 0 2.212.086 3.32.851 1.084.746 1.766 1.851 1.766 3.446 0 1.489-.555 2.593-1.255 3.295-1.064 1.065-2.28 1.213-3.556 1.213h-6.81V20.47h10.45v2.553zm8.947 6.91c-1.066.085-2.13.193-2.726.935-.17.214-.34.533-.34.978 0 .469.234.79.468.957.299.235.745.341 1.17.341.639 0 1.385-.276 1.81-.787.064-.065.574-.702.574-1.934v-.574l-.956.084zm-6.023-2.7a3.94 3.94 0 0 1 1.874-2.553c.848-.49 1.977-.681 3.382-.681 1.787 0 3.597.234 4.404 1.915.425.872.384 1.809.384 2.616v4.188c0 .872.127 1.682.318 2.34h-3.084c-.087-.425-.149-1-.17-1.724-.407.723-1.385 1.937-3.64 1.937-1 0-2.023-.255-2.724-.829-.682-.554-1.107-1.446-1.107-2.425 0-1.084.47-2.384 2.318-3.149 1.194-.487 3.13-.657 4.004-.699l1.02-.044v-.234c0-.297-.02-.936-.318-1.277-.405-.466-1.215-.488-1.537-.488-.443 0-.975.043-1.423.32-.276.168-.638.51-.764 1.105l-2.937-.319zm15.679-3.02v4.062h3.425v-4.062h3.168v10.845h-3.168v-4.551h-3.425v4.551h-3.173V24.212h3.173zm12.23 0v4.169h.85c.915 0 1.298-.449 1.53-.938.449-.957.428-1.701.833-2.444.32-.595.744-.745 1.021-.787h2.617a5.19 5.19 0 0 0-.831 1.169c-.34.702-.66 1.85-.85 2.341-.256.679-.682 1.361-1.767 1.445v.04c.574.088 1.17.385 1.619 1.045.274.403.466.934.765 1.764.298.85.427 1.148.702 1.806.213.492.34.788.701 1.235h-2.979c-.467-.149-.786-.468-1.167-1.574-.3-.848-.342-1.147-.535-1.617l-.149-.382c-.319-.807-.745-.978-1.403-.978h-.957v4.551h-3.17V24.212h3.17zM15.13 28.16v-3.276l4.874-4.76v3.247l-4.874 4.79zm0-12.125v-3.092l4.874-4.764v3.066l-4.874 4.79zm0 4.01v-3.09l4.874-4.765v3.067l-4.874 4.789zM13.733 8.217V0h.734v12.022l-4.878-4.79V0h.734v4.885l.647.63V0h.736v6.234l.642.63V0h.737v7.583l.648.633zm1.397 15.841v-3.092l4.874-4.763v3.066l-4.874 4.789zm-5.541-.688v-3.246l4.879 4.76v3.277l-4.88-4.79zm9.683-18.483V0h.732v7.233l-4.875 4.789V0h.733v8.214l.649-.634V0h.732v6.864l.646-.628V0h.737v5.516l.646-.63zM9.59 11.244V8.177l4.879 4.763v3.094l-4.88-4.79zm0 4.012V12.19l4.879 4.764v3.091l-4.88-4.79zm0 4.012v-3.066l4.879 4.763v3.092l-4.88-4.789zm16.35 5.506c0-.538-.619-1.817-.619-1.817v-.693s.62-1.282.62-1.818a1.318 1.318 0 1 0-2.419.723l.367.62a1.088 1.088 0 0 0 0 1.64l-.368.62a1.316 1.316 0 0 0 1.099 2.04c.729 0 1.32-.587 1.32-1.315zm12.705-2.978c.337 0 .613.282.613.624v.38a.622.622 0 0 1-.613.626h-1.746v.533h.87v.752h-.87v.78h.87v1.435h-.87v-.65h-1.29v.65h-.872V25.49h.871v-.78h-.871v-.752h.871v-.533h-8.823c.25.39.395.848.395 1.348a2.558 2.558 0 0 1-2.56 2.554 2.553 2.553 0 0 1-2.075-4.036.816.816 0 0 1 0-1.365 2.537 2.537 0 0 1-.478-1.48 2.555 2.555 0 0 1 2.553-2.554 2.56 2.56 0 0 1 2.56 2.553c0 .5-.146.959-.395 1.35h11.86zm-33.49-1.553s.516 1.761 2.473 3.718c1.03 1.026 2.311 2.252 4.22 4.116.82.797 2.414 2.016 2.414 5.157v3.527c-.314-.783-.56-1.24-1.973-2.615l-5.045-4.961c-.761-.763-2.09-2.717-2.09-5.759v-3.183zm6.694 15.712c.82.796 2.413 2.013 2.413 5.155v3.727c-.315-.785-.56-1.44-1.971-2.818a5022 5022 0 0 0-5.05-4.938c-.704-.794-2.087-2.738-2.087-5.78v-2.747s.519 1.326 2.473 3.283c1.031 1.025 2.311 2.25 4.222 4.118zM21.905 5.893c12.094 0 21.9 9.802 21.9 21.89 0 12.089-9.806 21.889-21.9 21.889C9.806 49.672 0 39.872 0 27.784c0-7.152 3.43-13.5 8.737-17.496v1.905c-4.432 3.742-7.248 9.336-7.248 15.59 0 11.266 9.14 20.4 20.416 20.4 11.273 0 20.412-9.134 20.412-20.4 0-11.267-9.139-20.401-20.412-20.401-.355 0-.703.01-1.048.026v-1.49c.345-.017.693-.025 1.048-.025zm15.492 33.318v-4.37h.965v2.94c-.301.49-.623.968-.965 1.43zm2.81-5.437c-.533-.536-1.478-.525-2.327-.5h-.483v-.781h3.18c-.108.43-.232.857-.37 1.281zm-22.022 7.341v-8.728h.862v8.728h-.862zm15.975-4.244v-5.71l-.934 4.821.934.89zM16.2 30.703v15.466a23.385 23.385 0 0 1-.859-.289V29.862h3.706c1.507 0 2.415.59 2.723 1.78.329-1.136 1.2-1.707 2.635-1.707h.846c1.188 0 2 .396 2.429 1.18l-.192-.97h13.528c-.033.263-.072.525-.11.784h-5.782v10.846a19.21 19.21 0 0 1-1.655 1.396v-4.99c0-.933-.18-1.505-1.115-1.834l1.115-5.374h-2.08l-.331 5.87h-.242l-.33-5.87h-1.973l.982 5.374c-.892.3-1.103.961-1.103 1.834v7.725c-.39.138-.786.267-1.19.382v-8.44h-1.951v8.89c-.284.049-.564.092-.846.127V32.538h.846v4.468h1.951v-4.181c0-.753-.133-1.28-.42-1.58-.56-.558-1.64-.45-2.377-.45-.724 0-1.24.15-1.523.45-.283.3-.436.827-.436 1.58v14.194a15.002 15.002 0 0 1-.826.004v-4.726c-.402.898-1.264 1.345-2.573 1.345v3.174c-.29-.044-.576-.096-.861-.151V42.8c.133 0 .285 0 .436.013.693 0 1.521 0 1.974-.45.3-.285.437-.796.437-1.534V32.67c0-.736-.137-1.248-.437-1.529-.301-.286-.814-.44-1.549-.44H16.2zm14.286 14.31v-7.076h.889v6.604c-.292.163-.589.321-.89.472z"/></svg>