<svg xmlns="http://www.w3.org/2000/svg" width="410" height="50" viewBox="0 0 410 50" preserveAspectRatio="xMinYMin meet"><g fill="#FFF"><path d="M267.57 9.386l-12.567 14.912-12.657-14.912-.088.176v-.176h-5.083v30.878h5.083V17.631l12.745 14.912 12.567-14.56v22.281h4.992V9.386h-4.992zm-35.562 15.438c0 9.3-7.666 16.755-17.025 16.755-9.449 0-17.025-7.543-17.025-16.755 0-9.21 7.667-16.755 17.025-16.755 9.447 0 17.025 7.545 17.025 16.755zm-5.616 0c0-6.226-5.08-11.226-11.409-11.226-6.329 0-11.408 5-11.408 11.226 0 6.228 5.08 11.228 11.408 11.228 6.238 0 11.409-5 11.409-11.228zM197.87 9.386h-6.865l-12.922 12.983h-5.258V9.386h-4.992v30.878h4.992V27.37h5.167l12.925 12.895h6.775l-15.33-15.352L197.87 9.386zm-36.454 21.93a8.814 8.814 0 0 0-2.853-6.492c1.692-1.667 2.853-3.948 2.853-6.49-.016-4.953-4.045-8.958-9.003-8.948h-18.36V40.35h18.36c4.991-.086 9.003-4.121 9.003-9.033zm-22.283-16.928h13.192c2.228 0 4.009 1.752 4.009 3.945 0 2.193-1.78 3.948-4.01 3.948h-13.191v-7.895.002zm13.192 20.962h-13.192v-7.981h13.28c2.229 0 4.012 1.84 4.012 3.948-.091 2.19-1.872 4.033-4.1 4.033zm-24.067-10.526c0 9.3-7.666 16.755-17.024 16.755-9.447 0-17.022-7.543-17.022-16.755 0-9.21 7.663-16.755 17.022-16.755 9.358 0 17.024 7.545 17.024 16.755zm-5.704 0c0-6.226-5.08-11.226-11.408-11.226-6.329 0-11.409 5-11.409 11.226 0 6.228 5.08 11.228 11.409 11.228 6.329 0 11.408-5 11.408-11.228zM86.188 33.51a11.448 11.448 0 0 1-7.218 2.542c-6.328 0-11.408-5-11.408-11.228 0-6.226 5.077-11.226 11.408-11.226a11.259 11.259 0 0 1 7.485 2.804l4.012-3.945A17.12 17.12 0 0 0 78.97 8.07c-9.449 0-17.024 7.545-17.024 16.755 0 9.212 7.575 16.843 17.024 16.843 4.367 0 8.288-1.579 11.23-4.21l-4.012-3.947zM409.285 9.386h-6.77L389.5 22.369h-5.258V9.386h-4.992v30.878h4.992V27.37h5.258l12.834 12.895h6.774l-15.241-15.352 15.418-15.526zm-41.355.088v12.895h-18.272V9.474h-5.08v30.702h5.08v-12.81h18.272v12.81h5.082V9.474h-5.082zm-32.445 30.788v.002l-3.027-6.666h-16.224l-3.03 6.666h-5.525l13.813-30.878h5.705l13.818 30.876h-5.53zm-17.02-11.579h-.002 11.766l-5.883-12.98-5.88 12.98zm-12.57 2.634c0 4.912-4.1 8.947-9.09 9.033h-18.272V9.386h24.333v5h-19.253v7.983h13.191c4.992 0 9.092 4.033 9.092 8.948zm-9.09 4.033c2.228 0 4.011-1.843 4.011-4.033 0-2.107-1.783-3.948-4.012-3.948h-13.191v7.981h13.191zM30.304.526v12.895h-5.08c-6.417 0-11.588 5.089-11.588 11.405 0 6.314 5.17 11.403 11.585 11.403h5.082v12.895c11.585-2.193 20.233-12.193 20.233-24.3 0-12.017-8.645-22.017-20.233-24.298"/><path d="M25.225 40.262c-8.646 0-15.69-6.929-15.69-15.436S16.576 9.388 25.22 9.388h.982V0h-.98C11.32 0 0 11.14 0 24.824c0 13.774 11.32 24.914 25.225 24.914h.98v-9.471h-.98v-.005z"/></g></svg>