<svg xmlns="http://www.w3.org/2000/svg" width="294" height="50" viewBox="0 0 294 50" preserveAspectRatio="xMinYMin meet"><path fill="#FFF" fill-rule="evenodd" d="M284.217 26.359l8.707-9.64h-6.033l-9.775 10.991V16.72h-5.094v22.946h5.094v-5.523l3.658-3.955 6.796 9.478h6.071l-9.424-13.307zm-23.35-.344h-9.898V16.72h-5.14v22.945h5.14v-9.259h9.897v9.26h5.14V16.718h-5.14v9.296zm-30.562-9.61h.001c6.62 0 9.85 3.524 9.85 9.657v13.603h-5.102v-2.83a8.976 8.976 0 0 1-7.261 3.306c-4.246 0-7.988-2.485-7.988-7.173 0-5.086 3.872-7.515 9.095-7.515a18.545 18.545 0 0 1 6.2.953v-.43c0-3.179-1.954-4.914-5.52-4.914a15.239 15.239 0 0 0-6.415 1.438l-1.405-4.22a18.872 18.872 0 0 1 8.545-1.874zM235.2 31.36v-1.296a14.329 14.329 0 0 0-5.14-.922c-3.23 0-5.138 1.352-5.138 3.656 0 2.17 1.908 3.391 4.329 3.391 3.399 0 5.949-1.962 5.949-4.83zm-37.364-10.265l8.284-.001c6.536 0 10.79 3.313 10.814 9.195 0 6.07-4.253 9.375-11.05 9.375H192.68V9.241h22.146v4.822h-16.99v7.031zm6.88 13.82v-.032c4.52 0 6.964-1.085 6.971-4.819 0-2.962-2.16-4.485-6.024-4.485h-7.82v9.337h6.872zm-26.079-10.157v.002c5.056 0 8.92 2.259 8.95 7.259 0 4.733-3.268 7.648-8.537 7.648h-10.69V16.721h5.138v8.036h5.14zm-.298 10.649c2.59 0 4.08-1.18 4.08-3.39 0-2.047-1.528-3.172-4.164-3.172h-4.757v6.562h4.84zm-18.09-7.781c2.15-.78 3.57-2.885 3.52-5.22 0-3.56-3.436-6.162-8.399-6.162a13.609 13.609 0 0 0-9.096 3.288l2.292 3.304a9.604 9.604 0 0 1 6.368-2.342c2.131 0 3.697 1.038 3.697 2.601 0 1.741-1.53 3-3.949 3h-2.763v3.781h2.763c2.933 0 4.543 1.172 4.543 2.868 0 1.913-1.909 3.172-4.244 3.172a10.817 10.817 0 0 1-7.049-2.736l-2.428 3.477a14.307 14.307 0 0 0 9.82 3.515c5.43 0 9.003-3.124 9.003-7.03 0-2.907-1.673-4.648-4.078-5.516zm-38.243-3.406h.001c0-4.462 3.184-7.5 8.835-7.5h11.217v22.977h-5.139V31.96h-3.712l-6.566 7.736h-6.11l7.377-8.375c-3.055-.955-5.903-2.415-5.903-7.102zm14.952-3.212l-5.437-.03c-2.718 0-4.375 1.257-4.375 3.477 0 2.218 1.786 3.515 4.413 3.515h5.4v-6.962zm-23.223 6.703c2.72.783 4.628 2.477 4.637 5.705 0 3.906-3.193 6.25-8.287 6.25H98.447V16.718h11.509c4.46 0 7.393 2.211 7.393 5.735 0 2.915-1.703 4.39-3.614 5.257zm-10.23-6.953h-.002l-.008 5.431h5.261c2.17 0 3.36-1.173 3.36-2.82 0-1.478-.977-2.61-3.267-2.61h-5.345zm5.817 14.736c2.505 0 3.818-1.18 3.818-2.962 0-1.649-1.314-2.781-4.078-2.781h-5.56v5.743h5.82zm-26.773-.22c-5.689 0-9.812-4.867-9.812-10.82s4.123-10.82 9.812-10.82c3.399 0 5.95 1.523 8.323 3.773l3.352-3.946a15.304 15.304 0 0 0-11.636-4.74c-9.004 0-15.334 7.084-15.334 15.734 0 8.82 6.46 15.725 15.126 15.725 5.56 0 8.958-2.085 12.059-5.382l-3.352-3.476c-2.55 2.429-4.888 3.953-8.538 3.953zM.268 49.336H0V50h36.654a15.968 15.968 0 0 0 11.416-4.85 16.72 16.72 0 0 0 4.72-11.69v-.17H16.137C16.06 42.19 8.97 49.363.268 49.335zm36.647-32.288c.12 8.678 7.04 15.643 15.523 15.625h.353c-.438-8.676-7.386-15.513-15.876-15.625zM15.776 32.922C15.658 24.25 8.746 17.284.268 17.297c-.093 0-.177.085-.268.085.467 8.61 7.35 15.39 15.776 15.54zM16.136 0A15.914 15.914 0 0 0 4.717 4.82 16.665 16.665 0 0 0 0 16.5v.187h36.654C36.718 7.812 43.762.644 52.44.625h.352V0H16.136z"/></svg>