<svg xmlns="http://www.w3.org/2000/svg" xmlns:xlink="http://www.w3.org/1999/xlink" width="285" height="50" viewBox="0 0 285 50" preserveAspectRatio="xMinYMin meet"><defs><path id="a" d="M66.12 32.643l.125-.292.001.206c0 9.462-7.523 17.162-16.768 17.162H38.626a3.363 3.363 0 0 1-3.36-3.365 3.363 3.363 0 0 1 3.36-3.364h10.85c.369-.001.737-.022 1.103-.064v-.001c1.28-.055 2.519-.234 3.705-.523 3.064-1.79 5.137-5.196 5.137-9.095a10.618 10.618 0 0 0-2.785-7.198 10.24 10.24 0 0 0-2.652-2.068c-1.545-.884-1.798-2.628-.796-4.216a8.091 8.091 0 0 0 1.175-2.901c.098-.51.15-1.039.15-1.577v-.001c0-3.765-2.609-7.572-6.007-8.582a20.004 20.004 0 0 0-1.181-.035c-.124 0-.247.005-.369.008a3.375 3.375 0 0 0-.195-.008H36.449V31.96c0 9.862-8.175 17.887-18.225 17.887-9.741 0-17.717-7.537-18.202-16.98a20.706 20.706 0 0 1-.02-.035L0 32.584V9.426C0 4.228 4.215 0 9.4 0H16.067a3.357 3.357 0 0 1 3.355 3.365 3.364 3.364 0 0 1-3.355 3.364H9.4c-.728 0-1.445.076-2.141.22a2.689 2.689 0 0 0-.548 1.63v24.005c0 4.203 2.414 7.874 5.97 9.776 1.58.438 3.235.694 4.942.743.197.007.399.015.6.015 6.346 0 11.511-5.006 11.511-11.158V0h17.027-.001c7.016 0 12.873 5.162 14.138 11.963l-.015-.014c.162.941.343 2.526.343 3.398a14.82 14.82 0 0 1-.866 5.02 17.29 17.29 0 0 1 5.759 12.276z"/></defs><g fill="#FFF" fill-rule="evenodd"><path fill-rule="nonzero" d="M281.792 40.053c-.678 0-1.124.163-1.326.859-.105.364-.223.74-.339 1.114l-.192.621c-.074.278-.293.309-.488.309h-1.48c-.164 0-.218-.062-.218-.147v-.03a.085.085 0 0 1 0-.06c.21-.663.425-1.324.646-1.984a1.537 1.537 0 0 1 1.137-1.166 1.813 1.813 0 0 1-1.344-1.984c0-1.3 1.02-2.29 2.681-2.29h3.305c.513 0 .782.217.825.568v6.862c0 .176-.092.235-.293.235h-1.522c-.25 0-.292-.059-.292-.235l.048-2.672h-1.148zm1.148-1.416v-1.722h-1.574a.882.882 0 0 0-.698.203.868.868 0 0 0-.304.656c0 .525.342.857 1.05.857l-.006.006h1.532zm-14.016-3.097c0-.177.073-.236.263-.236h1.576c.238 0 .28.042.28.236v4.467h.074c.77-1.257.898-1.486 1.15-1.867.365-.57.823-1.314 1.471-2.353a.875.875 0 0 1 .917-.484h.72c.543 0 .825.176.825.816v6.615c0 .188-.073.23-.263.23h-1.595c-.219 0-.28 0-.28-.23v-4.377h-.074c-.445.67-.843 1.353-1.27 2.014-.428.658-.899 1.414-1.369 2.116a.864.864 0 0 1-.916.484h-.685c-.677 0-.824-.28-.824-.817V35.54zm-4.293 1.484v5.647c0 .248-.06.29-.34.29h-1.46c-.252 0-.337-.073-.337-.29v-5.647h-2.095c-.22 0-.294-.103-.294-.321v-1.07c0-.26.043-.339.294-.339h6.371c.238 0 .293.074.293.338v1.065c0 .218-.074.32-.293.32l-2.139.007zM251.3 35.54c0-.177.074-.236.263-.236h1.577c.238 0 .28.042.28.236v4.467h.074c.77-1.257.897-1.486 1.149-1.867.365-.57.824-1.314 1.472-2.353a.874.874 0 0 1 .915-.484h.721c.544 0 .824.176.824.816v6.615c0 .188-.072.23-.261.23h-1.596c-.218 0-.28 0-.28-.23v-4.377h-.049c-.446.67-.843 1.353-1.27 2.014-.428.658-.898 1.414-1.368 2.116a.865.865 0 0 1-.917.484h-.721c-.677 0-.824-.28-.824-.817l.011-6.614zm-2.923 3.225a1.812 1.812 0 0 1 1.22 1.813c0 1.415-1.22 2.365-2.833 2.365h-3.408c-.69 0-.886-.249-.886-.744V36.11c0-.495.147-.816.824-.816h3.44c1.386 0 2.523.515 2.523 1.941a1.68 1.68 0 0 1-.868 1.464l-.012.066zm-3.806-.605h1.783a.615.615 0 0 0 .482-.169.6.6 0 0 0 .184-.472.608.608 0 0 0-.612-.604h-1.831l-.006 1.245zm0 1.402v1.723h1.832a.853.853 0 0 0 .678-.22.834.834 0 0 0 .268-.656.795.795 0 0 0-.26-.641.82.82 0 0 0-.669-.206h-1.85zm-9.762-2.188c-.24.09-.313.044-.368-.084l-.342-.98c-.104-.235-.116-.32.116-.411a6.86 6.86 0 0 1 2.835-.605c1.832 0 2.993.659 2.993 2.056a2 2 0 0 1-1.124 1.68v.061c.795.212 1.349.92 1.356 1.735 0 1.65-1.594 2.456-3.482 2.456a7.968 7.968 0 0 1-2.963-.514c-.219-.103-.195-.218-.147-.364l.385-1.064c.062-.144.135-.193.398-.115a8.387 8.387 0 0 0 2.107.351c1.149 0 1.534-.466 1.534-.95 0-.483-.49-.785-1.698-.804-.368 0-.563-.132-.563-.465v-.44c0-.333.22-.436.574-.455.971-.06 1.418-.32 1.418-.774 0-.453-.519-.64-1.222-.64a7.6 7.6 0 0 0-1.796.32l-.011.006zm-6.542 5.92c-2.658 0-3.433-1.065-3.433-2.419 0-1.504 1.002-2.612 3.108-2.612h1.62v-.235c0-.538-.19-1.035-1.283-1.035-.7.017-1.397.11-2.078.28-.25.06-.323 0-.365-.188l-.238-1.022c-.062-.206 0-.278.147-.332a8.772 8.772 0 0 1 2.845-.437c2.126 0 3.11.92 3.11 2.685v4.233a.525.525 0 0 1-.311.567l.006-.029a8.055 8.055 0 0 1-3.128.544zm.134-3.61c-.544 0-1.345.103-1.345 1.034 0 .672.501.919 1.283.919a4.31 4.31 0 0 0 1.22-.188l-.005-1.765H228.4zm-10.54 6.434h-1.532c-.22 0-.313-.042-.313-.247v-9.518a.435.435 0 0 1 .294-.453 8.475 8.475 0 0 1 3.263-.606c2.785 0 3.731 1.766 3.731 3.985 0 2.22-1.093 3.974-3.464 3.974a7.402 7.402 0 0 1-1.667-.177v2.795c0 .217-.043.247-.312.247zm.312-8.815v3.985a4.75 4.75 0 0 0 1.22.162c.99 0 1.668-.604 1.668-2.188s-.665-2.116-1.772-2.116l.008-.006c-.38.006-.758.06-1.124.163zm-15.38-1.763c0-.177.074-.236.263-.236h1.576c.238 0 .281.042.281.236v4.467h.074c.77-1.257.897-1.486 1.148-1.867.366-.57.824-1.314 1.472-2.353a.875.875 0 0 1 .917-.484h.72c.543 0 .826.176.826.816v6.615c0 .188-.074.23-.263.23h-1.594c-.22 0-.282 0-.282-.23v-4.377h-.074c-.445.67-.842 1.353-1.27 2.014-.428.658-.898 1.414-1.368 2.116a.864.864 0 0 1-.917.484h-.69c-.678 0-.825-.28-.825-.817l.006-6.614zm-14.696 0c0-.177.073-.236.263-.236h1.574c.24 0 .282.042.282.236v4.467h.074c.77-1.257.898-1.486 1.147-1.867.368-.57.826-1.314 1.474-2.353a.874.874 0 0 1 .915-.484h.721c.544 0 .824.176.824.816v6.615c0 .188-.073.23-.263.23h-1.593c-.22 0-.281 0-.281-.23v-4.377h-.074c-.446.67-.843 1.353-1.27 2.014-.428.658-.898 1.414-1.368 2.116a.864.864 0 0 1-.917.484h-.69c-.677 0-.824-.28-.824-.817l.006-6.614zm-8.82 0c0-.177.074-.236.264-.236h1.576c.238 0 .28.042.28.236v4.467h.074c.77-1.257.898-1.486 1.147-1.867.368-.57.826-1.314 1.474-2.353a.874.874 0 0 1 .915-.484h.721c.544 0 .825.176.825.816v6.615c0 .188-.074.23-.262.23h-1.595c-.22 0-.28 0-.28-.23v-4.377h-.074c-.445.67-.844 1.353-1.271 2.014-.428.658-.898 1.414-1.368 2.116a.864.864 0 0 1-.917.484h-.69c-.677 0-.824-.28-.824-.817l.006-6.614zm-3.22 5.71l.69.059c.415 0 .489.28.47.606l-.165 3.095a.197.197 0 0 1-.22.218h-1.314c-.176 0-.22-.074-.238-.235l-.073-2.015h-5.358c-.69 0-.867-.38-.867-.918v-6.506c0-.188.105-.26.312-.26h1.534c.261 0 .292.043.292.26v5.708h2.774v-5.708c0-.188.085-.26.311-.26h1.546c.238 0 .293.043.293.26l.012 5.696zm-14.023 1.712h-1.606c-.178 0-.263 0-.263-.23v-7.2c0-.206.085-.235.263-.235h1.606c.19 0 .263 0 .263.235v2.539h.696c.513 0 .96-.162 1.222-.98l.519-1.607c.02-.12.13-.203.251-.188h1.637c.19 0 .19.163.177.248l-.543 1.91a1.818 1.818 0 0 1-1.045 1.343c.664.143 1.17.677 1.271 1.341l.75 2.528c0 .084.043.26-.189.26h-1.698a.23.23 0 0 1-.25-.176l-.696-2.249a1.143 1.143 0 0 0-1.222-.833h-.844v3.022c0 .206-.073.23-.262.23l-.037.042zm-5.705 1.244a2.439 2.439 0 0 1-2.656 1.868 5.063 5.063 0 0 1-1.46-.206c-.238-.06-.294-.114-.238-.32l.25-1.154c.061-.235.116-.218.323-.176a3.5 3.5 0 0 0 .721.073c.697 0 1.05-.163 1.271-.847l.269-.785h-.428c-.44 0-.61-.103-.77-.605l-2.241-6.482c-.074-.206.042-.278.19-.278h1.728c.293 0 .366.043.428.26l.842 2.95.696 2.54h.093l.75-2.582.886-2.878c.062-.218.116-.29.416-.29h1.752c.166 0 .22.085.166.235l-2.982 8.714-.006-.037zm-11.953 1.912h-1.534c-.22 0-.312-.042-.312-.247v-9.518a.435.435 0 0 1 .294-.453 8.478 8.478 0 0 1 3.263-.606c2.784 0 3.731 1.766 3.731 3.985 0 2.22-1.094 3.974-3.464 3.974a7.385 7.385 0 0 1-1.667-.177v2.795c0 .217-.043.247-.311.247zm.31-8.815v3.985c.398.107.81.161 1.222.162.988 0 1.667-.604 1.667-2.188s-.667-2.116-1.772-2.116l.006-.006c-.379.007-.756.06-1.123.163zm-6.45-.28v5.648c0 .248-.061.29-.342.29h-1.46c-.25 0-.337-.073-.337-.29v-5.647h-2.095c-.22 0-.293-.103-.293-.321v-1.07c0-.26.044-.339.293-.339h6.372c.238 0 .294.074.294.338v1.065c0 .218-.074.32-.294.32l-2.138.007zm-6.298 4.046c.25-.085.312-.085.385.132l.409 1.095c.092.188.103.29-.103.411a5.934 5.934 0 0 1-2.733.603c-2.302 0-3.536-1.34-3.536-3.97 0-2.497 1.418-4.044 3.666-4.044a5.545 5.545 0 0 1 2.334.494c.25.114.261.176.165.411l-.416 1.124c-.091.22-.19.206-.459.134a4.933 4.933 0 0 0-1.46-.26c-1.166 0-1.606.99-1.606 2.147 0 1.154.353 2.073 1.65 2.073a5.037 5.037 0 0 0 1.697-.338l.007-.012zm-12.594 1.887h-1.478c-.22 0-.323-.074-.323-.291v-7.093c0-.206.103-.278.323-.278h1.478c.282 0 .338.043.338.28v2.49h2.753v-2.492c0-.206.092-.278.323-.278h1.48c.28 0 .323.043.323.28v7.09c0 .248-.043.29-.324.29h-1.472c-.238 0-.323-.073-.323-.29v-2.908h-2.756v2.932c0 .249-.06.291-.335.291l-.007-.023zm-10.62-3.647c0-2.528 1.399-4.015 3.721-4.015 2.442 0 3.732 1.506 3.732 3.984 0 2.48-1.223 4.028-3.764 4.028l-.024.006c-2.553 0-3.665-1.475-3.665-4.003zm2.217-.037c0 1.457.427 2.23 1.49 2.23 1.062 0 1.49-.948 1.49-2.156 0-1.21-.367-2.233-1.471-2.233l.023-.03c-1.033 0-1.532.86-1.532 2.19zm-9.167 3.69h-1.606c-.176 0-.264 0-.264-.23v-7.2c0-.206.088-.235.264-.235h1.606c.19 0 .264 0 .264.235v2.539h.69c.518 0 .959-.162 1.222-.98l.518-1.607c.02-.12.13-.203.25-.188h1.638c.19 0 .19.163.176.248l-.543 1.91a1.82 1.82 0 0 1-1.043 1.343 1.627 1.627 0 0 1 1.269 1.341l.752 2.528c0 .084.043.26-.19.26h-1.698a.232.232 0 0 1-.25-.176l-.697-2.249a1.142 1.142 0 0 0-1.221-.833h-.867v3.022c0 .206-.073.23-.264.23l-.006.042zm-4.683-3.066h-3.776c.043 1.24.783 1.608 1.772 1.608a4.704 4.704 0 0 0 1.698-.363c.238-.073.294-.06.367.103l.47 1.052c.074.175 0 .26-.135.351a5.167 5.167 0 0 1-2.607.659c-2.567 0-3.794-1.21-3.794-3.955 0-2.57 1.43-4.057 3.664-4.057 2.236 0 3.453 1.209 3.453 3.302l-.006-.012c0 1.003-.416 1.312-1.106 1.312zm-.972-1.343c0-.859-.282-1.506-1.325-1.506a1.482 1.482 0 0 0-1.43 1.506h2.755zm-12.01 7.565h-1.526c-.22 0-.312-.042-.312-.247v-9.518a.435.435 0 0 1 .293-.453 8.484 8.484 0 0 1 3.263-.606c2.785 0 3.732 1.766 3.732 3.985 0 2.22-1.093 3.974-3.463 3.974a7.406 7.406 0 0 1-1.669-.177l-.006 2.795c0 .217-.042.247-.311.247zm.312-8.815v3.985c.398.106.81.162 1.221.162.989 0 1.667-.604 1.667-2.188s-.665-2.116-1.771-2.116l.006-.006c-.38.006-.757.06-1.123.163zM275.097 24.99h-2.774c-.305 0-.458-.048-.458-.406V12.174c0-.353.153-.4.458-.4h2.774c.33 0 .458.048.458.398v4.378h1.221c.892 0 1.656-.278 2.114-1.687l.892-2.769a.392.392 0 0 1 .435-.326h2.822c.33 0 .33.28.305.43l-.94 3.293a3.152 3.152 0 0 1-1.833 2.316v.049c1.472.375 1.833 1.209 2.187 2.316l1.294 4.353c0 .151.08.453-.329.453h-2.926a.404.404 0 0 1-.435-.302l-1.22-3.876a1.973 1.973 0 0 0-2.14-1.432h-1.447v5.211c0 .352-.129.406-.458.406v.006zm-14.826-.016h-2.541c-.38 0-.563-.126-.563-.5V12.241c0-.351.178-.478.563-.478h2.541c.482 0 .611.074.611.478v4.305h4.753v-4.303c0-.352.152-.478.556-.478h2.542c.482 0 .561.073.561.478v12.23c0 .43-.072.502-.561.502h-2.542c-.404 0-.556-.126-.556-.5v-5.063h-4.753v5.06c0 .43-.104.502-.61.502v.001zm-13.345.643c-4.576 0-5.926-1.814-5.926-4.233 0-2.592 1.729-4.504 5.363-4.504h2.799v-.405c0-.932-.33-1.814-2.212-1.814a16.67 16.67 0 0 0-3.586.478c-.434.103-.556 0-.612-.327l-.427-1.688c-.103-.35 0-.476.257-.603a15.17 15.17 0 0 1 4.888-.757c3.665 0 5.363 1.585 5.363 4.632v7.304a.91.91 0 0 1-.53.98l.017.006a13.91 13.91 0 0 1-5.394.93zm.187-6.277c-.94 0-2.316.177-2.316 1.815 0 1.154.863 1.584 2.211 1.584a7.32 7.32 0 0 0 2.107-.327l.006-3.072h-2.008zm-22.28-10.276v.001c0-1.156.41-1.712 1.624-1.712h9.917c.379 0 .458.127.458.558v2.234c0 .351-.104.479-.458.479h-7.644v3.118h3.667c6.048 0 6.457 3.98 6.457 5.69 0 3.2-2.67 5.54-6.109 5.54h-6.384c-1.223 0-1.528-.43-1.528-1.513V9.065zm3.896 7.872v4.68h3.665a2.311 2.311 0 0 0 1.776-.663 2.26 2.26 0 0 0 .667-1.757 2.18 2.18 0 0 0-.692-1.698 2.24 2.24 0 0 0-1.751-.593v.03h-3.665zm-25.423-5.26v.002h2.7c.403 0 .482.074.482.406v7.706h.13l.86-1.412c.6-.99.809-1.333 1.124-1.808l1.252-1.996 1.29-2.056c.29-.592.93-.928 1.582-.828h1.222c.942 0 1.424.302 1.424 1.409v11.397c0 .327-.128.404-.458.404h-2.743c-.38 0-.484-.048-.484-.404v-7.576h-.127c-.394.598-.767 1.204-1.139 1.804-.347.562-.69 1.12-1.049 1.666-.263.403-.536.827-.815 1.259-.503.78-1.026 1.59-1.549 2.37-.28.592-.922.93-1.576.827h-1.222c-1.172 0-1.424-.478-1.424-1.409l.062-11.354c0-.303.128-.406.458-.406zm1.008-4.152c-.073-.104-.214-.301.085-.55l.995-.938c.29-.22.363-.153.532.006.026.025.052.05.08.073 1.069 1.083 2.162 1.71 3.152 1.71.812 0 1.624-.223 3.23-1.758.316-.265.397-.206.585-.07l.026.021.948.816c.313.287.213.439.119.581a.209.209 0 0 0-.015.024c-1.576 2.061-3.232 3.023-5.034 3.023-2.01 0-3.666-1.409-4.704-2.92l.006-.012a.468.468 0 0 1-.005-.006zm-17.646 4.65c0-.303.127-.4.458-.4h2.725c.403 0 .482.08.482.4v7.709h.13c1.318-2.165 1.55-2.57 1.984-3.224.611-.98 1.424-2.266 2.541-4.05.284-.59.925-.926 1.577-.83h1.222c.94 0 1.424.304 1.424 1.41v11.397c0 .328-.128.406-.459.406h-2.748c-.38 0-.484-.049-.484-.406v-7.575h-.128c-.763 1.162-1.448 2.34-2.187 3.47-.739 1.131-1.551 2.418-2.365 3.628-.28.593-.923.93-1.576.828h-1.221c-1.174 0-1.424-.478-1.424-1.409l.049-11.354zm-11.515 12.807h-2.774c-.305 0-.458-.048-.458-.406V12.165c0-.353.153-.4.458-.4h2.774c.33 0 .458.048.458.398v4.378h1.223c.891 0 1.655-.28 2.108-1.687l.837-2.757a.39.39 0 0 1 .434-.326h2.822c.33 0 .33.279.305.429l-.94 3.294a3.15 3.15 0 0 1-1.833 2.316v.049c1.472.375 1.833 1.21 2.187 2.316l1.296 4.353c0 .151.08.454-.33.454h-2.927a.401.401 0 0 1-.434-.303l-1.222-3.875a1.973 1.973 0 0 0-2.139-1.433h-1.447v5.211c0 .352-.13.406-.458.406l.06-.006zm-6.843-3.258c.434-.152.532-.152.66.229l.715 1.887c.153.326.176.5-.178.706a10.235 10.235 0 0 1-4.704 1.035c-3.965 0-6.11-2.316-6.11-6.844 0-4.306 2.444-6.97 6.33-6.97a9.573 9.573 0 0 1 4.02.857c.434.2.459.302.28.707l-.713 1.935c-.153.381-.33.35-.79.23a8.435 8.435 0 0 0-2.516-.455c-2.01 0-2.773 1.712-2.773 3.702 0 1.988.61 3.573 2.847 3.573a8.7 8.7 0 0 0 2.926-.606l.006.014zm-24.313 1.795v.002-11.277c0-.351.176-.478.561-.478h2.542c.483 0 .61.072.61.478v3.625h3.117c4.986 0 5.413 3.2 5.413 4.53 0 2.594-2.187 4.552-5.01 4.552l-5.632.024c-1.326 0-1.601-.556-1.601-1.456zm3.687-4.838v3.423h2.975c.485.047.965-.118 1.32-.453a1.65 1.65 0 0 0 .514-1.282c.02-.468-.162-.919-.503-1.243a1.65 1.65 0 0 0-1.275-.445h-3.03zm-8.147-6.91c1.22 0 1.528.478 1.528 1.535v11.198c0 .405-.13.478-.613.478h-2.565c-.458 0-.611-.128-.611-.503v-9.74h-3.08l-.073 1.307c-.354 5.864-.789 8.253-4.754 9.461-.458.152-.61 0-.763-.301l-.684-1.712c-.152-.43-.152-.556.281-.78 1.833-.827 2.162-1.608 2.493-6.717l.176-2.746c.052-1.104.459-1.486 1.577-1.486l7.088.006zm-20.479 13.847c-4.575 0-5.926-1.814-5.926-4.233 0-2.592 1.729-4.504 5.365-4.504h2.797v-.405c0-.932-.33-1.814-2.212-1.814-1.21.029-2.411.189-3.585.478-.435.103-.563 0-.611-.327l-.44-1.688c-.104-.35 0-.476.256-.603a15.167 15.167 0 0 1 4.888-.757c3.665 0 5.365 1.585 5.365 4.632v7.304a.912.912 0 0 1-.532.98l.024.006a13.9 13.9 0 0 1-5.389.93zm.176-6.277h-.001c-.94 0-2.314.177-2.314 1.815 0 1.154.867 1.584 2.21 1.584a7.328 7.328 0 0 0 2.106-.327l.008-3.072h-2.009zm-17.618 11.056l-.002-.001H98.97c-.38 0-.532-.072-.532-.43V13.55a.75.75 0 0 1 .507-.78c1.79-.7 3.7-1.04 5.62-1.002 4.809 0 6.434 3.023 6.434 6.867 0 3.846-1.882 6.846-5.975 6.846-.966.009-1.93-.093-2.872-.303l-.006 4.788c0 .381-.08.431-.53.431zm.517-15.213v6.867a8.222 8.222 0 0 0 2.106.28c1.706 0 2.873-1.034 2.873-3.774 0-2.738-1.143-3.628-3.055-3.628l.006-.025a7.788 7.788 0 0 0-1.93.28zm-5.395-7.831c.306 0 .41.176.306.43L91.834 22.1c-.918 2.54-2.341 3.397-4.962 3.397a8.185 8.185 0 0 1-2.444-.35c-.434-.126-.53-.2-.459-.556l.412-2.087c.077-.375.2-.326.61-.278.462.068.93.103 1.398.103 1.143 0 1.68-.126 2.084-1.257l.409-1.13h-.661c-.811 0-1.068-.177-1.422-1.083l-4.48-11.02c-.15-.327.05-.479.356-.479h2.95c.611 0 .715.103.837.502l1.882 5.11 1.425 4.153h.176l1.35-4.353 1.602-4.88c.151-.429.255-.526.787-.526l3.054-.013z"/><use xlink:href="#a"/></g></svg>