<svg xmlns="http://www.w3.org/2000/svg" width="137" height="49" viewBox="0 0 137 49" preserveAspectRatio="xMinYMin meet"><path fill="#FFF" d="M109.651 48.574V9.72h25.237l-2.217 6.514h-15.312v8.603h6.24c5.035 0 7.648 1.206 9.454 2.75a11.45 11.45 0 0 1 3.831 9.206 11.169 11.169 0 0 1-4.565 9.618c-2.423 1.676-4.963 2.147-10.13 2.147l-12.538.015zm7.708-6.515h5.872a5.12 5.12 0 0 0 4.492-1.75 5.624 5.624 0 0 0 1.146-3.691 5.121 5.121 0 0 0-2.012-4.412 5.865 5.865 0 0 0-3.685-.941h-5.813v10.794zm-30.052 6.515V16.22H76.091v-6.5h31.138l-2.217 6.514h-9.924v32.353l-7.781-.014zm-18.66-20.677v.132a13.603 13.603 0 0 1 3.627 2.089 9.169 9.169 0 0 1 3.288 7.603c0 5.308-2.818 9.147-7.443 10.294a19.743 19.743 0 0 1-5.637.544H48.52V9.72h12.42c1.973-.073 3.947.11 5.873.544 4.492 1.206 7.443 4.309 7.443 9.206a8.61 8.61 0 0 1-2.481 6.323 9.41 9.41 0 0 1-3.054 2.074l-.073.03zm-12.42-2.618h4.405c.9.062 1.806-.007 2.687-.205a4.25 4.25 0 0 0 2.936-4.412 3.926 3.926 0 0 0-2.936-4.31 10.67 10.67 0 0 0-2.937-.264h-4.154v9.191zm0 6.721v10.191h5.374c1.48.17 2.97-.241 4.155-1.147a5.078 5.078 0 0 0 1.614-4 5.536 5.536 0 0 0-1.027-3.323c-1.145-1.471-2.555-1.75-4.962-1.75L56.228 32zM39.668 6.485H7.062l2.35-6.47h32.606l-2.35 6.47zm-1.174 3.236H5.873l-2.35 6.47H36.13l2.363-6.47zm-3.523 9.676H2.349L0 25.867h32.577l2.393-6.47z"/></svg>