<svg xmlns="http://www.w3.org/2000/svg" width="169" height="50" viewBox="0 0 169 50" preserveAspectRatio="xMinYMin meet"><path fill="#FFF" d="M168.887 32.03s-1.618-3.459-1.995-4.21c-.451-.865-.865-1.504-1.769-1.692v-.038c.602-.113 1.092-.488 1.619-1.616.489-1.09.64-1.354.94-1.58.302-.262.678-.15.678-.15l.15-2.03c-.413-.037-.903-.075-1.392-.037-.79.037-1.204.263-1.618.676-.302.301-.527.752-.79 1.279-.264.563-.49 1.015-.791 1.616-.301.602-.414.865-1.205.865h-.49v-4.324h-2.973V32.03h2.974v-4.586h.414c.828 0 .979.225 1.43 1.09.527 1.052 1.543 3.496 1.543 3.496h3.275zm-12.157 0V20.79h-2.974v4.248h-3.35v-4.249h-2.973V32.03h2.973v-4.586h3.35v4.586h2.974zm-10.803-1.09l-1.882 1.39c-.226-.074-.828-.488-1.129-.939-.49.3-.64.414-1.016.564-.64.225-1.43.376-2.183.376-2.033 0-3.689-1.24-3.689-3.459 0-2.406 1.543-3.834 4.517-3.834.564 0 1.054.075 1.505.188v-.564c0-1.467-.226-1.767-2.183-1.767-.64 0-1.505.113-2.333.225l-.452-2.18c1.204-.3 2.484-.451 3.802-.451 1.844 0 2.86.376 3.462 1.203.414.564.603 1.165.603 2.82v3.044c0 1.504.188 2.18.978 3.384zm-3.764-1.278c-.113-.376-.15-.94-.15-1.805v-.827c-.15-.075-.527-.113-.866-.113-1.468 0-2.22.376-2.22 1.504 0 1.09.602 1.504 1.655 1.504.49 0 .941-.038 1.581-.263zm-7.302-2.52c0 3.196-1.957 5.189-5.683 5.151-1.619 0-3.237-.263-4.856-.864V16.617c1.054-.301 3.237-.64 4.668-.64 1.43 0 3.274.15 4.554.452l-.075 2.33c-1.13-.15-2.41-.188-3.426-.188-1.053 0-2.032.076-2.597.15v4.023c.904-.225 1.506-.3 2.334-.3 3.463 0 5.081 1.917 5.081 4.699zm-3.161.226c0-1.616-.79-2.33-2.372-2.406a7.594 7.594 0 00-1.882.15v4.512c.79.226 1.28.226 1.882.226 1.543 0 2.372-.978 2.372-2.482zm-13.4-2.857a1.886 1.886 0 00-1.882 1.88c0 1.053.828 1.88 1.882 1.88a1.863 1.863 0 001.882-1.88c0-1.015-.828-1.88-1.882-1.88zm-5.044 6.429l-1.92 1.39c-.263-.074-.827-.488-1.128-.939-.49.3-.64.414-1.017.564-.64.225-1.43.376-2.183.376-2.032 0-3.688-1.24-3.688-3.459 0-2.406 1.543-3.834 4.516-3.834.565 0 1.054.075 1.506.188v-.564c0-1.467-.226-1.767-2.183-1.767-.64 0-1.506.113-2.334.225l-.452-2.18c1.205-.3 2.485-.451 3.802-.451 1.844 0 2.86.376 3.463 1.203.452.564.64 1.165.64 2.82v3.044c0 1.504.188 2.18.978 3.384zm-3.764-1.278c-.112-.376-.15-.94-.15-1.805v-.827c-.15-.075-.527-.113-.866-.113-1.468 0-2.22.376-2.22 1.504 0 1.09.602 1.504 1.656 1.504.489 0 .94-.038 1.58-.263zm-14.039 6.052l-2.936-.037v-4.023c-.376.226-1.091.564-2.371.564-2.71 0-4.366-2.03-4.366-5.827 0-4.06 1.844-5.902 4.855-5.902.753 0 1.28.075 1.882.376v-4.812h2.936v4.85c.602-.301 1.13-.377 1.882-.377 3.011 0 4.855 1.767 4.855 5.865 0 3.797-1.844 5.865-4.366 5.865-1.242 0-1.995-.339-2.371-.564v4.022zm3.689-9.36c0-2.256-.678-3.384-2.033-3.384-.564 0-.94 0-1.656.338v6.203c.64.188.941.226 1.506.226 1.355 0 2.183-1.316 2.183-3.384zm-10.351.075c0 2.067.64 3.308 2.183 3.308.565 0 .866 0 1.506-.226v-6.203c-.716-.338-1.092-.338-1.657-.338-1.355 0-2.032 1.203-2.032 3.459zm-13.4-5.752h3.011v3.684c.753-.188 1.167-.263 1.882-.263 2.748 0 4.254 1.504 4.254 3.91 0 2.669-1.694 4.285-4.818 4.285-1.393 0-2.936-.263-4.329-.864V20.677zm6.06 7.48c0-1.09-.451-1.728-1.806-1.766-.452 0-.527.038-1.28.188v3.27c.602.189.79.189 1.28.189 1.43 0 1.806-.752 1.806-1.88zm-8.393 3.873V21.203c-1.619-.489-2.86-.677-4.517-.677-1.619 0-2.86.226-4.48.677v5.564c0 1.504-.037 1.955-.187 2.444-.15.413-.377.94-.979 1.353l.79 1.73c2.372-.677 3.275-1.692 3.275-5v-4.099c.79-.112.941-.15 1.581-.15s.753.038 1.543.15v8.835h2.974zm-14.491 0s-.414-1.353-.866-3.083h-5.646a301.12 301.12 0 01-.979 3.083h-3.274l5.457-15.714c.603-.188.866-.301 1.657-.301.715 0 1.392.113 1.92.3l5.156 15.715h-3.425zm-5.722-5.714l3.99-.038s-.866-3.195-1.016-3.646c-.339-1.166-.866-3.271-.866-3.271h-.075s-.565 2.03-.941 3.308c-.15.489-1.092 3.647-1.092 3.647zM.49 43.33h31.16c.265 0 .491.264.491.527v5.652a.5.5 0 01-.49.49H.49A.5.5 0 010 49.51v-5.652c0-.301.226-.527.49-.527zM16.07 0c3.396 0 4.49 2.45 5.395 4.898.377 1.018 9.243 25.245 9.507 25.999a.483.483 0 01-.302.64c-.302.113-4.904 1.922-5.168 1.997-.264.113-.529-.037-.642-.301-.075-.264-2-5.539-2.225-6.142H9.507c-.227.603-2.15 5.878-2.226 6.142-.076.226-.377.414-.642.301-.264-.113-4.904-1.884-5.168-1.997a.536.536 0 01-.302-.64c.34-.905 9.054-24.755 9.507-25.999.905-2.411 2-4.898 5.395-4.898zm0 7.913l-4.45 13.3h8.94l-4.452-13.3h-.037z"/></svg>