<svg xmlns="http://www.w3.org/2000/svg" width="246" height="48" viewBox="0 0 246 48" preserveAspectRatio="xMinYMin meet"><path fill="#FFF" d="M244.796 22.62a10.614 10.614 0 00-12-6.688l-10.732 1.93a3.274 3.274 0 001.156 6.444l10.732-1.93a4.112 4.112 0 014.756 2.65 4.114 4.114 0 01-1.658 5.184l-15.754 10.2a4.612 4.612 0 01-4.772.184 4.6 4.6 0 01-2.448-4.098V3.418a3.276 3.276 0 00-3.28-3.274 3.274 3.274 0 00-3.274 3.274v33.078a11.072 11.072 0 005.874 9.858 11.236 11.236 0 005.374 1.386 11.17 11.17 0 006.088-1.828l15.754-10.2a10.614 10.614 0 004.184-13.094m-55.414-6.688l-10.732 1.93a3.274 3.274 0 001.156 6.444l10.732-1.93a4.114 4.114 0 014.758 2.652c.832 1.9.12 4.121-1.66 5.184l-15.752 10.2a4.612 4.612 0 01-4.772.184 4.6 4.6 0 01-2.44-4.104V11.372a11.068 11.068 0 00-5.862-9.858 11.066 11.066 0 00-11.46.44L113.732 27.62a10.616 10.616 0 00-4.19 13.088 10.618 10.618 0 0012 6.688l34.6-6.22a3.274 3.274 0 00-1.156-6.444l-34.6 6.22a4.112 4.112 0 01-4.756-2.65 4.116 4.116 0 011.664-5.186L156.91 7.448a4.61 4.61 0 014.772-.184 4.612 4.612 0 012.44 4.106v25.126a11.07 11.07 0 005.862 9.858 11.232 11.232 0 005.372 1.386 11.17 11.17 0 006.088-1.828l15.752-10.2a10.6 10.6 0 004.2-13.092 10.62 10.62 0 00-12-6.688M51.82 40.464l5.5-5.5c.231-.189.367-.47.372-.768a.772.772 0 00-.812-.8c-.277 0-.54.12-.72.33l-5.376 5.376c-.26.298-.636.469-1.032.47h-1.106v-5.164a.892.892 0 00-.95-1.012.896.896 0 00-.95 1.012v12.45a.894.894 0 00.95 1.012.892.892 0 00.95-1.012v-5.512h.978c.396.001.771.172 1.032.47l5.708 5.708a1 1 0 00.754.346.8.8 0 00.852-.838 1.062 1.062 0 00-.4-.8l-5.76-5.762.01-.006zm-9.764-7.05a.892.892 0 00-.95 1.012v5.164H33.2v-5.164a.892.892 0 00-.95-1.012.896.896 0 00-.95 1.012v12.45a.894.894 0 00.95 1.012.892.892 0 00.95-1.012v-5.53h7.908v5.512a.892.892 0 00.95 1.012.89.89 0 00.944-1.012v-12.45a.892.892 0 00-.944-1.012l-.002.018zm-19.492-.144l.002.004c3.288 0 5.27 1.582 5.27 5v7.4a.824.824 0 01-.4.82 10.2 10.2 0 01-5.53 1.504c-3.266 0-5.33-1.804-5.33-4.544 0-2.336 1.826-4.4 5.414-4.4 1.346-.003 2.685.2 3.97.6v-1.326c0-2.218-1.134-3.218-3.588-3.218a8.766 8.766 0 00-3.17.664 1.982 1.982 0 01-.766.212.872.872 0 01-.856-.868c-.014-.474.254-.748.842-1 1.312-.55 2.72-.839 4.142-.848zm3.402 11.97v-3.868c-1.227-.4-2.509-.61-3.8-.622-2.528 0-3.704 1.17-3.704 2.728 0 1.74 1.34 2.74 3.704 2.74a8.446 8.446 0 003.8-.978zm-17-8.8h-.018a5.116 5.116 0 015.674 5.568 5.2 5.2 0 01-5.674 5.736h-5.85a1.526 1.526 0 01-1.686-1.686V30.382a1.526 1.526 0 011.686-1.686h9.6a.938.938 0 011.054.928.938.938 0 01-1.054.946H3.35v5.87h5.616zm-.26 9.436l.01.008a3.444 3.444 0 003.962-3.854c0-2.378-1.162-3.754-3.962-3.754H3.35v7.6h5.356zM95.43 13.984l-.01.01a1.276 1.276 0 011.4 1.328c-.02.463-.158.914-.4 1.31a5.752 5.752 0 01-5.286 2.812 5.852 5.852 0 01-6.2-5.426 24.662 24.662 0 010-3.882 5.84 5.84 0 016.2-5.42 5.75 5.75 0 015.28 2.8c.247.394.39.845.416 1.31a1.278 1.278 0 01-1.4 1.33 1.45 1.45 0 01-1.262-.82 3.154 3.154 0 00-3-1.846 3.17 3.17 0 00-3.4 3.048 17.89 17.89 0 000 3.07 3.162 3.162 0 003.4 3.042 3.172 3.172 0 003-1.834c.23-.493.718-.815 1.262-.832zM75.998 4.708a5.744 5.744 0 016.146 5.4c.1 1.308.1 2.622 0 3.93a5.678 5.678 0 01-5.898 5.4 8.456 8.456 0 01-3.432-.738v3.82a1.372 1.372 0 01-1.444 1.518 1.366 1.366 0 01-1.43-1.518V7.872c0-1.102.074-1.41.732-1.8a11.072 11.072 0 015.326-1.364zm3.284 8.9v.006a18 18 0 000-3.07 3.12 3.12 0 00-3.378-3.062 6.106 6.106 0 00-3.09.8v7.582c.942.533 2.008.81 3.09.8a3.122 3.122 0 003.378-3.056zM60.82 4.7l.004-.002c3.6 0 5.662 1.64 5.662 5.22v6.958c.047.433-.163.853-.538 1.074a10.648 10.648 0 01-5.634 1.476c-3.504 0-5.486-1.968-5.486-4.586 0-2.264 1.766-4.326 5.386-4.326 1.183 0 2.36.165 3.498.49V9.856c0-1.706-.908-2.538-3.108-2.538-.89.011-1.77.182-2.6.504a3.14 3.14 0 01-1.06.274 1.212 1.212 0 01-1.216-1.234c-.006-.604.328-1.058 1.108-1.376A10.888 10.888 0 0160.82 4.7zm2.892 11.556l.002-3.142a10.458 10.458 0 00-3.156-.504c-2 0-2.988.974-2.988 2.23 0 1.388 1.154 2.188 3 2.188a7.042 7.042 0 003.142-.772zM41.22 19.194l.014-.012a2.012 2.012 0 01-2.236-2.236V2.372A2.012 2.012 0 0141.234.136h9.138a1.362 1.362 0 011.518 1.37 1.37 1.37 0 01-1.518 1.4H41.95v4.648h5a5.272 5.272 0 015.924 5.64 5.434 5.434 0 01-5.924 6h-5.73zm.726-9.038l.004.002v6.258h4.696a2.84 2.84 0 003.218-3.17 2.8 2.8 0 00-3.218-3.09h-4.7zM30.932 16.84v-.008c.352.302.561.737.578 1.2a1.23 1.23 0 01-1.282 1.27 1.57 1.57 0 01-1.186-.584l-5.096-5.096a1.228 1.228 0 00-.912-.4h-.816v4.564a1.37 1.37 0 01-1.438 1.524 1.368 1.368 0 01-1.43-1.524V6.346a1.362 1.362 0 011.426-1.518 1.364 1.364 0 011.438 1.518v4.212h.974c.346.001.677-.144.91-.4l4.776-4.766c.276-.343.69-.546 1.13-.556a1.172 1.172 0 011.222 1.2 1.588 1.588 0 01-.55 1.144l-4.7 4.7 4.956 4.96zM17.15 17.916a1.386 1.386 0 01-1.442 1.382 1.466 1.466 0 01-1.458-1.162l-1.74-4.934H4.62l-1.726 4.92a1.478 1.478 0 01-1.47 1.176 1.382 1.382 0 01-1.43-1.376c.01-.319.078-.633.2-.928l5.338-14.48C6.17.748 7.104-.004 8.588-.004s2.418.752 3.056 2.518l5.306 14.472c.125.295.193.61.2.93zm-11.6-7.342h6.032L8.938 3.08c-.094-.262-.182-.356-.376-.356s-.282.094-.382.356l-2.63 7.494z"/></svg>