<svg xmlns="http://www.w3.org/2000/svg" width="240" height="50" viewBox="0 0 240 50" preserveAspectRatio="xMinYMin meet"><g fill="#FFF"><path d="M230.452 24.02l9.31-11.998h-5.058l-8.203 10.433V12.022h-6.407l1.608 2.86V38h4.8V25.153L234.852 38h5.058l-9.46-13.98v.001zM211.45 12.022v10.162h-9.102V12.022h-6.413l1.61 2.86V38h4.803V25.42h9.102V38h4.798V12.022h-4.798zM189.789 38s-.838-2.866-1.89-6.534h-8.815c-1.058 3.64-1.884 6.512-1.884 6.512h-4.788l7.102-23.124-1.56-2.854h8.645l7.977 26h-4.787zm-9.807-9.593h7.03c-1.67-5.78-3.477-12.014-3.477-12.014h-.07l-3.483 12.014zm-20.55-6.2l.002-.002c5.057 0 12.053-.232 12.048 7.955 0 6.312-5.935 7.839-9.79 7.839h-7.09V14.88l-1.598-2.86h15.976v3.148h-9.547v7.037zm.981 12.667c3.157 0 6.27-.565 6.27-4.746 0-3.535-2.127-4.774-6.27-4.774h-.98v9.52h.98zm-16.008-22.852v10.162h-9.102V12.022h-6.413l1.615 2.86V38h4.798V25.42h9.102V38h4.798V12.022h-4.798zm-25.432 0l-9.855 19.28v-19.28h-6.065l1.614 2.86V38h5.3l10.335-20.22V38h4.727V12.022h-6.056zM89.307 22.206c5.063 0 12.054-.233 12.065 7.954 0 6.312-5.922 7.839-9.779 7.839H84.52V14.88l-1.609-2.86h15.976v3.148h-9.58v7.037zm.992 12.668c3.152 0 6.264-.565 6.264-4.746 0-3.535-2.126-4.774-6.264-4.774h-.992v9.52h.992zm-34.118-9.94L42.135 0h-28.12c10.339 2.12 18.11 11.484 18.11 22.695 0 .78-.04 1.547-.115 2.31a23.068 23.068 0 0110.774 19.54 23.62 23.62 0 01-.544 5.313l13.969-24.923"/><path d="M42.212 49.864c-1.85-14.066-13.637-24.923-27.845-24.923 5.354 0 8.815-3.898 8.815-9.097 0-2.927-2.976-11.445-9.169-15.838L0 24.935l14.057 24.93h28.165M52.454 49.858l14.044-24.923L52.453 0h-5.12l14.044 24.935-14.044 24.923h5.12"/></g></svg>