<svg xmlns="http://www.w3.org/2000/svg" width="76" height="50" viewBox="0 0 76 50" preserveAspectRatio="xMinYMin meet"><g fill="#FFF"><path d="M23.167 40.296l-.14.137c-2.191 2.237-4.73 3.423-7.346 3.423-5.461 0-9.423-4.106-9.423-9.769 0-5.656 3.962-9.763 9.423-9.763 2.615 0 5.155 1.187 7.346 3.436l.14.134 3.513-4.255-.094-.115c-2.918-3.457-6.426-5.14-10.734-5.14-4.32 0-8.277 1.459-11.12 4.085C1.63 25.317 0 29.33 0 34.084c0 4.757 1.63 8.78 4.73 11.625 2.843 2.645 6.8 4.092 11.12 4.092 4.308 0 7.816-1.685 10.735-5.145l.094-.103-3.512-4.257zM30.224 18.879h6.206v30.344h-6.206zM60.733 42.627c-1.654 1.009-3.194 1.519-4.581 1.519-2.005 0-2.914-1.062-2.914-3.425V24.62h6.324v-5.715h-6.324v-9.44l-6.077 3.265v6.177h-5.246v5.714h5.246v17.13c0 4.66 2.76 7.854 6.88 7.94 2.796.054 4.483-.78 5.501-1.394l.067-.045 1.49-5.845-.366.221zM65.868 18.879h6.213v30.344h-6.213z"/><path d="M75.7 13.557C70.03 5.513 60.62.716 51.04.716c-9.572 0-18.988 4.797-24.647 12.841l-.29.414h7.137l.081-.085c4.854-5.025 11.2-7.679 17.72-7.679s12.862 2.654 17.729 7.679l.083.085h7.132l-.286-.414z"/></g></svg>