<svg xmlns="http://www.w3.org/2000/svg" width="259" height="50" viewBox="0 0 259 50" preserveAspectRatio="xMinYMin meet"><g fill="#FFF"><path d="M248.57 31.326v.653c.478.13.793.585.747 1.079v14.628a1.02 1.02 0 01-.747 1.074v.65h3.717v-.65a1.025 1.025 0 01-.751-1.074V33.223h5.675c.492-.042.944.275 1.07.752h.653v-2.649H248.57zm-9.117-.165c-.669 0-1.54.037-2.619.075l-2.75.09v.653c.477.132.793.585.75 1.079v14.636c.042.493-.274.945-.75 1.075v.648h3.717v-.657a1.025 1.025 0 01-.748-1.074v-5.607c1.045.082 1.834.132 2.413.132 4.535 0 6.804-1.818 6.807-5.455v-.318c-.008-3.518-2.282-5.277-6.82-5.277zm4.594 5.616c0 1.297-.356 2.231-1.074 2.777-.72.545-1.888.826-3.52.826-.136 0-.925-.041-2.412-.107v-7.137a32.05 32.05 0 012.412-.095c1.615 0 2.788.265 3.507.802.719.537 1.087 1.397 1.087 2.595v.339zm-11.662-5.45h-4.035v.64c.537.215.797.558.479 1.397-.318.838-3.177 8.479-3.177 8.479a.942.942 0 01-.677-.471c-.256-.517-3.19-7.827-3.38-8.293a.76.76 0 01.517-1.112v-.64h-4.164v.652a1.55 1.55 0 011.24 1.038c.198.462 3.424 8.483 3.672 9.09a2.433 2.433 0 001.983 1.786s-.45 1.24-.847 2.223A2.09 2.09 0 01222 47.583a1.07 1.07 0 01-1.012-.748h-.707v2.392s.459.347 1.834.347a3.576 3.576 0 002.38-.702 4.876 4.876 0 001.528-2.149c.446-1.029 4.916-13.09 5.155-13.682a1.45 1.45 0 011.202-1.07l.004-.645zm-22.888 7.516c-.736 0-1.59.029-2.553.09v-5.69h6.279a1.02 1.02 0 011.07.753h.652v-2.67h-10.963v.653c.483.124.802.583.752 1.079v14.628a1.02 1.02 0 01-.752 1.07v.653h5.639c4.58 0 6.98-1.769 6.98-5.178v-.223c0-3.457-2.368-5.179-7.104-5.165zm4.89 5.372c0 1.14-.363 1.975-1.102 2.48-.74.503-1.855.793-3.788.793-.649 0-1.463 0-2.553-.075v-6.615a48.24 48.24 0 012.553-.1c1.787 0 3.05.265 3.788.794.74.529 1.103 1.36 1.103 2.48v.243zM194.61 31.16c-.665 0-1.536.037-2.614.075l-2.752.09v.653c.486.124.812.58.773 1.079v14.636a1.02 1.02 0 01-.748 1.075v.648h3.718v-.657a1.025 1.025 0 01-.748-1.074v-5.607c1.045.082 1.83.132 2.409.132 4.54 0 6.81-1.818 6.807-5.455v-.318c-.025-3.518-2.306-5.277-6.845-5.277zm4.598 5.616c0 1.297-.355 2.231-1.074 2.777-.719.545-1.888.826-3.524.826-.132 0-.92-.041-2.408-.107v-7.137c.826-.062 1.62-.095 2.408-.095 1.616 0 2.789.265 3.512.802.722.537 1.086 1.397 1.086 2.595v.339zm-13.76 9.967c-.13.477-.581.793-1.074.752h-6.34v-6.661h6.134v-1.926h-6.13v-5.657h6.237c.49-.04.94.276 1.066.752h.653v-2.678h-10.918v.653c.176.058.336.158.467.29.174.222.272.494.28.776v14.65a1.182 1.182 0 01-.726 1.053h-.021v.649H186.1V46.73l-.653.013zM160.13 31.326v2.67h.648a1.029 1.029 0 011.074-.752h3.503v14.463c.038.491-.277.941-.752 1.074v.649h3.718v-.67a1.02 1.02 0 01-.752-1.074V33.244h3.49a1.02 1.02 0 011.07.752h.653v-2.67H160.13zm-2.97 15.418a1.02 1.02 0 01-1.07.752h-6.345v-6.661h6.138v-1.926h-6.138v-5.657h6.237a1.02 1.02 0 011.07.752h.653v-2.678h-10.918v.653c.178.059.339.158.471.29.17.224.269.495.281.776v14.65a1.186 1.186 0 01-.731 1.065v.65h10.988v-2.666h-.636zm-13.611-14.765v-.653h-14.256v.653c.482.127.803.582.76 1.079v14.628c.04.495-.28.948-.76 1.074v.65h3.718v-.65a1.025 1.025 0 01-.752-1.074V33.264h8.332v14.422a1.02 1.02 0 01-.748 1.074v.65h3.718v-.65a1.02 1.02 0 01-.752-1.074V33.058c-.044-.49.266-.944.74-1.079zm-18.01 8.843h-7.618V38.93h7.618v1.892zm-21.088-9.496v2.67h.648a1.024 1.024 0 011.062-.752h3.503v14.463c.041.492-.275.944-.752 1.074v.649h3.718v-.67a1.025 1.025 0 01-.752-1.074V33.244h3.495c.49-.04.94.276 1.07.752h.648v-2.67h-12.64zm-1.975 16.356l-6.402-8.802 5.167-5.822c.4-.549.989-.93 1.653-1.07v-.662h-2.846l-7.221 8.41v-6.678c-.043-.491.272-.942.748-1.07v-.662h-3.718v.653c.484.124.806.581.76 1.079v14.628a1.02 1.02 0 01-.748 1.074v.65h3.718v-.65a1.02 1.02 0 01-.748-1.074v-5.124l1.756-2.008 6.394 8.855h3.26v-.649a2.999 2.999 0 01-1.773-1.078zM85.792 33.058a1.02 1.02 0 01.748-1.07v-.662h-3.718v.653c.482.127.803.582.76 1.079v5.855H75.26v-5.855c-.044-.493.27-.947.747-1.079v-.653H72.29v.653c.483.126.804.582.76 1.079v14.628a1.02 1.02 0 01-.76 1.074v.65h3.717v-.65a1.025 1.025 0 01-.747-1.074v-6.843h8.323v6.843c.042.491-.272.943-.747 1.074v.65h3.717v-.65a1.02 1.02 0 01-.747-1.074l-.013-14.628zM69.195 47.545c-.05-.16-4.131-14.553-4.131-14.553a2.33 2.33 0 00-2.479-1.827c-1.309 0-2.135.612-2.478 1.852 0 0-3.796 13.516-4.13 14.528a1.628 1.628 0 01-1.22 1.207v.657h4.19v-.649a1 1 0 01-.637-1.19c.413-1.682 1.12-4.111 1.12-4.111h6.295s1.016 3.665 1.128 4.111a1 1 0 01-.637 1.19v.657h4.189v-.657a1.653 1.653 0 01-1.21-1.215zm-9.299-6.02s2.21-7.942 2.285-8.149a.413.413 0 11.826.033c.066.231 2.251 8.116 2.251 8.116h-5.362zm-7.435 5.099a1.12 1.12 0 01-1.029.855s-1.136.104-2.56.104a3.775 3.775 0 01-3.153-1.393c-.722-.926-1.02-2.297-1.02-4.132v-3.372c0-3.69 1.347-5.529 4.172-5.529 1.24 0 2.516.124 2.516.124a1.17 1.17 0 011.028.855h.67v-2.479s-.777-.165-1.777-.293a18.17 18.17 0 00-2.478-.19c-2 0-3.57.636-4.713 1.909-1.144 1.272-1.719 3.14-1.719 5.615v3.385c0 2.454.577 4.32 1.731 5.599 1.153 1.268 2.718 1.913 4.701 1.913.896.015 1.792-.032 2.68-.14.69-.091 1.6-.273 1.6-.273v-2.546l-.65-.012zm51.833-24.884L97.9 12.938l5.163-5.83c.4-.55.988-.93 1.652-1.07v-.666h-2.85l-7.216 8.421V7.107a1.02 1.02 0 01.747-1.07v-.665H91.68v.653c.475.13.79.579.751 1.07v14.653c.042.484-.261.93-.727 1.07v.649h3.718v-.649a1.02 1.02 0 01-.748-1.07v-5.14l1.764-1.996 6.395 8.855h3.259v-.653a3.024 3.024 0 01-1.797-1.074zM87.61 7.107c-.04-.49.276-.94.752-1.07v-.665h-3.718v.653c.475.13.79.579.752 1.07v5.876h-8.32V7.107c-.039-.49.277-.94.752-1.07v-.665H74.11v.653c.476.13.791.579.752 1.07v14.653c.04.491-.276.94-.752 1.07v.649h3.718v-.649a1.025 1.025 0 01-.752-1.07V14.9h8.328v6.847c.04.491-.277.94-.752 1.07v.649h3.718v-.649a1.025 1.025 0 01-.752-1.07l-.008-14.64zM70.963 21.603c-.05-.157-4.131-14.553-4.131-14.553a2.322 2.322 0 00-2.458-1.827c-1.31 0-2.136.612-2.478 1.851 0 0-3.797 13.517-4.131 14.53a1.653 1.653 0 01-1.219 1.21v.653h4.176v-.653a1.008 1.008 0 01-.636-1.198c.413-1.678 1.12-4.108 1.12-4.108H67.5s1.016 3.666 1.128 4.108a1.008 1.008 0 01-.636 1.198v.653h4.184v-.653a1.653 1.653 0 01-1.214-1.21zm-9.29-6.02s2.21-7.943 2.284-8.15a.414.414 0 11.826.034c.07.231 2.255 8.116 2.255 8.116h-5.365zm-13.595-2.699c-.735 0-1.59.03-2.553.091V7.302H51.8c.492-.042.944.275 1.074.752h.649V5.372H42.547v.653c.474.125.79.573.748 1.062v14.649c.046.494-.27.95-.748 1.082v.649h5.634c4.586 0 6.986-1.773 6.986-5.178v-.223c.01-3.457-2.352-5.184-7.089-5.182zm4.891 5.405c0 1.14-.363 1.975-1.103 2.5-.74.525-1.855.794-3.788.794-.648 0-1.462 0-2.553-.075v-6.632a47.298 47.298 0 012.553-.095c1.789 0 3.053.26 3.788.79.735.528 1.103 1.359 1.103 2.479v.24zM0 47.963c0-.393 6.258-.781 13.974-.781 7.717 0 13.97.388 13.97.78v.827c0 .389-6.253.777-13.97.777-7.716 0-13.974-.372-13.974-.76v-.843zm27.945-10.806v1.417c0 2.686-6.234 4.889-13.954 4.918C6.271 43.52.021 41.359 0 38.673v-1.409l27.945-.107z"/><path d="M27.945 37.157c0 2.69-6.238 4.892-13.954 4.917C6.275 42.1 0 39.946 0 37.264c0-2.681 6.242-4.892 13.962-4.921 7.72-.03 13.974 2.128 13.983 4.814zm-.793-18.116c-2.567 7.278-10.546 11.097-17.822 8.53C2.055 25.002-1.763 17.021.802 9.743 3.368 2.465 11.345-1.355 18.622 1.21a13.976 13.976 0 018.53 17.83z"/></g></svg>