<svg xmlns="http://www.w3.org/2000/svg" width="210" height="49" viewBox="0 0 210 49" preserveAspectRatio="xMinYMin meet"><g fill="#FFF" fill-rule="evenodd"><path d="M166.275 47.341h-8.681V15.524h28.446v6.522h-19.765V47.34m-41.229-11.013v.305c0 3.528 3.423 5.508 10.129 5.508 5.16 0 7.959-1.45 7.959-3.92 0-2.425-2.171-3-6.85-3.434l-6.174-.576c-8.876-.84-13.166-3.57-13.166-8.948 0-5.993 6.268-10.576 16.785-10.576 11.137 0 17.366 4.098 17.366 10.354v.268h-8.687c-.38-3.176-3.226-4.761-8.535-4.761-5.017 0-7.718 1.41-7.718 3.656 0 2.383 2.219 2.69 7.042 3.176l6.466.616c8.778.884 12.969 3.743 12.969 9.345 0 7.007-6.266 10.84-18.522 10.84-11.763 0-17.986-4.144-17.986-11.196v-.657h8.922m-40.622-3.704c0 6.17 2.654 9.037 9.116 9.037 3.425 0 5.933-.97 7.479-2.691 1.588-1.766 1.69-3.748 1.69-6.346v-17.1h8.677v17.935c0 9.652-6.125 14.721-17.846 14.721-11.722 0-17.795-5.113-17.795-14.721V15.524h8.68v17.1m-40.04-3.528v-7.05h9.504c5.014 0 7.472.263 7.472 3.304 0 2.95-2.41 3.746-7.085 3.746h-9.892zM70.467 47.34l-.02-8.415c-.188-3.615-1.895-5.378-5.611-6.787 3.619-1.276 5.79-4.317 5.79-8.065 0-5.996-4.488-8.55-13.556-8.55H35.656V47.34h8.728v-11.72h10.083c5.16 0 7.344 1.677 7.344 7.094v4.626h8.657zm-41.704 0H20.08V22.046H0v-6.522h28.764V47.34M189.563 9.946c0 5.48 4.456 9.941 9.937 9.941 5.475 0 9.933-4.46 9.933-9.941 0-5.483-4.458-9.946-9.933-9.946-5.481 0-9.937 4.463-9.937 9.946zm1.11 0c0-4.87 3.959-8.829 8.827-8.829 4.864 0 8.822 3.96 8.822 8.829 0 4.867-3.958 8.824-8.822 8.824-4.868 0-8.826-3.957-8.826-8.824z"/><path d="M194.542 6.063v3.274h5.425v5.43h3.271V6.063h-8.696"/></g></svg>