<svg xmlns="http://www.w3.org/2000/svg" width="243" height="50" viewBox="0 0 243 50" preserveAspectRatio="xMinYMin meet"><path fill="#FFF" fill-rule="evenodd" d="M232.169 30.866h-1.478v6.939h-4.054v-16.17h4.066v6h1.49l5.36-6h4.568l-6.838 7.633 7.326 8.537h-5.08l-5.36-6.94zm-13.152-9.232h4.067v16.17h-4.067v-6.926h-7.949v6.927h-4.066v-16.17h4.066v6h7.95v-6zm-20.38 0l-.024-.012a4.881 4.881 0 014.884 4.878v11.366H192.13a4.881 4.881 0 01-4.885-4.878v-.17a4.881 4.881 0 014.885-4.879h7.326v-1.451a1.62 1.62 0 00-1.636-1.61h-9.415v-3.244h10.233zm.794 12.964l.012.024v-3.427h-6.508c-.9 0-1.63.724-1.637 1.622v.159a1.62 1.62 0 001.637 1.622h6.496zm-21.076-11.586l.024.012a6.687 6.687 0 016.692 6.683v1.427a6.687 6.687 0 01-6.692 6.67h-11.588V15.147h16.546v3.232H170.82v4.634h7.535zm2.149 8.17V29.696a3.434 3.434 0 00-3.444-3.427h-6.215v8.342h6.215a3.441 3.441 0 003.444-3.427zm-34.814-9.56h14.275v3.256h-5.141v12.927h-4.054V24.878h-5.092v-3.244l.012-.012zm-6.362 0l-.024-.012a4.881 4.881 0 014.884 4.878v6.5a4.881 4.881 0 01-4.884 4.878H133.1a4.881 4.881 0 01-4.885-4.878v-2.11h-3.382v6.927h-4.067v-16.17h4.042v6h3.407V26.5a4.881 4.881 0 014.885-4.878h6.227zm.806 11.305V26.5a1.609 1.609 0 00-1.624-1.61h-4.726c-.892 0-1.617.719-1.624 1.61v6.427c0 .896.727 1.622 1.624 1.622h4.726c.897 0 1.624-.726 1.624-1.622zM106.468 21.67h10.355v16.134h-4.066V24.89h-5.483c-.892 0-1.617.719-1.624 1.61V33a4.881 4.881 0 01-4.884 4.878H99.47V34.61h.489c.897 0 1.624-.726 1.624-1.622V26.5a4.881 4.881 0 014.884-4.878v.049zm-13.48-.061v.012a4.881 4.881 0 014.884 4.878v6.488a4.881 4.881 0 01-4.885 4.878h-6.496a4.881 4.881 0 01-4.885-4.878v-6.5a4.881 4.881 0 014.885-4.878h6.496zm.817 11.366l.013.012v-6.5a1.623 1.623 0 00-1.625-1.61H87.31a1.625 1.625 0 00-1.636 1.622v6.476c0 .895.727 1.622 1.624 1.622h4.884c.897 0 1.624-.727 1.624-1.622zM69.872 26.5V33c0 .896.727 1.622 1.624 1.622h8.022v3.183h-8.853a4.881 4.881 0 01-4.884-4.878V26.5a4.881 4.881 0 014.884-4.878h8.841v3.256h-8.022c-.893 0-1.618.719-1.625 1.61l.013.012zm-11.613-4.866l.012-.012a4.881 4.881 0 014.885 4.878v6.488a4.881 4.881 0 01-4.885 4.878h-6.508a4.881 4.881 0 01-4.885-4.878V20.024a4.881 4.881 0 014.885-4.878h9.414v3.256H52.57c-.893 0-1.618.72-1.624 1.61v2.537a4.889 4.889 0 012.845-.915h4.469zm.818 11.342l-.061.024v-6.5a1.623 1.623 0 00-1.624-1.61h-4.884c-.893 0-1.618.719-1.625 1.61v6.488c0 .896.728 1.622 1.625 1.622h4.884a1.625 1.625 0 001.685-1.634zm-27.12-17.83h4.81l9.244 22.659h-4.884l-1.783-4.878h-9.867l-1.733 4.878h-5.007l9.22-22.659zM30.661 29.78h-.012 7.473l-3.798-10.378-3.663 10.378zM11.368 15.341a9.993 9.993 0 012.87-6.804L22.786 0v7.11a10.797 10.797 0 01-2.858 7.06l-8.547 8.537V15.39l-.013-.049zm11.369 33.866l-8.548-8.536a10.814 10.814 0 00-7.07-2.866H0l8.548 8.536a10.007 10.007 0 006.826 2.866H22.737zM6.46 32.927l4.884 4.988V26.5a10.067 10.067 0 00-2.723-6.427l-4.884-4.878V26.55a10.067 10.067 0 002.723 6.378z"/></svg>