<svg xmlns="http://www.w3.org/2000/svg" width="390" height="50" viewBox="0 0 524 50" preserveAspectRatio="xMinYMin meet"><path fill="#FFF" fill-rule="evenodd" d="M481.016 50V39.702l.937-.077c5.712 0 6.43-2.983 6.43-4.544V.54l32.315-.023v39.036H524V50h-13.176v-5.376h-16.64V50h-13.168zm28.348-44.13h-7.809v28.925c0 2.222-.468 4.085-2.824 4.83v-.07l10.598-.043.035-33.641zm-62.436 38.744V.541h20.707c4.403 0 12.099 0 12.099 6.353V22.1c0 6.5-7.214 6.728-12.099 6.81h-7.363v15.773l-13.344-.069zm13.344-38.77v17.96h5.721c2.28.154 2.28-.812 2.424-1.864l-.067-14.438c.067-1.646-1.618-1.686-2.306-1.658h-5.772zm-59.975 38.839L410.32.54h20.648l10.128 44.142h-13.59l-2.105-11.129h-9.583l-2.114 11.129h-13.408zm19.915-37.789l-3.688 20.435 8.168-.066-3.773-20.369h-.707zM376.25.541h27.016v5.31h-13.758v38.832H376.25V.54zm-31.337 0v17.765h6.214V.606l13.648-.065v44.073l-13.648.069V24.53h-6.214v20.153h-13.652V.606l13.652-.065zm-61.69 44.142L293.267.54h20.635l10.05 44.142h-13.489l-2.133-11.154h-9.56l-2.042 11.154h-13.504zm20.003-37.789l-3.76 20.4h8.162l-3.683-20.4h-.72zm-44.451-1.043v12.653l4.644.075c1.157 0 1.562-.448 1.562-1.049V7.042c0-.663-.316-1.19-1.493-1.19h-4.713zm-13.237 38.763v.069V.54h19.682c13.187 0 12.787 4.41 12.787 6.436v9.118c0 1.355-.332 5.396-7.495 5.165v.442c5.812-.062 7.736 1.805 7.736 4.582v12.147c0 2.075-.8 6.113-13.117 6.183h-19.593zm13.237-20.049v14.82h4.713c.932 0 1.493-.536 1.493-1.277V26.216c0-.982-.405-1.651-1.562-1.651h-4.644zm-60.75 20.118L208.054.54h20.64l10.042 44.142h-13.497L223.208 33.5h-9.658l-2.03 11.183h-13.494zm19.994-37.91l-3.774 20.496h8.249L218.73 6.773h-.71zM131.382.54h13.331V18.43L153.501.54H166.6L156.488 21.26l11.61 23.423H155.3l-10.588-20.05v20.05h-13.331V.54zm-43.816 0h13.655v17.753l6.195-.082V.542H121v44.14h-13.584V24.487h-6.195v20.128l-13.655.069V.54zm-47.69 44.142L49.93.54h20.63l10.052 44.142H67.118l-2.12-11.094h-9.57l-2.046 11.094H39.876zM59.904 6.858l-3.77 20.488h8.155l-3.68-20.488h-.705zM0 44.683V.606L31.062.541v5.39l-17.177-.08v13.182h6.99c3.366 0 13.265-.17 13.265 5.97v13.632c.062 5.078-7.999 5.91-13.179 5.98L0 44.682zm13.885-20.424v15.126h5.176c.713.076 1.257-.38 1.257-1.427V25.754c0-.965-.317-1.495-1.257-1.495h-5.176z"/></svg>