<svg xmlns="http://www.w3.org/2000/svg" width="133" height="50" viewBox="0 0 133 50" preserveAspectRatio="xMinYMin meet"><g fill="#FFF"><path d="M128.146 24.803l4.578 6.969h-2.96l-4.341-6.85v6.85h-2.408v-13.11h2.408v6.22l3.986-6.22h2.88l-4.143 6.141zm-11.327 6.969v-5.473h-4.183v5.473h-2.408v-13.11h2.408v5.354h4.183V18.66h2.407v13.11h-2.407zm-11.682 0l-.71-2.323h-4.381l-.75 2.323H96.77l4.5-13.11h1.894l4.499 13.11h-2.526zm-1.381-4.489l-1.5-4.763-1.579 4.763h3.079zm-15.51-3.7h2.526c2.486 0 4.025 1.693 4.025 4.094 0 2.402-1.54 4.095-4.025 4.095h-4.973v-13.11h8.209v2.283h-5.762v2.638zm0 2.283v3.622h2.407c1.066 0 1.697-.708 1.697-1.81 0-1.064-.631-1.812-1.697-1.812h-2.407zM66.5.118h2.763v49.528H66.5zM36.19 46.732v2.914h-2.762v-2.914H22.417V35.08H47.24v11.653H36.19zm0-8.74v5.827h8.249v-5.827H36.19zm-2.762 5.827v-5.827H25.14v5.827h8.288zm-13.774-8.74h-.04v11.653H3.079v2.914H.316V35.079h19.338zm-2.763 8.74h-.04v-5.827H3.079v5.827h13.813zM.316 32.165H47.2v-2.913H.316v2.913zm44.123-5.826H47.2V.119h-4.144v.038l-4.144 4.37V.119H34.77l-6.906 7.284v18.937h2.763V8.859L36.15 3.03V26.34h2.762V8.859L44.44 3.03V26.34zm-30.31 0V.119h11.01v26.22H14.13zM16.89 3.03v20.394h5.526V3.031H16.89zM.316 26.34V7.402L7.222.118h4.105v26.22H.316zm2.762-17.48v14.566h5.526V3.031L3.078 8.858z"/></g></svg>