<svg xmlns="http://www.w3.org/2000/svg" width="325" height="50" viewBox="0 0 325 50" preserveAspectRatio="xMinYMin meet"><path fill="#FFF" d="M314.304 31.842L313.05 37.5l1.665-.175 5.405-5.483h4.09l-7.051 6.947 4.292 7.895h-4.275l-3.118-6.333h-1.639l-1.436 6.36h-3.276L311 31.798l3.303.044zm-17.03 0l-1.287 5.816h6.5l1.287-5.816h3.347l-3.294 14.912h-3.355l1.322-5.965h-6.49l-1.324 5.965h-3.346l3.294-14.912h3.346zm-12.168-.017l2.839 14.912h-3.68l-.438-2.974h-6.394l-1.752 2.948h-3.618l9.39-14.913 3.653.027zm-5.939 9.008h4.187l-.718-5.658h-.219l-3.25 5.658zm-12.492-3.684c3.4 0 5.423 1.728 4.748 4.79-.674 3.061-3.521 4.815-6.868 4.815h-6.71l3.294-14.912h11.23l-1.892 3h-6.701l-.508 2.307h3.407zm-1.454 6.588c1.638 0 2.602-.667 2.865-1.842.262-1.176-.473-1.842-1.963-1.842h-3.504l-.814 3.684h3.416zm-24.616-11.895l-2.19 9.904 9.373-9.904h2.926l-3.294 14.912h-3.302l2.041-9.386-8.865 9.343h-3.259l3.285-14.913 3.285.044zm.859-5.131h9.031l-1.953 2.517h-7.639l.56-2.517zm-21.585 5.131l-1.016 4.57h2.768c3.504 0 5.449 1.851 4.704 5.176-.675 3.087-3.504 5.123-6.85 5.123h-6.255l3.294-14.913 3.355.044zm-2.628 11.895h2.628c1.752 0 2.812-.755 3.118-2.167.307-1.412-.464-2.202-2.172-2.202h-2.628l-.946 4.369zm16.162-11.895l-3.294 14.912h-3.32l3.294-14.912h3.32zm-30.634 0l-1.297 5.816h6.492l1.287-5.816h3.356l-3.294 14.912h-3.355l1.322-5.965h-6.49l-1.324 5.965h-3.337l3.294-14.912h3.346zm-5.66 0l-1.9 3.018h-4.336l-2.62 11.85h-3.302l2.62-11.85h-5.073l.666-3.018h13.946zm-26.849 0l-2.19 9.904 9.374-9.904h2.925l-3.293 14.912h-3.303l2.067-9.342-8.891 9.299H163.7l3.294-14.913 3.276.044zm-8.996 0l-2.628 11.877h2.155l-.21.877-1.429 5.185h-2.996l.552-3.106H146.68l-.876 3.106h-3.013l.963-5.167.202-.877h.622c.856-.1 1.61-.615 2.015-1.377 1.191-1.755 2.172-4.702 2.926-8.097l.534-2.42h11.222zm-8.594 2.974c-.946 4.175-2.173 7.22-3.381 8.903h6.026l1.971-8.903h-4.616zm-9.242-2.974l-.648 3h-7.832l-.613 2.798h7.008l-.648 2.904h-7.008l-.701 3.175h8.2l-.666 2.992h-11.494l3.294-14.913 11.108.044zm-20.175 0c3.505 0 5.44 2.132 4.722 5.369-.753 3.42-3.907 5.438-7.385 5.438h-3.013l-.876 4.062h-3.32l3.285-14.913 6.587.044zm-5.02 7.895h3.014a3.224 3.224 0 003.382-2.465c.324-1.465-.377-2.421-2.173-2.421h-3.145l-1.077 4.886zm-14.515-7.895l-1.235 5.658 1.656-.175 5.352-5.483h4.1l-7.06 6.947 4.3 7.895h-4.274l-3.084-6.333h-1.647l-1.401 6.342h-3.277l3.285-14.912 3.285.061zM263.68 5.202l-2.199 9.894 9.374-9.894h2.934l-3.293 14.912h-3.312l2.076-9.342-8.909 9.298h-3.258l3.293-14.868h3.294zM264.564 0h9.032l-1.945 2.518h-7.648L264.564 0zm-18.247 5.202l-2.19 9.894 9.373-9.894h2.935l-3.303 14.912h-3.302l2.076-9.342-8.9 9.298h-3.26l3.294-14.868h3.277zm-16.33 0l-1.252 5.658 1.656-.176 5.405-5.482h4.1l-7.061 6.947 4.301 7.895h-4.284l-3.11-6.342h-1.646l-1.402 6.342h-3.311l3.294-14.869 3.31.027zm-9.145 4.149a4.84 4.84 0 00-3.723-1.456 5.836 5.836 0 00-5.781 4.71c-.622 2.816.876 4.702 3.653 4.702a7.641 7.641 0 004.695-1.684l1.367 2.324a10.766 10.766 0 01-6.912 2.404c-4.634 0-7.157-3.026-6.132-7.702a10.06 10.06 0 019.899-7.79 6.898 6.898 0 015.256 2.036l-2.322 2.456zM201.018 5.2c3.312 0 4.818 1.57 4.266 4.062a4 4 0 01-2.05 2.755l-.052.193a2.738 2.738 0 011.638 3.42c-.534 2.422-2.628 4.44-6.474 4.44h-7.192l3.32-14.87h6.544zm-4.555 5.86h3.399c.991.09 1.9-.558 2.137-1.526.21-.982-.315-1.5-1.585-1.5h-3.312l-.64 3.026zm-1.358 6.14h3.916c1.445 0 2.33-.605 2.584-1.754s-.42-1.754-1.83-1.754h-3.908l-.762 3.509zm-5.326-4.56a10.016 10.016 0 01-9.636 7.745c-4.617 0-7.13-3.35-6.132-7.746a10.033 10.033 0 019.583-7.745c4.748 0 7.166 3.324 6.185 7.745zm-12.457 0c-.596 2.684.675 4.771 3.504 4.771a5.845 5.845 0 005.624-4.772c.605-2.754-.657-4.78-3.504-4.78a5.854 5.854 0 00-5.624 4.78zM164.077 5.2l-1.262 5.659 1.665-.176 5.396-5.482h4.1l-7.06 6.947 4.3 7.895h-4.275l-3.127-6.316h-1.638l-1.402 6.342h-3.285l3.294-14.868h3.294zm-9.54 4.15a4.823 4.823 0 00-3.714-1.456 5.836 5.836 0 00-5.782 4.71c-.63 2.816.876 4.702 3.653 4.702a7.641 7.641 0 004.695-1.684l1.367 2.324a10.766 10.766 0 01-6.912 2.404c-4.634 0-7.157-3.026-6.132-7.702a10.068 10.068 0 019.908-7.79 6.863 6.863 0 015.256 2.036l-2.339 2.456zm-15.391 3.29a10.033 10.033 0 01-9.637 7.745c-4.616 0-7.13-3.35-6.132-7.746a10.042 10.042 0 019.593-7.745c4.695 0 7.192 3.324 6.176 7.745zm-12.466 0c-.596 2.684.674 4.771 3.504 4.771a5.845 5.845 0 005.598-4.772c.613-2.754-.649-4.78-3.504-4.78a5.863 5.863 0 00-5.598 4.78zM109.974 5.2l2.681 6.746 5.606-6.745h3.566l-3.294 14.912h-3.25l2.181-9.807h-.201l-4.687 5.658h-1.752l-2.199-5.702h-.201l-2.173 9.807h-3.232l3.329-14.868h3.626zm-57.746-.008h37.108L74.478 20.07h-16.1L31.483 47.21 0 15.685 10.293 5.167l.202.008H31.29l-10.495 10.51 10.478 10.49L52.228 5.193zM35.81 46.763l3.005-2.982 20.726-20.763h29.794l-14.849 14.85h-8.751l-8.857 8.895H35.811z"/></svg>