<svg xmlns="http://www.w3.org/2000/svg" width="374" height="50" viewBox="0 0 374 50" preserveAspectRatio="xMinYMin meet"><g fill="none"><path fill="#FFF" d="M369.423 31.831l3.933 7.958h-6.507l-3.576-7.324c-1-2.183-2.86-4.014-5.363-4.014v5.704c0 3.028-2.646 5.634-5.792 5.634h-.286v-24.86h6.007v11.268l8.652-11.267H373l-8.939 11.338c2.431.986 4.005 2.957 5.363 5.563zm-19.951-16.972h.286v24.93h-6.078V29.437h-8.01v4.718c0 3.028-2.646 5.634-5.792 5.634h-.286V20.493c0-3.028 2.646-5.634 5.792-5.634h.286v10.493h8.01v-4.859c0-3.028 2.645-5.634 5.792-5.634zm-40.904 17.887c0-6.408 6.364-7.957 13.873-8.661v-1.62c0-3.17-2.002-4.014-4.863-4.014-2.36 0-4.791.845-7.437 2.253v-3.943c1.573-.775 4.577-1.902 8.438-1.902 5.15 0 9.368 2.606 9.368 8.803v15.915c-1.716.282-5.578.634-7.937.634h-1.288c-6.65 0-10.154-2.817-10.154-7.465zm13.873 4.015v-9.93c-5.292.493-8.51 1.55-8.51 5.704 0 3.028 1.86 4.437 5.149 4.437 1.287 0 2.789-.07 3.36-.211zm-27.246-17.958c8.081 0 12.586 4.718 12.586 10.422 0 6.69-5.435 10.564-12.8 10.564h-9.797V6.268h19.308v.07c0 2.817-2.36 5.14-5.22 5.14h-8.01v7.818c.858-.211 2.432-.493 3.933-.493zm-.286 16.901c4.076 0 6.58-3.169 6.58-6.55 0-3.239-2.575-5.774-6.937-5.774-1.144 0-2.503.212-3.29.423v11.901h3.647zM274.958 14.86h.071v4.789h-6.15v14.507c0 3.099-2.574 5.634-5.72 5.634h-.286V19.648h-6.15v-4.789h18.235zm-22.526 0h3.075v24.93h-.286c-3.146 0-5.792-2.535-5.792-5.634V22.958l-8.367 14.014c-1.43 2.183-3.218 2.817-5.149 2.817h-2.574v-24.93h6.078v16.338l7.866-13.52c1.36-2.184 3.147-2.818 5.15-2.818zM229.12 35.07l2.288.845-.215 6.057c0 2.394-2.002 4.296-4.362 4.296h-.286l-.214-6.48h-16.52l-.07 2.254c0 2.395-2.003 4.296-4.363 4.296h-.357l-.43-10.352c4.935-2.887 6.222-9.718 7.009-15.07l.93-6.057h14.516l2.074 20.211zm-16.948.212h11.37l-1.43-15.845h-4.72l-.43 3.591c-.643 4.085-2.001 9.296-4.79 12.254zm-8.081-8.592v.916l-15.017 2.042c.5 4.084 2.574 6.197 6.364 6.197 4.22 0 6.365-1.338 7.866-2.394v4.93c-1.501.774-4.362 1.76-8.438 1.76-7.365 0-11.728-4.93-11.728-12.747 0-7.605 4.005-12.535 10.727-12.535 6.579 0 10.226 4.366 10.226 11.831zm-15.446-1.056l10.226-1.338c-.215-4.93-3.361-5.493-5.006-5.493h-.215c-3.432.07-5.005 2.394-5.005 6.83zM169.98 14.859c7.223 0 11.514 4.718 11.514 12.465 0 7.746-4.29 12.887-10.87 12.887-1.359 0-2.503-.211-3.36-.422v4.225a5.633 5.633 0 01-5.65 5.634h-.286V16.69l.143-.07c2.217-1.197 5.077-1.76 8.51-1.76zm-.572 21.479c5.078 0 6.079-4.93 6.007-8.873 0-5.986-1.716-8.803-5.649-8.803-1.001 0-1.716.14-2.503.423v16.971c.572.212 1.287.282 2.145.282zm-14.302-8.662l5.078 12.113h-6.865l-4.506-11.409c-1.072-2.676-3.432-4.718-6.579-4.718v10.282c0 3.38-2.574 5.845-6.078 5.845h-.143V12.183c0-3.38 2.574-5.845 6.078-5.845h.143v14.718l10.512-14.788h6.794l-10.941 14.93c3.003 1.126 5.077 3.38 6.507 6.478zM130.578 14.86h3.075v24.93h-.286c-3.146 0-5.792-2.535-5.792-5.634V22.958l-8.367 14.014c-1.43 2.183-3.218 2.817-5.149 2.817h-2.574v-24.93h6.078v16.338l7.866-13.52c1.36-2.184 3.147-2.818 5.15-2.818zm-21.81 0h.286v24.93h-6.079V29.437h-8.009v4.718c0 3.028-2.646 5.634-5.792 5.634h-.286V20.493c0-3.028 2.645-5.634 5.792-5.634h.286v10.493h8.01v-4.859c0-3.028 2.645-5.634 5.791-5.634zM74.513 5.775c7.866 0 12.443 7.253 12.443 16.76 0 10.07-4.29 17.817-12.443 17.817-7.151 0-11.656-7.324-12.228-15.493h-7.151v8.733c0 3.45-2.79 6.197-6.222 6.197h-.071V12.324c0-3.31 2.717-6.056 6.221-6.056h.072v14.155h7.15c.644-8.662 5.22-14.648 12.229-14.648zm0 29.648c3.933 0 6.221-5.07 6.293-12.958 0-6.972-2.718-11.902-6.293-11.902-3.576 0-6.15 4.93-6.15 11.902 0 6.972 2.431 12.958 6.15 12.958z"/><path fill="#EE3124" d="M41.905 21.338c0 11.408-9.368 20.634-20.952 20.634C9.368 41.972 0 32.746 0 21.338 0 9.929 9.368.704 20.953.704 32.537.774 41.905 10 41.905 21.338z"/><path fill="#FFF" d="M19.594 15.634s2.431-3.099 2.646-3.451c.214-.352.357-.704-.358-1.056-.643-.423-2.86-1.69-3.29-1.972-.428-.352-.357-1.55.93-1.76 1.288-.282 12.443-1.128 16.734-.705 4.362.423 3.933 1.972 3.79 2.676-.286.986-1.716 2.394-4.076 4.507 0 0-3.933 3.592-6.722 5.986-2.86 2.465-11.942 10-13.73 11.338-1.788 1.268-8.653 6.338-9.082 6.62-.43.352-1.716 1.338-2.36.634-.643-.705 0-1.48.358-1.902.357-.493 14.159-19.718 15.16-20.915z"/></g></svg>