<svg xmlns="http://www.w3.org/2000/svg" width="203" height="50" viewBox="0 0 203 50" preserveAspectRatio="xMinYMin meet"><g fill="#FFF" fill-rule="evenodd"><path fill-rule="nonzero" d="M108.292 27.262l-5.418-4.57c-.23-.228-.763-.609-.763-.99 0-.228.305-.532.61-.837l4.884-4.417s.077-.076.077-.152-.077-.152-.153-.152H105.01l-4.656 4.188c-.229.152-.305.38-.458.533V16.22c0-.076-.076-.152-.152-.152h-2.06c-.077 0-.153.076-.153.152v11.194c0 .076.076.152.152.152h2.06c.077 0 .153-.076.153-.152V22.54c.153.229.306.457.61.762l5.038 4.34h2.594c.077 0 .153-.076.153-.228.076-.076.076-.076 0-.152M94.861 16.144H92.8c-.076 0-.153.076-.153.152v4.57h-6.029v-4.57c0-.076-.076-.152-.152-.152h-2.06c-.077 0-.153.076-.153.152v11.118c0 .076.076.152.152.152h2.06c.077 0 .153-.076.153-.152v-4.645h6.03v4.645c0 .076.076.152.152.152h2.06c.077 0 .153-.076.153-.152V16.296c0-.076-.076-.152-.152-.152M82.42 27.338l-4.274-9.976c-.458-.99-1.068-1.294-2.136-1.294-1.145 0-1.68.304-2.137 1.294L69.6 27.338v.076c0 .076.076.152.153.228h1.908c.076 0 .152-.076.152-.076l1.221-2.893h5.877l1.22 2.893c0 .076.077.076.153.076h1.908c.153-.076.23-.152.23-.304zm-8.624-4.57l1.832-4.492s.153-.38.305-.38c.153 0 .305.38.305.38l1.832 4.493h-4.274zm-6.029-.99c-.457-.608-1.22-.837-2.136-.837H60.06v-2.284c0-.153 0-.381.152-.533.153-.076.382-.076.534-.076h5.724c.076 0 .153-.077.153-.153v-1.447c0-.076-.077-.152-.153-.152h-7.097c-.687 0-1.069.229-1.221.457-.382.38-.458.914-.458 1.295v8.148c0 .304.076.761.381 1.066.306.304.687.457 1.221.457h6.335c1.22 0 1.831-.457 2.06-.762.458-.457.687-1.37.687-2.589 0-1.295-.153-2.056-.61-2.59m-2.137 3.656c-.306.305-.687.305-1.145.305h-3.663c-.23 0-.61 0-.763-.153 0 0-.077-.076-.077-.609V22.77h4.427c.381 0 .839 0 1.068.304.305.305.382.686.382 1.143v.076c.076.304.076.837-.23 1.142m137.064-15.306h-6.258c-.305 0-.61 0-.687-.152a.581.581 0 01-.153-.381V7.082h5.724c.076 0 .153-.076.153-.152V5.407c0-.077-.077-.153-.153-.153h-5.724V2.97c0-.152 0-.38.153-.457.153-.152.382-.152.534-.152h6.334c.077 0 .153-.077.153-.153V.685c0-.076-.076-.152-.153-.152h-7.479c-.534 0-1.068.076-1.45.457-.228.305-.457.761-.457 1.218v7.996c0 .533.076.99.457 1.37.382.382.916.382 1.374.382h7.632c.076 0 .152-.077.152-.153v-1.447c0-.152-.076-.228-.152-.228m-11.677-7.463c0-.228 0-.761-.229-1.294-.305-.533-.839-.838-1.678-.838-.916 0-1.45.305-2.061 1.295l-4.808 7.386c-.076.076-.153.229-.229.229h-.076c-.076-.077-.076-.229-.076-.381V.685c0-.076-.077-.152-.153-.152h-2.06c-.077 0-.153.076-.153.152V9.9c0 .61 0 1.98 1.831 1.98 1.221 0 1.603-.609 1.908-1.066l4.884-7.539c.077-.152.23-.38.306-.38.076 0 .076 0 .076.304v8.453c0 .076.076.152.153.152h2.06c.076 0 .153-.076.153-.152l.152-8.986zM177.053.533h-2.06c-.077 0-.154.076-.154.152v4.57h-6.028V.684c0-.076-.077-.152-.153-.152h-2.06c-.077 0-.153.076-.153.152v11.118c0 .076.076.153.152.153h2.06c.077 0 .154-.077.154-.153V7.082h6.028v4.645c0 .076.077.152.153.152h2.06c.077 0 .153-.076.153-.152V.685c0-.076-.076-.152-.152-.152m-13.05 9.595h-6.258c-.306 0-.61 0-.687-.152a.581.581 0 01-.153-.381V7.082h5.724c.076 0 .153-.076.153-.152V5.407c0-.077-.077-.153-.153-.153h-5.724V2.97c0-.152 0-.38.153-.457.153-.152.381-.152.534-.152h6.334c.077 0 .153-.077.153-.153V.685c0-.076-.076-.152-.153-.152h-7.479c-.534 0-1.068.076-1.45.457-.229.305-.458.761-.458 1.218v7.996c0 .533.077.99.458 1.37.382.382.916.382 1.374.382h7.632c.076 0 .152-.077.152-.153v-1.447c0-.152-.076-.228-.152-.228m-11.219 0h-.916l-3.51-8.377c-.458-.99-.992-1.294-2.137-1.294-1.068 0-1.679.304-2.137 1.294l-3.51 8.377h-.916c-.076 0-.153.076-.23.152v1.447c0 .076.077.152.154.152h13.126c.076 0 .153-.076.153-.152V10.28c.152-.076 0-.152-.077-.152zm-6.868-7.463s.152-.38.305-.38.305.38.305.38l3.053 7.463h-6.64l2.977-7.463zm-7.555 8.986l-4.656-4.57c-.305-.228-.61-.608-.61-.989 0-.305.229-.533.458-.762L137.75.838s.076-.077.076-.153-.076-.152-.152-.152h-2.442c-.077 0-.077 0-.077.076l-3.74 4.188c-.152.229-.304.381-.38.533V.761c0-.076-.077-.152-.153-.152h-2.06c-.077 0-.154.076-.154.152v4.57a2.314 2.314 0 00-.381-.534S124.624.61 124.547.61l-.076-.076h-2.442c-.076 0-.153.076-.153.152s0 .076.077.153l4.197 4.492c.229.229.458.457.458.762 0 .38-.305.761-.61.99l-4.656 4.569s-.076.076-.076.152.076.153.152.229h2.595c.076 0 .076 0 .076-.076l3.969-4.265c.305-.304.458-.533.534-.761v4.95c0 .076.076.152.153.152h2.06c.077 0 .153-.076.153-.153V6.853c.153.229.305.457.61.762l3.969 4.264.076.077h2.519c.076 0 .152-.077.152-.229.153 0 .077-.076.077-.076M119.739 1.599C118.442.381 116.305.381 114.932.381c-1.45 0-3.435 0-4.808 1.218-1.298 1.142-1.374 2.97-1.374 4.645 0 1.219 0 3.35 1.374 4.645 1.297 1.219 3.434 1.219 4.808 1.219 1.373 0 3.51 0 4.807-1.219 1.374-1.294 1.374-3.655 1.374-4.645 0-1.599-.152-3.503-1.374-4.645m-7.707 1.6c.763-.915 2.06-.915 2.976-.915 1.145 0 2.29.077 2.976.914.534.61.763 1.6.763 3.046 0 1.447-.229 2.437-.763 3.046-.763.914-2.06.914-2.976.914-1.45 0-2.29-.152-2.976-.914-.535-.609-.764-1.599-.764-3.046 0-1.523.23-2.437.764-3.046m-5.953-1.98c-.763-.685-1.755-.685-2.442-.685h-5.648c-.61 0-1.068.152-1.373.457-.458.38-.458.914-.458 1.294v9.519c0 .076.076.153.153.153h2.06c.076 0 .153-.077.153-.153V7.996h5.494c.687 0 1.374-.229 1.832-.533.687-.533 1.068-1.6 1.068-3.122.077-1.143 0-2.361-.84-3.123m-1.907 4.493c-.382.381-.916.381-1.374.381H98.6V2.97c0-.152 0-.38.153-.457.152-.152.305-.152.458-.152h3.663c.305 0 .915 0 1.297.38.382.381.382.99.382 1.523 0 .229 0 1.066-.382 1.447m-10.76.99c-.306-.304-.611-.457-1.069-.609a1.92 1.92 0 00.916-.533c.534-.61.61-1.218.61-1.904 0-.761-.076-1.827-.763-2.513-.61-.609-1.526-.685-2.213-.685h-6.487c-.076 0-.152.076-.152.152v1.447c0 .076.076.152.152.152h5.571c.382 0 .763 0 1.069.305.305.305.381.761.381 1.142 0 .686-.152.99-.229 1.066-.305.381-.763.381-1.144.381h-4.35c-.077 0-.153.076-.153.152v1.447c0 .076.076.152.153.152h4.502c.687 0 .992.305 1.145.457.153.229.229.61.229 1.066 0 .381-.076.838-.305 1.067-.306.38-.916.38-1.221.38h-5.724c-.076 0-.153.076-.153.153v1.446c0 .077.077.153.153.153h6.792c.763 0 1.526 0 2.213-.762.687-.761.687-1.675.687-2.437-.076-.228-.076-1.066-.61-1.675M81.047 1.6C79.75.381 77.613.381 76.24.381c-1.45 0-3.434 0-4.807 1.218-1.298 1.142-1.374 2.97-1.374 4.645 0 1.219 0 3.35 1.374 4.645 1.297 1.219 3.434 1.219 4.807 1.219 1.374 0 3.511 0 4.808-1.219 1.374-1.294 1.374-3.655 1.374-4.645-.076-1.599-.229-3.503-1.374-4.645m-7.784 1.6c.763-.915 2.06-.915 2.976-.915 1.145 0 2.29.077 2.977.914.458.61.763 1.6.763 3.046 0 1.447-.229 2.437-.763 3.046-.763.914-2.06.914-2.977.914-1.45 0-2.289-.152-2.976-.914-.534-.609-.763-1.599-.763-3.046 0-1.523.229-2.437.763-3.046m-5.495 3.503c-.229-.304-.61-.457-1.068-.609a1.92 1.92 0 00.916-.533c.534-.61.61-1.218.61-1.904 0-.761-.076-1.827-.763-2.437-.61-.609-1.526-.685-2.213-.685h-5.8c-.61 0-.992.152-1.297.457-.23.305-.382.761-.382 1.218v8.072c0 .61.229.99.458 1.219.458.457.992.457 1.526.457h5.877c.763 0 1.526 0 2.213-.762.687-.761.687-1.675.687-2.437-.153-.609-.153-1.447-.764-2.056zm-7.707-1.447v-2.36c0-.229.076-.381.152-.457.076-.076.23-.076.382-.076h3.74c.38 0 .762 0 1.068.304.305.305.381.762.381 1.142 0 .686-.152.99-.229 1.067-.305.38-.763.38-1.144.38h-4.35zm5.57 4.493c-.305.38-.915.38-1.22.38h-3.587c-.153 0-.458 0-.61-.151-.077-.077-.077-.305-.077-.61V7.082h4.426c.687 0 .992.305 1.145.457.153.228.229.609.229 1.066-.076.38-.076.838-.305 1.142z"/><path d="M.153 2.056A1.53 1.53 0 011.679.533h45.866c.84 0 1.526.685 1.526 1.523v45.69a1.53 1.53 0 01-1.526 1.523H1.68a1.53 1.53 0 01-1.526-1.523V2.056zm20.91 7.996c.153 0 .23-.153.153-.229l-.381-.761a.42.42 0 00-.382-.229H7.479c-.152 0-.229.153-.152.229l.381.761a.42.42 0 00.382.229h12.974zm.993 1.523a.42.42 0 00-.382-.229H8.7c-.152 0-.229.153-.152.229l.381.761a.42.42 0 00.382.229h12.974c.152 0 .229-.153.152-.229l-.381-.761zm1.22 2.437a.42.42 0 00-.38-.229H9.92c-.152 0-.229.152-.152.229l.381.761a.42.42 0 00.382.228h12.974c.152 0 .229-.152.152-.228l-.381-.761zm1.222 2.512a.42.42 0 00-.382-.228H11.142c-.152 0-.228.152-.152.228l.381.762a.42.42 0 00.382.228h12.974c.152 0 .229-.152.152-.228l-.381-.762zm1.144 2.513a.42.42 0 00-.381-.228H12.287c-.152 0-.229.152-.152.228l.381.762a.42.42 0 00.382.228H25.87c.153 0 .23-.152.153-.228l-.382-.762zm1.222 2.513a.42.42 0 00-.382-.228H13.508c-.152 0-.229.152-.152.228l.381.762a.42.42 0 00.382.228h12.973c.153 0 .23-.076.153-.228l-.381-.762zm1.22 2.513a.42.42 0 00-.381-.228H14.729c-.152 0-.229.152-.152.228l.381.762a.42.42 0 00.382.228h12.974c.152 0 .228-.152.152-.228l-.381-.762zM24.346 7.54c.153 0 .305-.153.305-.305V6.55c0-.152-.152-.305-.305-.305H4.275c-.154 0-.306.153-.306.305v.685c0 .152.152.305.305.305h20.071zm-8.547 18.809c-.153 0-.23.152-.153.228l8.166 16.906c.076.152.229.152.305 0l7.48-15.687a.42.42 0 01.38-.229h12.059c.152 0 .305-.152.305-.304v-.61c0-.152-.153-.304-.305-.304H15.798zM44.035 6.244h-10.38c-.152 0-.305.153-.305.305v.685c0 .152.153.305.306.305h1.526c.382 0 2.595 0 1.755 2.589L30.07 24.825c-.077.152 0 .228.152.228h2.366c.153 0 .382-.152.382-.228L40.448 9.29a3.348 3.348 0 011.22-1.447c.459-.228 1.07-.38 1.909-.38h.458c.152 0 .305-.153.305-.305v-.61c0-.151-.153-.304-.305-.304zm-2.824 18.81c1.755 0 3.129-1.371 3.129-3.123 0-1.751-1.374-3.122-3.13-3.122-1.754 0-3.128 1.37-3.128 3.122 0 1.752 1.374 3.122 3.129 3.122z"/></g></svg>