<svg xmlns="http://www.w3.org/2000/svg" width="405" height="50" viewBox="0 0 405 50" preserveAspectRatio="xMinYMin meet"><path fill="#FFF" d="M396.24 35.795l7.85-11.818c.114-.113.114-.227.114-.454 0-.455-.342-.796-.683-.796h-6.826c-.227 0-.455.114-.682.341L389.3 34.091V23.523a.777.777 0 00-.797-.796h-6.484a.777.777 0 00-.797.796v24.432c0 .454.342.795.797.795h6.484c.455 0 .797-.34.797-.795V37.386l6.712 11.023c.113.227.34.341.682.341h6.826c.455 0 .683-.34.683-.795 0-.114 0-.341-.114-.455l-7.85-11.705zm-21.615-13.068h-6.37a.777.777 0 00-.797.796v9.09h-7.622v-9.09a.777.777 0 00-.797-.796h-6.37a.777.777 0 00-.797.796v24.432c0 .454.341.795.797.795h6.37c.455 0 .797-.34.797-.795v-9.546h7.622v9.546c0 .454.341.795.796.795h6.371c.455 0 .796-.34.796-.795V23.523c-.113-.455-.455-.796-.796-.796zm-35.608.568l9.556 24.432v.228a.777.777 0 01-.796.795h-6.826c-.341 0-.569-.227-.683-.568l-1.137-3.864h-8.305l-1.138 3.864c-.114.34-.341.568-.682.568h-6.826a.777.777 0 01-.797-.795v-.228l9.33-24.432c.113-.227.34-.454.682-.454h6.94c.34 0 .568.227.682.454zm-6.485 15.228h4.778l-2.389-7.841-2.389 7.84zm-21.501-5.91c8.19 0 8.76 5.91 8.987 8.069-.114 2.045-.682 8.068-8.873 8.068h-12.856c-.341 0-.682-.34-.682-.795V23.523c0-.455.227-.796.682-.796h18.999c.455 0 .796.341.796.796v4.432a.777.777 0 01-.796.795h-11.832v3.864h5.575zm-2.73 10.228c2.389 0 3.412-.796 3.412-2.16 0-1.476-1.137-2.272-3.412-2.272h-2.958v4.432h2.958zm-31.4-20.114c.456 0 .797.341.797.796v24.545a.777.777 0 01-.796.796h-6.485a.777.777 0 01-.796-.796V35l-7.167 13.41c-.114.226-.455.34-.683.34h-6.712a.777.777 0 01-.796-.795V23.523c0-.455.34-.796.796-.796h6.485c.455 0 .796.341.796.796v12.954l7.167-13.409c.228-.227.455-.34.683-.34h6.712zm-10.92-1.932c-3.869 0-6.485-1.59-7.964-3.863-.228-.341-.114-.796.227-1.023l3.64-1.932c.228-.113.57 0 .91.341.797 1.023 1.935 1.591 3.073 1.591 1.137 0 2.275-.454 3.071-1.59.228-.342.569-.455.91-.342l3.868 1.932c.342.227.455.682.228 1.023-1.48 2.159-3.982 3.863-7.964 3.863zm-18.43 1.932c.455 0 .796.341.91.796v24.432a.777.777 0 01-.797.795h-6.484c-.342 0-.683-.34-.683-.795V23.523c0-.455.228-.796.683-.796h6.37zm-20.933 9.546c6.712 0 10.353 2.727 10.353 8.182 0 5.34-3.64 8.295-10.353 8.295h-10.921a.777.777 0 01-.797-.795V23.523c0-.455.342-.796.797-.796h6.484c.455 0 .797.341.797.796v8.75h3.64zm-.683 10.568c1.138 0 3.072-.341 3.186-2.386 0-1.137-.455-1.591-1.024-1.932-.683-.341-1.479-.341-2.048-.341h-3.071v4.659h2.957zm-17.747-20.114c.455 0 .797.341.797.796v24.432a.777.777 0 01-.797.795h-6.37a.777.777 0 01-.797-.795v-9.546H193.4v9.546a.777.777 0 01-.796.795h-6.485a.777.777 0 01-.796-.795V23.523c0-.455.34-.796.796-.796h6.485c.455 0 .796.341.796.796v9.09h7.622v-9.09c0-.455.341-.796.796-.796h6.371zm-29.578 0h-6.485a.777.777 0 00-.796.796v10.682c-6.144.909-7.281-1.25-7.281-3.182v-7.5a.777.777 0 00-.797-.796h-6.257c-.34 0-.682.228-.682.568v5.114c0 2.727.114 5.796.227 6.932.57 3.523 3.755 4.773 6.94 5.227 2.958.341 6.03 0 7.963-.568v7.955c0 .454.342.795.797.795h6.484c.455 0 .797-.34.797-.795V23.523c-.114-.455-.455-.796-.91-.796zm-39.135-.454c7.508 0 13.196 5.227 13.31 13.409 0 5.34-3.299 13.409-13.31 13.409-10.012 0-13.31-7.955-13.31-13.41 0-8.181 5.688-13.408 13.31-13.408zm0 20.454c2.616 0 5.347-2.159 5.347-7.045 0-3.977-1.934-7.046-5.347-7.046-3.413 0-5.347 3.182-5.347 7.046 0 4.773 2.73 7.045 5.347 7.045zm-19.909-20H85.778c-1.138 0-2.048.91-2.048 2.046v19.432c0 2.5 2.048 4.545 4.55 4.545 2.504 0 4.551-2.045 4.551-4.545v-13.41h5.347v13.523c0 2.5 2.048 4.546 4.55 4.546 2.504 0 4.551-2.046 4.551-4.546V30.795h5.347v13.523c0 2.5 2.048 4.546 4.551 4.546s4.55-2.046 4.55-4.546V24.773c-.227-1.137-1.137-2.046-2.161-2.046zm-50.511 6.137c1.934 0 3.868 1.022 5.12 2.5.34.34.796.34 1.023 0l3.64-4.546c.342-.34.342-.795 0-1.136-2.616-2.273-6.029-3.523-9.783-3.523-7.622 0-13.197 5.227-13.197 13.41 0 5.454 3.3 13.408 13.197 13.408 4.209 0 7.508-1.477 9.783-3.636.342-.341.342-.796 0-1.136l-3.526-4.319c-.341-.34-.797-.34-1.024 0-1.365 1.591-3.527 2.5-5.233 2.5-2.73 0-5.347-2.159-5.347-6.818 0-3.636 1.934-6.704 5.347-6.704zm-29.579-6.591c7.622 0 13.31 5.227 13.31 13.409 0 5.34-3.299 13.409-13.31 13.409-10.125 0-13.31-7.955-13.31-13.41 0-8.181 5.688-13.408 13.31-13.408zm0 20.454c2.73 0 5.347-2.159 5.347-7.045 0-3.977-1.934-7.046-5.347-7.046-3.413 0-5.347 3.182-5.347 7.046 0 4.773 2.73 7.045 5.347 7.045zm-19.112-6.932c1.479 1.023 2.73 2.728 2.844 5.569 0 1.25-.569 7.386-8.874 7.386H1.48a.777.777 0 01-.796-.795V23.523c0-.455.34-.796.796-.796h12.059c8.077 0 8.077 5.796 8.077 6.818 0 2.955-1.934 4.432-3.299 5.228a8.618 8.618 0 012.048 1.022zm-8.646 7.046c2.275 0 3.299-.796 3.299-2.273 0-1.136-1.138-2.045-3.413-2.045H8.646v4.318h3.072zM8.646 28.636v3.978h2.73c2.048 0 2.845-.682 2.845-1.932 0-.91-.456-1.477-1.024-1.705-.57-.34-1.252-.34-1.82-.34h-2.73zm73.492-11.704C81 15 81.683 12.614 83.617 11.477l18.088-10.454c.569-.341 1.365-.341 2.048 0l18.088 10.454c1.934 1.137 2.617 3.523 1.48 5.455-1.138 1.932-3.527 2.613-5.461 1.477l-15.245-8.636-15.017 8.636c-1.934 1.136-4.323.455-5.46-1.477"/></svg>