<svg xmlns="http://www.w3.org/2000/svg" width="23" height="50" viewBox="0 0 23 50" preserveAspectRatio="xMinYMin meet"><path fill="#FF6D1E" fill-rule="evenodd" d="M11.27 15.341a10.037 10.037 0 0 1 2.845-6.804L22.588 0v7.11a10.848 10.848 0 0 1-2.832 7.06l-8.474 8.537V15.39l-.012-.049zm11.27 33.866l-8.474-8.536a10.671 10.671 0 0 0-7.009-2.866H0l8.474 8.536a9.878 9.878 0 0 0 6.767 2.866H22.54zM6.404 32.927l4.842 4.988V26.5a10.11 10.11 0 0 0-2.7-6.427l-4.842-4.878V26.55a10.11 10.11 0 0 0 2.7 6.378z"/></svg>