<svg xmlns="http://www.w3.org/2000/svg" width="50" height="17" viewBox="0 0 50 17" preserveAspectRatio="xMinYMin meet"><path fill="#009D32" d="M49.564 8.011c-.66-1.723-2.501-2.726-4.348-2.368l-3.888.683a1.162 1.162 0 0 0-.958 1.346c.115.63.732 1.05 1.376.936l3.889-.683a1.496 1.496 0 0 1 1.723.938 1.44 1.44 0 0 1-.6 1.836l-5.709 3.613c-.519.334-1.185.36-1.729.065a1.624 1.624 0 0 1-.887-1.451V1.21c0-.308-.125-.603-.348-.82a1.201 1.201 0 0 0-.84-.34c-.655 0-1.186.52-1.186 1.16v11.715a3.91 3.91 0 0 0 2.128 3.491c.597.32 1.266.489 1.947.49a4.114 4.114 0 0 0 2.206-.646l5.708-3.613c1.6-.974 2.241-2.937 1.516-4.637M29.486 5.64l-3.888.684a1.162 1.162 0 0 0-.958 1.346c.116.63.732 1.05 1.377.937l3.888-.684a1.496 1.496 0 0 1 1.724.94 1.44 1.44 0 0 1-.601 1.835l-5.708 3.613c-.519.334-1.185.36-1.729.065a1.624 1.624 0 0 1-.884-1.453V4.028A3.908 3.908 0 0 0 20.583.536a4.088 4.088 0 0 0-4.152.156L2.077 9.782c-1.6.973-2.242 2.935-1.518 4.635.66 1.724 2.5 2.726 4.348 2.37l12.536-2.204a1.162 1.162 0 0 0 .958-1.346 1.184 1.184 0 0 0-1.377-.936L4.488 14.504a1.496 1.496 0 0 1-1.724-.939 1.441 1.441 0 0 1 .603-1.836l14.354-9.091a1.703 1.703 0 0 1 1.729-.065c.549.286.89.846.884 1.454v8.899a3.909 3.909 0 0 0 2.124 3.491c.597.32 1.266.489 1.946.49a4.114 4.114 0 0 0 2.206-.646l5.707-3.613c1.603-.97 2.248-2.936 1.522-4.637-.661-1.723-2.5-2.725-4.348-2.368"/></svg>