<svg xmlns="http://www.w3.org/2000/svg" width="33" height="50" viewBox="0 0 33 50" preserveAspectRatio="xMinYMin meet"><path fill="#EF3124" d="M.49 43.33h31.16c.265 0 .491.265.491.528v5.652a.5.5 0 0 1-.49.49H.49A.5.5 0 0 1 0 49.51v-5.652c0-.301.226-.527.49-.527zM16.07 0c3.396 0 4.49 2.45 5.395 4.898.377 1.018 9.243 25.245 9.507 25.999a.483.483 0 0 1-.302.64c-.302.113-4.904 1.922-5.168 1.997-.264.113-.529-.037-.642-.301-.075-.264-2-5.539-2.225-6.142H9.507c-.227.603-2.15 5.878-2.226 6.142-.076.226-.377.414-.642.301-.264-.113-4.904-1.884-5.168-1.997a.536.536 0 0 1-.302-.64c.34-.905 9.054-24.755 9.507-25.999.905-2.411 2-4.898 5.395-4.898zm0 7.913l-4.45 13.3h8.94l-4.452-13.3h-.037z"/></svg>