<svg xmlns="http://www.w3.org/2000/svg" width="49" height="37" viewBox="0 0 49 37" preserveAspectRatio="xMinYMin meet"><g fill="none"><path fill="#FFF" d="M10.293.044h20.603l2.023 32.513-1.865 4.237H10.031z"/><path fill="#00BBE4" d="M41.31 18.452L30.981 0H10.305C17.907 1.569 23.62 8.498 23.62 16.795c0 .576-.028 1.144-.084 1.71 4.933 3.124 7.925 8.585 7.922 14.458a17.586 17.586 0 0 1-.4 3.932l10.27-18.443"/><path fill="#100D48" d="M31.038 36.9c-1.36-10.41-10.027-18.444-20.474-18.444 3.937 0 6.482-2.884 6.482-6.731 0-2.166-2.189-8.47-6.742-11.72L0 18.451 10.336 36.9h20.71"/><path fill="#FF6500" d="M38.569 36.895l10.327-18.443L38.568 0h-3.764L45.13 18.452 34.804 36.895h3.764"/></g></svg>