<svg xmlns="http://www.w3.org/2000/svg" width="34" height="50" viewBox="0 0 34 50" preserveAspectRatio="xMinYMin meet"><path fill="#3A913F" d="M18.114 49.996c-4.216 0-8.432.012-12.643-.006-1.784-.008-3.195-1.501-3.176-3.286.02-1.746 1.46-3.22 3.207-3.222 8.432-.01 16.86-.01 25.286 0 1.762 0 3.23 1.525 3.212 3.276-.019 1.768-1.427 3.226-3.188 3.233-4.235.016-8.467.005-12.698.005zM0 17.979c.108-.757.206-1.515.326-2.271C1.466 8.418 7.191 2.191 14.402.56 21.2-.98 27.189.655 32.224 5.506c2.003 1.929 1.157 5.23-1.488 6.01-1.392.41-2.598.033-3.626-.96-1.772-1.714-3.859-2.802-6.303-3.195a11.656 11.656 0 0 0-12.772 7.277c-2.697 6.915 1.722 14.678 9.023 15.766 3.824.571 7.181-.492 10.004-3.157 1.417-1.335 3.327-1.534 4.771-.476 1.815 1.335 1.997 3.909.363 5.52-2.673 2.642-5.86 4.347-9.557 5.08-8.942 1.78-17.806-2.98-21.21-11.382A17.992 17.992 0 0 1 .113 20.27 3.632 3.632 0 0 0 0 19.725V17.98z"/></svg>