<svg xmlns="http://www.w3.org/2000/svg" width="50" height="24" viewBox="0 0 50 24" preserveAspectRatio="xMinYMin meet"><defs><linearGradient id="a" x1="50.009%" x2="50.009%" y1="1.183%" y2="101.183%"><stop offset="0%" stop-color="#870029"/><stop offset="100%" stop-color="#C4003D"/></linearGradient><linearGradient id="b" x1="49.995%" x2="49.995%" y1=".278%" y2="98.447%"><stop offset="0%" stop-color="#870029"/><stop offset="100%" stop-color="#C4003D"/></linearGradient><linearGradient id="c" x1="50.009%" x2="50.009%" y1="1.183%" y2="101.183%"><stop offset="0%" stop-color="#870029"/><stop offset="51%" stop-color="#C4003D"/><stop offset="96%" stop-color="#CB5159"/></linearGradient><linearGradient id="d" x1="49.995%" x2="49.995%" y1=".278%" y2="98.447%"><stop offset="0%" stop-color="#870029"/><stop offset="65%" stop-color="#C4003D"/><stop offset="76%" stop-color="#C71E47"/><stop offset="92%" stop-color="#CA4354"/><stop offset="100%" stop-color="#CB5159"/></linearGradient></defs><g fill="none"><path fill="#64001C" d="M29.015.108L17.374 11.819l-5.82-5.856 5.83-5.865H5.83L5.718.093 0 5.963l17.491 17.596L32.432 8.411h8.945L49.631.108z"/><path fill="#64001C" d="M19.895 23.31l1.669-1.665 11.515-11.589h16.552l-8.249 8.289H36.52L31.6 23.31z"/><path fill="url(#a)" d="M21.564 21.552L33.079 9.963h16.552l-8.746 6.404-4.964.005-5.173 5.18z" transform="translate(0 .093)"/><path fill="url(#b)" d="M29.015.015L17.374 11.726l-5.82-5.856 5.83-5.865H5.83L5.718 0 .764 5.655 17.51 21.126 31.712 6.761h8.945L49.631.015z" transform="translate(0 .093)"/><path fill="url(#c)" d="M21.564 21.552l.268-.269 8.789-.005 5.203-5.18h4.857l8.95-6.135-8.746 6.404-4.964.005-5.173 5.18z" transform="translate(0 .093)"/><path fill="url(#d)" d="M40.598 6.472l-9.018.015-14.084 14.14L1.012 5.64 5.83.005 5.718 0 .764 5.655 17.51 21.126 31.712 6.761h8.945L49.631.015z" transform="translate(0 .093)"/></g></svg>