<svg xmlns="http://www.w3.org/2000/svg" width="50" height="50" viewBox="0 0 50 50" preserveAspectRatio="xMinYMin meet"><g fill="none" fill-rule="evenodd"><path fill="#04663A" d="M0 24.99C0 11.2 11.166.013 24.942 0v9.031C16.148 9.041 9.02 16.185 9.02 24.99c0 8.814 7.14 15.965 15.954 15.965 8.757 0 15.95-7.083 15.95-16.025l9.03.01c0 13.85-11.18 25.042-24.98 25.042C11.177 49.982 0 38.79 0 24.99"/><path fill="#53AE47" fill-rule="nonzero" d="M13.955 24.99c0-6.123 4.962-11.084 11.077-11.084 6.12 0 11.083 4.96 11.083 11.084 0 6.121-4.963 11.08-11.083 11.08-6.115 0-11.077-4.959-11.077-11.08"/><path fill="#04663A" fill-rule="nonzero" d="M32.72 10.947a6.35 6.35 0 1 1 12.698 0c0 3.507-2.84 6.36-6.349 6.36-3.507 0-6.35-2.853-6.35-6.36"/></g></svg>