<svg xmlns="http://www.w3.org/2000/svg" width="51" height="50" viewBox="0 0 51 50" preserveAspectRatio="xMinYMin meet"><g fill="none" fill-rule="evenodd"><path stroke="#EBEBEB" stroke-width=".694" d="M8.06.347h35.417a6.944 6.944 0 0 1 6.945 6.945v35.416a6.944 6.944 0 0 1-6.945 6.945H8.06a6.944 6.944 0 0 1-6.944-6.945V7.292A6.944 6.944 0 0 1 8.06.347z"/><path fill="#B31B2C" fill-rule="nonzero" d="M20.756 13.461h14.006V10.08h-17.85v3.39h3.843v-.008h.001zm17.35 18.189c0-1.09-.163-2.139-.482-3.162-.323-1.013-.893-1.907-1.713-2.69-.82-.772-1.924-1.39-3.304-1.845-.692-.229-1.487-.4-2.37-.515v3.735c.062.015.135.024.193.044.962.266 1.729.637 2.301 1.112.57.463.966.94 1.193 1.625.22.686.332.972.332 1.812 0 .844-.112 1.282-.332 1.928a3.689 3.689 0 0 1-1.129 1.641c-.532.446-1.25.78-2.155.987-.907.22-2.03.327-3.367.327h-1.518v-.025h-8.843v3.299h10.072c2.197 0 4.019-.224 5.458-.662 1.436-.444 2.567-1.04 3.402-1.796.836-.747 1.423-1.62 1.758-2.627a9.978 9.978 0 0 0 .505-3.188z"/><path fill="#CCA266" fill-rule="nonzero" d="M27.697 23.262h-7.22v-7.217h-3.565v7.217H9.695v3.566h7.217v7.219h3.565v-7.219h7.22z"/></g></svg>