<svg xmlns="http://www.w3.org/2000/svg" width="50" height="49" viewBox="0 0 50 49" preserveAspectRatio="xMinYMin meet"><g fill="none"><path fill="#F65E64" d="M31.117 1.218c-.582.674-3.087 3.571-5.564 6.441-1.933 2.24-3.867 4.48-5.803 6.718-.722.83-1.303 1.56-1.303 1.633 0 .065.646.868 1.432 1.772.786.914 3.881 4.485 6.866 7.945l5.444 6.294H40.7l8.521-.01-.277-.203c-2.015-1.494-4.121-3.69-5.48-5.721-1.728-2.574-2.8-5.343-3.17-8.139-.157-1.208-.065-3.71.194-4.983.952-4.798 4.066-9.504 8.456-12.753l.277-.203L40.701 0h-8.52l-1.064 1.218zm1.885 10.058c2.033.738 3.337 2.575 3.346 4.697.01 1.403-.48 2.575-1.497 3.59-1.682 1.69-4.307 1.938-6.313.609-2.291-1.522-2.93-4.632-1.404-6.92.665-1.007 1.774-1.791 3.004-2.132.738-.203 2.088-.13 2.864.156z"/><path fill="#005B52" d="M.018 17.016c-.018-.018 3.79-.037 8.476-.037h8.51l3.494 4.033c3.706 4.3 4.621 5.352 8.06 9.33 1.2 1.393 2.18 2.583 2.18 2.648 0 .12-2.486 3.018-11.33 13.233l-2.357 2.73-8.53.029L0 49l.952-.757c1.118-.895 2.652-2.408 3.493-3.432 2.125-2.621 3.669-5.768 4.26-8.702.416-2.058.333-4.965-.193-7.05-1.073-4.2-3.836-8.352-7.505-11.259-.527-.415-.97-.765-.989-.784zm19.436 11.212c-.712-.249-2.024-.314-2.726-.13-1.645.416-3.004 1.606-3.595 3.157-.296.747-.36 2.27-.139 3.036.628 2.177 2.634 3.728 4.824 3.728 2.153 0 4.076-1.366 4.806-3.424.342-.96.351-2.242.01-3.183-.537-1.523-1.674-2.658-3.18-3.184z"/></g></svg>