<svg xmlns="http://www.w3.org/2000/svg" width="28" height="50" viewBox="0 0 28 50" preserveAspectRatio="xMinYMin meet"><defs><linearGradient id="a" x1="39.542%" x2="-24.863%" y1="55.286%" y2="85.442%"><stop offset="0%" stop-color="#8A2135"/><stop offset="100%" stop-color="#A62436"/></linearGradient><linearGradient id="b" x1="66.938%" x2="110.056%" y1="49.168%" y2="54.167%"><stop offset="0%" stop-color="#8A2135"/><stop offset="100%" stop-color="#A62436"/></linearGradient><linearGradient id="c" x1="43.722%" x2="147.095%" y1="58.994%" y2="-89.333%"><stop offset="0%" stop-color="#BB2335"/><stop offset="93%" stop-color="#DD8A31"/><stop offset="100%" stop-color="#E09231"/></linearGradient><linearGradient id="d" x1="37.807%" x2="113.815%" y1="66.365%" y2="-35.679%"><stop offset="0%" stop-color="#BB2335"/><stop offset="100%" stop-color="#DA7D2D"/></linearGradient></defs><g fill="none"><path fill="url(#a)" d="M0 47.947c0-.396 6.238-.788 13.93-.788 7.692 0 13.926.392 13.926.788v.833c0 .392-6.234.784-13.926.784S0 49.189 0 48.797v-.85z" transform="translate(0 .416)"/><path fill="url(#b)" d="M27.856 37.051v1.43c0 2.708-6.214 4.928-13.91 4.958C6.251 43.468.021 41.289 0 38.58v-1.42l27.856-.109z" transform="translate(0 .416)"/><path fill="url(#c)" d="M27.856 37.051c0 2.713-6.218 4.933-13.91 4.958C6.255 42.034 0 39.864 0 37.16c0-2.704 6.222-4.933 13.918-4.962 7.696-.03 13.93 2.146 13.938 4.854z" transform="translate(0 .416)"/><path fill="url(#d)" d="M27.065 18.784c-2.559 7.339-10.512 11.19-17.764 8.6C2.048 24.797-1.758 16.75.8 9.41 3.357 2.07 11.31-1.782 18.562.805a13.98 13.98 0 0 1 7.934 7.207 14.241 14.241 0 0 1 .57 10.772z" transform="translate(0 .416)"/></g></svg>