<svg xmlns="http://www.w3.org/2000/svg" width="50" height="45" viewBox="0 0 50 45" preserveAspectRatio="xMinYMin meet"><g fill="none"><path fill="#FFF" d="M49.096 16.536c-.11-.167-.22-.279-.33-.446-.056-.111-.11-.167-.166-.278.165-.223.33-.501.496-.78l.496-1.113-1.212-.167c-.22-.056-.551-.112-.937-.223a16.046 16.046 0 0 0-2.755-.557 2.11 2.11 0 0 0 .881-.835l.22-.39s-.054-.5-.275-.668l.166-.5.165-.836-.772-.278c-.11-.056-.22-.056-.385-.112-.055-.167-.11-.334-.22-.445l-.441-.835-.827.5c-.22.112-.386.28-.551.446-.11 0-.276-.055-.386-.055 0 0-.496-.056-.992.11l-.66-.723-.827-.835c-.717-.78-1.764-1.058-2.755-.668-.386-.39-.992-.724-1.929-.724-.33 0-.606.056-.771.056 0 0-1.323.222-2.04.946l-.88-.445a3.083 3.083 0 0 1-1.599 1.225c-.055-.279-.165-.557-.386-.78l.056-.334s.22-1.169.826-2.116l1.047-1.67-1.488.167v-.557l-.22-1.224-1.157.556-.33.167-.221-.5-.551.278c-.055-.112-.11-.279-.22-.446L26.503.278l-.882.947c-.11.11-.165.167-.22.278l-.551-.557-.551.557c-.055-.111-.165-.167-.22-.278l-.882-.947-.606 1.17c-.11.166-.165.333-.22.445l-.552-.279-.22.501a2.672 2.672 0 0 0-.386-.167l-1.212-.556-.11 1.28v.557l-1.488-.167 1.047 1.67c.606.947.827 2.116.827 2.116l.055.334c-.166.223-.276.501-.386.78 0 0-.937-.39-1.598-1.226l-.937.446c-1.047-.724-1.708-1.002-2.81-1.002-.937 0-1.543.334-1.929.724-1.046-.39-2.038-.168-2.755.668 0 0-.496.556-.771.835-.33.334-.771.612-.771.612s-.662-.167-1.323 0c-.165-.167-.33-.278-.551-.445l-.826-.501-.441.835c-.11.167-.166.334-.22.445-.11 0-.221.056-.386.112l-.717.278.166.835c.055.167.11.39.165.501-.055.112-.11.167-.11.279l-.11.39.22.39c.22.389.496.667.881.834-1.046.112-1.983.39-2.755.557-.385.111-.716.167-.936.223l-1.213.167.276.612.22.501c.11.279.276.557.496.78-.055.111-.385.612-.496.724L0 17.204l.606.668c.055.055.716.78 1.818.78.276 0 .607-.056.882-.168.276.446.606.891.937 1.114-.551.668-1.212 1.28-2.15 1.726l-.77.39.33.89c.22.557.661 1.114 1.433 1.337a7.739 7.739 0 0 0-.33 1.447c-.166 1.058-.276 1.503-1.158 1.837l-.827.335.22.835c.166.668.497 1.169.772 1.447l-.55.613s1.322 1.002 2.589 1.113c0 0 1.102.056 1.598-.557.22.724.496 1.392.771 1.95.551 1.224.882 1.948.496 2.616l-.881 1.503 1.708-.055c.771-.056 1.433-.056 2.039-.223v.111l-.166 1.28 1.488-.333c.165-.056.33-.112.44-.167.938 1.113 2.536 1.948 4.63 1.948h.11l-2.48 1.003 1.763.946c1.158.612 2.48 1.114 3.968 1.559v.724l.881.278c.496.167 2.37.668 4.684.668s4.133-.5 4.684-.668l.881-.278-.22-.724c1.488-.445 2.81-.947 3.967-1.559l1.764-.946-2.48-1.003h.11c2.15 0 3.747-.835 4.629-1.948.11.055.275.111.44.167l1.488.334-.165-1.28v-.112c.606.167 1.322.223 2.039.223l1.708.055-.716-1.503c-.386-.668-.056-1.392.496-2.617.275-.612.606-1.28.77-1.949.332.279.662.39 1.048.502l.55.11c.772 0 1.158-.166 1.654-.5l.937-.613-.551-.612c.33-.278.606-.78.771-1.448l.22-.835-.826-.278c-.937-.334-.992-.78-1.157-1.838a7.739 7.739 0 0 0-.33-1.447c.826-.223 1.211-.835 1.432-1.336l.33-.891-.77-.39c-.938-.445-1.599-1.058-2.15-1.726.33-.223.661-.668.937-1.113.275.111.55.167.881.167 1.102 0 1.764-.724 1.819-.78l.606-.668-.551-.78z"/><path fill="#FFE600" d="M17.247 28.172V20.99c0-.668-.165-1.337-.44-1.949h5.51c.495.724 1.432 1.17 2.479 1.17 1.047 0 1.984-.446 2.48-1.17h5.51c-.22.612-.441 1.28-.441 1.949v7.182H17.247zm7.604 9.8c-.771-.78-1.322-.836-3.416-.836-2.48 0-4.188-1.448-4.188-3.842v-4.732H32.4v4.732c0 2.339-1.708 3.842-4.188 3.842-2.039 0-2.59.056-3.361.835z"/><path fill="#FFF" d="M18.129 38.862v1.447l-1.213.502c1.047.5 2.315.946 3.857 1.28l.717-2.283c-1.488-.334-2.535-.612-3.361-.946m6.722 1.949c-1.433 0-2.7-.167-3.196-.279l-.716 2.45c1.157.278 2.534.501 3.912.501 1.378 0 2.755-.223 3.912-.501l-.716-2.394c-.496.056-1.763.223-3.196.223m6.667-1.95c-.771.335-1.818.613-3.306.947l.717 2.283c1.542-.334 2.81-.835 3.857-1.28l-1.213-.502-.055-1.447zm-15.924-23.16c1.928-1.058 6.667-3.397 3.471-5.847-.44-.334-.936-.668-1.322-1.002-.496.39.165 1.336.386 1.726 0 0-1.047.112-1.323.112-1.653 0-3.361-1.003-2.48-2.896-.66.112-.716.78-.936 1.337-.441-.279-1.157-.891-1.708-.836.44 1.504 2.369 2.784 3.857 3.118-1.488.835-4.298 1.448-5.786-.334-1.047 2.005.386 2.84 1.818 3.898-5.344 2.45-4.573 5.233-8.1 7.46.441.223 2.48-.222 2.7-.222-.771 1.002-1.102 1.447-1.322 1.893-.22.445-.33.946-.496 2.06-.165.89-.496 1.781-1.543 2.338.276.724 1.212.111 1.598.056-.055.055-.165 1.002-.55 1.447 1.818-.111.991-3.953 2.754-3.062.496.278.661.89.441 1.336-1.212 2.506 1.488 4.677 1.378 6.849.66 0 1.377 0 1.763-.947.22.445.55 1.114.771 1.726l.551-.946c.33 1.558 1.764 2.95 3.692 3.117-.937-1.447.165-3.452-2.039-5.567.276-.223.937-.668 1.158-.947-2.756.334-5.566-1.837-4.298-2.895.826-.668 1.212.724 2.534.501l-.496-.5.606-.613c-.55-.056-1.157-.446-1.157-.446l.33-.557c-3.195 0-3.305-2.505-1.983-2.56.606-.056 1.378 1.113 3.361.834-.275-.334-.33-.779-.495-1.113.495 0 1.047 0 1.487-.223-.936-.111-1.212-.445-1.983-1.058l.936-.334c-1.322-.668-1.267-1.893-1.322-3.118.716.39 1.543 1.058 2.424.724.22-.055.331-.167.331-.39-1.267-.5-2.039-2.45.992-4.12zm-2.314.222c-1.709 1.837-.937 2.895-.607 3.23-.606-.112-1.542-.947-1.377-1.727-.22.223-.386.501-.606.78-.441.557-.772 1.113-1.102 1.67-.496 1.56.44 3.118 2.039 3.842-1.764-.279-2.59-1.837-2.59-2.895-.827 1.614-1.268 3.118-1.213 4.342 0 .446.056.891.11 1.281.386.78 1.048 1.058 2.205 1.225-1.047.056-1.598 0-2.094-.446.716 3.118 4.077 5.847 5.455 8.185-1.378-1.837-4.243-4.51-5.235-6.459-.055.724.11 2.506.992 3.62C7.99 31.29 7.88 29.396 7.99 28.227c-.33-.835-.551-1.726-.551-2.729 0-.946.055-1.781.165-2.505-.826 1.17-1.984 1.615-2.535 3.396.11-2.282 1.819-2.338 3.031-5.066.496-1.225 1.212-2.227 1.984-3.452-.992.334-1.764.557-2.92 1.837.826-1.949 5.565-4.176 7.714-6.291-.662.111-3.307.222-4.409-.557 1.984.557 6.447-.056 8.1-1.225-1.157 1.67-3.691 1.782-6.777 5.122.496-.278.992-.612 1.488-.835zm32.18 10.245c-.221-1.114-.331-1.615-.497-2.06-.22-.502-.606-.891-1.322-1.893.165 0 2.204.445 2.7.222-3.527-2.171-2.755-4.955-8.1-7.46 1.432-1.058 2.865-1.893 1.818-3.898-1.488 1.782-4.243 1.17-5.786.334 1.488-.278 3.417-1.614 3.858-3.118-.551-.11-1.268.557-1.709.836-.22-.557-.275-1.17-.936-1.337.881 1.893-.827 2.896-2.48 2.896-.275 0-1.322-.112-1.322-.112.165-.334.881-1.336.33-1.726-.385.39-.881.668-1.322 1.002-3.196 2.506 1.543 4.844 3.471 5.846 3.03 1.67 2.204 3.62.937 4.12 0 .223.165.335.33.39.882.279 1.709-.334 2.425-.724-.055 1.225.055 2.395-1.322 3.118l.936.334c-.826.613-1.047.947-1.983 1.058.44.223.992.223 1.487.279-.11.334-.22.78-.495 1.113 1.983.223 2.755-.89 3.36-.835 1.323.111 1.213 2.561-1.983 2.561l.33.557s-.605.334-1.156.445c.22.167.44.39.606.613l-.496.445c1.322.223 1.653-1.17 2.534-.5 1.268 1.057-1.542 3.228-4.297 2.894.22.279.881.724 1.157.947-2.204 2.115-1.157 4.12-2.04 5.567 1.93-.11 3.362-1.559 3.693-3.117l.55.946c.221-.612.552-1.225.772-1.726.441.89 1.102.947 1.819.947-.166-2.172 2.534-4.343 1.377-6.849-.22-.5-.11-1.113.44-1.336 1.82-.946.993 2.95 2.811 3.062-.33-.445-.496-1.336-.55-1.447.385.111 1.322.668 1.707-.056-1.157-.612-1.488-1.503-1.653-2.338zm-3.362-3.174c.165.724.22 1.559.165 2.505-.055 1.003-.22 1.95-.55 2.729.054 1.113 0 3.062-1.268 4.342.882-1.113 1.047-2.895.992-3.619-.992 1.95-3.857 4.622-5.235 6.459 1.378-2.338 4.739-5.067 5.51-8.185-.44.502-1.047.557-2.094.446 1.158-.167 1.819-.446 2.204-1.225.056-.39.11-.835.11-1.28.056-1.225-.385-2.729-1.212-4.343 0 1.002-.771 2.616-2.59 2.895 1.599-.724 2.535-2.283 2.04-3.842a29.026 29.026 0 0 0-1.103-1.67c-.22-.279-.44-.557-.606-.78.22.78-.716 1.615-1.377 1.726.33-.334 1.047-1.447-.606-3.229.495.223.991.557 1.377.835-3.086-3.34-5.565-3.452-6.777-5.122 1.708 1.17 6.116 1.782 8.1 1.225-1.102.724-3.747.668-4.409.557 2.15 2.115 6.888 4.342 7.715 6.291-1.157-1.28-1.874-1.503-2.866-1.837.772 1.169 1.488 2.227 1.984 3.452 1.267 2.784 2.92 2.784 3.03 5.066-.55-1.781-1.708-2.227-2.534-3.396z"/><path fill="#FFF" d="M27.33 19.041c-.495.724-1.432 1.17-2.479 1.17-.22 0-.496 0-.716-.056.055.278.22.612.496.835-.11.835.22 1.614 1.102 1.837.11.445.33.78.826.89l-.606.725c-.22.278-.551.39-.826.334l-2.756-.334c.11-.334-.22-.668-1.102-.501l1.102-3.063-.66-1.447-1.268 1.113-.055 3.174-.551-.279c-.717-.334-.882 1.003-.22 1.003h.275c0 .111 0 .278.11.334-.11.055-.165.278 0 .39-.165.055-.165.333-.055.445-.11.223-.165.78.33.89.386.112.662-.333.717-.556l4.298 1.336c.606.167 1.047.056 1.543-.39l1.102-1.002c-.166.668.11 1.225.606 1.448 0 0-.055.612-.055.835h3.857V20.99c0-.668.165-1.337.44-1.949h-5.454zM20.83 31.123l.11.111c.11.167.165.112.33.056l.22-.111c.111-.112.938.222.993-.446.11.501-.496 1.559-.166 2.171l.496.78h-1.598c-.165 0-.275.111-.33.223l-.386.89c-.11.223-.11.446.055.613l.276.334s.22-.223.275-.445l-.165-.223c-.11-.111-.11-.167-.055-.334l.275-.557c.11-.223.22-.278.441-.223l1.267.279c.11 0 .22.055.331-.112.165-.278.44-.278.716-.278.717.111 2.315.278 2.866-.39.66.891 1.983.891 1.928 1.392l-.275 1.56h.44l.276-1.616c.055-.167.165-.445-.055-.556-.055-.056-.11-.112-.276-.39-.22-.445-.22-1.058-.44-1.615.22-.278.44-.334.66-.278.442.111.607.946 1.268 1.615-.055-.279-.11-.613-.275-.891 0 0 .44.334.55.78.056.278.166.445.386.556.166.056.331 0 .551-.223 0 0-.44-.612-.771-1.058-.44-.556-1.047-1.113-1.818-1.057-.276 0-.496.111-.717.278-.992-.501-1.708.056-1.983.056l-1.709-.112c-.33 0-.606-.39-.606-.39-.055-1.447-1.212-2.004-1.598-2.004 0 0 .055-.278-.055-.334l-.33.446-.992-.39.771.612-.826 1.002c-.11.056-.055.223-.055.279z"/><path fill="#FFF" d="M19.727 33.127c-.22.167-.22.446-.11.724l.165.278.385-.278-.11-.167c-.055-.111-.055-.278.055-.334l.551-.39c.166-.111.22-.111.33-.111l1.103.223s-.165-.223-.22-.502l-1.047-.167c-.166 0-.22.056-.386.167l-.716.557zm7.163 3.396h.44l.662-1.67c0-.056.055-.111.055-.111-.33-.112-.496-.223-.716-.334.165.222.33.334.22.557l-.661 1.558zm.386-22.938l.77-4.566-2.975 1.002v4.733l2.205-1.17zm-1.709-3.063l1.984-.723s-.386.334-.827.612c-.385.279-1.157.613-1.157.613v-.502zm0 1.114l1.819-.668s-.22.223-.662.557c-.385.278-1.157.612-1.157.612v-.501zm0 1.17l1.598-.613s0 .222-.44.5c-.386.28-1.158.613-1.158.613v-.5zm-3.581 4.843l.055.111h.606v.112c0 .111.055.223.055.334.11.278.276.612.606.835.33.278.882.501 1.543.501 1.488 0 2.149-.946 2.204-1.67v-.112h.606l.055-.11c.551-.892 1.268-1.95 2.094-2.06l-2.259-1.337-2.755 1.503-2.755-1.503-2.26 1.336c.882.111 1.599 1.114 2.205 2.06z"/><path fill="#FFF" d="M24.63 14.754V10.02L21.656 9.02l.772 4.566 2.204 1.169zm-.495-1.448s-.717-.278-1.157-.612c-.441-.334-.441-.501-.441-.501l1.598.612v.501zm0-2.784v.502s-.717-.279-1.157-.613c-.441-.334-.827-.612-.827-.612l1.984.723zm0 1.114v.501s-.717-.278-1.157-.612c-.441-.334-.662-.557-.662-.557l1.819.668zm.716-4.621c-1.708 0-2.975.557-3.251 1.225l3.251 1.28 3.251-1.28c-.275-.668-1.543-1.225-3.251-1.225zm0-1.893c1.267 0 2.48.39 3.361.89.11-.445.276-.779.496-1.169l-.771.112-.661-1.336-1.158.612-1.267-1.28-1.267 1.28-1.157-.612-.607 1.336-.771-.112c.22.39.33.724.496 1.17.771-.501 2.039-.891 3.306-.891zm21.214 10.356c.441-.056.772-.167 1.157-.501-.881-.223-2.755-.891-4.353-.613-.55.056-.826.279-.606.39.827.557 1.929 1.893 2.7 3.452.661-.835.386-1.949.276-2.283 1.322.835 1.708 1.225 2.314 1.058-.386-.501-.826-.947-1.488-1.503zM4.74 18.206c.771-1.56 1.818-2.895 2.7-3.452.165-.111-.11-.334-.606-.39-1.598-.278-3.472.39-4.353.613.44.334.771.445 1.157.5-.661.557-1.102 1.003-1.433 1.504.606.167.992-.223 2.314-1.058-.165.334-.44 1.448.22 2.283z"/><path fill="#000" d="M14.051 32.57c.606-.5 1.157-.723 1.102-1.948-.937.5-3.582.445-4.684-1.058-.33-.446 0-.668.331-.334.771.835 2.149.445 2.645.223-.055-.279-.33-.669-.496-.836.165-.167.716-.445.827-.946-.276-.167-1.378-.278-1.378-.278.165-.168.386-.446.275-1.058-1.157.334-2.534-.112-2.865-.557-.33-.446 0-.835.276-.557.55.613 3.36 1.28 4.408.223-.386-.112-.827-.446-.882-.668.937-.112 1.708-.668 1.819-1.392-.551 0-1.543-.056-1.874-.279.44-.167.772-.334.882-.89-1.764-.112-1.929-1.448-1.929-1.67 1.157.667 3.196.389 2.645-1.281-.937-.056-1.929-1.615.716-3.062 2.37-1.281 5.125-2.729 4.85-5.011-.166-1.504-2.59-2.506-2.866-3.23-.992.501-1.212 1.058-.771 2.005 0 0-2.26.222-2.425-1.17-.055-.612.33-1.224.772-1.67-.276 0-1.929-.445-2.48.947-.937-.668-1.763-.613-2.425.055 1.047.613 1.654 2.729 3.362 3.341-1.213.668-3.141.39-4.298-1.615-1.047 1.615-1.708 3.23.606 4.956-4.133 1.948-4.078 5.623-7.714 7.349.385 1.002 1.157 1.002 2.149.835-1.598 2.116-.22 4.231-2.756 5.122.22.835.717 1.504 1.598 1.28-.275.39-.44.39-.826.836 1.377.89 2.975.223 3.361-2.561.055-.501.716-.167.496.278-1.543 3.285 2.37 5.735.992 8.129 1.212-.056 2.149-.167 2.645-.557.275.501.385 1.002.33 1.504.662-.112.937-.557.992-1.003.441 1.28 2.039 2.729 4.574 2.729-1.323-2.005-.055-3.954-1.984-6.18zm-2.48 2.395l-.55.946c-.221-.612-.552-1.225-.772-1.726-.44.89-1.102.947-1.763.947.165-2.172-2.535-4.343-1.378-6.849.22-.5.055-1.113-.44-1.336-1.819-.946-.992 2.95-2.756 3.062.33-.445.496-1.336.551-1.447-.385.111-1.322.668-1.708-.056 1.047-.557 1.378-1.448 1.543-2.338.22-1.114.33-1.615.496-2.06.22-.502.606-.891 1.322-1.893-.165 0-2.204.445-2.7.222 3.527-2.171 2.755-4.955 8.1-7.46-1.432-1.058-2.865-1.893-1.818-3.898 1.488 1.782 4.243 1.17 5.786.334-1.488-.278-3.417-1.614-3.857-3.118.55-.11 1.267.557 1.708.836.22-.557.275-1.17.936-1.337-.881 1.893.827 2.896 2.48 2.896.276 0 1.322-.112 1.322-.112-.165-.334-.881-1.336-.385-1.726.385.39.881.668 1.322 1.002 3.196 2.506-1.543 4.844-3.471 5.846-3.03 1.67-2.204 3.62-.937 4.12 0 .223-.165.335-.33.39-.882.279-1.709-.334-2.425-.724.055 1.225-.055 2.395 1.322 3.118l-.936.334c.826.613 1.047.947 1.983 1.058-.44.223-.992.223-1.487.279.11.334.22.78.495 1.113-1.983.223-2.755-.89-3.36-.835-1.323.111-1.213 2.561 1.983 2.561l-.33.557s.605.334 1.156.445c-.22.167-.44.39-.606.613l.496.445c-1.322.223-1.653-1.17-2.534-.5-1.268 1.057 1.542 3.228 4.298 2.894-.22.279-.882.724-1.158.947 2.204 2.115 1.102 4.12 2.04 5.567-1.874-.167-3.307-1.559-3.638-3.117zm-3.526-7.74c.44.502 1.047.557 2.094.446-1.157-.167-1.819-.446-2.204-1.225a9.231 9.231 0 0 1-.11-1.28c-.056-1.225.385-2.729 1.212-4.343 0 1.002.771 2.616 2.59 2.895-1.598-.724-2.535-2.283-2.04-3.842.331-.557.717-1.113 1.103-1.67.22-.279.44-.557.606-.78-.22.78.716 1.615 1.377 1.726-.33-.334-1.046-1.447.607-3.229-.496.223-.992.557-1.378.835 3.086-3.34 5.62-3.452 6.778-5.122-1.653 1.17-6.117 1.782-8.1 1.225 1.102.724 3.747.668 4.408.557-2.15 2.115-6.888 4.342-7.715 6.291 1.158-1.28 1.874-1.503 2.92-1.837-.77 1.169-1.487 2.227-1.983 3.452-1.267 2.784-2.92 2.784-3.03 5.066.55-1.781 1.763-2.227 2.534-3.396-.165.724-.22 1.559-.165 2.505.055 1.003.22 1.95.551 2.729-.055 1.113 0 3.062 1.267 4.342-.881-1.113-1.047-2.895-.991-3.619.991 1.95 3.857 4.622 5.234 6.459-1.488-2.338-4.849-5.067-5.565-8.185zm31.573-9.353c.992.334 1.764.557 2.866 1.837-.827-1.949-5.566-4.176-7.715-6.291.662.111 3.307.222 4.409-.557-1.984.557-6.447-.056-8.1-1.225 1.157 1.67 3.691 1.782 6.777 5.122-.386-.334-.937-.612-1.377-.835 1.708 1.837.936 2.895.606 3.23.606-.112 1.543-.947 1.377-1.727.22.223.386.501.606.78.441.557.772 1.113 1.102 1.67.496 1.56-.44 3.118-2.038 3.842 1.763-.279 2.59-1.837 2.59-2.895.826 1.614 1.267 3.118 1.212 4.342 0 .446-.055.891-.11 1.281-.386.78-1.047 1.058-2.205 1.225 1.047.056 1.598 0 2.094-.446-.716 3.118-4.077 5.847-5.51 8.185 1.378-1.837 4.243-4.51 5.235-6.459.055.724-.11 2.506-.992 3.62 1.267-1.281 1.377-3.174 1.267-4.343.33-.835.551-1.726.551-2.729.055-.946-.055-1.781-.165-2.505.826 1.17 1.984 1.615 2.535 3.396-.11-2.282-1.819-2.338-3.031-5.066-.496-1.225-1.212-2.283-1.984-3.452zm5.455 5.122c.992.167 1.764.167 2.15-.835-3.637-1.726-3.637-5.456-7.77-7.35 2.314-1.725 1.653-3.34.606-4.955-1.157 2.005-3.086 2.283-4.298 1.615 1.708-.612 2.315-2.728 3.361-3.34-.66-.669-1.432-.724-2.424-.056-.496-1.392-2.204-.947-2.48-.947.441.446.882 1.058.772 1.67-.166 1.392-2.425 1.17-2.425 1.17.441-.947.276-1.504-.771-2.005-.33.724-2.7 1.782-2.865 3.23-.22 2.338 2.48 3.73 4.849 5.01 2.644 1.448 1.653 3.007.716 3.063-.551 1.67 1.488 1.948 2.645 1.28 0 .223-.166 1.56-1.929 1.67.166.502.441.669.882.891-.33.279-1.378.279-1.874.279.055.724.827 1.28 1.819 1.392-.055.222-.496.556-.882.668 1.047 1.058 3.857.334 4.408-.223.276-.278.606.111.276.557-.33.445-1.708.89-2.866.557-.11.668.11.89.276 1.058 0 0-1.102.11-1.433.278.11.501.662.78.827.946-.165.167-.441.557-.496.836.496.222 1.929.612 2.645-.223.33-.334.661-.112.33.334-1.102 1.503-3.746 1.559-4.683 1.058 0 1.225.496 1.447 1.102 1.948-1.929 2.227-.661 4.176-1.984 6.125 2.535 0 4.133-1.392 4.574-2.728.055.445.275.89.991 1.002-.055-.501.11-1.002.331-1.503.496.39 1.433.5 2.645.556-1.378-2.394 2.535-4.843.992-8.073-.22-.5.44-.78.496-.278.385 2.784 1.983 3.396 3.36 2.561-.385-.445-.605-.445-.826-.835.937.223 1.378-.446 1.598-1.28-2.424-.892-1.047-3.007-2.645-5.123zm.22 5.568c.056.055.166 1.002.552 1.447-1.818-.111-.992-3.953-2.81-3.062-.496.278-.662.89-.441 1.336 1.157 2.506-1.488 4.677-1.378 6.849-.66 0-1.377 0-1.818-.947-.22.445-.551 1.114-.771 1.726l-.551-.946c-.331 1.558-1.764 2.95-3.692 3.117.936-1.447-.166-3.452 2.038-5.567-.275-.223-.936-.668-1.157-.947 2.755.334 5.566-1.837 4.298-2.895-.826-.668-1.212.724-2.534.501l.495-.445-.606-.613c.551-.055 1.158-.445 1.158-.445l-.331-.557c3.196 0 3.306-2.505 1.984-2.561-.607-.056-1.378 1.114-3.362.835.276-.334.331-.78.496-1.113-.496-.056-1.047-.056-1.487-.279.936-.111 1.212-.445 1.983-1.058l-.937-.334c1.323-.668 1.268-1.893 1.323-3.118-.716.39-1.543 1.058-2.425.724-.22-.055-.33-.167-.33-.39 1.267-.5 2.094-2.45-.937-4.12-1.929-1.057-6.667-3.396-3.471-5.846.44-.334.936-.668 1.322-1.002.496.39-.165 1.336-.33 1.726 0 0 1.046.112 1.322.112 1.653 0 3.361-1.003 2.48-2.896.66.112.716.78.936 1.337.441-.279 1.157-.891 1.708-.836-.44 1.504-2.369 2.784-3.857 3.118 1.488.835 4.298 1.448 5.786-.334 1.047 2.005-.386 2.84-1.818 3.898 5.345 2.45 4.573 5.233 8.1 7.46-.441.223-2.48-.222-2.7-.222.771 1.002 1.102 1.447 1.322 1.893.22.445.33.946.496 2.06.165.89.496 1.781 1.543 2.338-.276.724-1.212.111-1.598.056zM19.728 34.63l.771-.668-.11-.222c-.11-.167-.055-.167.055-.223l.386-.278c.11-.056.165-.056.33-.056l1.212.278h-1.267c-.275 0-.386.112-.496.334l-.11.167-.33.668a.786.786 0 0 0 .11.891l.22.279-.496.946h.386l.33-.668s.496-.445.606-.946c-.165-.112-.22-.223-.165-.335l.165-.334c.056-.11.056-.167.22-.11l1.268.277c.166.056.386.112.551-.167.166-.278.22-.222.606-.222l.662.055c.881.112 1.763-.167 2.149-.39.11.279.385.502.496.724.055.056-.056.167-.056.335l-.771 1.837h1.102l.661-1.615a.856.856 0 0 1 .22-.334l-.385 1.949h1.102l.275-1.949c.056-.445 0-.557-.165-.724-.44-.39-.44-1.225-.606-1.726.055-.055.165-.055.276-.055.22 0 .44.612.716 1.058.55.779 1.322 1.67 2.204.445-.11-.167-.165-.278-.276-.39l-.22-.278c-.165-.167-.826-.947-1.102-1.225-.661-.668-1.598-.557-2.039-.223-.881-.445-1.818 0-2.039 0l-1.542-.111c-.055 0-.166-.056-.276-.167l.276-.111c-.276-1.114-.937-2.06-2.094-2.228 0 0-.055-.334-.22-.445l-.331.39c-.11 0-.22.055-.276.055l-1.488-.556 1.102 1.169s-.606.835-.77 1.002c-.111.167-.111.278 0 .446l.22.278c.11.167.22.167.44.056l.22-.112c.11-.111.442.112.607-.055-.11.334-.165.612-.165.89l-.992-.111c-.22-.056-.33 0-.441.111l-.882.668a.778.778 0 0 0-.22.947l.386.78zm8.265.167l-.661 1.67h-.441l.661-1.614c.055-.223-.055-.334-.22-.557.275.167.44.223.716.334 0 .112 0 .112-.055.167zm-6.557-3.674l-.22.111c-.11.056-.221.112-.331-.055l-.11-.112c-.056-.056-.056-.167.055-.278l.826-1.002-.716-.557.992.39.385-.446c.11.112.055.334.055.334.386 0 1.543.557 1.598 2.005 0 0 .276.39.607.39l1.708.11c.275 0 .992-.556 1.873-.055.22-.111.496-.223.716-.278.772-.056 1.378.5 1.819 1.057.33.39.771 1.058.771 1.058-.165.223-.385.279-.55.223-.221-.111-.331-.334-.386-.557-.11-.445-.551-.78-.551-.78.165.28.165.613.275.892-.661-.669-.771-1.504-1.267-1.615-.22-.056-.441.056-.662.278.22.557.22 1.17.441 1.615.166.334.22.334.276.39.22.167.11.39.055.556l-.276 1.615h-.44l.275-1.559c.11-.5-1.212-.5-1.929-1.392-.55.668-2.204.501-2.865.39-.275-.056-.55 0-.716.278-.11.167-.22.112-.33.112l-1.268-.279c-.22-.055-.33 0-.44.223l-.276.557c-.056.111-.056.223.055.334l.11.111c-.055.279-.276.446-.276.446l-.22-.279a.603.603 0 0 1-.055-.612l.386-.891c.055-.111.11-.223.33-.223h1.598l-.496-.78c-.385-.612.22-1.67.166-2.17-.056.668-.882.39-.992.445zm-1.708 2.004l.771-.557a.498.498 0 0 1 .386-.167l1.047.167c.055.279.22.502.22.502l-1.102-.223c-.165 0-.22 0-.33.111l-.552.39c-.11.056-.11.223-.055.334l.11.167-.385.278-.166-.278c-.165-.278-.165-.501.056-.724zm3.25-20.433c.386.278 1.158.612 1.158.612v-.5l-1.598-.613s0 .167.44.5zm1.158-.613v-.5l-1.819-.669s.22.223.662.557c.44.334 1.157.612 1.157.612zm0-1.057v-.502L22.15 9.8s.386.334.827.612c.44.279 1.157.613 1.157.613zm5.565 6.625h2.039c-.11-.278-.386-.612-.992-.612s-.937.334-1.047.612zM27.551 9.8l-1.984.723v.502s.717-.279 1.157-.613c.441-.334.827-.612.827-.612zm-.386 2.394l-1.598.612v.501s.717-.278 1.157-.612c.441-.334.441-.501.441-.501zm.22-1.225l-1.818.668v.501s.717-.278 1.157-.612c.441-.334.662-.557.662-.557zm-8.43 6.069c-.606 0-.882.278-.992.612h2.039c-.11-.278-.44-.612-1.047-.612z"/><path fill="#000" d="M28.873 8.462c0-1.169-1.928-2.17-4.022-2.17-2.094 0-4.022 1.001-4.022 2.17l.055.279.826 4.9-3.967 2.338c-.441.278-.937.946-1.047 1.67h.716c.11-.724.661-1.447 1.708-1.447.937.055 1.488.612 1.984 1.447l.165.223.22.334h-5.895c.44.89.826 1.782.826 2.784v12.304c0 3.174 2.425 4.677 5.015 4.677 2.038 0 2.259-.111 3.416 1.058 1.102-1.114 1.378-1.058 3.416-1.058 2.59 0 5.015-1.503 5.015-4.677V20.99c0-1.002.385-1.949.826-2.784h-5.896l.22-.334.166-.223c.551-.835 1.102-1.392 1.984-1.447.991-.056 1.542.723 1.708 1.447h.716c-.055-.724-.606-1.392-1.047-1.67l-3.967-2.339.826-4.9.055-.278zm-7.218.557l2.976 1.002v4.733l-2.204-1.17-.772-4.565zm.716 10.022c.386.557 1.047.947 1.764 1.114.055.278.22.612.496.835-.11.835.22 1.614 1.102 1.837.11.445.33.78.771.89l-.606.725c-.22.278-.551.39-.827.334l-2.755-.334c.11-.334-.22-.668-1.102-.501l1.102-3.063-.66-1.447-1.268 1.113v3.174l-.551-.279c-.717-.334-.937 1.003-.22 1.003h.275c0 .111 0 .278.11.334-.11.055-.165.278 0 .39-.165.055-.165.333-.055.445-.165.223-.165.78.33.89.386.112.662-.333.717-.556l4.298 1.336c.606.167 1.047.056 1.543-.39l1.102-1.002c-.166.668.11 1.225.606 1.448 0 0-.055.612-.055.835H17.247V20.99c0-.668-.165-1.337-.44-1.949h5.564zM27 21.713c-.22.446-.22 1.003.055 1.448l-.165.167c-.827-.111-1.157-1.336-1.157-1.336v.334c-.496-.167-.772-.613-.772-1.17.166.112.386.168.606.223l.055-.334a1.341 1.341 0 0 1-1.046-.89h-.056.331c.33 0 .661-.056.937-.167.22.334.661.556 1.047.612 0 .334 0 .724.165 1.113zm1.212 3.285c-.055.112-.165.223-.165.39l-.44.446c.11-.669-.331-1.448-.772-1.782l.496-.501.11.111c-.22.39.11 1.225.771 1.336zm-2.149-.222l.386-.39c.386.334.882 1.058.716 1.782l-.385.39c-.11.055-.166.166-.276.222.22-.668-.11-1.615-.44-2.004zm-.826.278c.165 0 .275 0 .44-.056.276.39.496 1.337.166 1.95-.165 0-.386-.057-.551-.057l-.165-.055c.275-.446.22-1.28.11-1.782zm-.937-.111l.551.055c.11.446.055 1.225-.275 1.615l-.607-.167c.276-.334.386-1.114.331-1.503zm-1.102-.112l.661.056c.055.334-.055 1.114-.275 1.448l-.662-.167c.22-.334.331-.947.276-1.337zm-2.59-.167c-.275.112-.44-.111-.44-.278.605-.223.826-.056.991.056.165.111.276.39.496.556-.055.223-.11.613-.22.836-.606-.167-.606-.669-.386-1.003-.055-.222-.165-.278-.44-.167zm-.386 1.17s.166.055.386.11c0 .112-.11.224-.275.224-.11-.056-.166-.223-.11-.334zm-.606-1.726c-.165-.112-.055-.334.055-.334.166 0 .441.222.662.334.055 0-.606.055-.717 0zm.606 1.224c.11.112.496.056.496.056v.056c-.11.278-.606.167-.496-.112zm.551-.222c-.275.111-.55-.056-.495-.223.11.111.495.056.495.056v.167zm.386-3.23l-.55 1.95.164-3.119.827-.723.44.89-1.046 3.063.275-2.06c0-.168-.11-.168-.11 0zm.055 2.339s.606-.056.772.056c.11.055.055.278-.11.222-.22-.055-.662-.278-.662-.278zm.882.445l.661.056c.055.334-.055.947-.275 1.28l-.606-.11c.165-.39.165-.78.22-1.226zm10.304 8.63c0 1.503-.661 2.617-1.818 3.285l.385-.835h-.385l-.551 1.058a4.81 4.81 0 0 1-1.819.334c-2.094 0-2.645.111-3.416.835-.772-.78-1.323-.835-3.416-.835a4.81 4.81 0 0 1-1.819-.334l.551-1.058h-.385l-.441.89-.33-.166.385-.78h-.386l-.275.557c-.882-.668-1.433-1.67-1.433-3.006v-4.733H32.4v4.788zm.44-14.253c-.22.612-.44 1.28-.44 1.949v7.182h-.827c-.385-.39-.716-1.615-.716-1.615-.22.446.055 1.337.276 1.615h-1.047c-.276-.334-.496-1.615-.496-1.615-.33.39-.11 1.337.055 1.615h-.716c-.056-.501.11-1.058.11-1.058-.386-.056-.772-.278-.772-.668.166.167.276.167.496.167l.276-.223c-.992.056-1.047-1.058-.276-1.614-.771 0-1.377-.446-1.102-1.28-.55-.28-.771-1.281-.33-1.671-.276-.334-.331-1.002-.166-1.392-.385 0-.826-.167-1.102-.445h-.055c.496-.223.937-.502 1.212-.947h5.62zm-3.03-3.508c-.826.167-1.543 1.17-2.094 2.06l-.055.112h-.606v.111c-.055.724-.716 1.67-2.204 1.67-.661 0-1.212-.222-1.543-.5-.33-.223-.496-.557-.606-.836-.055-.111-.055-.223-.055-.334v-.111h-.606l-.055-.112c-.606-.89-1.268-1.948-2.094-2.06l2.259-1.336 2.755 1.503 2.755-1.503 2.15 1.336zm-2.534-1.948l-2.205 1.169V10.02l2.976-1.002-.771 4.566zM24.85 9.52L21.6 8.24c.276-.668 1.543-1.225 3.251-1.225s2.976.557 3.251 1.225l-3.251 1.28zm7.218 14.142v-.334c-1.102 0-1.322-1.336-1.322-1.336-.33.946.496 1.67 1.322 1.67zm-1.377 2.227l-.11-.334c-.937.223-1.433-1.225-1.433-1.225-.276 1.002.771 1.782 1.543 1.56zm.661-1.392c-1.102.167-1.598-1.113-1.598-1.113-.11.724.33 1.447 1.047 1.503-.165.947.716 1.392 1.433 1.058l-.11-.334c-.607.223-1.213-.446-.772-1.114zm-.661-3.73v-.334c-1.488-.334-1.323-1.336-1.323-1.336-.33.946.496 1.614 1.323 1.67z"/><path fill="#000" d="M21.38 35.744l-.551 1.058h.385l.551-1.058h-.385zm.771 0l-.551 1.058h.44l.497-1.058h-.386zm3.196 0l-.551 1.058h.386l.55-1.058h-.385zm.771 0l-.496 1.058h.386l.496-1.058h-.386zm-1.598 0l-.496 1.058h.386l.551-1.058h-.44zm4.684 1.058h.386l.55-1.058h-.44l-.496 1.058zm-6.282-1.058l-.495 1.058h.385l.551-1.058h-.44zm.827 0l-.551 1.058h.44l.497-1.058h-.386zm-1.818-5.846c-.055 0-.11.056-.11.167 0 .111.055.167.11.167s.165-.056.165-.167c0-.056-.055-.167-.165-.167zm2.92-24.33c1.653 0 2.92.556 3.637 1.113 0 0 .22-1.336.936-2.45l-1.322.167-.661-1.503-1.323.724-1.267-1.281-1.267 1.28-1.323-.668-.661 1.504-1.322-.167c.716 1.169.936 2.45.936 2.45.717-.613 1.984-1.17 3.637-1.17zm-3.086-.613l.662-1.336 1.157.612 1.267-1.28 1.267 1.28 1.158-.612.606 1.336.771-.112c-.22.39-.33.724-.496 1.17-.826-.501-2.094-.891-3.361-.891-1.267 0-2.535.39-3.361.89-.166-.445-.276-.779-.496-1.169l.826.112zm4.408-2.06c.166 0 .386-.112.386-.334 0-.167-.275-.724-.275-.724s-.386.501-.386.724c-.055.167.11.334.275.334zm2.15.835c.165.111.385 0 .44-.167.11-.167.055-.78.055-.78s-.55.279-.66.446c-.056.167 0 .39.164.5zm-4.794-.835c.22 0 .33-.167.33-.39 0-.167-.44-.668-.44-.668s-.331.557-.276.78a.3.3 0 0 0 .386.278zm-2.205.835c.22-.111.276-.334.166-.501-.11-.167-.661-.446-.661-.446s-.056.557.055.78c.11.167.275.223.44.167zM47.222 15.7c.441-.167.827-.612.992-1.002-1.157-.167-4.298-1.503-6.832-.39.936-.89 1.818-1.057 1.873-2.338.386.278 1.047.445 1.433-.223-.276-.78-.937-.167-1.047-.39-.11-.278.826.112 1.047-.946-.772-.278-.992.334-1.102.223-.11-.112.496-.39.055-1.225-.772.445-.386 1.002-.551 1.058-.22.055-.055-.557-.882-.501-.11.946.827.946.661 1.113-.165.167-.44-.557-1.047-.167 0 .78.607 1.17 1.268 1.002-.11 1.448-1.433 1.17-2.37 2.784 2.04 1.058 2.976 2.951 4.298 4.232.441-.279 1.158-1.615 1.158-1.615 1.377 1.058 2.369 0 2.369 0-.606-.612-.606-.946-1.323-1.615zm-2.038.223c.165.334.44 1.448-.276 2.283-.771-1.56-1.818-2.895-2.7-3.452-.165-.111.11-.334.606-.39 1.598-.278 3.472.39 4.353.613-.385.334-.771.445-1.157.5.661.557 1.102 1.003 1.433 1.504-.551.167-.882-.223-2.26-1.058zM24.465 41.256l-.881-.056-.11.334h.11c.055 0 .055-.055.055-.111 0 0 .165-.056.33 0l.386.056c-.22.445-.771.89-.771 1.225 0 .167.165.222.275.167.165 0 .22-.112.276-.334.11-.446.33-.78.496-1.337l-.166.056zm.606.557v-.279h.772l-.055-.334c-.22 0-.551.056-.827.056l-.055.612c.386 0 .606.167.606.502 0 .167-.11.39-.275.445h-.11c-.056-.056 0-.111 0-.223 0-.111-.11-.167-.22-.167-.111 0-.166.112-.166.223 0 .223.33.278.496.278.33 0 .661-.167.661-.556.055-.446-.44-.557-.827-.557zm1.709-.613a.496.496 0 0 0-.496.501c0 .446.496.613.826.446.055.334 0 .612-.165.612-.11 0-.11-.111-.11-.167-.055-.111-.11-.167-.22-.111-.166 0-.166.111-.166.167.055.167.275.167.386.167.44-.056.66-.39.66-.78 0-.445-.275-.835-.715-.835zm.165.835c-.276 0-.33-.445-.33-.668 0-.055.054-.167.11-.167.275 0 .33.613.33.78 0 .055-.055.055-.11.055z"/><path fill="#000" d="M22.922 41.089c-.055.056-.22.278-.66.612l.054.056c.055 0 .11-.056.22-.111l-.22.835c0 .056-.055.056-.11.056h-.165v.11l.771.168v-.111l-.11-.056c-.055 0-.055-.056-.055-.111l.386-1.448h-.11zm8.982-1.114v-1.781c-1.322.612-3.086 1.113-5.29 1.336l-.11.612c.165 0 .44.056.716.056-.826.111-1.873.167-2.424.167-.606 0-1.653-.056-2.48-.167.33 0 .551-.056.717-.056l-.11-.612c-2.205-.223-3.913-.724-5.29-1.336v1.781l-1.819.78c1.378.724 2.92 1.28 4.74 1.782l-.221.723c1.047.279 2.7.613 4.408.613 1.708 0 3.361-.334 4.408-.613l-.22-.723a20.585 20.585 0 0 0 4.738-1.782l-1.763-.78zm-14.988.836l1.213-.502v-1.447c.771.334 1.818.612 3.306.946l-.717 2.283c-1.487-.334-2.755-.835-3.802-1.28zm7.935 2.616c-1.378 0-2.755-.222-3.912-.5l.716-2.395c.496.112 1.708.279 3.196.279 1.433 0 2.7-.167 3.196-.279l.716 2.394c-1.157.334-2.534.501-3.912.501zm4.078-1.336l-.717-2.283c1.488-.334 2.535-.612 3.306-.946v1.447l1.213.502c-.992.445-2.26.946-3.802 1.28zM3.637 17.204s.716 1.336 1.157 1.614c1.267-1.28 2.204-3.173 4.298-4.231-.992-1.615-2.314-1.336-2.37-2.784.607.167 1.213-.223 1.268-1.002-.661-.39-.882.334-1.047.167-.165-.167.771-.167.661-1.114-.882 0-.716.613-.937.501-.165-.055.22-.556-.55-1.057-.441.835.165 1.057.054 1.224-.11.168-.385-.5-1.102-.222.22 1.002 1.158.612 1.047.946-.11.223-.771-.445-.992.39.386.668 1.047.501 1.433.223.11 1.336.937 1.447 1.874 2.338-2.535-1.058-5.676.223-6.833.39.165.39.551.835.992 1.002-.717.668-.717 1.058-1.212 1.559-.11.056.881 1.114 2.259.056zm-1.433-.223c.33-.501.827-1.002 1.433-1.503-.441-.056-.772-.167-1.157-.501.881-.223 2.755-.891 4.353-.613.496.056.826.279.606.39-.827.557-1.929 1.893-2.7 3.452-.661-.835-.386-1.949-.276-2.283-1.322.835-1.653 1.225-2.259 1.058zm21.545-.78v.78c.275-.334.771-.278.771-.278v1.113s0 .557-.22.78h1.102c-.165-.223-.22-.78-.22-.78v-1.113s.496-.056.771.278v-.78H23.75z"/></g></svg>