<svg xmlns="http://www.w3.org/2000/svg" width="34" height="50" viewBox="0 0 34 50" preserveAspectRatio="xMinYMin meet"><path fill="#00377B" d="M16.665 22.927h.973c.487 14.146 1.825 22.195 4.258 26.341-1.582.488-3.285.732-5.11.732-1.824 0-3.649-.244-5.23-.732 2.433-4.268 3.77-12.317 4.257-26.341h.852zm3.528-5.732c7.42 1.585 13.015 8.293 13.015 16.342 0 5.853-3.04 10.853-7.542 13.902-5.96-6.098-6.933-23.17-6.933-24.268.851 0 2.068.366 2.19.366 1.337 7.926 4.743 14.634 8.636 18.292 1.46-2.195 2.19-4.512 2.19-6.829 0-7.317-6.934-13.049-15.206-13.049-8.15 0-15.205 5.732-15.205 13.049 0 2.317.852 4.634 2.311 6.83 3.893-3.66 7.299-10.367 8.637-18.415.121 0 1.338-.366 2.19-.366 0 1.097-.852 18.17-6.934 24.268A16.579 16.579 0 0 1 0 33.415c0-7.927 5.596-14.635 13.016-16.22.365-5.366.365-7.56.365-10.244h1.216s-.122 7.44-.122 9.878c.487-.122.974-.122 1.46-.122V0h1.216v16.707c.487.122.974.122 1.46.122-.121-2.439-.121-9.878-.121-9.878h1.338c0 2.683 0 4.878.365 10.244z"/></svg>