<svg xmlns="http://www.w3.org/2000/svg" xmlns:xlink="http://www.w3.org/1999/xlink" width="49" height="37" viewBox="0 0 49 37" preserveAspectRatio="xMinYMin meet"><defs><path id="a" d="M0 4.238v15.521l.002.184c2.506 4.682 7.352 7.9 12.96 8.06-4.465-.223-8.027-3.838-8.027-8.244V1.996C4.935.892 5.823 0 6.912 0 3.906 0 1.3.631 0 3.15"/><linearGradient id="b" x1="18.61%" x2="18.61%" y1="14.286%" y2="73.696%"><stop offset="0%" stop-color="#5C1A52"/><stop offset="25%" stop-color="#A51C45"/><stop offset="40%" stop-color="#BD1E35"/><stop offset="51%" stop-color="#D12027"/><stop offset="65%" stop-color="#B41D3B"/><stop offset="74%" stop-color="#A51C45"/><stop offset="81%" stop-color="#8E1B49"/><stop offset="93%" stop-color="#6A1A50"/><stop offset="100%" stop-color="#5C1A52"/></linearGradient><path id="d" d="M6.912 0C3.1 0 0 3.129 0 6.976v2.241A7.78 7.78 0 0 1 6.912 4.98h4.901a2.46 2.46 0 0 0 1.746-.73c.462-.467.722-1.1.721-1.76 0-.66-.259-1.293-.721-1.76A2.46 2.46 0 0 0 11.813 0h-4.9z"/><linearGradient id="e" x1="6.472%" x2="85.65%" y1="83.409%" y2="83.409%"><stop offset="0%" stop-color="#E21E26"/><stop offset="12%" stop-color="#CA1D32"/><stop offset="25%" stop-color="#B51D3D"/><stop offset="38%" stop-color="#A91C43"/><stop offset="50%" stop-color="#A51C45"/><stop offset="59%" stop-color="#931C48"/><stop offset="75%" stop-color="#751B4E"/><stop offset="90%" stop-color="#631A51"/><stop offset="100%" stop-color="#5C1A52"/></linearGradient><path id="g" d="M6.597 7.004c0 .398-.038.789-.11 1.166a6.01 6.01 0 0 1-.865 2.148c-.736 1.175-.55 2.466.586 3.12.73.398 1.388.915 1.95 1.53a7.885 7.885 0 0 1 2.048 5.326c0 3.97-2.888 7.25-6.586 7.674 5.319-.232 9.674-3.374 11.519-7.825a12.83 12.83 0 0 0-4.242-9.425 11.03 11.03 0 0 0 .636-3.714c0-.698-.155-2.012-.28-2.674C8.602 1.936 5.07.456 1.27.456c-.09 0-.18.003-.27.007 3.049.078 5.596 3.33 5.596 6.54z"/><linearGradient id="h" x1="25.692%" x2="25.692%" y1="13.831%" y2="77.296%"><stop offset="0%" stop-color="#5C1A52"/><stop offset="20%" stop-color="#931B48"/><stop offset="26%" stop-color="#A51C45"/><stop offset="50%" stop-color="#D12027"/><stop offset="58%" stop-color="#BD1E35"/><stop offset="68%" stop-color="#AB1D41"/><stop offset="75%" stop-color="#A51C45"/><stop offset="78%" stop-color="#9B1C47"/><stop offset="93%" stop-color="#6D1A4F"/><stop offset="100%" stop-color="#5C1A52"/></linearGradient><path id="j" d="M34.383 0c5.159 0 9.466 3.82 10.396 8.853-2.651-2.394-6.183-3.873-9.981-3.873-.091 0-.182.003-.272.005a2.466 2.466 0 0 0-.143-.005H26.8v18.67c0 7.298-6.011 13.237-13.401 13.237-7.328 0-13.297-5.839-13.4-13.052 2.505 4.681 7.352 7.9 12.96 8.061.144.006.292.011.44.011 4.666 0 8.464-3.704 8.464-8.256V0h12.52-.001z"/><linearGradient id="k" x1="8.286%" x2="93.129%" y1="90.524%" y2="90.524%"><stop offset="0%" stop-color="#219CD8"/><stop offset="15%" stop-color="#2299D5"/><stop offset="26%" stop-color="#2690CC"/><stop offset="36%" stop-color="#2D81BC"/><stop offset="45%" stop-color="#376BA5"/><stop offset="53%" stop-color="#444F88"/><stop offset="61%" stop-color="#532D65"/><stop offset="65%" stop-color="#5C1A52"/><stop offset="69%" stop-color="#661A50"/><stop offset="75%" stop-color="#821B4B"/><stop offset="82%" stop-color="#A51C45"/><stop offset="96%" stop-color="#D41E2D"/><stop offset="100%" stop-color="#E21E26"/></linearGradient><path id="m" d="M11.265 8.913c-.269.03-.539.046-.81.046H2.477a2.48 2.48 0 0 0-2.472 2.49 2.48 2.48 0 0 0 2.472 2.49h7.98c6.797 0 12.329-5.698 12.329-12.7l-.001-.152c-1.845 4.451-6.2 7.594-11.52 7.825z"/><linearGradient id="n" x1="97.27%" x2="-2.378%" y1="-4.7%" y2="-4.7%"><stop offset="0%" stop-color="#E21E26"/><stop offset="50%" stop-color="#A51C45"/><stop offset="59%" stop-color="#931C48"/><stop offset="75%" stop-color="#751B4E"/><stop offset="90%" stop-color="#631A51"/><stop offset="100%" stop-color="#5C1A52"/></linearGradient></defs><g fill="none" fill-rule="evenodd"><g transform="translate(0 4.353)"><mask id="c" fill="#fff"><use xlink:href="#a"/></mask><path fill="url(#b)" fill-rule="nonzero" mask="url(#c)" d="M-3.241-1.088H9.726v30.47H-3.241z"/></g><mask id="f" fill="#fff"><use xlink:href="#d"/></mask><path fill="url(#e)" fill-rule="nonzero" mask="url(#f)" transform="rotate(-23.1 7.061 5.48)" d="M-1.033-1.564l16.226-.043-.038 14.132-16.226.043z"/><g transform="translate(33.486 4.353)"><mask id="i" fill="#fff"><use xlink:href="#g"/></mask><path fill="url(#h)" fill-rule="nonzero" mask="url(#i)" d="M1.091 0h14.047v28.294H1.091z"/></g><mask id="l" fill="#fff"><use xlink:href="#j"/></mask><path fill="url(#k)" fill-rule="nonzero" mask="url(#l)" transform="rotate(-21.714 26.99 20.183)" d="M-.526-5.295l55.161-.141-.13 51.097-55.161.141z"/><g transform="translate(25.925 22.853)"><mask id="o" fill="#fff"><use xlink:href="#m"/></mask><path fill="url(#n)" fill-rule="nonzero" mask="url(#o)" d="M.008 1.088H24.86v14.147H.008z"/></g></g></svg>