<svg xmlns="http://www.w3.org/2000/svg" width="43" height="50" viewBox="0 0 43 50" preserveAspectRatio="xMinYMin meet"><g fill="none"><path fill="#00559F" d="M38.566 23.727H4.778c-1.138 0-2.048.91-2.048 2.046v19.432c0 2.5 2.048 4.545 4.55 4.545 2.504 0 4.551-2.045 4.551-4.545v-13.41h5.347v13.523c0 2.5 2.048 4.546 4.55 4.546 2.504 0 4.551-2.046 4.551-4.546V31.795h5.347v13.523c0 2.5 2.048 4.546 4.551 4.546s4.55-2.046 4.55-4.546V25.773c-.227-1.137-1.137-2.046-2.161-2.046z"/><path fill="#EE3224" d="M1.138 16.932C0 15 .683 12.614 2.617 11.477L20.705 1.023c.569-.341 1.365-.341 2.048 0L40.84 11.477c1.934 1.137 2.617 3.523 1.48 5.455-1.138 1.932-3.527 2.613-5.461 1.477L21.615 9.773 6.598 18.409c-1.934 1.136-4.323.455-5.46-1.477"/></g></svg>