<svg xmlns="http://www.w3.org/2000/svg" width="49" height="49" viewBox="0 0 49 49" preserveAspectRatio="xMinYMin meet"><g fill="none" fill-rule="evenodd"><path fill="#003871" d="M0 1.523A1.53 1.53 0 0 1 1.526 0h45.866c.84 0 1.526.685 1.526 1.523v45.69a1.53 1.53 0 0 1-1.526 1.523H1.526A1.53 1.53 0 0 1 0 47.213V1.523z"/><path fill="#FFF" fill-rule="nonzero" d="M20.91 9.519H7.938a.42.42 0 0 1-.382-.229l-.381-.761c-.077-.076 0-.229.152-.229H20.3a.42.42 0 0 1 .382.229l.381.761c.076.076 0 .229-.152.229zm.993 1.523l.381.761c.077.076 0 .229-.152.229H9.158a.42.42 0 0 1-.382-.229l-.381-.761c-.077-.076 0-.229.152-.229h12.974a.42.42 0 0 1 .382.229zm1.22 2.437l.382.761c.077.076 0 .228-.152.228H10.379a.42.42 0 0 1-.382-.228l-.381-.761c-.077-.077 0-.229.152-.229h12.974a.42.42 0 0 1 .382.229zm1.222 2.512l.381.762c.077.076 0 .228-.152.228H11.6a.42.42 0 0 1-.382-.228l-.381-.762c-.076-.076 0-.228.152-.228h12.974a.42.42 0 0 1 .382.228zm1.144 2.513l.382.762c.076.076 0 .228-.153.228H12.745a.42.42 0 0 1-.382-.228l-.381-.762c-.077-.076 0-.228.152-.228h12.974a.42.42 0 0 1 .381.228zm1.222 2.513l.381.762c.076.152 0 .228-.153.228H13.966a.42.42 0 0 1-.382-.228l-.381-.762c-.077-.076 0-.228.152-.228H26.33a.42.42 0 0 1 .382.228zm1.22 2.513l.382.762c.076.076 0 .228-.152.228H15.187a.42.42 0 0 1-.382-.228l-.381-.762c-.077-.076 0-.228.152-.228H27.55a.42.42 0 0 1 .382.228zM24.193 7.006H4.122c-.154 0-.306-.153-.306-.305v-.685c0-.152.152-.305.305-.305h20.071c.153 0 .305.153.305.305V6.7c0 .152-.152.305-.305.305zm-8.547 18.809h28.237c.152 0 .305.152.305.304v.61c0 .152-.153.304-.305.304H31.824a.42.42 0 0 0-.382.229l-7.479 15.687c-.076.152-.229.152-.305 0l-8.166-16.906c-.076-.076 0-.228.153-.228zM43.882 5.71c.152 0 .305.153.305.305v.609c0 .152-.153.305-.305.305h-.458c-.84 0-1.45.152-1.908.38a3.348 3.348 0 0 0-1.221 1.447l-7.48 15.535c0 .076-.228.228-.38.228h-2.367c-.152 0-.229-.076-.152-.228l6.868-14.697c.84-2.59-1.373-2.59-1.755-2.59h-1.526c-.153 0-.306-.152-.306-.304v-.685c0-.152.153-.305.306-.305h10.379z"/><path fill="#E2002B" d="M41.058 24.52c1.755 0 3.129-1.37 3.129-3.122 0-1.751-1.374-3.122-3.13-3.122-1.754 0-3.128 1.37-3.128 3.122 0 1.752 1.374 3.122 3.129 3.122"/></g></svg>