<svg xmlns="http://www.w3.org/2000/svg" width="50" height="47" viewBox="0 0 50 47" preserveAspectRatio="xMinYMin meet"><path fill="#00529B" d="M27.735 44.782c2.947.297 6.91-2.105 11.919-7.633a165.036 165.036 0 0010.3-12.613v18.757C49.705 45.371 47.838 47 45.572 47H9.34c2.799-2.506 5.816-6.136 8.555-10.31 2.756-4.166 3.22-5.421 5.145-9.566.774-.295 3.027-1.017 4.694-1.458-2.023 4.049-4.133 9.108-4.34 12.069-.356 4.129 1.401 6.76 4.342 7.049l-.002-.002zM17.288 29.016s-3.542 6.742-6.03 9.881C9.863 40.574 4.565 49.15.885 46.38c-3.532-3.486 5.544-10.696 7.332-11.938 3.093-2.421 9.07-5.424 9.07-5.424v-.002zM4.568 5.426C1.212 8.112 0 10.841 0 10.841V4.17C0 1.881 1.997 0 4.438 0h34.426s-2.007.153-3.948 2.216c-1.094 1.16-4.632 6.006-8.47 5.008-3.843-.99-3.086-4.125-6.897-5.167-3.8-1.04-10.932.119-14.981 3.369zM40.25 3.239C42.065 1.934 41.489.322 40.169 0h5.4c2.02 0 3.722 1.297 4.244 3.05-3.033-.293-8.084 1.612-12.072 6.478-4.045 4.945-7.457 10.98-7.457 10.98s-3.13.893-4.762 1.376c.51-1.049 2.787-5.383 6.624-10.783 3.242-4.56 6.55-6.753 8.104-7.866v.004zM19.696 23.552C13.61 25.375 4.107 30.2 0 35.705V17.358c1.496 2.22 3.46 3.55 6.027 4.154 3.233.653 6.46.173 9.35-1.4a15.169 15.169 0 003.553-2.64c2.154-2.12 1.37-4.67-.387-5.185-1.771-.506-3.465.653-4.346 2.034-.884 1.385-2.06 3.093-5.83 3.093-1.896 0-4.138-1.182-4.715-3.868-.95-4.093 4.334-8.298 9.115-9.026 7.723-1.17 5.776 3.886 9.465 6.434.929.677 3.373 1.489 5.6-.02-1.181 1.658-6.202 9.268-8.134 12.62l-.002-.002zM42.15 9.616c2.284-2.56 5.986-4.297 7.544-2.429 1.549 1.875-3.122 5.584-6.127 7.435-2.99 1.842-5.896 3.439-8.376 4.463 1.545-2.85 5.323-7.636 6.959-9.467v-.002zm1.306 9.172c1.81-1.213 4.729-3.439 6.498-5.185v7.195c-1.394 1.674-9.407 10.565-12.73 13.598-5.677 5.167-9.488 4.388-8.017-1.02a43.413 43.413 0 013.755-9.233c1.91-.726 6.74-2.832 10.494-5.353v-.002z"/></svg>