<svg xmlns="http://www.w3.org/2000/svg" width="50" height="48" viewBox="0 0 50 48" preserveAspectRatio="xMinYMin meet"><path fill="#1A9F29" d="M15.231 30.079L47.27 11.738C49.055 15.092 50 18.969 50 23.057 50 36.89 38.76 48 25 48 11.134 48 0 36.786 0 23.057c0-.524 0-1.153.105-1.677l15.126 8.699zM45.903 9.328L15.336 26.934.526 18.445c.104-.943.314-1.781.63-2.724l14.075 8.07L44.328 7.126l1.575 2.2zM42.332 5.03L15.126 20.646 1.996 13.1c.42-.838.84-1.676 1.26-2.41l11.975 6.812L40.126 3.144c.735.629 1.47 1.153 2.206 1.887zm-4.727-3.564L15.126 14.358l-10.4-5.974c.631-.733 1.156-1.467 1.787-2.096l8.718 4.926L34.664 0c1.05.42 1.996.943 2.941 1.467z"/></svg>