<svg xmlns="http://www.w3.org/2000/svg" width="50" height="50" viewBox="0 0 50 50" preserveAspectRatio="xMinYMin meet"><g fill="none"><path fill="#00AFAA" d="M0 15.484h11.708a59.836 59.836 0 0021.996 22.04v11.73C17.856 43.838 5.408 31.364.004 15.479"/><path fill="#00539B" d="M33.704 15.484v22.045a59.836 59.836 0 01-21.992-22.045h21.992z"/><path fill="#00AFAA" d="M33.704 15.484H11.708A59.223 59.223 0 015.525.004h12.73a15.428 15.428 0 0110.924 4.532 15.497 15.497 0 014.525 10.948"/><path fill="#F39A00" d="M49.15 30.963v12.75a58.832 58.832 0 01-15.446-6.189v-22.04c8.531.002 15.446 6.933 15.446 15.483"/><path fill="#00AFAA" d="M33.578.004a20.502 20.502 0 0015.568 15.602V.004H33.578z"/></g></svg>