<svg xmlns="http://www.w3.org/2000/svg" width="32" height="50" viewBox="0 0 32 50" preserveAspectRatio="xMinYMin meet"><defs><linearGradient id="a" x1="100%" x2="0%" y1="87.86%" y2="87.86%"><stop offset="0%" stop-color="#B8F6F7"/><stop offset="100%" stop-color="#00CCD5"/></linearGradient></defs><g fill="none"><path fill="url(#a)" d="M3.655 42.19c12.395-4.957 20.52-11.296 24.369-19.018v23.169H3.655c.096-.77.096-2.154 0-4.15z"/><path fill="url(#a)" d="M13.403 13.415c2.793 2.66 6.448 4.178 10.966 4.56v6.106c-2.897 4.936-6.552 8.488-10.966 10.656.037-5.052 0-15.843 0-21.322z"/><path fill="#10C8D2" d="M30.461 19.513h-3.255v-1.22h4.473V50H0V18.293h10.608v1.22h-9.39v29.265h29.245z"/><path fill="url(#a)" d="M14.62 0c1.63 2.33 3.66 4.026 6.094 5.087 0 3.796.014 7.222 0 9.744-2.236 0-4.268-1.32-6.093-3.957V0z"/></g></svg>