<svg xmlns="http://www.w3.org/2000/svg" width="50" height="50" viewBox="0 0 50 50" preserveAspectRatio="xMinYMin meet"><path fill="#FE5000" d="M41.6.1H8.3C3.7.1 0 3.8 0 8.4v33.3C0 46.3 3.7 50 8.3 50h33.3c4.6 0 8.3-3.7 8.3-8.3V8.4c0-4.6-3.7-8.3-8.3-8.3m5.7 40.7c-.1.1-.2.1-.3.1-6.4-3.9-14-6.1-22-6.1S9.4 37 2.9 40.9c-.1.1-.3 0-.3-.1-.1-.1-.1-.3.1-.3 5.8-4.5 10.9-10.2 14.7-17 3.9-6.7 6.3-13.9 7.3-21.2 0-.1.1-.2.3-.2.1 0 .2.1.3.2 1 7.3 3.4 14.5 7.3 21.2 3.9 6.7 8.9 12.4 14.8 16.9 0 .1 0 .3-.1.4"/></svg>