<svg xmlns="http://www.w3.org/2000/svg" width="50" height="50" viewBox="0 0 50 50" preserveAspectRatio="xMinYMin meet"><g fill="none"><path fill="#FFF" d="M49.841 24.867c0 13.736-11.143 24.867-24.894 24.867C11.195 49.734.049 38.603.049 24.867.049 11.133 11.195 0 24.947 0 38.698 0 49.84 11.133 49.84 24.867"/><path fill="#E2001A" d="M13.522 24.867l11.425 11.41 11.424-11.41-11.425-11.41-11.424 11.41zm-11.71 0c0-12.764 10.358-23.11 23.135-23.11 12.776 0 23.135 10.346 23.135 23.11s-10.359 23.11-23.135 23.11c-12.777 0-23.136-10.346-23.136-23.11z"/></g></svg>