<svg xmlns="http://www.w3.org/2000/svg" width="47" height="50" viewBox="0 0 47 50" preserveAspectRatio="xMinYMin meet"><path fill="#384249" d="M35.916 46.732v2.914h-2.742v-2.914H22.247V35.08h24.636v11.653H35.916zm0-8.74v5.827h8.186v-5.827h-8.186zm-2.742 5.827v-5.827H24.95v5.827h8.225zm-13.669-8.74h-.04v11.653H3.056v2.914H.313V35.079h19.192zm-2.742 8.74h-.039v-5.827H3.055v5.827h13.708zM.313 32.165h46.53v-2.913H.313v2.913zm43.789-5.826h2.741V.119h-4.112v.038l-4.113 4.37V.119h-4.112l-6.854 7.284v18.937h2.741V8.859l5.484-5.828V26.34h2.741V8.859l5.484-5.828V26.34zm-30.08 0V.119h10.927v26.22H14.022zM16.763 3.03v20.394h5.484V3.031h-5.484zM.313 26.34V7.402L7.168.118h4.073v26.22H.313zm2.742-17.48v14.566h5.483V3.031L3.055 8.858z"/></svg>