<svg xmlns="http://www.w3.org/2000/svg" width="50" height="37" viewBox="0 0 50 37" preserveAspectRatio="xMinYMin meet"><path fill="#C8102E" d="M25 .002V0c13.83 0 24.998 10.814 25 24.162 0 4.728-1.5 9.123-3.834 12.838h-12c3.668-2.871 6.001-7.263 6.001-12.333 0-8.448-6.833-15.372-15.167-15.372S9.835 16.219 9.835 24.667c0 5.07 2.333 9.462 5.998 12.333H3.834C1.334 33.285 0 28.89 0 24.162 0 10.814 11.166.002 25 .002zm-8.167 28.213h16.334C32 31.764 28.834 34.298 25 34.298c-3.832 0-7-2.534-8.167-6.083z"/></svg>