<svg xmlns="http://www.w3.org/2000/svg" width="50" height="50" viewBox="0 0 50 50" preserveAspectRatio="xMinYMin meet"><defs><linearGradient id="a" x1="134.293%" x2="-7.005%" y1="14.196%" y2="157.959%"><stop offset="0%" stop-color="#FFFFFE"/><stop offset="100%" stop-color="#B29566"/></linearGradient><linearGradient id="b" x1="113.009%" x2="-29.12%" y1="-7.604%" y2="135.449%"><stop offset="0%" stop-color="#FFFFFE"/><stop offset="100%" stop-color="#B29566"/></linearGradient><linearGradient id="c" x1="94.811%" x2="-11.119%" y1="6.471%" y2="149.722%"><stop offset="0%" stop-color="#FFFFFE"/><stop offset="100%" stop-color="#B29566"/></linearGradient><linearGradient id="d" x1="113.075%" x2="-29.115%" y1="-7.521%" y2="135.436%"><stop offset="0%" stop-color="#FFFFFE"/><stop offset="100%" stop-color="#B29566"/></linearGradient></defs><g fill="none" fill-rule="evenodd"><path fill="#FFFFFE" d="M50 25.001C50 38.806 38.808 50 25.001 50 11.195 50 0 38.806 0 25.001 0 11.194 11.195 0 25.001 0 38.808 0 50 11.194 50 25.001"/><path fill="#D8232A" d="M1.478 25.003C1.5 37.978 12.005 48.508 24.999 48.508c12.993 0 23.497-10.53 23.521-23.505C48.496 12.024 37.992 1.496 25 1.496c-12.997 0-23.5 10.528-23.522 23.507m-1.478 0C0 11.187 11.197.027 25 0c13.8.027 24.998 11.187 25 25.003C49.998 38.81 38.8 49.977 25 50 11.196 49.977 0 38.811 0 25.003"/><path fill="#D9292A" d="M22.69 16.228v4.904L12.17 31.55V16.228L17.431 11l5.258 5.228zm14.32 0l.037 4.904-5.721 5.678-5.705-5.667v-4.915L20.367 11h11.385l5.258 5.228zM24.155 22.128l.002 1.761 4.169 4.141-7.973 7.924h-8.331L9 37.198h11.876l9.216-9.168zM37.233 25.134v10.819l-10.877-.002-3.024 1.248h15.154V22.127z"/><path fill="url(#a)" d="M26.255 35.954l10.991-.008-.014-10.789z"/><path fill="url(#b)" d="M23.333 37.202l3.04-1.248 10.859-10.797 1.256-3.003z"/><path fill="url(#c)" d="M12.001 35.957l8.365.011 7.951-7.932-4.153-4.125z"/><path fill="url(#d)" d="M9.001 37.207l3.074-1.253 12.089-12.043-.004-1.776z"/></g></svg>