<svg xmlns="http://www.w3.org/2000/svg" width="49" height="49" viewBox="0 0 49 49" preserveAspectRatio="xMinYMin meet"><path fill="#00BBE4" d="M40.93 25.605c0 5.956-3.114 11.29-8.096 13.869l-1.157.533c-.356.178-.801.267-1.157.267-.8 0-1.424-.356-1.78-.89a2.736 2.736 0 01-.266-1.688c.178-.89.8-1.245 1.067-1.423 2.937-1.333 4.805-4.356 4.805-7.646v-8.623c0-3.29-1.868-6.313-4.805-7.646 0 0-.89-.445-1.067-1.423-.09-.622 0-1.155.266-1.6.356-.622.98-.89 1.78-.89.356 0 .8.09 1.157.268 0 0 1.068.533 1.157.533 4.982 2.667 8.097 8.002 8.097 13.87v2.489zM19.31 36.362c.178.089.89.533 1.067 1.422.09.623 0 1.156-.267 1.69-.355.622-.978.889-1.78.889-.355 0-.8-.09-1.156-.267l-1.157-.533c-4.983-2.668-8.097-8.002-8.097-13.87v-2.489c0-5.956 3.114-11.29 8.097-13.869.09 0 1.157-.533 1.157-.533.356-.178.8-.267 1.157-.267.8 0 1.424.355 1.78.889.266.533.355 1.067.266 1.6-.178.978-1.067 1.423-1.067 1.423-2.937 1.333-4.805 4.267-4.805 7.645v8.624c-.09 3.29 1.868 6.312 4.805 7.646zM24.38 0C10.945 0 0 10.846 0 24.36c0 13.513 10.945 24.36 24.38 24.36 13.525 0 24.38-10.936 24.38-24.36C48.85 10.846 37.906 0 24.38 0z"/></svg>