<svg xmlns="http://www.w3.org/2000/svg" width="50" height="50" viewBox="0 0 50 50" preserveAspectRatio="xMinYMin meet"><g fill="none"><path fill="#1B3F92" d="M34.415 19.04v-.053c.953-.302 2.225-1.095 2.225-3.182 0-2.35-1.907-3.428-4.591-3.428h-4.557v5.62h-2.68c-3.601 0-4.345 2.526-4.345 3.905 0 1.96 1.13 2.827 3.216 3.866 1.27.637 2.786 1.025 2.786 2.477 0 .76-.703 1.68-2.221 1.68h-2.826c.424-.727.6-1.519.6-2.211 0-.898-.317-4.505-5.332-4.505h-4.096v13.905h2.789v-6.059l1.13 1.13h7.629c3.562 0 5.258-1.836 5.258-4.027 0-.778-.142-1.4-.39-1.908h2.862c4.413 0 5.438-2.193 5.438-3.911 0-1.742-1.129-3.036-2.895-3.3zM16.69 29.924h-1.307v-4.544h1.307c1.625 0 2.366.99 2.366 2.192 0 1.116-.67 2.352-2.366 2.352zm10.803-8.623v3.373c-.67-.403-1.444-.723-2.256-1.076-.883-.388-1.836-.882-1.836-2 0-.566.353-1.41 2.047-1.41h3.14l-1.095 1.113zm2.79-6.75h1.271c2.156 0 2.26 1.326 2.26 1.73 0 .602-.317 1.717-2.154 1.717h-1.378v-3.447zm1.59 9.507h-1.59v-3.872h1.59c1.942 0 2.471.938 2.471 1.928 0 .991-.705 1.944-2.47 1.944z"/><path fill="#1B3F92" d="M49.435 12.066c0-6.65-5.385-12.039-12.028-12.039H20.415c-5.483 0-10.159 3.698-11.578 8.811h20.54c7.9 0 11.255 3.679 11.255 12.311V40.66c5.095-1.42 8.803-6.117 8.803-11.585v-17.01z"/><path fill="#EA5B0C" d="M0 37.431c0 6.65 5.386 12.039 12.028 12.039H29.02c5.483 0 10.158-3.698 11.578-8.811h-20.54c-7.9 0-11.255-3.679-11.255-12.311V8.837C3.708 10.257 0 14.954 0 20.422v17.01z"/></g></svg>