<svg xmlns="http://www.w3.org/2000/svg" width="49" height="38" viewBox="0 0 49 38" preserveAspectRatio="xMinYMin meet"><g fill="none" fill-rule="evenodd"><path fill="#123B56" d="M47.679 27.81H30.02v2.107h12.09c-.422.383-.791.666-1.497 1.178l-.006.006c-4.297 2.805-9.946 4.372-15.913 4.416v-12.88h20.261v-2.255H10.918c.05-.623.135-1.22.262-1.819.041-.217.087-.442.126-.614.138-.59.31-1.132.508-1.613l.313.107c.403.133.818.272 1.253.407 1.134.347 2.21.591 3.29.75l.304.04c.83.17 1.79.303 2.85.396.846.073 1.688.11 2.618.15v-2.433a34.928 34.928 0 01-2.395-.157c-.93-.088-1.836-.18-2.715-.353-.218 0-.447-.045-.644-.09-1.267-.227-2.336-.498-3.28-.826a3.871 3.871 0 01-.405-.114l-.136-.043c.122-.234.263-.45.409-.678.056-.086.112-.173.168-.263a13.975 13.975 0 013.267-3.327 13.08 13.08 0 015.52-2.31c.046 0 .095-.005.143-.01.023-.001.046-.001.068-.003V5.097l-.054.017c-.06.018-.121.029-.18.04-.067.01-.137.02-.205.045-1.786.13-3.582.382-5.338.75a25.748 25.748 0 00-3.285.96c-.697.208-1.38.46-2.151.795-.596.262-1.249.582-2.06 1.008-1.216.664-2.248 1.325-3.157 2.023-1.454 1.122-2.695 2.397-3.688 3.788a13.415 13.415 0 00-1.709 3.309A11.345 11.345 0 000 21.487v.045c0 3.938 2.133 7.771 6.014 10.796.225.158.463.328.7.499.224.16.447.319.66.468.428.267.887.532 1.33.789l.466.27c.566.301 1.18.573 1.772.836l.287.13c.626.27 1.288.528 2.15.834 1.086.362 2.19.673 3.286.926 2.54.57 5.191.86 7.883.86h.002c6.602 0 12.779-1.712 17.392-4.815.944-.583 1.755-1.276 2.505-1.94.647-.602 2.51-2.45 3.16-3.271l.07-.093h-.016l.018-.01zM8.92 11.646c.094-.057.2-.121.305-.199.61-.369 1.274-.702 1.915-1.026l.135-.068c.553-.275 1.09-.493 1.662-.724.157-.063.318-.129.479-.196.056-.02.11-.036.165-.054l-.224.223a15.957 15.957 0 00-2.153 2.642c-.111.156-.211.325-.31.49a8.702 8.702 0 01-.274.434 7.735 7.735 0 01-1.385-.974 5.192 5.192 0 01-.436-.473l.121-.075zM2.91 18.61c.31-.918.777-1.826 1.394-2.701.477-.631 1.06-1.368 1.783-2.055.134-.134.269-.257.4-.377.112-.105.23-.212.343-.324.565.723 1.353 1.375 2.338 1.938l.098.067c.1.067.221.15.344.217-.159.401-.336.874-.467 1.36l-.053.181c-.107.374-.22.759-.294 1.142-.133.789-.257 1.56-.304 2.325H2.485c.09-.646.23-1.226.424-1.773zm4.62 10.786l-.017.022c-.154.2-.312.402-.47.631-.325-.286-.66-.58-.957-.88-2.082-1.993-3.294-4.19-3.602-6.531h6.008c.085 1.216.298 2.395.65 3.605.129.524.306 1.044.512 1.506-.076.054-.15.1-.229.148-.079.05-.16.099-.245.158h-.044l-.015.01a8.489 8.489 0 00-1.591 1.33zm5.888 4.196c-.741-.267-1.422-.56-2.141-.922l-.29-.146c-.589-.298-1.198-.605-1.77-.949-.07-.035-.139-.068-.202-.124.059-.069.116-.152.177-.24l.136-.201a6.512 6.512 0 011.125-.914l.134-.076a2.19 2.19 0 01.123-.07c.082.122.164.254.243.383.081.137.168.277.253.402a16.856 16.856 0 002.148 2.594c.1.126.203.242.312.347a2.077 2.077 0 00-.248-.084zm9.022 1.79l-.128-.027a20.008 20.008 0 01-1.252-.272c-.817-.187-1.66-.512-2.736-1.053a12.608 12.608 0 01-1.614-1 12.542 12.542 0 01-3.265-3.323 9.883 9.883 0 01-.533-.822c.092-.041.184-.072.289-.11.068-.022.14-.048.215-.076.953-.31 2.085-.61 3.273-.875 1.81-.356 3.692-.572 5.751-.661v8.218zm0-10.65c-2.07.085-4.012.304-5.772.65a31.306 31.306 0 00-3.287.794c-.503.155-1.033.328-1.52.547a25.89 25.89 0 01-.49-1.527l-.064-.21a21.253 21.253 0 01-.386-2.348h11.52v2.094z"/><path fill="#CB183B" d="M48.557 20.377c0-.246-.036-.49-.073-.723l-.012-.076c-.629-4.68-4.894-9.295-8.647-11.05-2.24-1.326-5.02-1.834-7.47-2.282-2.125-.39-4.134-.757-5.516-1.583-.135-.09-.297-.182-.453-.27-.146-.082-.296-.166-.421-.248-.366-.236-1.537-1.246-2.353-2.193a7.106 7.106 0 01-.996-1.567L22.422 0v20.608h2.212V5.992c.332.319.729.606 1.271.922 1.226.724 3.353 1.124 5.607 1.548 2.366.444 4.815.904 6.772 1.787 4.823 2.194 7.806 7.345 8.106 10.213 0 .119.01.237.022.35.009.097.016.19.016.267v3.048H26.434v10.255h.058c.695 0 1.14-.038 1.844-.13l.174-.006v-8.143h20.135v-2.084c0-1.116 0-2.505-.088-3.642"/></g></svg>