<svg xmlns="http://www.w3.org/2000/svg" width="44" height="50" viewBox="0 0 44 50" preserveAspectRatio="xMinYMin meet"><g fill="none" fill-rule="evenodd"><path fill="#19502E" d="M21.817 49.115C9.787 49.115 0 39.332 0 27.305c0-6.912 3.172-13.265 8.7-17.43l.234-.177V0h12.52v5.496c.12-.001.241-.003.363-.003 12.028 0 21.813 9.786 21.813 21.812 0 12.027-9.785 21.81-21.813 21.81"/><path fill="#FFCB05" d="M15.505 27.655l4.541-4.463v-3.029l-4.541 4.439zM15.505 16.353l4.541-4.464V9.03l-4.541 4.441zM15.505 20.092l4.541-4.464v-2.857l-4.541 4.44zM14.203 9.066l-.603-.59V1.408h-.687v6.399l-.598-.59V1.408h-.686V6.55l-.603-.59V1.408h-.684V8.15l4.545 4.463V1.408h-.684zM15.505 23.831l4.541-4.463V16.51l-4.541 4.44zM10.342 23.191l4.545 4.463v-3.053l-4.545-4.438zM19.364 5.962l-.602.588V1.408h-.687V7.22l-.601.587V1.408h-.682v7.066l-.605.591V1.408h-.682v11.205l4.542-4.464V1.408h-.683zM10.342 11.889l4.545 4.464V13.47l-4.545-4.44zM10.342 15.628l4.545 4.464v-2.883l-4.545-4.438zM10.342 19.368l4.545 4.463V20.95l-4.545-4.439zM25.576 24.5a1.228 1.228 0 11-2.254-.676l.342-.576a1.02 1.02 0 010-1.529l-.342-.58a1.228 1.228 0 112.254-.671c0 .5-.577 1.692-.577 1.692v.647s.577 1.192.577 1.693m11.836-2.776H26.363c.232-.365.367-.793.367-1.257a2.381 2.381 0 00-4.763 0c0 .517.166.989.445 1.38a.766.766 0 00-.345.637c0 .266.14.5.345.635-.279.39-.445.863-.445 1.38a2.383 2.383 0 004.763 0c0-.462-.135-.892-.367-1.256h8.221v.499h-.812v.7h.812v.726h-.812v1.338h.812V25.9h1.201v.606h.812v-1.338h-.812v-.726h.812v-.7h-.812v-.5h1.627a.581.581 0 00.573-.583v-.353a.58.58 0 00-.573-.582"/><path fill="#FFF" d="M6.21 20.277v2.966c0 2.836 1.237 4.658 1.946 5.367.418.41 4.642 4.566 4.702 4.623 1.314 1.286 1.544 1.71 1.836 2.44v-3.287c0-2.928-1.484-4.065-2.246-4.808-1.781-1.737-2.974-2.88-3.935-3.836-1.821-1.823-2.303-3.465-2.303-3.465m6.237 14.644c-1.78-1.74-2.974-2.881-3.933-3.839-1.822-1.822-2.305-3.058-2.305-3.058v2.56c0 2.835 1.29 4.646 1.944 5.387.417.406 4.654 4.548 4.706 4.604 1.313 1.284 1.543 1.893 1.836 2.624v-3.473c0-2.926-1.484-4.063-2.248-4.805"/><path fill="#FFF" d="M21.817 6.901c-.33 0-.654.008-.976.022v1.391c.322-.017.646-.025.976-.025 10.503 0 19.018 8.514 19.018 19.016 0 10.5-8.515 19.014-19.018 19.014-10.505 0-19.022-8.514-19.022-19.014 0-5.83 2.623-11.044 6.754-14.531v-1.776c-4.945 3.725-8.14 9.64-8.14 16.307 0 11.267 9.136 20.402 20.408 20.402 11.268 0 20.405-9.135 20.405-20.402 0-11.27-9.137-20.404-20.405-20.404"/><path fill="#FFF" d="M36.252 37.956c.318-.43.617-.876.898-1.333v-2.74h-.898v4.073zm2.617-5.067c.128-.395.245-.793.345-1.194h-2.962v.729h.45c.79-.024 1.67-.035 2.167.465M18.352 39.731h.802v-8.134h-.802z"/><path fill="#FFF" d="M33.234 35.775l-.868-.828.868-4.494v5.322zM16.5 30.026h2.655c.685 0 1.161.142 1.443.408.28.263.407.741.407 1.428v7.602c0 .689-.127 1.164-.407 1.43-.422.42-1.195.42-1.84.42-.141-.011-.28-.011-.406-.011v3.603c.265.05.532.1.803.138v-2.959c1.22 0 2.022-.416 2.397-1.25v4.403c.087.001.174.003.265.003.168 0 .336-.002.505-.007v-13.23c0-.701.142-1.193.405-1.473.265-.28.746-.42 1.42-.42.686 0 1.693-.1 2.214.42.268.28.391.772.391 1.473v3.898h-1.817v-4.166h-.788V45.09c.263-.032.523-.073.788-.117v-8.286h1.817v7.866a17.59 17.59 0 001.11-.356v-7.201c0-.814.196-1.43 1.026-1.71l-.915-5.009h1.84l.306 5.474h.227l.307-5.474h1.937l-1.037 5.01c.87.305 1.037.84 1.037 1.709v4.652c.54-.407 1.056-.84 1.543-1.302v-10.11h5.386a25.7 25.7 0 00.103-.73H27.02l.177.906c-.399-.733-1.156-1.101-2.262-1.101h-.788c-1.337 0-2.149.53-2.456 1.59-.286-1.109-1.132-1.66-2.536-1.66h-3.453v14.932c.263.095.532.184.798.268V30.026z"/><path fill="#FFF" d="M29.812 43.363c.28-.139.556-.286.827-.439V36.77h-.827v6.594z"/></g></svg>