<svg xmlns="http://www.w3.org/2000/svg" width="50" height="50" viewBox="0 0 50 50" preserveAspectRatio="xMinYMin meet"><path fill="#414042" d="M25 0C11.166 0 0 11.166 0 25s11.166 25 25 25c13.833 0 25-11.166 25-25 .098-13.834-11.167-25-25-25zm0 47.43c-12.352 0-22.43-9.98-22.43-22.331C2.57 12.747 12.647 2.668 25 2.668c12.45 0 22.43 9.98 22.43 22.43 0 12.353-9.98 22.333-22.43 22.333zm8.498-15.71c.691.197 1.68.296 2.272 0-3.063-.791-4.743-5.139-11.758-5.732-.297 0-.989.099-.593-.593.395-.691 3.162-2.569 3.162-2.569-.494 0-2.866.198-3.558.297-.691.098-.889-.1-.889-.593 0 0-1.383 1.284-.692 1.976.1.099.396.099.79 0 .297-.099.89-.297 1.285-.395 0 0 .1 0 .1.098-.198.297-.594.89-.692 1.186-.1.396-.198.593.494.79.593.198 3.853 1.187 5.83 2.57 1.976 1.285 6.62 4.94 6.324 11.66 1.087-.79 2.075-1.581 2.668-2.174.098-.099.098-.395.098-.395-.889-1.976-2.766-4.842-4.841-6.127zm-5.435 11.758c.692-.197 2.075-.494 3.26-.89.198-.098.297-.296.297-.394.692-1.878.988-6.028-1.087-8.3 1.186 2.47.692 6.62-2.47 9.584zm4.94-16.897c3.261 1.383 6.423 4.743 8.004 8.004.297-.494.989-1.68 1.483-2.964 0-.198-.1-.297-.198-.396-2.767-2.371-6.126-4.051-9.288-4.644zm8.4-4.051c-1.186.593-2.668.79-3.558.79 1.779.692 4.15 1.976 5.83 3.36-.098-.593 0-1.186 0-1.581 0-.198-.098-.297-.098-.297-1.977-.79-3.163-1.087-3.163-1.087.495-.197.89-.79.989-1.185zm-4.348-9.882c-.099 1.186.89 1.878 1.383 2.174.494.297 2.47 1.482 2.866 1.779.197.197-.198.79-.593 1.087-.297.988-.988 1.58-1.383 1.68-.692.197-1.186 0-1.186 0-.198.197-.297.395-.494.494-.297.197-.396.098-.297-.1 0-.197 0-.296-.099-.493-.197-.297-.395 0-.691.099-.297.098-.395-.297-.395-.297-1.483-.296-2.174.494-2.174.494 1.087.198 1.58.89 1.68 1.186.098.296.691.296.988.099.098-.099.296-.198.296.099 0 .098 0 .296-.099.494.494.296.692.296.494.593-.593.988-1.087.889-1.284.79a21.488 21.488 0 00-5.534-1.186l.692-.691c-8.794 0-10.277 1.087-10.77 1.68-.297.395 0 .988 0 .988-1.088.197-3.657.691-4.843 1.68-1.086.988-1.185 3.063-1.185 3.853a6.492 6.492 0 011.68-1.186c1.185-.592 2.569-.494 4.347-.395.79 0 1.087.297 1.384.79.197.396-.297.396-.593.198-1.482-.988-2.075.79-3.656.396.494.592 1.185.592 1.58.494 1.582-.593 1.977 0 2.076.197-1.087-.099-2.668.593-3.459.79-.988.198-1.976.297-1.976.297.692.79 1.581.79 2.273.79.691 0 2.964-.197 4.348 0 3.458.396 3.656 3.558 1.68 5.534 1.68-.494 2.272-1.976 2.272-1.976 1.186 5.336-3.755 8.202-7.806 7.411-1.976-.395-3.557-1.284-4.644-2.075a12.04 12.04 0 01-1.779-1.482c2.668.692 6.72.692 9.387-.494-5.336.099-8.893-1.285-11.363-2.668-.988-.494-1.285-.79-1.581-1.384-.79-1.383-1.285-2.668-1.779-4.545 2.075 1.779 6.423 4.15 8.498 4.348-5.534-3.162-8.201-7.807-8.498-8.4-.198-.395-.593-.889-.593-1.877.099-1.383.494-3.36.988-4.743.692 1.877 2.273 5.237 4.25 6.818-1.977-4.15-2.273-9.387-2.175-10.375 0-.396.1-.79.494-1.285.495-.692 1.581-2.075 2.767-3.063-.197 1.482-.593 4.446-.099 7.312.79-4.447 2.47-7.905 3.657-9.486.197-.297.395-.494.889-.79.494-.297 1.976-.89 3.755-1.285-1.482 1.087-2.767 3.063-3.162 4.249 5.138-4.94 10.079-4.94 13.043-6.225.692-.396.988.098.988.494-.099.494-.296 1.284-.296 1.284 1.778.395 2.569 1.285 2.569 1.285-.099-.198 0-.593 0-.593 2.47 2.174 3.26 3.854 3.162 5.138zm-12.55 3.558s.198-3.36 3.163-5.93c-2.668 1.088-4.743 5.04-4.645 7.412.297-.1.89-.396 1.384-.593 0 0-.395 1.284-.297 3.458.79-.098 1.483-.197 2.372-.197-1.285-.494-1.285-2.965-.395-4.25.296-.395 0-.395-.396-.296-.494.1-.691.198-1.185.396zm5.633-9.684c.198-.1.099-.396-.395-.1-.692.495-1.482 1.088-1.977 2.175-.098.296 0 .494.297.296.593-.296 1.284-.494 1.284-.494-.197-.593.495-1.482.791-1.877zm5.632 6.818c.198-.297.198-.89 0-1.68-.197 1.285-.494 1.285-.79 1.186-.593-.198-1.581-.297-1.976-.198 1.086.89 1.778 2.372 1.778 2.372.099-.494-.197-1.186-.296-1.384-.1-.197 0-.197.197-.098.1 0 .494.098.593.197.395.099.395 0 .494-.395z"/></svg>