<svg xmlns="http://www.w3.org/2000/svg" width="50" height="50" viewBox="0 0 50 50" preserveAspectRatio="xMinYMin meet"><g fill="none"><path fill="#000" d="M1.656 48.017h46.36V1.657H1.656v46.36zM0 49.673h49.673V0H0v49.673z"/><path fill="#FFED00" d="M1.656 48.017h46.36V1.658H1.656z"/><path fill="#000" d="M24.836 30.5L10.57 44.763l-5.66-5.654 14.268-14.27-2.977-2.978v-5.88l-2.067-2.07v5.129l-1.799 1.8L5.1 13.604l-1.789 1.788c.013-1.349.282-5.254 3.594-8.51 3.575-3.438 7.435-1.889 8.755-.567l7.23 7.232-1.845 1.842 3.791 3.792 3.79-3.792-1.843-1.842 7.228-7.232c1.32-1.322 5.18-2.871 8.754.567 3.313 3.256 3.583 7.161 3.596 8.51l-1.79-1.788-7.233 7.235-1.799-1.8v-5.128l-2.069 2.07v5.88l-2.976 2.979 14.27 14.27-5.66 5.653L24.835 30.5z"/></g></svg>