<svg xmlns="http://www.w3.org/2000/svg" width="48" height="47" viewBox="0 0 48 47" preserveAspectRatio="xMinYMin meet"><g fill="none"><path fill="#003791" d="M28.589.495v12.121h-4.792c-6.054 0-10.932 4.783-10.932 10.72 0 5.936 4.878 10.719 10.93 10.719h4.794v12.121c10.929-2.06 19.088-11.46 19.088-22.842 0-11.295-8.157-20.695-19.088-22.84"/><path fill="#FF4B5F" d="M23.797 37.846c-8.157 0-14.802-6.513-14.802-14.51 0-7.996 6.643-14.511 14.797-14.511h.927V0h-.925C10.68 0 0 10.472 0 23.334c0 12.948 10.68 23.42 23.797 23.42h.924V37.85h-.924v-.005z"/></g></svg>