<svg xmlns="http://www.w3.org/2000/svg" width="50" height="47" viewBox="0 0 50 47" preserveAspectRatio="xMinYMin meet"><g fill="none" fill-rule="evenodd"><path fill="#0E9E48" d="M.253 46.375H0V47h34.632a15.125 15.125 0 0010.786-4.559 15.674 15.674 0 004.458-10.988v-.16H15.247C15.174 39.66 8.475 46.4.253 46.374zm34.625-30.35c.114 8.157 6.653 14.703 14.666 14.687h.334c-.414-8.156-6.978-14.583-15-14.688z"/><path fill="#165A9A" d="M14.906 30.947c-.112-8.153-6.642-14.7-14.653-14.688-.088 0-.167.08-.253.08.442 8.093 6.944 14.467 14.906 14.608zM15.246 0a15.074 15.074 0 00-10.79 4.531A15.623 15.623 0 000 15.51v.176h34.632C34.692 7.343 41.347.606 49.546.588h.332V0H15.246z"/></g></svg>