<svg xmlns="http://www.w3.org/2000/svg" width="50" height="49" viewBox="0 0 50 49" preserveAspectRatio="xMinYMin meet"><g fill="none" fill-rule="evenodd"><path fill="#004772" d="M44.609 2.849l.343-.165c-.16.078-.274.13-.343.165zm4.416-1.603c-.273-.295-3.968 1.387-3.968 1.387l.167-.11c.726-.42 1.88-1.024 1.449-1.515-.217-.242-.705-.134-2.113.664-.662.377-4.12 1.722-7.696 3.137-2.95 1.196-8.306 3.363-8.785 3.86-.014.016-.027.027-.039.045-.05.077-.098.173-.147.27-.184.388-.37.981-.552 1.728l-.019.07-.032.14c-.218.99-.414 2.201-.63 3.542-.63 4.069-1.275 10.124-1.275 10.124s-.162 4.123-.58 6.09a5.446 5.446 0 01-.247.823 3.743 3.743 0 01-.106.302v-.004c-.142.365-.336.71-.605.98-.825.845-2.857.575-3.419.51-1.312-.15-2.598-1.006-2.777-1.232-.17-.23-1.077-1.365-2.242-1.47-.344-.031-1.752.2-2.215.186-.463-.014-1.11-.622-1.84-.695-.743-.085-1.924.61-1.924.61s2.903 1.01 3.258 1.466c.353.459 1.225 1.609 2.282 2.06 1.058.45 4.752 4.348 4.752 4.348s.753.716 2.006 1.654c-1.095.36-2.249.614-3.447.737-8.262.846-15.32-4.223-16.243-11.767a12.412 12.412 0 01.353-4.869c.511-1.893 1.295-3.71 2.672-5.284 2.507-2.88 5.94-4.761 9.944-5.166 2.44-.253 4.922.097 7.201.928-.017-.243-.035-.483-.05-.723a16.66 16.66 0 00-7.274-.852c-4.11.422-7.792 2.276-10.369 5.23-1.832 2.086-2.943 4.553-3.275 7.151-.068.36-.077.62-.12 1.091-.073.884-.049 2.563.063 3.477.938 7.654 8.488 13.164 16.869 12.306a16.405 16.405 0 004.996-1.318c1.217.807 2.683 1.662 4.277 2.305 3.943 1.602 8.781 1.774 9.858 1.897 2.257.27 4.278 2.906 4.908 3.432.617.52 4.846-.306 4.846-.306s-.304-.792-.48-1.806c-.177-1.01-1.386-1.467-1.622-1.728-.238-.26-5.678-2.529-6.55-3.031-.862-.498-1.96-1.542-3.097-3.31-1.122-1.776-.646-3.098-.46-3.432.2-.33.637-.399.891-.838.267-.444.056-.478.03-.702-.022-.226.072-.39.304-.778.233-.384.137-.35.137-.35l.05-.48c.047-.48 0 0 .1-.163l.094-.17s-.024-.227.077-.392c.095-.162-.118-.334-.077-.532.042-.194.096-.165.177-.55.07-.393.033-.2.046-.618.024-.42.132-.225.364-.464.215-.248-.232-.548-.232-.548s.031-.188.402-.93c.365-.75 0 0 .103-.303.106-.31-.129-.57-.178-.87-.05-.32.042-.207.11-.592.07-.391 0 0 .135-.361.132-.357.079-.53.079-.53l-.249-.764.131-.216c.133-.224-.003-.65-.003-.65l-.34-.878s.014-.419.056-.615c.037-.2-.3-1.075-.3-1.075l.216-.889-.315-1.292-.209-1.1s-.035-1.658-.037-2.301c-.015-.64-.015-1.422.112-2.293.12-.865 2.853-1.924 3.15-2.427.288-.493-1.658.038-1.658.038s3.435-.931 3.67-1.325c.176-.294-2.246.14-2.246.14-.215.039 0 0 0 0 .935-.193 3.41-.75 4.255-1.414.951-.777-1.666-.18-2.086-.076.428-.106 3.308-.821 3.705-1.616.232-.455-2.153-.124-2.153-.124 1.192-.282 2.612-.668 3.482-1.07 1.714-.786 1.814-1.382 1.469-1.548-.347-.167-3.177.708-3.177.708l-.148.047.148-.047c.818-.289 1.72-.642 2.241-.962 1.093-.665 2.44-1.492 1.971-2.012z"/><path fill="#00A3DA" d="M6.117 17.904l2.765-3.59-3.373 3.074-1.54-5.18.27 5.264-2.827-1.711 2.58 2.447-3.6.908 3.649-.167-3.016 3.853 3.587-3.264 1.483 4.787-.258-4.776 2.716 1.616-2.618-2.48 3.606-.94-3.424.159zM41.713.216c-.267-.282-2.019.53-2.019.53s-10.678 4.697-15.386 7.03c-1.013.5-2.267 1.29-2.276 2.802-.023 4.857 1.022 12.008 1.55 15.773.528 3.765.887 5.327.87 5.452.018-.132.213-.466.354-1.125.417-1.967.579-6.09.579-6.09s.645-6.055 1.275-10.124c.432-2.709.8-4.896 1.391-5.768.381-.555 8.999-3.94 10.502-4.58 1.837-.783 2.042-.988 2.079-1.548.038-.56-1.921.062-1.921.062s1.69-.834 2.302-1.23c.621-.392.966-.904.7-1.184z"/></g></svg>