<svg xmlns="http://www.w3.org/2000/svg" width="50" height="50" viewBox="0 0 50 50" preserveAspectRatio="xMinYMin meet"><g fill="none"><path fill="#EE3124" d="M49.887 25.402c0 13.582-11.152 24.564-24.943 24.564C11.152 49.966 0 38.984 0 25.402 0 11.821 11.152.838 24.944.838c13.79.084 24.943 11.067 24.943 24.564z"/><path fill="#FFF" d="M23.326 18.612s2.895-3.69 3.15-4.108c.255-.42.426-.839-.426-1.258-.766-.503-3.405-2.012-3.916-2.347-.51-.42-.425-1.845 1.107-2.096 1.532-.336 14.813-1.342 19.92-.839 5.194.503 4.428 2.013 4.513 3.186 0 1.174-2.043 2.85-4.853 5.366 0 0-4.682 4.275-8.002 7.126-3.405 2.934-14.217 11.905-16.345 13.498-2.129 1.509-10.301 7.545-10.812 7.88-.51.42-2.043 1.593-2.81.755-.766-.839 0-1.76.426-2.264.426-.587 16.856-23.474 18.048-24.9z"/><path fill="#FFF" d="M23.326 18.612s2.895-3.69 3.15-4.108c.255-.42.426-.839-.426-1.258-.766-.503-3.405-2.012-3.916-2.347-.51-.42-.425-1.845 1.107-2.096 1.532-.336 14.813-1.342 19.92-.839 5.194.503 4.683 2.348 4.513 3.186-.34 1.174-2.043 2.85-4.853 5.366 0 0-4.682 4.275-8.002 7.126-3.405 2.934-14.217 11.905-16.345 13.498-2.129 1.509-10.301 7.545-10.812 7.88-.51.42-2.043 1.593-2.81.755-.766-.839 0-1.76.426-2.264.426-.587 16.856-23.474 18.048-24.9z"/></g></svg>